<?xml version="1.0" encoding="UTF-8" standalone="no"?>
<svg
   version="1.1"
   style="display: block;"
   viewBox="0 0 2048 2048"
   width="1024"
   height="1024"
   preserveAspectRatio="none"
   id="svg19"
   sodipodi:docname="golden-ring.svg"
   inkscape:version="1.4.3 (0d15f75042, 2025-12-25)"
   inkscape:export-filename="golden-ring.png"
   inkscape:export-xdpi="48"
   inkscape:export-ydpi="48"
   xmlns:inkscape="http://www.inkscape.org/namespaces/inkscape"
   xmlns:sodipodi="http://sodipodi.sourceforge.net/DTD/sodipodi-0.dtd"
   xmlns="http://www.w3.org/2000/svg"
   xmlns:svg="http://www.w3.org/2000/svg">
  <sodipodi:namedview
     id="namedview19"
     pagecolor="#ffffff"
     bordercolor="#000000"
     borderopacity="0.25"
     inkscape:showpageshadow="2"
     inkscape:pageopacity="0.0"
     inkscape:pagecheckerboard="true"
     inkscape:deskcolor="#d1d1d1"
     inkscape:zoom="0.73632812"
     inkscape:cx="505.20955"
     inkscape:cy="575.83024"
     inkscape:window-width="1920"
     inkscape:window-height="962"
     inkscape:window-x="3840"
     inkscape:window-y="36"
     inkscape:window-maximized="1"
     inkscape:current-layer="svg19" />
  <defs
     id="defs2">
    <linearGradient
       id="Gradient1"
       gradientUnits="userSpaceOnUse"
       x1="401.597"
       y1="1323.2"
       x2="888.916"
       y2="1208.34">
      <stop
         class="stop0"
         offset="0"
         stop-opacity="1"
         stop-color="rgb(250,178,12)"
         id="stop1" />
      <stop
         class="stop1"
         offset="1"
         stop-opacity="1"
         stop-color="rgb(255,210,25)"
         id="stop2" />
    </linearGradient>
  </defs>
  <rect
     style="display:block;fill:#000000;stroke:#0a0808;stroke-width:0"
     id="rect1"
     width="2072.4458"
     height="2072.4456"
     x="-13.580902"
     y="-5.4323606" />
  <path
     d="m 1110.1211,112.13672 c -34.47,16.466 -60.8023,33.69581 -76.6523,71.38281 -11.4701,27.266 8.7331,62.91481 -1.0469,83.50781 -13.81,29.063 -61.76996,52.289 -80.96096,80.125 -6.418,8.998 -13.83907,20.12422 -16.66407,30.94922 -9.04,34.647 1.00876,76.59528 -37.40625,96.36328 -15.86699,8.165 -34.95906,4.04 -40.91406,-14 -12.434,-37.673 -2.57465,-82.30059 12.02735,-117.93359 4.278,-10.182 10.44631,-19.91622 14.94531,-29.32422 -11.392,8.576 -23.55166,15.22375 -34.84766,23.71875 -40.475,30.441 -75.72012,68.96169 -88.57812,119.17969 -7.354,28.722 -11.97266,56.04303 -23.09766,83.70703 -23.641,-31.737 -31.9855,-44.42312 -29.0625,-85.45313 -23.145,31.52801 -34.02059,58.20607 -27.30859,97.53907 3.774,22.113 7.49875,36.68684 0.0937,58.21484 -3.095,3.212 -4.6465,7.17866 -7.0625,10.59766 -3.539,5.007 -17.13675,18.9239 -22.71875,19.6289 l -1.01172,-1.21093 c -8.04,-23.963 -17.5251,-38.20169 -29.1211,-60.05469 -16.45099,-31.001 -3.54021,-64.33206 7.17579,-95.28906 -24.457,16.383 -39.5631,33.32415 -56.2461,57.03515 -48.223,46.882 -18.13456,119.591 -20.72656,175.625 l -1.70313,10.13672 c -3.37599,20.704 -50.59059,59.45131 -64.93359,81.44531 -4.86,6.042 -10.111,12.88413 -15.125,18.70313 -0.247,-41.641 -1.94322,-61.91744 -14.57422,-102.27344 -5.708,16.477 -9.94509,27.73513 -17.12109,44.07813 -15.849,36.101 -39.07025,69.29171 -40.15625,109.76171 -0.737,27.48501 15.23819,58.48466 12.86719,82.84766 -0.372,3.822 -10.29582,34.38403 -12.13282,42.20707 -5.56,23.7 -9.33206,45.4376 -13.41406,69.5976 -2.11,12.49 -6.38569,26.0892 -8.17969,39.1992 -13.3,97.15 19.38616,211.9529 60.66016,298.3829 75.18,157.4399 214.90306,259.6506 377.41406,315.3906 63.378,21.67 129.63803,33.7286 196.58204,35.8086 31.22,1.39 62.4998,0.4998 93.5898,-2.6602 45.02,-4.77 89.4088,-14.2192 132.4688,-28.1992 108.57,-35.7 244.6287,-114.9513 317.9687,-204.5313 41.33,-48.28 63.4013,-104.1581 90.5313,-160.0781 38.3,-78.93 63.5405,-133.0615 54.2305,-223.8515 -14.07,35.33 -17.7097,43.4981 -43.9297,71.0781 0.63,-13.37 1.9779,-38.1678 4.4179,-51.0078 5.17,-27.21 11.24,-48.0802 10.75,-76.9102 -0.33,-20.11 -1.57,-30.8417 -6.5,-50.7617 -6.29,-25.4 -19.1301,-47.56979 -15.1601,-74.17579 2.75,-18.398 9.7517,-33.37722 14.7617,-50.57422 8.59,-29.467 3.3317,-81.29225 -11.4883,-108.03125 -8.13,48.693 -16.8204,57.0031 -48.7304,95.2461 -30.57,-58.378 -27.5129,-44.80032 -12.3829,-110.94532 11.59,-51.75199 -18.8567,-114.87978 -50.3867,-154.42578 -45.47,-57.043 -72.4028,-77.6024 -56.8828,-155.5664 -0.91,0.825 -1.7984,1.68331 -2.6484,2.57031 -35,36.615 -45.6092,88.13575 -35.9492,136.59375 5.9799,30.004 11.5096,44.12344 12.1796,75.27344 -14.07,-14.674 -36.8915,-32.38719 -52.8515,-46.11719 -2.95,-7.843 -7.1585,-14.81322 -10.3985,-24.07422 -6.31,-18.049 -8.9625,-32.84606 -12.3125,-51.41406 -5.7,3.817 -12.4393,7.83822 -19.3593,8.07422 -38.51,1.315 -49.7991,-37.83747 -52.7891,-66.35547 l -0.051,-1.2461 c -0.82,-26.623 2.9805,-35.05387 -3.5195,-64.04687 -11.79,-52.616 -54.7278,-69.46591 -71.5078,-115.87891 -3.69,-10.22 -4.4719,-23.12731 -4.9219,-33.94531 -5.97,10.039 -11.5311,20.35256 -13.6211,31.97656 -5.24,29.041 7.1694,58.40382 -14.8906,83.50782 -6.27,7.145 -14.8295,12.75496 -24.0195,15.29296 -11.65,3.21601 -22.9571,1.55335 -33.2071,-4.84765 -11.88,-7.421 -18.1926,-19.44294 -20.9726,-32.83594 -8.05,-38.928 21.3409,-73.38734 13.7109,-119.77734 -6.45,-39.268 -49.1211,-75.76441 -50.1211,-101.94141 -0.76,-19.823 13.3522,-38.66681 22.9922,-55.00781 z m -68.6836,500.03906 c 117.1193,3.29386 230.2252,46.33322 320.2539,122.85547 105.66,89.798 170.9672,218.15369 181.3672,356.42965 18.76,260.69 -146.4767,478.2185 -402.3867,532.3985 -27.09,5.73 -53.5421,7.9201 -81.0821,9.9101 -251.33196,6.68 -479.79796,-125.9393 -544.12496,-378.3593 -7.281,-28.57 -11.66665,-56.35 -13.72265,-85.75 -8.734,-138.54 37.83328,-274.89158 129.48828,-379.14458 90.875,-104.382 219.67815,-168.13575 357.78515,-177.09375 0.679,-0.069 1.36007,-0.13803 2.03907,-0.20703 16.83961,-1.17 33.65151,-1.50961 50.38281,-1.03906 z"
     style="fill:#fdb901"
     id="path21" />
  <path
     transform="translate(0,0)"
     fill="rgb(254,221,68)"
     d="M 883.451 313.208 C 878.952 322.616 872.78 332.348 868.502 342.53 C 853.9 378.163 844.044 422.792 856.478 460.465 C 862.433 478.505 881.524 482.628 897.391 474.463 C 935.806 454.695 925.756 412.748 934.796 378.101 C 937.621 367.276 945.041 356.149 951.459 347.151 C 970.65 319.315 1018.61 296.091 1032.42 267.028 C 1042.2 246.435 1022 210.786 1033.47 183.52 C 1049.32 145.833 1075.65 128.604 1110.12 112.138 C 1100.48 128.479 1086.37 147.323 1087.13 167.146 C 1088.13 193.323 1130.8 229.816 1137.25 269.084 C 1144.88 315.474 1115.49 349.934 1123.54 388.862 C 1126.32 402.255 1132.63 414.28 1144.51 421.701 C 1154.76 428.102 1166.07 429.761 1177.72 426.545 C 1186.91 424.007 1195.47 418.397 1201.74 411.252 C 1223.8 386.148 1211.39 356.786 1216.63 327.745 C 1218.72 316.121 1224.28 305.809 1230.25 295.77 C 1230.7 306.588 1231.48 319.493 1235.17 329.713 C 1251.95 376.126 1294.89 392.979 1306.68 445.595 C 1313.18 474.588 1309.38 483.019 1310.2 509.642 L 1310.25 510.888 C 1313.24 539.406 1324.53 578.559 1363.04 577.244 C 1369.96 577.008 1376.7 572.984 1382.4 569.167 C 1385.75 587.735 1388.4 602.532 1394.71 620.581 C 1397.95 629.842 1402.16 636.815 1405.11 644.658 C 1397.94 641.457 1384.83 629.354 1378.79 628.985 C 1380.14 633.804 1392.14 643.196 1396.22 649.722 C 1384.43 642.969 1316.05 599.454 1311.99 599.208 L 1311.45 599.516 C 1328.46 618.512 1344.33 635.464 1362.81 653.077 C 1372.17 662.01 1382.23 675.594 1391.49 684.242 C 1414.37 705.611 1435.91 726.067 1456.74 749.476 C 1555.01 859.91 1614.8 1004.95 1605.85 1154 C 1603.7 1189.85 1597.84 1230.71 1585.73 1264.8 L 1583.33 1260.35 C 1588.86 1233.96 1591.81 1194.45 1592.22 1167.43 C 1594.99 1049.87 1562.07 934.239 1497.79 835.772 C 1412.1 704.444 1260.75 603.038 1106.68 569.213 C 994.105 544.498 902.149 563.068 798.428 610.658 C 759.414 628.141 721.818 648.631 685.98 671.944 C 635.797 705.226 591.453 746.565 554.738 794.294 C 543.328 809.35 534.48 823.986 523.947 839.374 C 520.139 844.937 515.363 857.715 512.956 860.285 C 513.805 856.956 515.422 852.538 514.469 849.507 C 510.651 853.549 492.035 890.12 488.852 896.816 C 469.995 936.48 457.26 976.238 447.734 1018.93 C 442.822 1040.95 437.939 1058.44 435.784 1082.07 C 433.044 1112.1 433.03 1142.75 433.492 1172.9 C 433.811 1193.74 438.567 1217.95 441.058 1238.61 C 441.844 1245.12 445.136 1250.37 446.06 1255.37 C 448.849 1270.43 453.975 1282.89 458.662 1297.08 C 468.359 1326.44 482.015 1350.66 496.381 1377.61 C 537.219 1454.21 585.414 1504.09 653.008 1558.05 C 714.697 1607.29 778.433 1644.51 853.831 1669.78 C 867.505 1674.36 884.054 1677.56 898.177 1680.92 C 901.921 1681.81 915.029 1685.27 917.161 1685.56 C 953.217 1690.54 989.609 1693.17 1026.01 1693.59 C 1032.96 1693.67 1040.38 1692.57 1047.46 1692.43 C 1065.27 1692.1 1085.88 1692.94 1103.64 1690.71 C 1136.49 1686.59 1173.26 1679.14 1204.46 1667.99 C 1228.77 1659.3 1253.95 1643.95 1276.54 1631.26 C 1277.5 1630.73 1294.87 1618.08 1296.42 1616.85 C 1304.87 1610.15 1319.65 1602.05 1326.91 1596.08 C 1363.25 1566.18 1397.12 1534.56 1426.75 1498.05 C 1446.43 1473.4 1464.51 1447.51 1480.86 1420.54 C 1495.36 1418.5 1529.81 1398.24 1538.95 1387.43 C 1557.94 1380.98 1581.17 1359.05 1593.18 1343.5 C 1511.74 1585.03 1237.11 1736.93 989.644 1712.69 C 964.51 1710.22 941.397 1704.64 917.25 1701.8 L 916.923 1702.69 L 918.713 1703.69 C 923.777 1711.79 1019.92 1742.09 1019.44 1759.17 C 1015.03 1761.6 1012.4 1758.32 1010.73 1761 L 1011.12 1761.73 C 944.176 1759.65 877.916 1747.59 814.538 1725.92 C 652.027 1670.18 512.306 1567.97 437.126 1410.53 C 395.852 1324.1 363.165 1209.3 376.465 1112.15 C 378.259 1099.04 382.533 1085.44 384.643 1072.95 C 388.725 1048.79 392.5 1027.05 398.06 1003.35 C 399.897 995.527 409.819 964.968 410.191 961.146 C 412.562 936.783 396.588 905.782 397.325 878.297 C 398.411 837.827 421.631 804.637 437.48 768.536 C 444.656 752.193 448.895 740.933 454.603 724.456 C 467.234 764.812 468.928 785.09 469.175 826.731 C 474.189 820.912 479.441 814.071 484.301 808.029 C 498.644 786.035 545.86 747.287 549.236 726.583 L 550.938 716.447 C 553.53 660.413 523.44 587.701 571.663 540.819 C 588.346 517.108 603.453 500.169 627.91 483.786 C 617.194 514.743 604.284 548.075 620.735 579.076 C 632.331 600.929 641.815 615.166 649.855 639.129 L 650.867 640.338 C 656.449 639.633 670.047 625.718 673.586 620.711 C 676.002 617.292 677.555 613.325 680.65 610.113 C 688.055 588.585 684.33 574.012 680.556 551.899 C 673.844 512.566 684.72 485.887 707.865 454.359 C 704.942 495.389 713.284 508.077 736.925 539.814 C 748.05 512.15 752.668 484.827 760.022 456.105 C 772.88 405.887 808.128 367.366 848.603 336.925 C 859.899 328.43 872.059 321.784 883.451 313.208 z"
     id="path4" />
  <path
     transform="translate(0,0)"
     fill="rgb(253,185,1)"
     d="M 883.451 313.208 C 878.952 322.616 872.78 332.348 868.502 342.53 C 853.9 378.163 844.044 422.792 856.478 460.465 C 862.433 478.505 881.524 482.628 897.391 474.463 C 935.806 454.695 925.756 412.748 934.796 378.101 C 937.621 367.276 945.041 356.149 951.459 347.151 C 970.65 319.315 1018.61 296.091 1032.42 267.028 C 1042.2 246.435 1022 210.786 1033.47 183.52 C 1049.32 145.833 1075.65 128.604 1110.12 112.138 C 1100.48 128.479 1086.37 147.323 1087.13 167.146 C 1088.13 193.323 1130.8 229.816 1137.25 269.084 C 1144.88 315.474 1115.49 349.934 1123.54 388.862 C 1126.32 402.255 1132.63 414.28 1144.51 421.701 C 1154.76 428.102 1166.07 429.761 1177.72 426.545 C 1186.91 424.007 1195.47 418.397 1201.74 411.252 C 1223.8 386.148 1211.39 356.786 1216.63 327.745 C 1218.72 316.121 1224.28 305.809 1230.25 295.77 C 1230.7 306.588 1231.48 319.493 1235.17 329.713 C 1251.95 376.126 1294.89 392.979 1306.68 445.595 C 1313.18 474.588 1309.38 483.019 1310.2 509.642 L 1310.25 510.888 L 1310.12 511.876 C 1309.25 518.16 1307.89 517.613 1307.46 524.745 C 1306.26 544.427 1308.59 560.894 1306.62 580.827 C 1294.02 574.442 1266.93 560.876 1253.09 556.417 C 1247.59 553.416 1242.04 550.51 1236.45 547.7 C 1236.99 535.912 1244.48 520.31 1247.51 508.609 C 1250.96 495.321 1249.88 484.736 1248.1 471.364 C 1232.09 491.133 1225.19 508.698 1201.28 521.686 C 1123.11 564.128 1013.96 455.754 1046.36 376.024 C 1052.79 358.045 1061.05 340.048 1062.82 320.795 C 1062.86 320.329 1063.33 301.284 1063.62 302.58 L 1063.08 302.522 C 1062.71 303.029 1062.35 303.537 1061.99 304.044 C 1048.99 325.004 1008.86 352.025 1000.13 372.045 C 982.967 411.402 995.555 459.502 963.032 495.832 C 943.14 519.273 920.842 524.023 891.665 527.269 C 843.424 532.637 820.875 484.468 817.67 443.558 C 806.263 454.751 794.497 503.798 784.961 518.271 C 776.852 553.537 760.656 603.997 718.299 555.834 C 715.276 552.396 705.454 536.373 702.913 534.964 C 697.259 539.853 703.585 550.099 705.989 556.247 C 712.122 571.93 714.085 585.408 711.322 602.071 C 705.408 608.467 685.259 619.783 677.008 619.412 C 679.003 615.759 679.744 615.785 681.155 611.497 L 680.65 610.113 C 688.055 588.585 684.33 574.012 680.556 551.899 C 673.844 512.566 684.72 485.887 707.865 454.359 C 704.942 495.389 713.284 508.077 736.925 539.814 C 748.05 512.15 752.668 484.827 760.022 456.105 C 772.88 405.887 808.128 367.366 848.603 336.925 C 859.899 328.43 872.059 321.784 883.451 313.208 z"
     id="path5" />
  <path
     transform="translate(0,0)"
     fill="rgb(254,206,27)"
     d="M 1071.07 257.258 C 1083.85 305.614 1079.8 328.925 1067.9 376.354 C 1057.63 417.24 1101.34 486.019 1134.75 507.601 C 1173.67 532.376 1220.79 495.773 1237.7 460.913 C 1242.81 451.497 1247.12 442.357 1251.55 432.781 C 1270.77 482.602 1253.8 509.719 1253.09 556.417 C 1247.59 553.416 1242.04 550.51 1236.45 547.7 C 1236.99 535.912 1244.48 520.31 1247.51 508.609 C 1250.96 495.321 1249.88 484.736 1248.1 471.364 C 1232.09 491.133 1225.19 508.698 1201.28 521.686 C 1123.11 564.128 1013.96 455.754 1046.36 376.024 C 1052.79 358.045 1061.05 340.048 1062.82 320.795 C 1062.86 320.329 1063.33 301.284 1063.62 302.58 L 1063.08 302.522 C 1062.71 303.029 1062.35 303.537 1061.99 304.044 C 1048.99 325.004 1008.86 352.025 1000.13 372.045 C 982.967 411.402 995.555 459.502 963.032 495.832 C 943.14 519.273 920.842 524.023 891.665 527.269 C 843.424 532.637 820.875 484.468 817.67 443.558 C 806.263 454.751 794.497 503.798 784.961 518.271 C 783.07 475.904 808.468 441.209 831.86 409.147 C 832.237 438.352 838.104 489.328 859.4 510.924 C 882.426 534.275 915.704 517.617 934.641 497.891 C 968.739 462.371 953.747 421.563 973.392 381.627 C 979.495 369.423 994.52 354.003 1004.95 344.88 C 1032.6 320.706 1060.28 293.932 1071.07 257.258 z"
     id="path6" />
  <path
     transform="translate(0,0)"
     fill="url(#Gradient1)"
     d="M 454.603 724.456 C 467.234 764.812 468.928 785.09 469.175 826.731 C 474.189 820.912 479.441 814.071 484.301 808.029 C 491.157 804.55 525.019 764.008 534.88 754.61 L 535.548 755.155 L 536.187 754.223 C 531.343 767.057 519.384 777.566 510.715 789.884 C 499.059 806.369 488.515 823.614 479.155 841.503 C 422.206 953.03 390.314 1044.62 411.427 1171.36 C 413.56 1184.16 418.13 1195.89 420.773 1208.47 C 429.764 1251.26 438.831 1293.43 456.908 1333.53 C 514.503 1461.27 651.915 1614.84 784.9 1665.38 C 813.445 1676.22 844.257 1685.29 873.915 1692.46 C 887.807 1695.81 904.059 1696.86 917.25 1701.8 L 916.923 1702.69 L 918.713 1703.69 C 923.777 1711.79 1019.92 1742.09 1019.44 1759.17 C 1015.03 1761.6 1012.4 1758.32 1010.73 1761 L 1011.12 1761.73 C 944.176 1759.65 877.916 1747.59 814.538 1725.92 C 652.027 1670.18 512.306 1567.97 437.126 1410.53 C 395.852 1324.1 363.165 1209.3 376.465 1112.15 C 378.259 1099.04 382.533 1085.44 384.643 1072.95 C 388.725 1048.79 392.5 1027.05 398.06 1003.35 C 399.897 995.527 409.819 964.968 410.191 961.146 C 412.562 936.783 396.588 905.782 397.325 878.297 C 398.411 837.827 421.631 804.637 437.48 768.536 C 444.656 752.193 448.895 740.933 454.603 724.456 z"
     id="path7" />
  <path
     transform="translate(0,0)"
     fill="rgb(253,185,1)"
     d="M 552.49 1533.5 C 555.497 1534.47 595.007 1573.29 597.633 1577.2 C 591.216 1575.88 553.911 1539.97 552.49 1533.5 z"
     id="path8" />
  <path
     transform="translate(0,0)"
     fill="rgb(253,185,1)"
     d="M 571.663 540.819 C 588.346 517.108 603.453 500.169 627.91 483.786 C 617.194 514.743 604.284 548.075 620.735 579.076 C 632.331 600.929 641.815 615.166 649.855 639.129 C 647.683 643.938 622.08 660.169 615.581 665.54 C 606.757 624.743 555.333 607.606 566.735 561.265 C 568.458 554.258 570.664 548.013 571.663 540.819 z"
     id="path9" />
  <path
     transform="translate(0,0)"
     fill="rgb(254,206,27)"
     d="M 1504.63 1376.2 C 1514.35 1388.46 1524.07 1390.07 1538.95 1387.43 C 1529.81 1398.24 1495.36 1418.5 1480.86 1420.54 C 1482.83 1414.9 1500.48 1384.46 1504.63 1376.2 z"
     id="path10" />
  <path
     transform="translate(0,0)"
     fill="rgb(254,206,27)"
     d="M 1585.73 1264.8 C 1584.74 1271.32 1581.48 1281.17 1579.13 1287.38 L 1578.65 1287.04 C 1579.27 1278.31 1581.52 1268.98 1583.33 1260.35 L 1585.73 1264.8 z"
     id="path11" />
  <path
     d="m 1041.4375,612.17578 c -16.7313,-0.47055 -33.5432,-0.13094 -50.38281,1.03906 -0.679,0.069 -1.36007,0.13803 -2.03907,0.20703 -138.107,8.958 -266.91015,72.71175 -357.78515,177.09375 -91.655,104.253 -138.22228,240.60458 -129.48828,379.14458 2.056,29.4 6.44165,57.18 13.72265,85.75 64.327,252.42 292.793,385.0393 544.12496,378.3593 27.54,-1.99 53.9921,-4.1801 81.0821,-9.9101 255.91,-54.18 421.1467,-271.7085 402.3867,-532.3985 -10.4,-138.27596 -75.7072,-266.63165 -181.3672,-356.42965 C 1271.6627,658.509 1158.5568,615.46964 1041.4375,612.17578 Z m -31.7227,40.31641 c 59.771,-1.86675 119.9083,8.04565 176.8633,29.84765 120.61,45.353 208.9303,127.19666 262.0703,244.34766 1.39,-4.609 -1.1789,-5.03672 -2.1289,-10.63672 3.96,6.438 15.511,21.34334 17.711,26.90234 38.79,98.13598 37.5114,206.84798 14.1914,307.66798 -27.24,117.76 -93.3636,208.1272 -195.4336,271.6172 -55.1,34.81 -133.6889,64.5231 -199.1289,70.2031 0.21,1.97 7.7523,17.0167 9.6523,23.3867 -122.43098,13.1 -239.06951,-8.9983 -344.64451,-73.7383 -108.647,-65.54 -186.47469,-171.909 -216.05469,-295.289 -6.939,-31.87 -15.80356,-80.2597 -11.35156,-112.9297 2.423,-17.78 15.44409,-61.04 23.99609,-78 1.464,-2.91 9.25241,-7.9827 12.69141,-12.9727 4.345,-6.3 11.22944,-17.8365 17.14843,-22.2265 3.227,-10.21 5.32575,-21.3554 8.34375,-31.7344 37.08101,-127.526 130.02097,-240.29219 251.41797,-295.61719 55.482,-25.314 114.88525,-38.96137 174.65621,-40.82812 z"
     style="display:block;fill:#cb760c"
     id="path20" />
  <path
     transform="translate(0,0)"
     fill="rgb(253,185,1)"
     d="M 1448.65 926.688 C 1450.04 922.079 1447.47 921.652 1446.52 916.052 C 1450.48 922.49 1462.03 937.395 1464.23 942.954 C 1503.02 1041.09 1501.74 1149.8 1478.42 1250.62 C 1451.18 1368.38 1385.06 1458.75 1282.99 1522.24 C 1227.89 1557.05 1149.3 1586.76 1083.86 1592.44 C 1084.07 1594.41 1091.61 1609.46 1093.51 1615.83 C 971.079 1628.93 854.441 1606.83 748.866 1542.09 C 640.219 1476.55 562.392 1370.18 532.812 1246.8 C 525.873 1214.93 517.01 1166.54 521.462 1133.87 C 523.885 1116.09 536.906 1072.83 545.458 1055.87 C 546.922 1052.96 554.708 1047.89 558.147 1042.9 C 562.492 1036.6 569.377 1025.06 575.296 1020.67 C 565.457 1073 562.979 1104.23 566.169 1157.85 C 568.073 1173.18 569.186 1188.68 572.012 1203.99 C 581.56 1255.73 600.444 1306.37 628.347 1351.03 C 639.453 1368.8 655.124 1388.12 668.281 1404 C 672.009 1374.11 670.887 1363.77 662.544 1335.41 C 702.519 1371.06 715.642 1405.84 725.303 1456.78 C 746.111 1482.74 793.06 1504.89 823.619 1517.38 C 833.365 1491.06 834.573 1471.75 828.13 1444.05 C 839.486 1453.99 846.004 1463.06 852.505 1476.27 C 863.353 1498.31 869.523 1534.73 894.715 1545.31 C 946.891 1567.23 1096.72 1565.84 1145.85 1548.75 C 1150.04 1530.43 1152.3 1519.02 1160.39 1501.81 C 1177.96 1464.44 1215.66 1450.74 1231.2 1414.31 C 1235.93 1403.21 1237.9 1392.09 1240.1 1380.38 C 1251.44 1408.91 1256.41 1426.55 1245.5 1457.09 C 1242.21 1466.3 1238.39 1475.94 1236.15 1485.45 C 1234.64 1491.83 1234.73 1507.9 1242.96 1509.78 C 1246.72 1509.28 1253.71 1506.4 1257.11 1504.66 C 1286.33 1489.71 1321.07 1469.74 1340.86 1443.28 C 1351.62 1428.91 1352.71 1405.75 1354.38 1388.69 C 1358.57 1346.19 1365.93 1305.6 1394.26 1271.82 C 1391.59 1316.53 1391.76 1322.46 1410.49 1362.3 C 1446.64 1322.96 1480.87 1235 1476.39 1180.18 C 1475.6 1170.51 1469.08 1153.79 1465.12 1144.83 C 1449.29 1109.07 1451.29 1086.82 1464.8 1050.42 C 1469.69 1060.54 1474.39 1067.92 1480.39 1077.27 C 1489.23 1031.57 1466.1 969.124 1448.65 926.688 z"
     id="path14" />
  <path
     transform="translate(0,0)"
     fill="rgb(223,146,26)"
     d="M 550.965 1229.98 C 565.335 1304.6 607.134 1383.08 657.435 1439.51 C 765.02 1560.19 925.798 1608.82 1083.86 1592.44 C 1084.07 1594.41 1091.61 1609.46 1093.51 1615.83 C 971.079 1628.93 854.441 1606.83 748.866 1542.09 C 640.219 1476.55 562.392 1370.18 532.812 1246.8 C 537.683 1241.24 545.268 1234.98 550.965 1229.98 z"
     id="path15" />
  <path
     transform="translate(0,0)"
     fill="rgb(223,146,26)"
     d="M 532.812 1246.8 C 525.873 1214.93 517.01 1166.54 521.462 1133.87 C 523.885 1116.09 536.906 1072.83 545.458 1055.87 C 546.922 1052.96 554.708 1047.89 558.147 1042.9 C 562.492 1036.6 569.377 1025.06 575.296 1020.67 C 565.457 1073 562.979 1104.23 566.169 1157.85 C 559.287 1149.64 564.812 1078.85 566.139 1066.03 C 567.364 1054.2 570.927 1037.63 572.575 1025.79 C 567.596 1031.76 554.867 1048.42 552.412 1055.57 C 535.275 1105.45 539.46 1179.7 550.965 1229.98 C 545.268 1234.98 537.683 1241.24 532.812 1246.8 z"
     id="path16" />
  <path
     transform="translate(0,0)"
     fill="rgb(254,221,68)"
     d="M 1484.63 609.562 C 1513.91 628.829 1528.84 635.282 1543.07 668.506 C 1548.51 681.276 1552.62 694.568 1555.34 708.175 C 1560.62 734.026 1560.75 755.852 1559.36 782.009 C 1558.94 789.955 1555.75 800.943 1556.61 806.953 L 1555.45 807.792 C 1551.95 803.235 1549.8 799.99 1546.74 795.176 C 1537.37 781.549 1527.39 768.349 1516.84 755.614 C 1506.98 743.949 1494.84 730.969 1485.73 719.066 C 1487.28 716.32 1488.79 713.551 1490.26 710.759 C 1505.5 681.515 1500.89 655.256 1491.44 625.027 C 1488.68 620.077 1486.76 614.828 1484.63 609.562 z"
     id="path17" />
  <path
     transform="translate(0,0)"
     fill="rgb(254,206,27)"
     d="M 1484.63 609.562 C 1513.91 628.829 1528.84 635.282 1543.07 668.506 C 1548.51 681.276 1552.62 694.568 1555.34 708.175 C 1560.62 734.026 1560.75 755.852 1559.36 782.009 C 1558.94 789.955 1555.75 800.943 1556.61 806.953 L 1555.45 807.792 C 1551.95 803.235 1549.8 799.99 1546.74 795.176 C 1558.56 781.184 1549.74 716.136 1541.77 698.684 C 1533.18 679.881 1511.64 632.472 1492.82 623.634 L 1491.44 625.027 C 1488.68 620.077 1486.76 614.828 1484.63 609.562 z"
     id="path18" />
  <path
     transform="translate(0,0)"
     fill="rgb(253,185,1)"
     d="M 1377.12 325.469 C 1378.19 326.145 1378.38 326.19 1379.27 327.027 C 1408.46 354.434 1408.93 389.532 1409.65 426.732 C 1409.93 441.3 1411.39 454.291 1412.36 468.378 L 1411.16 468.981 L 1409.29 467.245 C 1404.38 462.651 1399.87 457.656 1395.79 452.311 C 1379 430.086 1367.09 395.212 1370.32 367.44 C 1371.85 354.35 1375.23 339.267 1377.12 325.469 z"
     id="path19" />
</svg>
