<?xml version="1.0" encoding="UTF-8" standalone="no"?>
<svg
   viewBox="0 0 48 48"
   version="1.1"
   id="svg2"
   sodipodi:docname="kde-logo-white-gray-rounded-source.svg"
   inkscape:version="1.4.2 (ebf0e940d0, 2025-05-08)"
   xmlns:inkscape="http://www.inkscape.org/namespaces/inkscape"
   xmlns:sodipodi="http://sodipodi.sourceforge.net/DTD/sodipodi-0.dtd"
   xmlns="http://www.w3.org/2000/svg"
   xmlns:svg="http://www.w3.org/2000/svg">
  <defs
     id="defs2" />
  <sodipodi:namedview
     id="namedview2"
     pagecolor="#505050"
     bordercolor="#ffffff"
     borderopacity="1"
     inkscape:showpageshadow="0"
     inkscape:pageopacity="0"
     inkscape:pagecheckerboard="1"
     inkscape:deskcolor="#505050"
     inkscape:zoom="16.375"
     inkscape:cx="24.030534"
     inkscape:cy="24"
     inkscape:window-width="1920"
     inkscape:window-height="968"
     inkscape:window-x="1920"
     inkscape:window-y="44"
     inkscape:window-maximized="1"
     inkscape:current-layer="svg2" />
  <g
     id="g2">
    <path
       d="m5.9999998-.00000914h36.0000012c3.323999 0 6.000001 2.67600674 6.000001 6.00000714v36c0 3.324001-2.676002 6.000008-6.000001 6.000008h-36.0000012c-3.3240001 0-6.00000022-2.676007-6.00000022-6.000008v-36c0-3.3240004 2.67600012-6.00000714 6.00000022-6.00000714z"
       fill="#31363b"
       id="path1" />
  </g>
  <path
     d="M 23.957665,33.904201 C 22.587891,33.335188 21.694491,32.197989 21.49012,31.086025 20.397019,25.13027 10.306005,25.494751 4.528059,20.083698 v 0 c 1.139,7.607436 9.519122,6.609509 14.896257,9.872044 -3.354194,-1.017844 -8.55722,-0.113837 -12.630043,-2.138938 2.426956,5.544812 8.518897,2.929793 13.331174,3.961077 -2.789602,0.04687 -6.250132,2.021988 -9.831293,1.183433 3.586324,4.439841 7.160242,0.790148 10.981329,0.380907 -1.869428,0.711194 -3.61276,3.084799 -6.294346,3.188308 3.596707,2.746536 4.946334,-0.474463 7.133944,-1.900951 -0.201931,0.305156 -0.309287,0.677115 -0.282091,1.070817 0.06637,0.949936 0.890329,1.666418 1.84034,1.600707 0.950005,-0.06571 1.666417,-0.890323 1.600708,-1.840334 -0.0537,-0.769569 -0.604709,-1.385936 -1.317094,-1.557139 z"
     id="path1-5-2"
     style="fill:#69747e;fill-opacity:1;stroke-width:0.659262" />
  <path
     d="M 29.953448,9.0947378 23.048689,9.7557359 V 38.18748 l 6.831736,-1.028531 V 25.03695 l 9.183188,13.444896 7.199252,-2.27795 L 36.859496,23.273846 46.336529,11.078321 38.990592,9.3893824 29.880587,21.5844 Z"
     fill="#1d99f3"
     id="path1-6"
     sodipodi:nodetypes="cccccccccccc"
     style="fill:#f9f9f9;fill-opacity:1;stroke-width:1.15514" />
  <path
     d="M 23.58755,33.865253 C 22.128104,33.600524 21.013319,32.679308 20.577173,31.636232 18.242625,26.049124 8.45988,28.551048 1.663471,24.492371 v 0 c 2.730615,7.191257 10.706883,4.434193 16.654797,6.478707 -3.493922,-0.281324 -8.385725,1.708394 -12.796024,0.595652 3.550514,4.901936 8.947069,1.05132 13.868584,1.035723 -2.715837,0.638988 -5.677234,3.30479 -9.354805,3.246918 4.448404,3.575697 7.164508,-0.750493 10.811185,-1.962901 -1.675445,1.092449 -2.874178,3.782475 -5.472427,4.453837 4.098482,1.91891 4.732321,-1.515412 6.566568,-3.374455 -0.132423,0.341118 -0.158229,0.727397 -0.04795,1.106311 0.266838,0.9141 1.224317,1.438985 2.138629,1.172767 0.914306,-0.26622 1.438986,-1.224315 1.172766,-2.138626 -0.2161,-0.740553 -0.885587,-1.225653 -1.618085,-1.241458 z"
     id="path1-5"
     style="fill:#f9f9f9;fill-opacity:1;stroke-width:0.659262" />
</svg>
