<?xml version="1.0" encoding="UTF-8" standalone="no"?>
<svg
   height="60"
   width="44"
   version="1.1"
   id="svg43"
   sodipodi:docname="kde-logo-blue-w-slug-vectorized.svg"
   inkscape:version="1.4.2 (ebf0e940d0, 2025-05-08)"
   xmlns:inkscape="http://www.inkscape.org/namespaces/inkscape"
   xmlns:sodipodi="http://sodipodi.sourceforge.net/DTD/sodipodi-0.dtd"
   xmlns:xlink="http://www.w3.org/1999/xlink"
   xmlns="http://www.w3.org/2000/svg"
   xmlns:svg="http://www.w3.org/2000/svg"
   xmlns:rdf="http://www.w3.org/1999/02/22-rdf-syntax-ns#"
   xmlns:cc="http://creativecommons.org/ns#"
   xmlns:dc="http://purl.org/dc/elements/1.1/">
  <metadata
     id="metadata49">
    <rdf:RDF>
      <cc:Work
         rdf:about="">
        <dc:format>image/svg+xml</dc:format>
        <dc:type
           rdf:resource="http://purl.org/dc/dcmitype/StillImage" />
        <dc:title />
      </cc:Work>
    </rdf:RDF>
  </metadata>
  <defs
     id="defs47">
    <linearGradient
       id="linearGradient1079"
       gradientTransform="matrix(1.0454421,0,0,1.0298842,46.076843,3.856842)"
       gradientUnits="userSpaceOnUse"
       x1="-45.221867"
       x2="0.69172603"
       y1="-4.91011"
       y2="41.697075">
      <stop
         offset="0"
         stop-color="#2bc0ff"
         id="stop10-6" />
      <stop
         offset="1"
         stop-color="#1d99f3"
         id="stop12-1" />
    </linearGradient>
  </defs>
  <sodipodi:namedview
     pagecolor="#ffffff"
     bordercolor="#666666"
     borderopacity="1"
     objecttolerance="10"
     gridtolerance="10"
     guidetolerance="10"
     inkscape:pageopacity="0"
     inkscape:pageshadow="2"
     inkscape:window-width="1920"
     inkscape:window-height="968"
     id="namedview45"
     showgrid="false"
     showborder="false"
     inkscape:snap-text-baseline="true"
     inkscape:current-layer="svg43"
     fit-margin-top="0"
     fit-margin-left="0"
     fit-margin-right="0"
     fit-margin-bottom="0"
     inkscape:zoom="3.4766084"
     inkscape:cx="13.375104"
     inkscape:cy="-26.462572"
     inkscape:window-x="3840"
     inkscape:window-y="44"
     inkscape:window-maximized="1"
     inkscape:showpageshadow="0"
     inkscape:pagecheckerboard="1"
     inkscape:deskcolor="#505050">
    <inkscape:grid
       type="xygrid"
       id="grid950"
       originx="-2"
       originy="14"
       spacingy="1"
       spacingx="1"
       units="px" />
  </sodipodi:namedview>
  <linearGradient
     id="a">
    <stop
       offset="0"
       id="stop2" />
    <stop
       offset="1"
       stop-opacity="0"
       id="stop4" />
  </linearGradient>
  <linearGradient
     id="b"
     gradientUnits="userSpaceOnUse"
     x1="16"
     x2="34.942001"
     xlink:href="#a"
     y1="11"
     y2="29.941999" />
  <linearGradient
     id="c"
     gradientTransform="rotate(45)"
     gradientUnits="userSpaceOnUse"
     x1="31.021"
     x2="43.104"
     xlink:href="#a"
     y1="-9.8959999"
     y2="-9.8959999" />
  <linearGradient
     id="d"
     gradientUnits="userSpaceOnUse"
     x1="23.716"
     x2="26.348"
     xlink:href="#a"
     y1="13.219"
     y2="15.851" />
  <linearGradient
     id="e"
     gradientTransform="matrix(1.0454421,0,0,1.0298842,46.076843,3.856842)"
     gradientUnits="userSpaceOnUse"
     x1="-45.221867"
     x2="0.69172603"
     y1="-4.91011"
     y2="41.697075">
    <stop
       offset="0"
       stop-color="#2bc0ff"
       id="stop10" />
    <stop
       offset="1"
       stop-color="#1d99f3"
       id="stop12" />
  </linearGradient>
  <rect
     style="fill:#1d99f3;fill-opacity:1;fill-rule:evenodd;stroke-width:1"
     id="rect970"
     width="44"
     height="60"
     x="0"
     y="0"
     rx="5"
     ry="5" />
  <flowRoot
     xml:space="preserve"
     id="flowRoot4792"
     style="font-style:normal;font-weight:normal;font-size:40px;line-height:1.25;font-family:sans-serif;letter-spacing:0px;word-spacing:0px;fill:#000000;fill-opacity:1;stroke:none"
     transform="translate(-2,-2)"><flowRegion
       id="flowRegion4794"><rect
         id="rect4796"
         width="93.966103"
         height="112.67796"
         x="-121.62712"
         y="-33.559322" /></flowRegion><flowPara
       id="flowPara4798" /></flowRoot>
  <g
     aria-label="KDE"
     style="font-style:normal;font-variant:normal;font-weight:normal;font-stretch:normal;font-size:13.3333px;line-height:1.25;font-family:'Fira Code';-inkscape-font-specification:'Fira Code';letter-spacing:0px;word-spacing:0px;fill:#fcfcfc;fill-opacity:1;stroke:none;stroke-width:1"
     id="text819-3"
     transform="matrix(0.7418459,0,0,0.7418459,5.691266,5.8120359)">
    <path
       d="M 16.352,52 H 14.656 L 10.608,46.544 9.44,47.568 V 52 H 8 V 40.576 h 1.44 v 5.632 q 0.48,-0.544 0.976,-1.088 0.496,-0.544 0.992,-1.088 l 3.088,-3.456 h 1.68 l -4.528,4.976 z"
       style="font-style:normal;font-variant:normal;font-weight:normal;font-stretch:normal;font-size:16px;font-family:'Noto Sans';-inkscape-font-specification:'Noto Sans';fill:#fcfcfc;stroke-width:1"
       id="path8503"
       inkscape:connector-curvature="0" />
    <path
       d="m 27.055992,46.176 q 0,2.896 -1.584,4.368 -1.568,1.456 -4.384,1.456 h -3.184 V 40.576 h 3.52 q 1.728,0 2.992,0.64 1.264,0.64 1.952,1.888 0.688,1.232 0.688,3.072 z m -1.52,0.048 q 0,-2.288 -1.136,-3.344 -1.12,-1.072 -3.184,-1.072 h -1.872 v 8.96 h 1.552 q 4.64,0 4.64,-4.544 z"
       style="font-style:normal;font-variant:normal;font-weight:normal;font-stretch:normal;font-size:16px;font-family:'Noto Sans';-inkscape-font-specification:'Noto Sans';fill:#fcfcfc;stroke-width:1"
       id="path8505"
       inkscape:connector-curvature="0" />
    <path
       d="m 35.967984,52 h -6.384 V 40.576 h 6.384 v 1.264 h -4.944 v 3.568 h 4.656 v 1.248 h -4.656 v 4.08 h 4.944 z"
       style="font-style:normal;font-variant:normal;font-weight:normal;font-stretch:normal;font-size:16px;font-family:'Noto Sans';-inkscape-font-specification:'Noto Sans';fill:#fcfcfc;stroke-width:1"
       id="path8507"
       inkscape:connector-curvature="0" />
  </g>
  <path
     d="M 21.963061,29.258749 C 20.767906,28.762273 19.988396,27.770044 19.810079,26.799833 18.856326,21.603317 10.051713,21.921334 5.010339,17.200081 v 0 c 0.9938,6.637642 8.305625,5.76693 12.997284,8.613558 -2.926602,-0.88809 -7.466347,-0.09933 -11.019967,-1.866267 2.117568,4.83796 7.432909,2.556304 11.631718,3.45612 -2.433984,0.04089 -5.453366,1.764225 -8.578001,1.032569 3.12914,3.87385 6.247455,0.68942 9.581431,0.332349 -1.631114,0.620531 -3.152206,2.691549 -5.491944,2.781863 3.138199,2.396408 4.315776,-0.413979 6.22451,-1.658618 -0.176189,0.266254 -0.269859,0.590796 -0.24613,0.934309 0.05791,0.828838 0.77683,1.453983 1.605733,1.396649 0.828899,-0.05733 1.453983,-0.776825 1.39665,-1.605728 -0.04685,-0.671465 -0.52762,-1.209257 -1.149191,-1.358635 z"
     id="path1-5-2"
     style="fill:#b6defb;fill-opacity:1;stroke-width:0.575219" />
  <path
     d="m 27.194503,7.6119919 -6.024542,0.576735 V 32.995996 l 5.960828,-0.897414 V 21.521894 L 35.143305,33.252836 41.424798,31.265279 33.220169,19.98355 41.489071,9.3427089 35.079593,7.8690759 27.13093,18.509474 Z"
     fill="#1d99f3"
     id="path1"
     sodipodi:nodetypes="cccccccccccc"
     style="fill:#ffffff;fill-opacity:1;stroke-width:1.00788" />
  <path
     d="M 21.640129,29.224766 C 20.366733,28.993784 19.39406,28.190005 19.013514,27.2799 16.976574,22.405036 8.440932,24.588015 2.510929,21.046737 v 0 c 2.382516,6.274517 9.341971,3.868923 14.531645,5.652803 -3.048517,-0.245461 -7.316713,1.490608 -11.164789,0.519718 3.097895,4.277038 7.806498,0.917298 12.100619,0.903689 -2.369622,0.55753 -4.953501,2.883496 -8.162256,2.833002 3.881322,3.119867 6.251178,-0.654821 9.432977,-1.712671 -1.46186,0.953184 -2.507778,3.300286 -4.774803,3.886062 3.576008,1.674288 4.129046,-1.322227 5.729463,-2.94428 -0.115542,0.297633 -0.138058,0.634669 -0.04184,0.965279 0.232821,0.797571 1.068241,1.255544 1.865997,1.023263 0.79775,-0.232282 1.255544,-1.06824 1.023261,-1.865994 -0.188551,-0.646148 -0.772692,-1.069407 -1.411811,-1.083197 z"
     id="path1-5"
     style="fill:#ffffff;fill-opacity:1;stroke-width:0.575219" />
  <text
     xml:space="preserve"
     style="font-weight:600;font-size:8px;font-family:'URW Gothic';-inkscape-font-specification:'URW Gothic Semi-Bold';text-align:start;writing-mode:lr-tb;direction:ltr;text-anchor:start;fill:#ffffff;fill-rule:evenodd;stroke-width:100"
     x="15.072006"
     y="52.388008"
     id="text1"><tspan
       sodipodi:role="line"
       id="tspan1"
       x="15.072006"
       y="52.388008"
       style="font-style:normal;font-variant:normal;font-weight:normal;font-stretch:semi-condensed;font-size:8px;font-family:'Nimbus Sans Narrow';-inkscape-font-specification:'Nimbus Sans Narrow Semi-Condensed'">LITE</tspan></text>
</svg>
