<?xml version="1.0" encoding="UTF-8" standalone="no"?>
<svg
   viewBox="0 0 48 48"
   version="1.1"
   id="svg2"
   sodipodi:docname="kde-logo-white-gray-source.svg"
   inkscape:version="1.4.2 (ebf0e940d0, 2025-05-08)"
   xmlns:inkscape="http://www.inkscape.org/namespaces/inkscape"
   xmlns:sodipodi="http://sodipodi.sourceforge.net/DTD/sodipodi-0.dtd"
   xmlns="http://www.w3.org/2000/svg"
   xmlns:svg="http://www.w3.org/2000/svg">
  <defs
     id="defs2" />
  <sodipodi:namedview
     id="namedview2"
     pagecolor="#505050"
     bordercolor="#ffffff"
     borderopacity="1"
     inkscape:showpageshadow="0"
     inkscape:pageopacity="0"
     inkscape:pagecheckerboard="1"
     inkscape:deskcolor="#505050"
     inkscape:zoom="16.375"
     inkscape:cx="24.030534"
     inkscape:cy="24"
     inkscape:window-width="1920"
     inkscape:window-height="968"
     inkscape:window-x="1920"
     inkscape:window-y="44"
     inkscape:window-maximized="1"
     inkscape:current-layer="svg2" />
  <g
     id="g2">
    <path
       d="m48 .00000503v48.00000097h-48v-48.00000097z"
       fill="#31363b"
       id="path1" />
  </g>
  <path
     d="M 24.294194,33.809463 C 22.92442,33.24045 22.03102,32.103251 21.826649,30.991287 20.733548,25.035532 10.642534,25.400013 4.8645876,19.98896 v 0 c 1.139,7.607436 9.5191224,6.609509 14.8962574,9.872044 -3.354194,-1.017844 -8.55722,-0.113837 -12.6300435,-2.138938 2.4269562,5.544812 8.5188975,2.929793 13.3311745,3.961077 -2.789602,0.04687 -6.250132,2.021988 -9.831293,1.183433 3.586324,4.439841 7.160242,0.790148 10.981329,0.380907 -1.869428,0.711194 -3.61276,3.084799 -6.294346,3.188308 3.596707,2.746536 4.946334,-0.474463 7.133944,-1.900951 -0.201931,0.305156 -0.309287,0.677115 -0.282091,1.070817 0.06637,0.949936 0.890329,1.666418 1.84034,1.600707 0.950005,-0.06571 1.666417,-0.890323 1.600708,-1.840334 -0.0537,-0.769569 -0.604709,-1.385936 -1.317094,-1.557139 z"
     id="path1-5-2"
     style="fill:#69747e;fill-opacity:1;stroke-width:0.659262" />
  <path
     d="M 30.289977,9 23.385218,9.6609981 V 38.092742 l 6.831736,-1.028531 V 24.942212 l 9.183188,13.444896 7.199252,-2.27795 -9.403369,-12.93005 9.477033,-12.195525 -7.345937,-1.6889384 -9.110005,12.1950174 z"
     fill="#1d99f3"
     id="path1-3"
     sodipodi:nodetypes="cccccccccccc"
     style="fill:#ffffff;fill-opacity:1;stroke-width:1.15514" />
  <path
     d="M 23.924079,33.770515 C 22.464633,33.505786 21.349848,32.58457 20.913702,31.541494 18.579154,25.954386 8.7964085,28.45631 2,24.397633 v 0 c 2.7306149,7.191257 10.706883,4.434193 16.654797,6.478707 -3.493922,-0.281324 -8.385725,1.708394 -12.7960244,0.595652 3.550514,4.901936 8.9470694,1.05132 13.8685844,1.035723 -2.715837,0.638988 -5.677234,3.30479 -9.354805,3.246918 4.448404,3.575697 7.164508,-0.750493 10.811185,-1.962901 -1.675445,1.092449 -2.874178,3.782475 -5.472427,4.453837 4.098482,1.91891 4.732321,-1.515412 6.566568,-3.374455 -0.132423,0.341118 -0.158229,0.727397 -0.04795,1.106311 0.266838,0.9141 1.224317,1.438985 2.138629,1.172767 0.914306,-0.26622 1.438986,-1.224315 1.172766,-2.138626 -0.2161,-0.740553 -0.885587,-1.225653 -1.618085,-1.241458 z"
     id="path1-5"
     style="fill:#ffffff;fill-opacity:1;stroke-width:0.659262" />
</svg>
