<?xml version="1.0" encoding="UTF-8" standalone="no"?>
<svg
   width="1024"
   height="1024"
   preserveAspectRatio="none"
   style="display:block"
   viewBox="0 0 2048 2048"
   version="1.1"
   id="svg52"
   sodipodi:docname="sonic-blaze-icon.svg"
   inkscape:version="1.4.2 (ebf0e940d0, 2025-05-08)"
   inkscape:export-filename="sonicde-blaze-icon.png"
   inkscape:export-xdpi="24"
   inkscape:export-ydpi="24"
   xml:space="preserve"
   xmlns:inkscape="http://www.inkscape.org/namespaces/inkscape"
   xmlns:sodipodi="http://sodipodi.sourceforge.net/DTD/sodipodi-0.dtd"
   xmlns="http://www.w3.org/2000/svg"
   xmlns:svg="http://www.w3.org/2000/svg"><sodipodi:namedview
     id="namedview52"
     pagecolor="#505050"
     bordercolor="#ffffff"
     borderopacity="1"
     inkscape:showpageshadow="0"
     inkscape:pageopacity="0"
     inkscape:pagecheckerboard="1"
     inkscape:deskcolor="#505050"
     inkscape:zoom="0.67285156"
     inkscape:cx="772.08709"
     inkscape:cy="512.74311"
     inkscape:window-width="1920"
     inkscape:window-height="963"
     inkscape:window-x="3840"
     inkscape:window-y="44"
     inkscape:window-maximized="1"
     inkscape:current-layer="svg52" /><defs
     id="defs2"><linearGradient
       id="Gradient1"
       x1="661.501"
       x2="1587.38"
       y1="1593.3"
       y2="430.125"
       gradientUnits="userSpaceOnUse"><stop
         class="stop0"
         offset="0"
         stop-color="#F25A00"
         id="stop1" /><stop
         class="stop1"
         offset="1"
         stop-color="#FC8B00"
         id="stop2" /></linearGradient></defs><path
     fill="#EDE3D2"
     d="M0 0h2048v2048H0z"
     id="path2"
     style="fill:none" /><path
     id="path3"
     style="fill:#d70079;fill-opacity:1"
     d="M 827.07812 132.34766 L 824.00391 134.17578 C 824.02891 136.04578 823.74136 136.13828 824.98438 136.86328 C 834.17237 142.09228 843.44222 145.77591 852.57422 151.50391 C 878.37722 167.68891 893.50713 190.68463 901.82812 219.76562 C 908.05413 241.52563 915.77084 270.33875 898.46484 289.46875 C 885.71584 303.16375 865.89669 306.73028 848.17969 307.73828 C 830.55769 308.74128 816.1045 304.03956 799.8125 300.97656 C 759.2885 293.67056 732.35972 268.71347 699.26172 248.85547 C 659.58472 225.05047 604.31434 207.57638 558.15234 213.35938 C 550.49234 214.31837 517.95566 218.2455 518.09766 228.8125 C 523.14566 231.6055 535.24619 232.18947 541.49219 233.23047 A 119.4 119.4 0 0 1 586.42969 250.93359 C 663.72569 301.76259 665.42872 392.27484 729.13672 453.96484 C 745.70372 470.00784 764.00259 488.26175 780.05859 504.84375 C 737.37459 488.15575 691.67336 468.19869 644.98438 476.05469 C 636.31938 477.51269 627.19759 478.25981 620.05859 483.63281 L 620.14453 485.08984 C 634.83453 493.18084 646.43853 495.9385 661.14453 506.1875 C 697.64753 531.2765 716.1495 573.34438 730.5625 613.73438 C 736.5815 630.54938 743.71728 650.83341 753.48828 665.56641 C 767.86928 687.25241 790.55141 699.15422 802.94141 722.94922 C 831.86041 778.48822 807.91119 793.03531 759.86719 758.19531 C 741.17119 744.63831 729.06172 726.77466 710.76172 712.97266 C 658.13272 669.70766 582.12903 672.36266 517.83203 678.59766 C 531.56803 687.81566 547.81744 695.25384 562.39844 703.21484 C 602.06444 724.57184 639.548 758.03791 648.125 804.25391 C 650.936 819.40591 653.52056 835.47186 656.47656 850.04688 C 668.38256 908.74487 697.43056 955.91816 749.22656 986.78516 C 767.25056 997.52616 791.11487 1014.6889 796.42188 1036.1289 C 798.85686 1045.9689 795.88181 1058.7384 784.13281 1060.3984 C 765.99581 1062.9684 749.06625 1054.2298 734.78125 1043.8398 C 720.06025 1032.1798 705.24906 1015.6395 692.16406 1002.0195 C 653.66706 961.95556 611.78981 939.86775 555.25781 938.59375 C 525.70081 937.92775 496.01325 943.46756 466.65625 947.47656 C 461.33825 948.14256 454.19366 949.02125 449.72266 952.03125 C 449.35166 959.33425 485.72091 967.48144 492.62891 969.89844 A 512 512 0 0 1 522.97656 981.86328 C 548.69856 993.20028 569.57556 1005.9116 590.72656 1024.6016 C 659.11256 1084.8716 648.0025 1191.0909 710.4375 1256.4609 C 729.9495 1277.9509 753.60575 1293.6311 771.96875 1316.3711 C 782.48875 1329.3911 791.88959 1355.3792 766.80859 1354.6992 C 738.56659 1353.9292 711.56353 1325.5794 687.26953 1311.8594 A 241.8 241.8 0 0 0 620.29297 1286.1914 C 570.34197 1275.1114 533.38747 1285.9294 484.85547 1296.1094 C 460.85647 1301.1394 434.1785 1304.9109 410.1875 1298.4609 C 396.9005 1294.9209 383.46178 1289.7614 372.05078 1281.9414 C 367.97178 1279.1314 356.26186 1269.2986 352.79688 1268.0586 C 351.08488 1270.8186 350.51144 1272.6805 351.52344 1276.2305 C 361.35444 1310.7205 394.84022 1341.9688 423.94922 1359.4688 A 168.2 168.2 0 0 0 475.39453 1380.1094 C 493.93353 1384.3494 512.17422 1384.5419 530.07422 1387.6719 C 564.34322 1393.6619 613.18528 1411.9484 624.98828 1448.6484 C 634.50328 1478.2284 585.46619 1467.96 571.99219 1467.25 C 532.44919 1465.18 490.77964 1456.1898 451.64062 1462.5898 C 476.83763 1485.5098 511.49681 1503.75 536.63281 1528.5 C 554.96881 1546.56 573.42622 1563.7789 590.57422 1583.1289 C 624.30322 1617.5489 668.41141 1644.7498 716.81641 1651.0898 C 728.39941 1652.6098 748.84514 1652.1308 761.07812 1651.5508 A 833 833 0 0 0 828.35938 1645.1914 C 850.08437 1642.3714 865.01216 1638.8619 887.03516 1639.9219 C 891.86016 1640.5519 912.38575 1642.68 907.96875 1651.75 C 896.84375 1674.59 858.68513 1681.1606 837.07812 1686.3906 C 792.67013 1697.1406 754.23913 1693.0795 709.82812 1691.2695 C 746.63413 1722.6395 824.36691 1751.2994 872.75391 1757.8594 C 893.97291 1760.7294 919.88481 1760.6097 941.50781 1759.1797 C 995.28081 1755.6297 1040.4484 1738.0916 1083.6484 1706.3516 C 1067.9384 1728.4416 1062.4797 1735.1205 1042.6797 1754.7305 C 1064.7997 1755.4805 1087.0094 1756.5097 1109.1094 1755.6797 A 490.2 490.2 0 0 0 1289.5508 1713.3008 C 1325.6908 1697.0008 1362.1816 1677.7192 1399.8516 1665.4492 C 1436.1816 1653.6192 1475.6403 1650.3417 1513.0703 1644.0117 C 1531.3803 1640.9117 1549.9386 1633.2105 1567.5586 1627.4805 C 1686.2186 1590.8805 1806.1184 1493.6583 1811.8984 1360.9883 C 1812.3684 1350.3183 1811.7383 1339.5186 1809.7383 1328.9688 C 1795.6683 1351.5787 1785.2183 1378.7897 1758.9883 1390.6797 C 1752.2583 1393.7297 1734.2492 1401.0084 1731.4492 1390.3984 C 1736.5692 1366.9084 1763.3281 1337.1906 1775.8281 1315.3906 C 1792.0081 1287.1506 1793.3698 1273.0595 1798.0898 1242.7695 C 1807.3398 1183.3895 1795.1513 1121.8092 1762.0312 1071.4492 C 1755.4414 1061.4292 1740.4692 1036.7408 1729.4492 1033.0508 C 1727.2192 1036.3708 1731.9991 1062.3613 1732.0391 1069.5312 C 1732.1591 1091.6413 1726.4795 1103.3297 1716.7695 1122.1797 C 1713.0095 1102.2197 1711.6314 1082.4684 1708.1914 1063.1484 C 1699.0414 1011.6684 1674.0089 968.95216 1629.8789 940.16016 C 1614.3989 930.05916 1600.2706 921.54056 1584.1406 912.10156 C 1599.6706 911.65456 1631.6311 894.13222 1644.8711 885.19922 C 1715.9011 837.30022 1737.5198 771.55314 1723.0898 690.32812 C 1711.9798 712.70913 1701.2686 741.29056 1676.0586 751.10156 C 1669.8586 753.51656 1662.9198 751.14056 1661.3398 744.35156 C 1657.5798 728.26056 1669.0286 709.83453 1676.0586 696.01953 C 1683.9186 681.41553 1695.3012 666.82422 1702.7812 652.44922 C 1722.4113 614.75222 1727.2316 564.46164 1716.1016 522.51562 C 1709.0016 495.74262 1679.2189 441.18525 1655.1289 422.78125 C 1653.3289 421.40725 1650.3788 421.78009 1648.2188 422.12109 L 1646.6797 423.50781 C 1648.2697 451.73181 1659.09 494.37603 1638.75 519.20703 C 1632.12 527.30003 1614.5583 538.28544 1605.7383 527.14844 C 1594.9583 513.98744 1592.7314 493.27819 1594.1914 476.74219 C 1595.3214 465.81419 1598.2809 454.36013 1599.4609 443.32812 C 1602.9409 410.91512 1590.6594 380.99313 1570.8594 355.82812 C 1540.1894 316.83913 1491.67 297.49137 1453.75 266.60938 C 1441.96 257.00537 1429.3509 242.73281 1419.4609 231.00781 C 1408.3709 260.90381 1416.1209 288.38725 1422.2109 318.28125 C 1424.3409 328.70825 1427.2414 347.72153 1414.6914 352.51953 C 1405.5214 356.06653 1392.5881 353.94206 1383.8281 349.91406 C 1343.5081 330.68806 1337.9511 285.27931 1314.6211 254.07031 C 1275.7211 202.02331 1211.2389 173.0155 1147.6289 167.6875 C 1131.8589 166.3665 1118.6002 164.08459 1102.4102 165.55859 C 1130.4102 190.31359 1172.0586 221.01569 1174.7188 263.05469 A 95 95 0 0 1 1174.75 273.69922 C 1164.97 288.08222 1160.2814 297.39763 1141.6914 300.76562 C 1115.3214 305.54262 1078.6386 292.42425 1057.0586 277.90625 C 1032.8686 261.62325 1023.0492 239.09669 1006.4492 216.67969 C 970.29324 167.82769 887.97912 129.39666 827.07812 132.34766 z M 1136.7188 569.45312 C 1187.2188 567.52913 1245.4197 572.73472 1293.4297 588.63672 C 1332.6897 602.20172 1358.6713 627.03641 1375.2812 664.81641 C 1386.6614 690.71741 1385.7405 698.21619 1378.9805 725.24219 C 1369.7905 762.03319 1348.7502 784.72544 1314.4102 801.02344 C 1264.9802 820.74844 1211.5217 829.37844 1158.5117 828.14844 C 1138.1217 827.67544 1119.1513 825.97834 1098.5312 826.02734 C 1100.6313 741.35434 1106.3411 656.16084 1093.3711 572.21484 A 586 586 0 0 1 1136.7188 569.45312 z M 1161.8398 1081.2695 C 1200.7745 1080.084 1259.6072 1088.73 1290.3984 1096.2812 C 1373.3084 1116.6212 1427.8294 1185.9398 1400.1094 1271.8398 C 1387.8194 1309.9498 1362.6906 1331.02 1328.3906 1348.75 C 1277.1606 1376.65 1213.6789 1378.9784 1156.3789 1380.1484 C 1138.3189 1380.5184 1120.18 1377.9898 1102.25 1375.8398 C 1098.41 1341.0298 1100.6108 1311.7795 1100.8008 1277.0195 C 1101.7208 1214.1295 1102.0581 1151.2398 1101.8281 1088.3398 C 1117.5581 1085.3198 1130.6517 1083.7002 1146.5117 1082.4102 C 1151.1217 1081.8077 1156.2778 1081.4389 1161.8398 1081.2695 z " /><path
     id="path4"
     style="fill:#ffabf2;fill-opacity:1"
     d="m 952.94141,248.08594 c 3.751,23.041 12.49723,41.66756 12.07421,64.60156 -0.35599,19.293 -12.14515,46.42341 -26.41015,59.06641 -27.722,24.57 -60.94175,13.04612 -92.09375,3.70312 -17.372,-5.21 -33.6555,-9.79367 -50.5625,-16.59765 -20.669,-8.31802 -29.16081,-15.99782 -51.75781,-17.13282 7.378,13.534 20.9594,37.29263 31.6914,47.51563 22.315,21.257 67.63341,19.86822 87.94141,52.19922 4.853,7.726 8.04025,16.61803 10.15625,25.45703 3.252,13.586 11.18294,84.18087 8.58594,94.54687 -1.872,7.479 -6.77457,13.58594 -13.47657,17.33594 -16.992,9.505 -46.10798,5.63759 -64.04296,0.43359 -10.35901,-3.005 -20.10322,-7.51575 -30.57422,-10.34375 12.275,25.032 27.9339,48.13897 47.7539,67.91797 28.886,28.827 54.61058,43.84125 68.47656,85.40625 10.481,31.418 9.23097,69.044 -4.08203,99.875 -4.667,10.811 -17.10612,21.91003 -28.95312,25.08203 -29.571,6.912 -68.39053,0.10416 -95.14453,-13.58984 -9.314,-4.768 -27.15635,-24.24119 -36.90235,-26.61719 -7.633,1.591 -1.40612,4.20288 -3.70312,7.29688 l -7.19141,-11.66407 -0.29687,0.1211 c 5.774,12.139 14.46597,26.17622 19.41797,37.44922 10.512,23.935 14.05062,34.18322 32.51562,53.32422 19.91,20.64 35.03266,29.35859 62.22266,38.68359 18.985,6.511 39.74628,19.18411 53.86328,33.45313 16.095,16.15399 23.46962,49.43002 23.14062,71.75002 -0.499,33.79 -19.09672,48.6093 -42.13672,70.3594 3.05701,7.2999 15.22579,22.6123 12.67579,29.4023 -8.732,23.24 -52.33916,12.9583 -70.28516,9.7383 -19.796,-3.56 -41.15041,-13.7799 -56.44141,-26.8399 -6.703,-5.56 -15.33607,-11.8161 -23.51562,-19.7109 -13.56191,-14.4841 -59.80592,-50.3619 -59.82422,-50.3359 0,0 26.80834,97.5976 35.77734,122.3476 4.786,13.21 12.64935,26.8292 20.52735,38.4492 9.77185,14.5588 21.08957,28.0179 33.75781,40.1407 29.866,28.7 68.47016,53.0604 75.78516,97.2304 3.151,19.03 -0.51102,43.6686 -20.83204,51.0586 -18.877,6.86 -43.4265,-0.8189 -61.5625,-7.3789 -7.49698,-2.82 -20.60981,-13.22 -27.25781,-18 -22.85,-16.83 -43.46517,-34.8895 -70.11719,-45.5195 -61.75299,-24.64 -121.50106,-5.2496 -184.28906,-0.5196 -6.956,0.5201 -40.35284,-1.5493 -42.46484,-1.1093 0.526,1.03 14.40715,10.9279 16.16016,11.9179 26.71399,15.06 56.49262,19.7411 86.39062,24.6211 48.005,7.95 97.58975,26.688 124.46875,69.918 11.786,18.95 31.49789,40.6014 13.54687,62.4414 -19.45599,23.66 -65.36096,14.651 -91.91796,9.4609 -7.245,-1.5698 -19.61202,-4.492 -26.83204,-3.832 l -1.11718,1.25 c 2.235,3.08 7.51172,5.5916 11.01172,7.6016 27.485,17.48 51.68668,42.3384 76.55468,63.1484 17.681,14.8 41.57113,29.3489 63.20313,38.1289 34.993,14.22 80.00222,11.26 116.94922,7.75 41.906,-3.98 83.82765,-22.7378 124.09765,-0.2578 9.768,5.3 14.96747,6.2492 17.60547,17.6992 3.016,13.08 0.62444,19.6219 -6.72656,30.6719 -18.79,28.25 -54.07106,41.0072 -84.16406,53.3672 22.632,2.57 52.89825,4.3808 75.53125,4.3008 60.19996,-0.23 115.62076,-35.1007 154.80076,-79.1406 17.09,-14.9502 32.7713,-21.5005 33.2813,8.2695 0.36,20.86 -10.8418,36.0436 -18.5117,54.4336 -1.7402,4.18 -1.3696,3.5873 -4.5196,7.2773 l -0.8984,1.0391 c 1.66,4.03 13.2287,-0.8069 18.7187,0.2031 4.56,0.85 15.6989,3.2677 19.3789,3.0977 37.22,-1.66 75.6007,-14.6205 110.3907,-27.4805 43.44,-18.62 81.3293,-46.907 127.6093,-59.207 27.47,-7.29 53.9714,-12.711 81.9414,-17.461 11.65,-2.11 44.1104,-6.0808 53.8204,-10.3008 2.88,-2.34 14.7387,-2.4095 16.7187,-4.2695 2.51,-2.83 6.3524,-9.1712 10.1523,-10.5312 9.6502,-3.44 42.0475,-6.0386 41.6876,-20.5586 -0.2301,-9.26 -13.1291,-11.5613 -20.2891,-18.7813 1.19,-3.44 1.2514,-1.4275 0.6914,-4.9375 1.2373,-4.5853 75.9197,-54.9199 89.8672,-76.9609 1.18,-2.11 0.5301,-3.5322 -0.3399,-5.4922 -13.46,-8.44 -83.439,19.5997 -50.789,-41.8203 9.37,-18.59 21.2192,-37.0388 37.1992,-50.7188 14.24,-12.19 28.0209,-22.6787 39.4609,-37.9687 11.61,-15.53 25.0399,-31.5925 32.3399,-49.8125 10.61,-26.46 14.7625,-54.4894 17.8125,-82.6094 -14.34,9.19 -37.2413,19.2511 -54.2813,15.6211 -17.55,-3.73 -16.3295,-20.6687 -22.7695,-33.2188 -1.1,-2.1398 -2.7427,-2.5114 -4.7227,-2.6914 -7.08,4.05 -6.1172,16.7213 -11.6172,27.5313 -10.2598,20.13 -10.1531,33.2708 -32.4531,46.3008 -3.04,1.77 -5.0675,2.1593 -8.4375,1.1093 -22.93,-19.75 10.591,-91.5896 17.711,-115.4296 3.45,-11.57 4.0178,-28.7418 2.5078,-40.7618 -3.07,-24.41 -10.6196,-49.3612 -20.0196,-71.2812 -33.64,-78.43302 -65.7503,-53.7486 -134.0703,-77.9336 -7.14,-2.528 -17.2878,-5.83591 -23.2578,-11.00391 -1.06,-1.213 -2.8901,-4.83534 -2.4101,-6.27734 3.31,-9.922 17.2776,-16.90081 26.0976,-22.13281 9.14,-5.422 18.8719,-11.71591 28.1719,-16.75391 21.23,-11.499 38.0586,-27.20584 55.8086,-43.21484 8.2,-7.397 15.2395,-16.51788 24.7695,-22.29688 14.39,-9.107 28.4705,-5.64409 42.9805,-12.12109 2.4,-1.071 9.6694,-6.94572 12.1094,-8.88672 -12.63,-4.258 -25.971,-8.06538 -32.711,-20.48438 -12.73,-23.42399 -9.9972,-63.81612 1.3828,-87.20312 2.65,-5.441 11.3686,-17.19764 15.0586,-22.51562 5.6429,-8.2865 10.6797,-16.97152 15.0703,-25.98438 8.75,-18.087 24.4185,-63.32766 29.3985,-83.09766 -23.67,13.069 -48.4897,23.19125 -75.7695,10.15625 -16.0102,-7.649 -46.2591,-44.04147 -47.5391,-61.60547 -4.27,-58.53599 5.0484,-118.516 -39.8516,-165.375 -2.44,12.647 -3.7597,25.85144 -9.4297,37.39844 -12.81,26.137 -34.0498,33.09891 -60.8398,36.25391 -27.5,3.238 -42.9969,-0.92297 -65.0469,-18.29297 -8.45,-6.655 -15.1423,-15.27122 -24.1523,-21.19922 -7.18,-4.633 -16.7183,-6.85525 -23.9883,-10.53125 -18.94,-9.568 -23.0297,-37.50634 -29.6797,-56.15234 -8.69,-24.376 -21.3822,-44.78769 -45.2422,-56.42969 2.53,14.447 6.3613,30.85736 5.2813,45.23438 -2.33,40.72799 -43.3805,64.39243 -81.2305,59.27343 -30.83,-4.171 -69.8892,-16.71528 -99.1992,-27.86328 -41.69,-15.855 -76.90839,-57.52159 -105.35939,-91.18359 z m 183.77739,321.36718 c 50.5,-1.92399 108.7009,3.2816 156.7109,19.1836 39.26,13.565 65.2416,38.39969 81.8515,76.17969 11.3802,25.901 10.4593,33.39978 3.6993,60.42578 -9.19,36.791 -30.2303,59.48325 -64.5703,75.78125 -49.43,19.725 -102.8885,28.355 -155.8985,27.125 -20.39,-0.473 -39.3604,-2.1701 -59.9805,-2.1211 2.1001,-84.673 7.8099,-169.8665 -5.1601,-253.8125 14.4101,-1.45595 28.8693,-2.37715 43.3477,-2.76172 z m 25.121,511.81638 c 38.9347,-1.1855 97.7674,7.4605 128.5586,15.0117 82.91,20.34 137.431,89.6586 109.711,175.5586 -12.29,38.11 -37.4188,59.1802 -71.7188,76.9102 -51.23,27.9 -114.7117,30.2284 -172.0117,31.3984 -18.06,0.37 -36.1989,-2.1586 -54.1289,-4.3086 -3.84,-34.81 -1.6392,-64.0603 -1.4492,-98.8203 0.92,-62.89 1.2573,-125.7797 1.0273,-188.6797 15.73,-3.02 28.8236,-4.6396 44.6836,-5.9296 4.61,-0.6025 9.7661,-0.9713 15.3281,-1.1407 z"
     sodipodi:nodetypes="cssssccsccccccscccccccccscccccccccccccccccccccccccccccccccccccccccccccccccccccscccccccccccccccscccscccccccccccccccccccccccccsccccccccccccc" /><path
     id="path8"
     style="fill:#ff05da;fill-opacity:1;fill-rule:nonzero;stroke:none"
     d="M 1087.2812 988.19922 C 1049.6712 987.37722 1004.7094 1020.9609 1008.3594 1061.4609 C 1011.0194 1086.0709 1014.8217 1106.7987 1009.0117 1131.4688 C 997.00372 1182.4888 946.29719 1219.0695 959.49219 1275.7695 C 961.58619 1284.7695 964.19381 1300.7197 976.25781 1299.6797 C 982.67181 1299.1197 994.01003 1292.7683 998.08203 1287.2383 C 1009.21 1268.3683 1016.9181 1243.2009 1025.5781 1222.9609 C 1039.8281 1294.3609 1026.6388 1323.3316 999.46484 1387.1016 C 987.57584 1422.5216 985.76741 1466.6319 1020.9414 1489.4219 C 1035.4814 1498.8419 1055.7683 1504.0397 1071.9883 1500.4297 C 1111.1483 1491.7197 1072.7386 1469.1181 1061.8086 1456.0781 C 1077.9186 1455.8781 1091.3405 1458.1911 1106.2305 1464.6211 C 1116.0005 1468.8511 1138.9505 1473.4002 1144.9805 1480.6602 C 1140.7105 1491.6802 1132.6219 1495.3081 1136.1719 1507.3281 C 1144.1119 1534.1981 1185.4197 1522.6809 1202.6797 1512.2109 C 1227.6797 1497.0609 1244.5306 1463.7391 1269.3906 1447.2891 C 1289.3506 1433.6491 1314.4794 1429.5781 1337.3594 1423.0781 C 1341.4394 1421.9181 1355.5691 1417.6484 1357.7891 1422.3984 C 1353.1791 1432.0984 1330.5486 1444.3897 1325.5586 1456.9297 C 1322.9786 1463.3997 1312.7691 1485.3709 1325.2891 1487.7109 C 1343.0991 1491.0409 1360.3512 1483.9803 1375.0312 1474.5703 C 1433.0212 1443.6303 1431.3314 1387.6003 1469.4414 1343.3203 L 1478.0117 1348.6289 C 1480.6517 1358.2589 1480.7181 1361.1084 1488.0781 1367.8984 C 1499.8381 1379.6584 1512.2889 1372.1903 1522.6289 1362.5703 C 1550.6789 1336.4703 1552.7298 1312.4695 1554.0898 1277.2695 C 1555.0698 1272.6395 1554.7202 1267.3781 1554.6602 1262.5781 C 1552.4802 1260.0681 1549.7205 1257.7283 1547.2305 1255.4883 C 1532.3305 1254.7683 1520.7495 1257.6684 1505.7695 1258.1484 C 1490.2495 1253.7684 1495.9594 1195.9703 1495.1094 1182.0703 C 1493.1194 1149.4303 1494.1306 1131.3019 1465.3906 1110.9219 C 1454.2906 1103.0519 1415.0916 1084.3506 1418.3516 1069.6406 C 1425.9116 1057.5906 1444.5397 1063.1017 1455.1797 1066.2617 C 1455.1397 1066.2017 1473.1405 1076.8103 1475.7305 1078.5703 C 1473.3405 1070.2903 1469.9908 1062.4705 1464.5508 1055.7305 C 1441.6208 1025.9105 1401.8483 1013.5414 1365.9883 1007.1914 C 1336.7883 1002.0214 1322.9084 1014.1981 1297.8984 1021.8281 C 1284.9084 1025.7881 1253.2398 1029.5798 1238.8398 1031.5898 C 1201.3498 1036.8298 1164.0287 1027.2706 1127.2188 1022.6406 C 1112.4288 1020.7706 1093.4705 1022.4709 1077.9805 1020.4609 C 1092.8105 1013.0109 1099.4509 1008.3094 1116.4609 1006.1094 C 1122.7809 1005.2894 1141.0105 1004.8008 1144.2305 1002.8008 C 1144.2805 1001.0508 1144.7508 1000.7798 1143.3008 999.71875 C 1127.3208 987.96375 1106.0013 988.38422 1087.2812 988.19922 z M 1161.8398 1081.2695 C 1200.7745 1080.084 1259.6072 1088.73 1290.3984 1096.2812 C 1373.3084 1116.6212 1427.8294 1185.9398 1400.1094 1271.8398 C 1387.8194 1309.9498 1362.6906 1331.02 1328.3906 1348.75 C 1277.1606 1376.65 1213.6789 1378.9784 1156.3789 1380.1484 C 1138.3189 1380.5184 1120.18 1377.9898 1102.25 1375.8398 C 1098.41 1341.0298 1100.6108 1311.7795 1100.8008 1277.0195 C 1101.7208 1214.1295 1102.0581 1151.2398 1101.8281 1088.3398 C 1117.5581 1085.3198 1130.6517 1083.7002 1146.5117 1082.4102 C 1151.1217 1081.8077 1156.2778 1081.4389 1161.8398 1081.2695 z " /><path
     id="path16"
     style="fill:#ff05da;fill-opacity:1;fill-rule:nonzero;stroke:none"
     d="m 1179.6797,438.69531 c -13.05,-0.102 -26.7678,0.72822 -39.0078,5.57422 -4.96,1.964 -12.5424,5.61709 -14.6524,10.99609 -1.19,3.031 -0.6006,5.84663 0.8594,8.64063 9.17,17.469 50.5697,27.72969 64.1797,41.42969 l -0.6172,1.23437 c -14.1,4.662 -40.6014,2.65031 -56.4414,-0.42969 -29.59,-5.74999 -136.07125,-41.94474 -153.65625,-7.59374 -4.606,8.70299 -3.46434,19.32896 -0.52734,28.16796 4.427,13.061 15.97928,21.846 23.61329,32.875 34.62,50.001 19.8285,118.67232 -22.31251,159.44532 -34.054,32.948 -28.50778,75.79684 -12.05078,115.71484 1.948,4.725 6.8604,17.06384 13.1914,14.58984 8.991,-11.433 7.68991,-56.11684 26.75389,-65.21484 8.47,4.164 7.12,37.86128 5.75,45.86328 -8.69,50.79 6.1069,83.92597 54.2969,104.29297 11.49,4.857 42.0133,30.03809 53.8633,14.62109 2.8,-10.388 -17.3522,-29.90756 -23.2422,-39.35156 -1.1372,-3.45792 -6.6125,-13.38277 -5.1127,-15.33719 1.7276,-2.25138 8.5431,0.92167 15.1713,1.57547 24.57,4.021 46.0522,12.56032 70.7422,14.44532 32.2,2.46 57.3707,-4.60776 88.3007,-11.34376 25.6901,-5.59799 69.6385,-3.35009 91.6485,-18.99609 40.1552,-28.8838 69.2486,-70.60856 82.4687,-118.27344 3.82,-13.893 5.8721,-30.03037 9.3321,-44.60937 7.27,9.373 31.0893,31.59112 43.1093,18.95312 20.1,-21.136 11.8611,-64.11297 -6.8789,-84.04296 -6.07,-7.22501 -14.8728,-12.50004 -21.3828,-19.08204 -16.64,-16.85 -37.2462,-35.18459 -47.1562,-56.93359 -3.63,-7.958 -6.9121,-33.74734 -0.5821,-40.40234 20.58,-6.101 51.049,59.09272 63.629,65.76171 9.53,-4.21999 1.1031,-29.38637 -2.0469,-36.85937 -17.66,-41.849 -49.2438,-70.34963 -91.0938,-87.14063 -9.28,-3.71899 -52.1465,-15.44274 -54.2265,-0.96874 4.89,8.905 21.0972,23.22728 18.1172,34.36328 -0.52,1.952 -2.1471,3.4805 -3.9571,4.3125 -12.3,5.651 -34.4412,-3.51041 -46.0312,-8.44141 -51.29,-21.813 -58.0008,-67.32094 -124.0508,-67.83594 z m -42.9609,130.75781 c 50.5,-1.92399 108.7009,3.2816 156.7109,19.1836 39.26,13.565 65.2416,38.39969 81.8515,76.17969 11.3801,25.901 10.4593,33.39978 3.6993,60.42578 -9.19,36.791 -30.2303,59.48325 -64.5703,75.78125 -49.43,19.725 -102.8885,28.355 -155.8985,27.125 -20.39,-0.473 -39.3605,-2.1701 -59.9805,-2.1211 2.1,-84.673 7.8099,-169.8665 -5.1601,-253.8125 14.4101,-1.45595 28.8693,-2.37715 43.3477,-2.76172 z"
     sodipodi:nodetypes="sscccccccccsccccccsccccccccccccccccccscccccsccc" /><path
     id="path38"
     style="fill:#ffabf2;fill-opacity:1"
     d="m 1684.9688,779.11719 c -14.9451,5.13162 -30.414,9.57676 -46.3929,8.8564 -6.516,2.07837 8.7727,1.77344 10.7223,1.84109 7.3324,3.07311 -3.7144,13.98165 -5.2938,19.45701 -11.0383,24.01463 -30.2245,44.32664 -54.2837,55.5289 -8.1766,3.36819 -15.4528,8.40169 -21.9959,14.25659 -19.9662,11.6432 -45.3202,11.37503 -63.7328,26.14239 -6.6179,5.40297 -12.4572,16.15345 -5.7737,23.71353 5.1355,6.31898 13.5269,11.86374 21.9809,9.84081 -8.0239,0.24494 -20.2371,-7.14277 -19.0891,-14.01047 2.8313,1.80906 11.0514,3.69065 4.6272,-0.60931 -8.3175,-2.22235 -7.2559,-10.12487 -0.1056,-13.14716 17.0589,-11.07784 36.6478,-17.61599 56.4964,-21.57566 13.2943,-2.83615 26.0312,-7.72198 38.02,-14.07162 16.4534,-5.32608 30.1743,-16.4525 43.1807,-27.47719 20.5543,-18.03116 34.5698,-42.46278 41.64,-68.74531 z" /><path
     fill="#EA2000"
     d="M1669.53 469.665c.62.362 1.52.833 1.87 1.393 13.4 22.216 21.12 51.835 23.15 77.323 2.54 31.722-13.98 79.138-35.23 102.829-.1-2.387 1.18-4.537 2.17-6.964 12.59-28.678 17.45-59.314 16.75-90.767-.21-9.439.49-15.784-11.43-13.908-6.47 1.02-7 5.337-11 9.296l-1.59-.451c3.73-5.451 8.43-11.556 9.17-18.128 2.29-20.338 4.98-40.175 6.14-60.623"
     id="path39"
     style="fill:#ffabf2;fill-opacity:1" /><path
     fill="#CB1A00"
     d="M255.34 1069.65c2.313.25 17.648 5.24 21.082 6.22a190 190 0 0 0 45.671 7.53c19.768.91 39.624-1.04 59.284-3.42 53.234-6.46 87.92-3.01 137.211 19.71 61.552 28.36 100.196 70.91 123.435 135.08.469 1.26.627 2.51.895 3.85l-1.151.51c-7.106-2.97-23.836-14.95-31.779-19.68-46.109-27.48-96.761-50.45-150.294-58.42-43.369-6.46-88.171-6.42-128.357-27.42-22.513-11.76-67.203-39.51-75.997-63.96"
     id="path42"
     style="fill:#d70079;fill-opacity:1" /><path
     fill="#EB3800"
     d="M407.5 1111.5c4.741-1.3 17.779-1.26 23.241-1.16 39.258.73 78.235 14.18 111.046 35.39 11.637 7.53 25.57 21.12 35.012 30.99-13.283-6.71-27.797-13.31-41.299-19.75-50.661-24.03-90.36-22.36-143.758-30-16.668-2.38-19.997-8.62-34.134-13.56l.393-.61c2.974 1.03 5.821 1.91 8.832 2.83 3.646-3.12 34.2-4.13 40.667-4.13"
     id="path43"
     style="fill:#ffabf2;fill-opacity:1" /><path
     fill="#CB1A00"
     d="M478.621 512.35c34.342-3.585 62.524 5.629 94.4 16.526 52.699 18.016 93.064 58.755 115.925 109.622a556.8 556.8 0 0 0-112.21-39.285c-17.573-3.117-31.371-6.75-49.806-7.808-33.444-1.92-68.489.594-101.432-4.693-30.657-4.92-78.236-16.463-97.275-42.713 65.934 6.229 92.544-23.394 150.398-31.649"
     id="path44"
     style="fill:#d70079;fill-opacity:1" /><path
     id="path45"
     style="fill:#ffabf2;fill-opacity:1"
     d="m 515.66016,537.72266 c -33.21848,-0.18065 -64.28282,13.23951 -94.89116,24.52197 -2.6399,0.59617 -9.65908,3.36757 -2.93071,4.22064 16.83564,2.44545 33.94623,0.77864 50.86992,0.26514 19.80929,-1.59242 39.76412,-0.38008 59.28082,3.32051 23.34416,4.13076 46.34498,10.44166 69.94847,12.92955 -1.41708,-4.44158 -6.12053,-9.56658 -8.16576,-14.64713 -11.71882,-13.92165 -28.83501,-22.22843 -46.16115,-26.89771 -9.11077,-2.41282 -18.5269,-3.64732 -27.95043,-3.71297 z" /><path
     fill="#CB1A00"
     d="M433.556 798.406c25.387-2.27 63.298 5.941 87.329 13.856 44.77 14.746 86.31 51.722 106.759 94.36-29.892-19.45-87.829-39.597-123.184-38.648-15.796.423-33.358 4.017-49.705 5.271-11.729 1.339-41.514 2.681-52.548.911-56.123-9.005-115.409-24.624-160.879-60.259-2.543-1.992-4.824-4.368-5.087-7.677 3.591-3.994 42.795 6.976 49.787 8.477 52.443 11.258 96.804-11.421 147.528-16.291"
     id="path47"
     style="fill:#d70079;fill-opacity:1" /><path
     id="path48"
     style="fill:#ffabf2;fill-opacity:1"
     d="m 439.41406,826.97266 c -26.53399,0.20811 -52.19429,7.90888 -77.76165,14.1584 -4.87839,1.24216 -9.75683,2.5074 -14.7071,3.43535 36.53823,5.7239 73.7653,9.3706 110.67995,5.17496 15.5348,-1.21487 30.74598,-5.4972 46.40218,-5.09705 5.29951,-0.23867 14.20521,0.91357 17.1325,0.32296 -12.9863,-7.5189 -27.56903,-11.54196 -42.3017,-13.85502 -13.00182,-2.45787 -26.18936,-4.21703 -39.44418,-4.1396 z" /><path
     fill="#CB1A00"
     d="M457.398 320.374c80.758-9.189 97.31 64.529 167.259 81.734 8.146 2.004 19.403 4.929 26.791 8.612 2.02 2.693 1.621 1.228 1.306 4.523-6.193 7.073-18.632 8.823-27.557 10.395-40.555 7.141-75.003-9.91-112.517-21.758-48.222-14.269-89.692-13.654-138.69-18.318-25.279-2.406-67.123-16.044-83.01-37.601 19.159.326 29.922 3.069 50.594 1.023 39.409-3.9 78.177-24.263 115.824-28.61"
     id="path50"
     style="fill:#d70079;fill-opacity:1" /><path
     id="path51"
     style="fill:#ffabf2;fill-opacity:1"
     d="m 468.98047,350.51172 c -17.9053,-0.19582 -35.91574,2.0562 -52.87164,8.0029 -11.86421,3.87102 -23.48599,8.46983 -35.46821,11.98147 25.44602,1.07436 51.01163,-0.3625 76.35284,2.79829 28.15562,2.93419 55.25446,11.65525 81.63819,21.55649 9.70717,3.49546 19.45143,6.91636 29.38397,9.72335 -11.13995,-7.41739 -20.09599,-17.59241 -31.15643,-25.14439 -18.88326,-14.5968 -40.61294,-27.72536 -65.1008,-28.79148 l -1.38261,-0.0733 z" /></svg>
