<?xml version="1.0" encoding="UTF-8" standalone="no"?>
<!-- Created with Inkscape (http://www.inkscape.org/) -->

<svg
   width="1280"
   version="1.1"
   height="640"
   id="svg1"
   sodipodi:docname="sonicde-blaze-workspace-github-social.svg"
   inkscape:version="1.4.2 (ebf0e940d0, 2025-05-08)"
   inkscape:export-filename="sonic-blaze-workspace-github-social.png"
   inkscape:export-xdpi="96"
   inkscape:export-ydpi="96"
   xmlns:inkscape="http://www.inkscape.org/namespaces/inkscape"
   xmlns:sodipodi="http://sodipodi.sourceforge.net/DTD/sodipodi-0.dtd"
   xmlns:xlink="http://www.w3.org/1999/xlink"
   xmlns="http://www.w3.org/2000/svg"
   xmlns:svg="http://www.w3.org/2000/svg">
  <sodipodi:namedview
     id="namedview1"
     pagecolor="#505050"
     bordercolor="#ffffff"
     borderopacity="1"
     inkscape:showpageshadow="0"
     inkscape:pageopacity="0"
     inkscape:pagecheckerboard="1"
     inkscape:deskcolor="#505050"
     inkscape:zoom="0.5427597"
     inkscape:cx="470.74239"
     inkscape:cy="176.87385"
     inkscape:window-width="1920"
     inkscape:window-height="963"
     inkscape:window-x="3840"
     inkscape:window-y="44"
     inkscape:window-maximized="1"
     inkscape:current-layer="layer1" />
  <defs
     id="defs5455">
    <linearGradient
       inkscape:collect="always"
       id="linearGradient4326">
      <stop
         id="stop4328" />
      <stop
         offset="1"
         style="stop-opacity:0"
         id="stop4330" />
    </linearGradient>
    <linearGradient
       inkscape:collect="always"
       xlink:href="#linearGradient4326"
       id="linearGradient4434"
       y1="502.798"
       x1="439.57144"
       y2="512.79803"
       x2="429.57144"
       gradientUnits="userSpaceOnUse"
       gradientTransform="matrix(15.525598,0,0,15.525598,-5366.206,-7049.0184)" />
  </defs>
  <metadata
     id="metadata5458" />
  <g
     inkscape:label="Capa 1"
     inkscape:groupmode="layer"
     id="layer1"
     transform="translate(-384.57143,-483.798)">
    <rect
       style="fill:#1a1a1a;stroke-width:100"
       id="rect1"
       width="1287.1654"
       height="646.51404"
       x="384.24573"
       y="483.14661" />
    <path
       style="fill:#3b3f42;fill-rule:evenodd;stroke-width:15.5256"
       id="path4422"
       d="m 1241.045,539.86289 -93.1537,93.15359 170.7817,170.78157 -170.7817,170.78158 93.1537,93.15357 263.9351,-263.93515 z" />
    <flowRoot
       line-height="125%"
       style="font-size:32.5px;font-family:sans-serif"
       id="flowRoot4170"><flowRegion
         id="flowRegion4172"><rect
           width="87.75001"
           x="452.32144"
           y="489.79807"
           height="48.750004"
           id="rect4174" /></flowRegion><flowPara
         id="flowPara4176">Plasm</flowPara></flowRoot>
    <path
       inkscape:connector-curvature="0"
       style="opacity:0.9;fill:url(#linearGradient4434);fill-rule:evenodd;stroke-width:15.5256"
       id="path4426"
       d="m 1209.9938,912.47724 93.1536,93.15356 108.6791,-108.67916 -93.1535,-93.15359 z" />
    <path
       id="path3"
       style="display:block;fill:#fd3f00;fill-opacity:1;stroke-width:0.374546"
       d="m 765.45862,498.97731 -1.15045,0.68313 c 0.01,0.7002 -0.0932,0.73591 0.36796,1.00606 3.44125,1.9584 6.91324,3.33816 10.33368,5.48349 9.66437,6.06196 15.33122,14.6751 18.44767,25.56724 2.3321,8.15016 5.22235,18.94185 -1.25913,26.10707 -4.77505,5.12935 -12.1983,6.46517 -18.8341,6.84275 -6.60024,0.37572 -12.01355,-1.38488 -18.11573,-2.53269 -15.17814,-2.73623 -25.26419,-12.08388 -37.66107,-19.52158 -14.86063,-8.91619 -35.56215,-15.46116 -52.85193,-13.29503 -2.86913,0.36019 -15.05548,1.83 -15.00223,5.78794 1.89056,1.04487 6.42294,1.26378 8.76234,1.65472 a 44.720861,44.720861 0 0 1 16.83115,6.63067 c 28.95089,19.0378 29.58868,52.93887 53.45028,76.04454 6.20512,6.00902 13.05889,12.84603 19.07273,19.05642 -15.98717,-6.25014 -33.10445,-13.72509 -50.59155,-10.78252 -3.24547,0.54495 -6.66219,0.82596 -9.33586,2.83839 l 0.0311,0.54495 c 5.50211,3.03044 9.8485,4.06335 15.35652,7.90206 13.672,9.39687 20.60185,25.15333 26.00025,40.28132 2.25432,6.29796 4.92705,13.89541 8.58674,19.41352 5.3863,8.12237 13.88175,12.58008 18.52251,21.49239 10.83143,20.80213 1.86152,26.25053 -16.13327,13.20157 -7.00267,-5.07795 -11.53816,-11.76856 -18.3924,-16.93811 -19.71208,-16.20485 -48.17888,-15.21028 -72.2611,-12.87523 5.14472,3.45259 11.23106,6.23865 16.69203,9.2205 14.85707,7.99925 28.89625,20.53369 32.10865,37.8438 1.05263,5.67507 2.02097,11.69264 3.12825,17.15159 4.45911,21.98518 15.33898,39.65378 34.73915,51.21491 6.75068,4.02315 15.68908,10.45122 17.67698,18.48137 0.91135,3.68562 -0.20339,8.46843 -4.60303,9.09008 -6.79323,0.96259 -13.13404,-2.31021 -18.48447,-6.20201 -5.51376,-4.36704 -11.06121,-10.56222 -15.96218,-15.66362 -14.41877,-15.0058 -30.10382,-23.27862 -51.27763,-23.75572 -11.07037,-0.24996 -22.1898,1.82534 -33.18534,3.32698 -1.99194,0.24996 -4.66793,0.57755 -6.34268,1.70595 -0.13973,2.7353 13.48305,5.78686 16.07055,6.692 a 191.76784,191.76784 0 0 1 11.3666,4.48131 c 9.63394,4.24625 17.45357,9.00733 25.3755,16.00751 25.61382,22.57407 21.45234,62.3581 44.83715,86.84228 7.30821,8.04878 16.16867,13.92196 23.04651,22.43915 3.94009,4.87659 7.46145,14.61036 -1.93278,14.35574 -10.57774,-0.28878 -20.69174,-10.90689 -29.79098,-16.04571 a 90.56536,90.56536 0 0 0 -25.0858,-9.61391 c -18.70912,-4.14984 -32.55019,-0.0932 -50.72772,3.71481 -8.9887,1.88403 -18.98081,3.29655 -27.96657,0.8803 -4.97657,-1.32589 -10.01012,-3.25851 -14.28401,-6.18742 -1.52772,-1.05263 -5.9137,-4.7353 -7.21149,-5.19967 -0.63965,1.034 -0.85701,1.7311 -0.47818,3.06071 3.6822,12.91808 16.22409,24.6222 27.12694,31.17649 a 62.998732,62.998732 0 0 0 19.26851,7.73113 c 6.94367,1.58842 13.77586,1.66015 20.48013,2.83233 12.83532,2.24376 31.12898,9.09272 35.54973,22.83862 3.56391,11.07902 -14.80272,7.23307 -19.84947,6.96727 -14.81065,-0.77628 -30.41775,-4.1427 -45.07733,-1.74555 9.43754,8.5846 22.41911,15.4164 31.83353,24.6865 6.86775,6.7642 13.78083,13.2135 20.20361,20.461 12.63318,12.8918 29.15382,23.0797 47.28368,25.4545 4.33816,0.5698 11.99616,0.3897 16.57792,0.1724 a 311.99729,311.99729 0 0 0 25.20006,-2.3818 c 8.13697,-1.0558 13.7282,-2.3708 21.9768,-1.9736 1.80718,0.2359 9.49499,1.034 7.84058,4.43 -4.16692,8.5548 -18.459,11.0158 -26.55172,12.9746 -16.63289,4.0264 -31.02713,2.5054 -47.66126,1.8274 13.7858,11.7496 42.90018,22.4842 61.02352,24.9409 7.9474,1.0759 17.65276,1.0309 25.75153,0.4953 20.14043,-1.329 37.05774,-7.8983 53.23805,-19.7865 -5.88404,8.2738 -7.92845,10.7753 -15.34457,18.1203 8.28493,0.281 16.60354,0.666 24.88102,0.3555 a 183.60272,183.60272 0 0 0 67.5837,-15.8727 c 13.53615,-6.1052 27.20364,-13.327 41.31268,-17.9228 13.60726,-4.4308 28.38652,-5.6583 42.40572,-8.0292 6.8581,-1.1613 13.8091,-4.0457 20.4084,-6.1918 44.4439,-13.7083 89.3516,-50.1226 91.5168,-99.8137 0.1755,-3.99645 -0.062,-8.04148 -0.8088,-11.99275 -5.2699,8.46844 -9.1839,18.66022 -19.0083,23.11358 -2.5206,1.14268 -9.266,3.86867 -10.3146,-0.0932 1.9177,-8.79821 11.9401,-19.92882 16.6218,-28.09388 6.0603,-10.57728 6.5703,-15.85506 8.3382,-27.20023 3.4644,-22.24042 -1.1023,-45.30509 -13.5057,-64.1673 -2.4681,-3.753 -8.076,-13.00005 -12.2034,-14.38213 -0.8353,1.2436 0.9548,10.9783 0.9688,13.66361 0.047,8.28151 -2.0825,12.65911 -5.7194,19.71937 -1.4097,-7.47588 -1.9242,-14.87368 -3.2128,-22.10985 -3.4271,-19.2817 -12.8031,-35.28099 -29.3318,-46.06491 -5.7978,-3.78312 -11.0896,-6.97379 -17.1309,-10.50912 5.8167,-0.16768 17.7872,-6.73051 22.7464,-10.07627 26.6039,-17.94045 34.7011,-42.56576 29.2965,-72.98817 -4.1613,8.38274 -8.173,19.08764 -17.6155,22.76239 -2.3222,0.90514 -4.9212,0.0141 -5.5127,-2.52834 -1.4082,-6.02673 2.8795,-12.92801 5.5127,-18.10254 2.9439,-5.46998 7.2071,-10.93483 10.0089,-16.31911 7.3523,-14.11929 9.1579,-32.95541 4.9891,-48.66623 -2.6592,-10.02767 -13.8143,-30.462 -22.837,-37.35521 -0.6739,-0.51389 -1.7793,-0.37572 -2.5883,-0.24685 l -0.5776,0.5201 c 0.5947,10.57107 4.6482,26.5435 -2.97,35.8438 -2.4833,3.03121 -9.0611,7.14565 -12.3644,2.97439 -4.0378,-4.92922 -4.8717,-12.68597 -4.325,-18.87959 0.4238,-4.09286 1.5324,-8.3832 1.9738,-12.51503 1.3026,-12.14009 -3.2966,-23.34724 -10.7126,-32.77268 -11.4875,-14.60337 -29.6602,-21.8501 -43.863,-33.41667 -4.41597,-3.59713 -9.13854,-8.9429 -12.84295,-13.33463 -4.15356,11.19768 -1.25136,21.49147 1.0309,32.68806 0.79802,3.90547 1.88403,11.0269 -2.8165,12.82399 -3.43457,1.32744 -8.27871,0.53253 -11.55974,-0.97501 -15.10175,-7.20108 -17.18311,-24.20875 -25.92123,-35.89797 -14.56984,-19.49379 -38.7213,-30.3586 -62.54642,-32.35426 -5.90656,-0.49527 -10.87242,-1.34918 -16.93641,-0.79802 10.48739,9.27189 26.08673,20.77123 27.083,36.51698 a 35.581925,35.581925 0 0 1 0.01,3.98667 c -3.6631,5.38722 -5.41905,8.87629 -12.38198,10.13759 -9.87676,1.78933 -23.61614,-3.12421 -31.69876,-8.56175 -9.06043,-6.09876 -12.73829,-14.53599 -18.95583,-22.93208 -13.54188,-18.29754 -44.37247,-32.69163 -67.18268,-31.58652 z m 115.97497,163.71635 c 18.91468,-0.71884 40.71355,1.22807 58.69561,7.18509 14.70461,5.08075 24.43589,14.38245 30.65716,28.53279 4.26224,9.70117 3.91726,12.5099 1.38643,22.63228 -3.44202,13.78021 -11.32266,22.27939 -24.18453,28.38359 -18.51381,7.38801 -38.53655,10.62029 -58.39131,10.15964 -7.63689,-0.17699 -14.74218,-0.81044 -22.46554,-0.79491 0.78715,-31.71383 2.92518,-63.62281 -1.93263,-95.06448 a 219.48429,219.48429 0 0 1 16.23574,-1.034 z m 9.40898,191.6989 c 14.58288,-0.44403 36.61852,2.7943 48.15124,5.62275 31.05353,7.61826 51.47419,33.58125 41.09176,65.75479 -4.60319,14.27408 -14.01511,22.16559 -26.86192,28.80651 -19.18809,10.44996 -42.96492,11.32188 -64.42642,11.76001 -6.76435,0.13974 -13.5582,-0.80733 -20.27379,-1.61373 -1.43923,-13.03793 -0.61327,-23.99357 -0.5434,-37.01271 0.34467,-23.55528 0.47043,-47.11041 0.38503,-70.66942 5.89166,-1.13026 10.79588,-1.73762 16.73613,-2.22078 1.72676,-0.22512 3.65783,-0.36485 5.74121,-0.42695 z" />
    <path
       id="path4"
       style="display:block;fill:#fff941;fill-opacity:1;stroke-width:0.374546"
       d="m 812.60054,542.32665 c 1.40507,8.6299 4.68066,15.60633 4.52214,24.19633 -0.1242,7.22608 -4.549,17.38758 -9.89182,22.1232 -10.38305,9.20249 -22.82558,4.88622 -34.49338,1.38644 -6.50646,-1.95126 -12.60554,-3.66824 -18.93781,-6.21661 -7.74153,-3.11552 -10.92226,-5.99179 -19.38588,-6.41704 2.7634,5.06911 7.85036,13.96792 11.86994,17.79684 8.35789,7.96168 25.33187,7.44157 32.93802,19.55123 1.81774,2.89351 3.0115,6.22406 3.80408,9.53474 1.21876,5.08851 4.18834,31.52953 3.21582,35.41218 -0.70176,2.80112 -2.53735,5.08867 -5.04768,6.49296 -6.3641,3.56017 -17.26959,2.11163 -23.9869,0.16302 -3.88,-1.12561 -7.5296,-2.81495 -11.45152,-3.87426 4.59759,9.3756 10.46254,18.03019 17.88595,25.43853 10.81917,10.79697 20.45436,16.4205 25.64782,31.98848 3.92565,11.76763 3.45724,25.86021 -1.52927,37.408 -1.74787,4.04907 -6.40695,8.20605 -10.84432,9.39423 -11.07565,2.58889 -25.61553,0.0466 -35.63606,-5.09007 -3.4886,-1.78576 -10.17144,-9.07937 -13.82166,-9.9693 -2.85888,0.59463 -0.52632,1.57399 -1.38644,2.73297 l -2.69369,-4.36875 -0.10868,0.0466 c 2.16272,4.54652 5.41813,9.80426 7.27297,14.02645 3.93729,8.96479 5.26256,12.80318 12.17874,19.97244 7.4571,7.73066 13.12131,10.99616 23.30501,14.48895 7.11104,2.43845 14.88703,7.18525 20.17443,12.52962 6.02843,6.05033 8.79044,18.51381 8.66732,26.87357 -0.18786,12.656 -7.15264,18.20641 -15.78208,26.35284 1.14579,2.73437 5.70255,8.46953 4.74757,11.01277 -3.27046,8.70428 -19.60339,4.85331 -26.32505,3.64728 -7.41456,-1.33365 -15.41272,-5.16118 -21.13996,-10.05267 -2.51049,-2.08261 -5.74401,-4.42573 -8.80767,-7.38273 -5.07967,-5.42496 -22.40018,-18.86283 -22.40701,-18.85305 0,0 10.04102,36.55471 13.40045,45.82489 1.79243,4.9477 4.73748,10.04879 7.68843,14.40092 3.65985,5.45306 7.89881,10.49407 12.6439,15.03453 11.18603,10.74961 25.64518,19.87354 28.38483,36.41746 1.17994,7.12749 -0.19252,16.35591 -7.80255,19.12366 -7.0702,2.56933 -16.26508,-0.30586 -23.058,-2.76372 -2.8078,-1.05574 -7.71932,-4.95142 -10.20916,-6.74168 -8.55833,-6.3037 -16.27983,-13.06789 -26.26233,-17.04912 -23.12926,-9.22904 -45.5077,-1.96632 -69.02494,-0.19407 -2.6052,0.19407 -15.11371,-0.58066 -15.90489,-0.41609 0.19717,0.38504 5.39608,4.09302 6.05265,4.46377 10.00563,5.64076 21.15906,7.39391 32.35737,9.22189 17.98004,2.9775 36.55191,9.99569 46.61949,26.18749 4.41423,7.09753 11.79743,15.20703 5.07392,23.38713 -7.28725,8.8617 -24.48092,5.4875 -34.42771,3.5435 -2.71356,-0.5884 -7.34547,-1.6825 -10.04972,-1.4345 l -0.41763,0.4673 c 0.83683,1.1535 2.81339,2.0942 4.12422,2.8471 10.29455,6.5471 19.35933,15.8577 28.6736,23.6521 6.62229,5.5431 15.57016,10.9925 23.67235,14.2809 13.10655,5.3263 29.96456,4.2174 43.80314,2.9029 15.6956,-1.4905 31.39726,-8.5164 46.48007,-0.093 3.65861,1.9851 5.60614,2.3407 6.59403,6.629 1.12871,4.8992 0.23444,7.3495 -2.51934,11.4881 -7.03775,10.5811 -20.25206,15.3592 -31.52318,19.9885 8.47651,0.9626 19.81268,1.6409 28.28998,1.6112 22.54751,-0.078 43.30524,-13.1467 57.97987,-29.6418 6.40121,-5.5994 12.27454,-8.0529 12.46566,3.0972 0.13973,7.8131 -4.06088,13.5002 -6.93373,20.3881 -0.65207,1.5659 -0.51234,1.343 -1.69276,2.7257 l -0.33536,0.3897 c 0.62258,1.5091 4.95484,-0.3012 7.01105,0.062 1.70782,0.3198 5.87986,1.2234 7.25822,1.1613 13.94059,-0.6226 28.31605,-5.476 41.34638,-10.2927 16.27051,-6.9741 30.46169,-17.5689 47.7957,-22.1757 10.28897,-2.7305 20.21495,-4.7609 30.69102,-6.54 4.3635,-0.7902 16.5212,-2.2774 20.1581,-3.8581 1.079,-0.8756 5.5203,-0.9036 6.262,-1.5999 0.9408,-1.0589 2.3791,-3.4352 3.8023,-3.9446 3.6145,-1.2886 15.7489,-2.2618 15.6143,-7.7001 -0.078,-3.4684 -4.9174,-4.3302 -7.5993,-7.0345 0.4471,-1.2886 0.4688,-0.5341 0.2592,-1.8492 0.4627,-1.7175 28.4355,-20.5702 33.6595,-28.82543 0.4425,-0.79025 0.1988,-1.32433 -0.1242,-2.05714 -5.0414,-3.16117 -31.2518,7.34107 -19.0227,-15.66362 3.5094,-6.96277 7.9475,-13.87274 13.9328,-18.99666 5.3335,-4.56561 10.495,-8.49421 14.7798,-14.22098 4.3487,-5.81666 9.3787,-11.83283 12.1129,-18.65711 3.9738,-9.91046 5.5293,-20.40886 6.6716,-30.94096 -5.371,3.44202 -13.9486,7.21039 -20.3309,5.85082 -6.5735,-1.39886 -6.1163,-7.74153 -8.5282,-12.44206 -0.413,-0.80112 -1.0278,-0.94241 -1.769,-1.00761 -2.6517,1.5184 -2.2911,6.26302 -4.351,10.31179 -3.8429,7.53954 -3.803,12.46146 -12.1553,17.34163 -1.1381,0.66294 -1.8979,0.80888 -3.1603,0.41608 -8.5883,-7.39732 3.9668,-34.30443 6.6337,-43.23367 1.2932,-4.3335 1.5044,-10.76498 0.9408,-15.26725 -1.1504,-9.14256 -3.9776,-18.48803 -7.4985,-26.69797 -12.5997,-29.37676 -24.6264,-20.13142 -50.2156,-29.18968 -2.6741,-0.94706 -6.47508,-2.186 -8.71108,-4.12158 -0.39745,-0.45334 -1.08213,-1.81106 -0.90359,-2.35119 1.2405,-3.71637 6.47127,-6.3301 9.77497,-8.28974 3.423,-2.03075 7.0683,-4.38831 10.5515,-6.27514 7.9516,-4.30695 14.2546,-10.18991 20.9029,-16.1859 3.0714,-2.77054 5.7079,-6.1868 9.2773,-8.35122 5.3897,-3.41097 10.6634,-2.11396 16.0983,-4.54015 0.8989,-0.40211 3.6215,-2.60147 4.5355,-3.32838 -4.7305,-1.59494 -9.7273,-3.02081 -12.2519,-7.67228 -4.7679,-8.77352 -3.7443,-23.90213 0.517,-32.66167 0.9921,-2.03804 4.2581,-6.44141 5.64,-8.43319 2.1137,-3.10357 4.0002,-6.35665 5.6447,-9.73222 3.2773,-6.7746 9.1458,-23.71924 11.0112,-31.12386 -8.8656,4.89476 -18.1619,8.68595 -28.3794,3.80393 -5.9965,-2.8651 -17.3263,-16.49564 -17.8055,-23.07415 -1.5998,-21.92447 1.891,-44.38985 -14.9264,-61.94077 -0.9144,4.73686 -1.4097,9.68254 -3.5319,14.00751 -4.7979,9.78951 -12.75302,12.39703 -22.78721,13.57869 -10.29999,1.21255 -16.10439,-0.34467 -24.36308,-6.85145 -3.16505,-2.49263 -5.6715,-5.71978 -9.04615,-7.94026 -2.68918,-1.73514 -6.26178,-2.56746 -8.98466,-3.94443 -7.09396,-3.58346 -8.62587,-14.04787 -11.11648,-21.03144 -3.25494,-9.13014 -8.00857,-16.77525 -16.94542,-21.13577 0.94862,5.41129 2.38272,11.55756 1.97827,16.94246 -0.87253,15.25452 -16.24831,24.11793 -30.42473,22.20068 -11.54732,-1.56266 -26.17663,-6.2607 -37.15462,-10.436 -15.61487,-5.93854 -28.80573,-21.54456 -39.46219,-34.15259 z m 68.83305,120.36701 c 18.91468,-0.71884 40.71355,1.22807 58.69561,7.18509 14.70461,5.08075 24.43589,14.38245 30.65716,28.53279 4.26224,9.70117 3.91726,12.5099 1.38643,22.63228 -3.44202,13.78021 -11.32266,22.27939 -24.18453,28.38359 -18.51381,7.38801 -38.53655,10.62029 -58.39131,10.15964 -7.63689,-0.17699 -14.74218,-0.81044 -22.46554,-0.79491 0.78715,-31.71383 2.92518,-63.62281 -1.93263,-95.06448 5.39717,-0.54495 10.81296,-0.88961 16.23574,-1.034 z m 9.40898,191.6989 c 14.58288,-0.44403 36.61852,2.7943 48.15124,5.62275 31.05353,7.61826 51.47419,33.58125 41.09176,65.75479 -4.60319,14.27408 -14.01511,22.16559 -26.86192,28.80651 -19.18809,10.44996 -42.96492,11.32188 -64.42642,11.76001 -6.76435,0.13974 -13.5582,-0.80733 -20.27379,-1.61373 -1.43923,-13.03793 -0.61327,-23.99357 -0.5434,-37.01271 0.34467,-23.55528 0.47043,-47.11041 0.38503,-70.66942 5.89166,-1.13026 10.79588,-1.73762 16.73613,-2.22078 1.72676,-0.22512 3.65783,-0.36485 5.74121,-0.42695 z"
       sodipodi:nodetypes="cssssccsccccccscccccccccscccccccccccccccccccccccccccccccccccccccccccccccccccccscccccccccccccccscccscccccccccccccccccccccccccsccccccccccccc" />
    <path
       id="path8"
       style="display:block;fill:#ff05da;fill-opacity:1;fill-rule:nonzero;stroke:none;stroke-width:0.374546"
       d="m 862.91683,819.5334 c -14.08668,-0.3074 -30.92683,12.27081 -29.5598,27.43994 0.99674,9.21771 2.42044,16.98128 0.24375,26.22134 -4.49746,19.10937 -23.48946,32.81071 -18.54735,54.04725 0.78404,3.37091 1.76092,9.34517 6.27964,8.95563 2.40228,-0.2096 6.64899,-2.58859 8.17407,-4.66001 4.168,-7.06756 7.05499,-16.49393 10.2986,-24.07477 5.33739,26.74269 0.399,37.59337 -9.78066,61.47811 -4.4529,13.26662 -5.13028,29.78803 8.04395,38.32381 5.44592,3.5281 13.0443,5.475 19.11947,4.123 14.66718,-3.2624 0.28101,-11.72771 -3.81278,-16.61175 6.03387,-0.0621 11.06106,0.79025 16.63816,3.19982 3.65939,1.58362 12.25513,3.28813 14.5138,6.00733 -1.59991,4.1276 -4.62911,5.4863 -3.29935,9.9885 2.97378,10.0639 18.4455,5.7502 24.9102,1.8286 9.36365,-5.6743 15.67511,-18.15497 24.98628,-24.31614 7.47589,-5.10886 16.88812,-6.63363 25.45763,-9.06819 1.52772,-0.43472 6.8204,-2.0337 7.65195,-0.25307 -1.72691,3.63299 -10.20296,8.23648 -12.07193,12.93344 -0.96569,2.42324 -4.79026,10.65256 -0.0931,11.52916 6.67057,1.2467 13.13248,-1.3973 18.63071,-4.9218 21.72001,-11.58859 21.08703,-32.57439 35.36113,-49.1593 l 3.2097,1.98821 c 0.989,3.60691 1.0123,4.67429 3.7706,7.21739 4.4046,4.40461 9.0679,1.60783 12.9407,-1.99566 10.5062,-9.7757 11.2743,-18.76502 11.7836,-31.94904 0.368,-1.73421 0.2376,-3.70488 0.2143,-5.50274 -0.8166,-0.94085 -1.85,-1.8165 -2.7825,-2.65534 -5.581,-0.2686 -9.9187,0.81664 -15.5293,0.99674 -5.813,-1.64059 -3.6743,-23.28871 -3.9926,-28.49475 -0.7452,-12.22532 -0.3679,-19.01513 -11.1312,-26.64845 -4.1573,-2.94769 -18.83925,-9.95206 -17.61847,-15.46179 2.83172,-4.51313 9.80892,-2.44916 13.79407,-1.26533 -0.014,-0.0311 6.7272,3.95064 7.6972,4.61001 -0.8958,-3.10139 -2.1496,-6.03029 -4.1872,-8.5546 -8.58846,-11.16896 -23.48496,-15.8018 -36.91631,-18.18032 -10.93686,-1.9362 -16.13545,2.62445 -25.50282,5.48224 -4.86541,1.48425 -16.72681,2.90344 -22.12025,3.65628 -14.04166,1.96275 -28.02029,-1.61777 -41.80733,-3.35182 -5.53953,-0.70021 -12.64032,-0.0621 -18.44192,-0.81665 5.55443,-2.79041 8.04164,-4.55133 14.41272,-5.37527 2.36703,-0.30741 9.19489,-0.49061 10.40091,-1.23894 0.0143,-0.65518 0.19562,-0.7561 -0.34777,-1.15355 -5.98512,-4.40275 -13.97024,-4.24532 -20.98191,-4.31472 z m 27.92574,34.85916 c 14.58288,-0.44403 36.61852,2.7943 48.15124,5.62275 31.05353,7.61826 51.47419,33.58125 41.09176,65.75479 -4.60319,14.27408 -14.01511,22.16559 -26.86192,28.80651 -19.18809,10.44996 -42.96492,11.32188 -64.42642,11.76001 -6.76435,0.13974 -13.5582,-0.80733 -20.27379,-1.61373 -1.43923,-13.03793 -0.61327,-23.99357 -0.5434,-37.01271 0.34467,-23.55528 0.47043,-47.11041 0.38503,-70.66942 5.89166,-1.13026 10.79588,-1.73762 16.73613,-2.22078 1.72676,-0.22512 3.65783,-0.36485 5.74121,-0.42695 z" />
    <path
       id="path16"
       style="display:block;fill:#ff05da;fill-opacity:1;fill-rule:nonzero;stroke:none;stroke-width:0.374546"
       d="m 897.52448,613.71862 c -4.88777,-0.0466 -10.02581,0.27481 -14.61021,2.08789 -1.8578,0.73591 -4.69774,2.10387 -5.48799,4.11847 -0.44714,1.13492 -0.22512,2.18989 0.32138,3.23631 3.43457,6.54311 18.94061,10.38616 24.03813,15.51737 l -0.22978,0.46111 c -5.28119,1.74617 -15.20717,0.99209 -21.14012,-0.16146 -11.08264,-2.15371 -50.96495,-15.7102 -57.55137,-2.84398 -1.72505,3.2596 -1.29794,7.23958 -0.19718,10.54995 1.65829,4.89212 5.98512,8.18246 8.84431,12.31335 12.96682,18.7276 7.42683,44.44824 -8.35712,59.71968 -12.7549,12.34052 -10.67742,28.38949 -4.5136,43.34048 0.73126,1.76977 2.56964,6.39127 4.94087,5.46455 3.36766,-4.28212 2.88015,-21.01825 10.02068,-24.4258 3.17219,1.55954 2.66683,14.18077 2.15355,17.17783 -3.25478,19.0232 2.28724,31.43421 20.33683,39.06271 4.30338,1.81914 15.73581,11.25047 20.17427,5.47619 1.04798,-3.89087 -6.49917,-11.20187 -8.7052,-14.73907 -0.42541,-1.29483 -2.47696,-5.01244 -1.91509,-5.74447 0.64897,-0.84304 3.19983,0.34467 5.68237,0.58997 9.20264,1.50599 17.24879,4.70441 26.4963,5.41036 12.06044,0.92067 21.48789,-1.72582 33.07278,-4.24889 9.62215,-2.09642 26.0827,-1.25447 34.32663,-7.11476 15.0398,-10.81839 25.93677,-26.44615 30.88819,-44.29888 1.4299,-5.20356 2.19935,-11.24767 3.49543,-16.70833 2.72286,3.51064 11.64446,11.83237 16.14646,7.09877 7.5282,-7.91635 4.4425,-24.01329 -2.5763,-31.478 -2.2737,-2.70611 -5.5709,-4.68174 -8.0092,-7.14705 -6.23244,-6.311 -13.95037,-13.17829 -17.66207,-21.32441 -1.36005,-2.98045 -2.5889,-12.6397 -0.21736,-15.13234 7.70815,-2.28536 19.12023,22.13283 23.83193,24.63074 3.5695,-1.5805 0.4145,-11.00656 -0.7654,-13.80567 -6.6145,-15.67433 -18.4441,-26.34911 -34.11874,-32.63807 -3.47587,-1.39264 -19.53136,-5.78406 -20.31043,-0.36329 1.83155,3.33536 7.90175,8.69945 6.78562,12.87056 -0.19407,0.73126 -0.80268,1.3026 -1.4827,1.61513 -4.60706,2.11676 -12.89991,-1.31502 -17.24102,-3.16148 -19.21044,-8.16988 -21.72388,-25.21497 -46.46268,-25.40779 z m -16.09089,48.97504 c 18.91468,-0.71884 40.71355,1.22807 58.69561,7.18509 14.70461,5.08075 24.43589,14.38245 30.65716,28.53279 4.26224,9.70117 3.91726,12.5099 1.38643,22.63228 -3.44202,13.78021 -11.32266,22.27939 -24.18453,28.38359 -18.51381,7.38801 -38.53655,10.62029 -58.39131,10.15964 -7.63689,-0.17699 -14.74233,-0.81044 -22.46554,-0.79491 0.78715,-31.71383 2.92518,-63.62281 -1.93263,-95.06448 5.39717,-0.54495 10.81296,-0.88961 16.23574,-1.034 z"
       sodipodi:nodetypes="sscccccccccsccccccsccccccccccccccccccscccccsccc" />
    <path
       id="path38"
       style="display:block;fill:#fff941;fill-opacity:1;stroke-width:0.374546"
       d="m 1086.7787,741.2226 c -5.5976,1.92191 -11.3914,3.58688 -17.3764,3.31704 -2.4403,0.77939 3.2858,0.6645 4.0162,0.69089 2.7463,1.15045 -1.3911,5.23678 -1.9828,7.28756 -4.1345,8.9946 -11.3205,16.6023 -20.3317,20.79825 -3.0626,1.26068 -5.7879,3.14657 -8.2387,5.33956 -7.4782,4.36099 -16.9744,4.26038 -23.8709,9.79153 -2.4785,2.02361 -4.6657,6.05017 -2.1624,8.88188 1.9235,2.36688 5.0665,4.44343 8.2328,3.68578 -3.0053,0.0776 -7.5798,-2.67522 -7.1497,-5.24734 1.0588,0.67691 4.1393,1.38178 1.7331,-0.22823 -3.1154,-0.83217 -2.7176,-3.79228 -0.047,-4.92425 6.3893,-4.14922 13.7263,-6.59807 21.1606,-8.08108 4.9792,-1.0635 9.7498,-2.89226 14.2401,-5.27063 6.1626,-1.99472 11.3019,-6.16211 16.1733,-10.29145 7.6985,-6.75332 12.9479,-15.90427 15.5961,-25.74827 z" />
    <path
       fill="#EA2000"
       d="m 1080.9962,625.31842 c 0.2329,0.13973 0.5698,0.31051 0.7002,0.52011 5.0191,8.32094 7.9106,19.41476 8.6711,28.96098 0.9517,11.88128 -5.2364,29.64101 -13.1954,38.51435 -0.047,-0.89427 0.4425,-1.69958 0.812,-2.60845 4.7156,-10.74123 6.5358,-22.21589 6.2736,-33.99641 -0.078,-3.53533 0.1816,-5.91183 -4.2811,-5.20914 -2.4232,0.38037 -2.6216,1.99892 -4.1198,3.48161 l -0.5947,-0.16923 c 1.3989,-2.04177 3.1576,-4.32822 3.4348,-6.78981 0.8585,-7.61748 1.8652,-15.04741 2.2996,-22.70618"
       id="path39"
       style="display:block;fill:#fff941;fill-opacity:1;stroke-width:0.374546" />
    <path
       fill="#CB1A00"
       d="m 551.31606,850.04058 c 0.86633,0.0932 6.61003,1.96259 7.89617,2.32962 a 71.163848,71.163848 0 0 0 17.10595,2.82038 c 7.40415,0.34001 14.84123,-0.3897 22.20486,-1.28086 19.93844,-2.41951 32.92995,-1.12716 51.3919,7.38226 23.05381,10.62231 37.52786,26.55918 46.23213,50.59373 0.17544,0.47198 0.23599,0.94085 0.3338,1.44233 l -0.43006,0.19252 c -2.6614,-1.11319 -8.92753,-5.59946 -11.9027,-7.37093 -17.2699,-10.2927 -36.2414,-18.89605 -56.29194,-21.88101 -16.24365,-2.41966 -33.02418,-2.40491 -48.07579,-10.27018 -8.4321,-4.40461 -25.17056,-14.79822 -28.46447,-23.956"
       id="path42"
       style="display:block;fill:#fd3f00;fill-opacity:1;stroke-width:0.374546" />
    <path
       fill="#EB3800"
       d="m 608.30712,865.71538 c 1.77582,-0.48595 6.65908,-0.47198 8.70489,-0.43627 14.70398,0.2748 29.30255,5.31115 41.59184,13.25529 4.35865,2.82023 9.57727,7.91045 13.11369,11.60725 -4.97502,-2.51344 -10.41131,-4.98527 -15.46846,-7.39748 -18.97477,-9.00035 -33.84394,-8.37482 -53.84402,-11.23619 -6.243,-0.89272 -7.48986,-3.2287 -12.78471,-5.07889 l 0.13973,-0.22822 c 1.11474,0.38503 2.18025,0.71573 3.30804,1.06039 1.36626,-1.16752 12.8094,-1.54635 15.2317,-1.54635"
       id="path43"
       style="display:block;fill:#fff941;fill-opacity:1;stroke-width:0.374546" />
    <path
       fill="#CB1A00"
       d="m 634.94532,641.3059 c 12.86265,-1.34296 23.41803,2.10822 35.35722,6.18959 19.73831,6.74789 34.85667,22.00661 43.4192,41.05869 a 208.54752,208.54752 0 0 0 -42.0278,-14.71408 c -6.58176,-1.16752 -11.74993,-2.52818 -18.65462,-2.92455 -12.52637,-0.71884 -25.65217,0.22201 -37.99099,-1.75781 -11.48257,-1.84273 -29.30317,-6.16615 -36.43407,-15.99789 24.69532,2.33303 34.66198,-8.76202 56.33106,-11.85395"
       id="path44"
       style="display:block;fill:#fd3f00;fill-opacity:1;stroke-width:0.374546" />
    <path
       id="path45"
       style="display:block;fill:#fff941;fill-opacity:1;stroke-width:0.374546"
       d="m 648.81822,650.80912 c -12.44191,-0.0621 -24.07679,4.95888 -35.54105,9.18464 -0.98898,0.22201 -3.61808,1.26067 -1.09766,1.58035 6.30588,0.91601 12.71454,0.29188 19.05317,0.0931 7.41953,-0.59618 14.89355,-0.13973 22.20347,1.24515 8.74355,1.54635 17.35824,3.9109 26.19883,4.84275 -0.53253,-1.66357 -2.29236,-3.58316 -3.05839,-5.48628 -4.38924,-5.21412 -10.80007,-8.32529 -17.28946,-10.0741 -3.41253,-0.90514 -6.93917,-1.36625 -10.46876,-1.38954 z" />
    <path
       fill="#CB1A00"
       d="m 618.06635,748.44712 c 9.50866,-0.84925 23.70806,2.22529 32.70871,5.18975 16.76858,5.52307 32.32725,19.37222 39.98634,35.34216 -11.19598,-7.28493 -32.89611,-14.83083 -46.13805,-14.47545 -5.91649,0.16147 -12.49406,1.50443 -18.61689,1.97423 -4.39313,0.50148 -15.5492,1.00451 -19.68181,0.34157 -21.02072,-3.37294 -43.22591,-9.22298 -60.25655,-22.56987 -0.95327,-0.74523 -1.80687,-1.63609 -1.9053,-2.8755 1.34452,-1.49667 16.02863,2.6128 18.64733,3.17514 19.64252,4.21675 36.25786,-4.27777 55.25622,-6.10172"
       id="path47"
       style="display:block;fill:#fd3f00;fill-opacity:1;stroke-width:0.374546" />
    <path
       id="path48"
       style="display:block;fill:#fff941;fill-opacity:1;stroke-width:0.374546"
       d="m 620.26043,759.14674 c -9.93809,0.0776 -19.54906,2.96213 -29.12524,5.30293 -1.82721,0.46421 -3.65442,0.94085 -5.50849,1.28707 13.6852,2.14393 27.62843,3.50972 41.45475,1.93837 5.81853,-0.4549 11.5158,-2.059 17.37966,-1.90918 1.98511,-0.0776 5.32062,0.34311 6.41704,0.1242 -4.86401,-2.81603 -10.32592,-4.32279 -15.84387,-5.18912 -4.86991,-0.92067 -9.80923,-1.57895 -14.77385,-1.54945 z" />
    <path
       fill="#CB1A00"
       d="m 626.99637,569.40189 c 30.24759,-3.44171 36.44711,24.16901 62.6461,30.61307 3.05109,0.75143 7.26737,1.84614 10.0345,3.22575 0.7561,1.00916 0.60705,0.45956 0.48906,1.694 -2.31968,2.64913 -6.97876,3.30462 -10.32127,3.89351 -15.19009,2.67459 -28.09232,-3.71171 -42.14299,-8.14939 -18.06155,-5.34453 -33.59382,-5.11398 -51.94601,-6.86107 -9.46799,-0.90204 -25.1406,-6.00918 -31.0911,-14.08327 7.17593,0.1242 11.20731,1.15044 18.94993,0.38193 14.76034,-1.46096 29.2808,-9.0876 43.38147,-10.71561"
       id="path50"
       style="display:block;fill:#fd3f00;fill-opacity:1;stroke-width:0.374546" />
    <path
       id="path51"
       style="display:block;fill:#fff941;fill-opacity:1;stroke-width:0.374546"
       d="m 631.33453,580.68978 c -6.70628,-0.0621 -13.45215,0.77007 -19.80275,2.99753 -4.44389,1.45009 -8.7968,3.17234 -13.28463,4.48767 9.53055,0.40211 19.10627,-0.13973 28.59769,1.04798 10.54545,1.09766 20.69531,4.36548 30.5772,8.07393 3.63578,1.31036 7.28554,2.59045 11.00578,3.64184 -4.1725,-2.77815 -7.52696,-6.58907 -11.6695,-9.41767 -7.07269,-5.46734 -15.21152,-10.38446 -24.38342,-10.78377 l -0.51855,-0.0311 z" />
  </g>
</svg>
