<?xml version="1.0" encoding="UTF-8" standalone="no"?>
<!-- Created with Inkscape (http://www.inkscape.org/) -->

<svg
   width="1024"
   version="1.1"
   height="1024"
   id="svg1"
   sodipodi:docname="sonic-monitor-question.svg"
   inkscape:version="1.4.4 (dcaf3e7d9e, 2026-05-05)"
   xml:space="preserve"
   inkscape:export-filename="sonic-monitor-question.png"
   inkscape:export-xdpi="96"
   inkscape:export-ydpi="96"
   xmlns:inkscape="http://www.inkscape.org/namespaces/inkscape"
   xmlns:sodipodi="http://sodipodi.sourceforge.net/DTD/sodipodi-0.dtd"
   xmlns:xlink="http://www.w3.org/1999/xlink"
   xmlns="http://www.w3.org/2000/svg"
   xmlns:svg="http://www.w3.org/2000/svg"><sodipodi:namedview
     id="namedview1"
     pagecolor="#505050"
     bordercolor="#ffffff"
     borderopacity="1"
     inkscape:showpageshadow="0"
     inkscape:pageopacity="0"
     inkscape:pagecheckerboard="1"
     inkscape:deskcolor="#505050"
     inkscape:zoom="0.5"
     inkscape:cx="506"
     inkscape:cy="332"
     inkscape:window-width="1920"
     inkscape:window-height="966"
     inkscape:window-x="1920"
     inkscape:window-y="36"
     inkscape:window-maximized="1"
     inkscape:current-layer="layer1" /><defs
     id="defs5455"><linearGradient
       id="linearGradient2"
       inkscape:collect="always"><stop
         style="stop-color:#9021ff;stop-opacity:1;"
         offset="0.23579137"
         id="stop3" /><stop
         style="stop-color:#0034ed;stop-opacity:1;"
         offset="0.67486101"
         id="stop5" /><stop
         style="stop-color:#000080;stop-opacity:0.44313726;"
         offset="1"
         id="stop4" /></linearGradient><linearGradient
       id="Gradient1"
       gradientUnits="userSpaceOnUse"
       x1="401.59698"
       y1="1323.2"
       x2="888.91602"
       y2="1208.34"
       gradientTransform="matrix(0.32607391,0,0,0.32607391,558.2493,591.33901)"><stop
         class="stop0"
         offset="0"
         stop-opacity="1"
         stop-color="rgb(250,178,12)"
         id="stop1" /><stop
         class="stop1"
         offset="1"
         stop-opacity="1"
         stop-color="rgb(255,210,25)"
         id="stop2" /></linearGradient><radialGradient
       inkscape:collect="always"
       xlink:href="#linearGradient2"
       id="radialGradient4"
       cx="896.57145"
       cy="900.13135"
       fx="896.57145"
       fy="900.13135"
       r="275.33335"
       gradientTransform="translate(0,1.634621e-5)"
       gradientUnits="userSpaceOnUse" /></defs><metadata
     id="metadata5458" /><g
     inkscape:label="Capa 1"
     inkscape:groupmode="layer"
     id="layer1"
     transform="translate(-384.57143,-483.798)"><path
       id="rect6"
       style="fill:#c6cdd1;stroke:#0a0808;stroke-width:0"
       d="m 496.70318,1429.1604 h 799.73162 v 62.4044 H 496.70318 Z m 192.51055,-48.9272 h 414.70987 l -0.6816,49.8549 H 689.21292 Z m -97.4149,-62.1592 h 609.54037 v 63.088 H 591.79883 Z M 406.70992,500.03118 H 1386.4276 V 1320.857 H 406.70992 Z"
       sodipodi:nodetypes="cccccccccccccccccccc" /><ellipse
       style="fill:#000000;fill-opacity:1;stroke:#0a0808;stroke-width:0"
       id="path11"
       cx="783.09619"
       cy="1286.8893"
       rx="8.5283566"
       ry="8.85637"
       inkscape:label="knob" /><ellipse
       style="fill:#000000;fill-opacity:1;stroke:#0a0808;stroke-width:0"
       id="path11-6"
       cx="1010.0419"
       cy="1287.2581"
       rx="8.5283566"
       ry="8.85637"
       inkscape:label="knob" /><rect
       style="fill:#000000;fill-opacity:1;stroke:#0a0808;stroke-width:0"
       id="rect11"
       width="137.10973"
       height="7.8723292"
       x="828.0141"
       y="1283.2808"
       inkscape:label="grill" /><ellipse
       style="display:inline;fill:#ff0000;fill-opacity:1;stroke:#0a0808;stroke-width:0"
       id="path12"
       cx="1325.1034"
       cy="1288.3625"
       rx="14.171535"
       ry="14.386255" /><ellipse
       style="display:inline;fill:#00ff00;fill-opacity:1;stroke:#0a0808;stroke-width:0"
       id="path12-2"
       cx="1241.5585"
       cy="1288.215"
       rx="14.171535"
       ry="14.386255" /><rect
       style="fill:#000000;fill-opacity:1;stroke:#0a0808;stroke-width:0"
       id="rect12"
       width="914.94971"
       height="723.70087"
       x="439.09421"
       y="536.67987" /><rect
       style="fill:#f2ff2a;fill-opacity:1;stroke:#0a0808;stroke-width:0"
       id="rect12-7"
       width="800.52722"
       height="625.94006"
       x="496.30542"
       y="587.09015" /><rect
       style="fill:#4d4d4d;fill-opacity:1;stroke:#0a0808;stroke-width:0"
       id="rect13"
       width="414.84277"
       height="5.5665774"
       x="688.94861"
       y="1423.5939" /><rect
       style="fill:#4d4d4d;fill-opacity:1;stroke:#0a0808;stroke-width:0"
       id="rect13-2"
       width="609.46576"
       height="5.5665774"
       x="591.85352"
       y="1375.54" /><rect
       style="fill:#4d4d4d;fill-opacity:1;stroke:#0a0808;stroke-width:0"
       id="rect13-2-3"
       width="979.65411"
       height="5.5665774"
       x="406.77884"
       y="1315.1914" /><rect
       style="fill:#000000;fill-opacity:1;stroke:#0a0808;stroke-width:0"
       id="rect14"
       width="767.73169"
       height="591.73785"
       x="512.70282"
       y="604.38354" /><ellipse
       style="fill:#f9f9f9;stroke-width:1.473"
       id="path2"
       cx="900.57141"
       cy="887.79797"
       rx="106"
       ry="154" /><path
       fill-rule="evenodd"
       clip-rule="evenodd"
       d="m 1171.9048,900.13133 c 0,152.06117 -123.2722,275.33337 -275.33338,275.33337 -152.06246,0 -275.33333,-123.2722 -275.33333,-275.33337 0,-152.06247 123.27086,-275.33333 275.33333,-275.33333 152.06118,0 275.33338,123.27086 275.33338,275.33333 z M 896.57142,783.11466 c -17.10646,0 -30.975,13.86799 -30.975,30.975 0,11.40458 -9.2457,20.65 -20.65,20.65 -11.40458,0 -20.65,-9.24542 -20.65,-20.65 0,-39.91645 32.35992,-72.275 72.275,-72.275 39.91507,0 72.27503,32.35855 72.27503,72.275 0,19.5718 -7.8057,37.36273 -20.42976,50.35847 -2.54133,2.61291 -4.96426,5.03584 -7.27706,7.34589 -5.94169,5.93619 -11.14824,11.13723 -15.71602,17.00734 -6.0298,7.74788 -8.20218,13.44453 -8.20218,18.2133 v 20.65 c 0,11.40431 -9.24571,20.65004 -20.65,20.65004 -11.40431,0 -20.65,-9.24573 -20.65,-20.65004 v -20.65 c 0,-18.03984 8.39766,-32.64352 16.91097,-43.57976 6.29687,-8.09205 14.21271,-15.99411 20.63899,-22.40498 1.93834,-1.93421 3.73902,-3.73269 5.31944,-5.36046 5.44058,-5.59862 8.7556,-13.18103 8.7556,-21.5798 0,-17.10701 -13.86854,-30.975 -30.97501,-30.975 z m 0,254.68334 c 15.20666,0 27.53333,-12.3266 27.53333,-27.5333 0,-15.20666 -12.32667,-27.53339 -27.53333,-27.53339 -15.20665,0 -27.53333,12.32673 -27.53333,27.53339 0,15.2067 12.32668,27.5333 27.53333,27.5333 z"
       fill="#1c274c"
       id="path1"
       style="stroke-width:27.5333;fill:url(#radialGradient4)" /></g></svg>
