<?xml version="1.0" encoding="UTF-8" standalone="no"?>
<!-- Created with Inkscape (http://www.inkscape.org/) -->

<svg
   width="1024"
   version="1.1"
   height="1024"
   id="svg1"
   sodipodi:docname="sonic-monitor-ring.svg"
   inkscape:version="1.4.4 (dcaf3e7d9e, 2026-05-05)"
   xml:space="preserve"
   inkscape:export-filename="kwin-sonic-logo.png"
   inkscape:export-xdpi="192"
   inkscape:export-ydpi="192"
   xmlns:inkscape="http://www.inkscape.org/namespaces/inkscape"
   xmlns:sodipodi="http://sodipodi.sourceforge.net/DTD/sodipodi-0.dtd"
   xmlns="http://www.w3.org/2000/svg"
   xmlns:svg="http://www.w3.org/2000/svg"><sodipodi:namedview
     id="namedview1"
     pagecolor="#505050"
     bordercolor="#ffffff"
     borderopacity="1"
     inkscape:showpageshadow="0"
     inkscape:pageopacity="0"
     inkscape:pagecheckerboard="1"
     inkscape:deskcolor="#505050"
     inkscape:zoom="0.5"
     inkscape:cx="506"
     inkscape:cy="332"
     inkscape:window-width="1920"
     inkscape:window-height="966"
     inkscape:window-x="1920"
     inkscape:window-y="36"
     inkscape:window-maximized="1"
     inkscape:current-layer="layer1" /><defs
     id="defs5455"><linearGradient
       id="Gradient1"
       gradientUnits="userSpaceOnUse"
       x1="401.59698"
       y1="1323.2"
       x2="888.91602"
       y2="1208.34"
       gradientTransform="matrix(0.32607391,0,0,0.32607391,558.2493,591.33901)"><stop
         class="stop0"
         offset="0"
         stop-opacity="1"
         stop-color="rgb(250,178,12)"
         id="stop1" /><stop
         class="stop1"
         offset="1"
         stop-opacity="1"
         stop-color="rgb(255,210,25)"
         id="stop2" /></linearGradient></defs><metadata
     id="metadata5458" /><g
     inkscape:label="Capa 1"
     inkscape:groupmode="layer"
     id="layer1"
     transform="translate(-384.57143,-483.798)"><path
       id="rect6"
       style="fill:#c6cdd1;stroke:#0a0808;stroke-width:0"
       d="m 496.70318,1429.1604 h 799.73162 v 62.4044 H 496.70318 Z m 192.51055,-48.9272 h 414.70987 l -0.6816,49.8549 H 689.21292 Z m -97.4149,-62.1592 h 609.54037 v 63.088 H 591.79883 Z M 406.70992,500.03118 H 1386.4276 V 1320.857 H 406.70992 Z"
       sodipodi:nodetypes="cccccccccccccccccccc" /><ellipse
       style="fill:#000000;fill-opacity:1;stroke:#0a0808;stroke-width:0"
       id="path11"
       cx="783.09619"
       cy="1286.8893"
       rx="8.5283566"
       ry="8.85637"
       inkscape:label="knob" /><ellipse
       style="fill:#000000;fill-opacity:1;stroke:#0a0808;stroke-width:0"
       id="path11-6"
       cx="1010.0419"
       cy="1287.2581"
       rx="8.5283566"
       ry="8.85637"
       inkscape:label="knob" /><rect
       style="fill:#000000;fill-opacity:1;stroke:#0a0808;stroke-width:0"
       id="rect11"
       width="137.10973"
       height="7.8723292"
       x="828.0141"
       y="1283.2808"
       inkscape:label="grill" /><ellipse
       style="display:inline;fill:#ff0000;fill-opacity:1;stroke:#0a0808;stroke-width:0"
       id="path12"
       cx="1325.1034"
       cy="1288.3625"
       rx="14.171535"
       ry="14.386255" /><ellipse
       style="display:inline;fill:#00ff00;fill-opacity:1;stroke:#0a0808;stroke-width:0"
       id="path12-2"
       cx="1241.5585"
       cy="1288.215"
       rx="14.171535"
       ry="14.386255" /><rect
       style="fill:#000000;fill-opacity:1;stroke:#0a0808;stroke-width:0"
       id="rect12"
       width="914.94971"
       height="723.70087"
       x="439.09421"
       y="536.67987" /><rect
       style="fill:#f2ff2a;fill-opacity:1;stroke:#0a0808;stroke-width:0"
       id="rect12-7"
       width="800.52722"
       height="625.94006"
       x="496.30542"
       y="587.09015" /><rect
       style="fill:#4d4d4d;fill-opacity:1;stroke:#0a0808;stroke-width:0"
       id="rect13"
       width="414.84277"
       height="5.5665774"
       x="688.94861"
       y="1423.5939" /><rect
       style="fill:#4d4d4d;fill-opacity:1;stroke:#0a0808;stroke-width:0"
       id="rect13-2"
       width="609.46576"
       height="5.5665774"
       x="591.85352"
       y="1375.54" /><rect
       style="fill:#4d4d4d;fill-opacity:1;stroke:#0a0808;stroke-width:0"
       id="rect13-2-3"
       width="979.65411"
       height="5.5665774"
       x="406.77884"
       y="1315.1914" /><rect
       style="fill:#000000;fill-opacity:1;stroke:#0a0808;stroke-width:0"
       id="rect14"
       width="767.73169"
       height="591.73785"
       x="512.70282"
       y="604.38354" /><path
       d="m 920.23139,627.90497 c -11.24008,5.3697 -19.82609,10.98731 -24.99325,23.27572 -3.7413,8.89064 2.84687,20.51472 -0.34027,27.2309 -4.50446,9.47557 -20.14205,17.04889 -26.39969,26.12586 -2.09343,2.93437 -4.51256,6.56225 -5.43451,10.09128 -2.94734,11.29841 0.32407,24.97705 -12.19606,31.42264 -5.17526,2.66217 -11.40049,1.31245 -13.34162,-4.56604 -4.05401,-12.28355 -0.84256,-26.83554 3.92114,-38.45476 1.39347,-3.32002 3.40751,-6.4942 4.87389,-9.56144 -3.71536,2.79664 -7.68026,4.96461 -11.36321,7.73372 -13.19742,9.92601 -24.69026,22.48664 -28.882,38.86148 -2.39806,9.36538 -3.90495,18.27384 -7.53281,27.29409 -7.70782,-10.34728 -10.42831,-14.48393 -9.47557,-27.86444 -7.5474,10.28085 -11.09425,18.98029 -8.90521,31.80504 1.23144,7.21199 2.44504,11.96273 0,18.98352 -1.0046,1.037 -1.50689,2.33973 -2.30246,3.4545 -1.15042,1.63327 -5.58845,6.17176 -7.40805,6.40184 l -0.32407,-0.38887 c -2.62165,-7.81475 -5.71482,-12.45694 -9.49662,-19.58305 -5.36322,-10.10911 -1.15042,-20.97651 2.33972,-31.07104 -7.97353,5.34216 -12.89927,10.86579 -18.34026,18.59791 -15.72348,15.28598 -5.91251,38.99434 -6.75831,57.26655 l -0.5509,3.30543 c -1.10181,6.75021 -16.49636,19.38537 -21.17257,26.55686 -1.5879,1.97029 -3.29734,4.20145 -4.93222,6.09884 0,-13.57819 -0.63193,-20.19067 -4.75236,-33.3492 -1.86174,5.37295 -3.24225,9.04457 -5.58197,14.37214 -5.16879,11.77317 -12.74049,22.5952 -13.09371,35.79099 -0.24305,8.96193 4.96786,19.07103 4.19498,27.0154 -0.16203,1.24764 -3.35728,11.21091 -3.9568,13.76128 -1.81312,7.72887 -3.04294,14.8161 -4.3732,22.69404 -0.68054,4.07345 -2.08211,8.50823 -2.66703,12.78261 -4.33757,31.67703 6.32082,69.11263 19.7791,97.29463 24.51364,51.3378 70.07509,84.6644 123.06566,102.841 20.66541,7.0662 42.27059,10.997 64.09939,11.6759 10.1804,0.4538 20.38024,0.162 30.51689,-0.8588 14.67999,-1.5554 29.15421,-4.6373 43.19579,-9.1952 35.40212,-11.6403 79.76618,-37.4826 103.68028,-66.6919 13.4777,-15.7429 20.6735,-33.9632 29.5203,-52.1966 12.4894,-25.7385 20.719,-43.3886 17.6825,-72.99324 -4.5871,11.52038 -5.7747,14.18417 -14.3235,23.17688 0.2106,-4.35863 0.6481,-12.44559 1.442,-16.63247 1.6852,-8.8728 3.6652,-15.67809 3.5048,-25.07751 -0.1621,-6.55739 -0.5185,-10.05725 -2.1194,-16.55306 -2.0513,-8.2814 -6.2381,-15.51122 -4.9436,-24.18635 0.8913,-5.99838 3.1807,-10.88361 4.814,-16.49149 2.8015,-9.60843 1.0856,-26.50663 -3.7461,-35.22551 -2.6509,15.8774 -5.4848,18.58656 -15.8905,31.05645 -9.9681,-19.03538 -8.9699,-14.60708 -4.0361,-36.175 3.7785,-16.87552 -6.1491,-37.45991 -16.4299,-50.35432 -14.8274,-18.60114 -23.6095,-25.30436 -18.5493,-50.727 -0.2916,0.27546 -0.5833,0.55091 -0.8588,0.84257 -11.4118,11.94005 -14.8711,28.73941 -11.7213,44.54065 1.9493,9.78343 3.7527,14.38671 3.9714,24.54443 -4.5871,-4.78477 -12.0292,-10.56116 -17.2336,-15.03808 -0.956,-2.55685 -2.3348,-4.83014 -3.3913,-7.84877 -2.0578,-5.88659 -2.9214,-10.71186 -4.0135,-16.76533 -1.8601,1.24764 -4.0573,2.55523 -6.3127,2.63299 -12.55741,0.43749 -16.23875,-12.33864 -17.21418,-21.63759 v -0.40508 c -0.25925,-8.67999 0.97219,-11.42965 -1.15042,-20.88415 -3.84336,-17.15583 -17.84445,-22.65029 -23.31623,-37.78397 -1.19903,-3.33298 -1.45828,-7.54253 -1.60411,-11.06994 -1.94761,3.27464 -3.76074,6.63677 -4.44127,10.42668 -1.70942,9.4707 2.33812,19.0451 -4.85606,27.2309 -2.04483,2.33 -4.83499,4.15933 -7.83257,4.98568 -3.798,1.05321 -7.48421,0.5023 -10.8269,-1.58789 -3.87416,-2.41913 -5.93194,-6.34027 -6.83932,-10.707 -2.6249,-12.6935 6.95922,-23.92871 4.47043,-39.05591 -2.10316,-12.80368 -16.01674,-24.70485 -16.34242,-33.24063 -0.24306,-6.46341 4.35376,-12.60762 7.49716,-17.93681 z m -22.3959,163.05 c 38.18904,1.0694 75.0705,15.10776 104.42721,40.0605 34.4527,29.27897 55.7483,71.13316 59.138,116.22147 6.1183,85.00466 -47.7618,155.93526 -131.20766,173.60146 -8.8323,1.8682 -17.45882,2.5828 -26.43857,3.2309 -81.95195,2.1793 -156.44886,-41.0651 -177.42538,-123.3719 -2.37375,-9.31677 -3.80286,-18.3743 -4.47367,-27.96167 -2.8485,-45.17418 12.33541,-89.63545 42.22199,-123.62951 29.63221,-34.0362 71.63221,-54.82475 116.66544,-57.74455 0.22685,0 0.43749,0 0.66433,0 5.49123,-0.37267 10.97273,-0.4861 16.42831,-0.34027 z"
       style="display:block;fill:#fdb901;stroke-width:0.326074"
       id="path21" /><path
       fill="#fedd44"
       d="m 846.32102,693.46913 c -1.47448,3.06724 -3.48042,6.24142 -4.8755,9.56144 -4.76046,11.61922 -7.97516,26.17121 -3.91953,38.45476 1.94113,5.88335 8.16636,7.22658 13.34,4.56441 12.52661,-6.44558 9.24872,-20.1226 12.19606,-31.42101 0.92357,-3.52903 3.34108,-7.15852 5.43452,-10.09128 6.25762,-9.07697 21.89522,-16.65029 26.39806,-26.12586 3.19038,-6.71618 -3.39617,-18.34026 0.34026,-27.2309 5.16878,-12.28841 13.7548,-17.90602 24.99488,-23.27572 -3.1434,5.32919 -7.74508,11.4734 -7.49717,17.93681 0.32407,8.53578 14.23927,20.43533 16.34243,33.239 2.48879,15.1272 -7.09533,26.36404 -4.47043,39.05753 0.90737,4.36673 2.96516,8.28788 6.83771,10.707 3.34269,2.08858 7.03051,2.62815 10.83013,1.5717 2.99595,-0.82635 5.78774,-2.65731 7.83258,-4.98569 7.19254,-8.18579 3.14663,-17.76019 4.85444,-27.22928 0.68052,-3.79152 2.49365,-7.15365 4.44126,-10.42668 0.16203,3.52741 0.40508,7.73535 1.6041,11.06833 5.47179,15.13367 19.47287,20.62814 23.31786,37.78559 2.11937,9.45449 0.87497,12.20253 1.15042,20.88414 v 0.40509 c 0.97219,9.29894 4.65515,22.06535 17.2125,21.63597 2.2571,0 4.4543,-1.39347 6.3128,-2.63299 1.0856,6.05509 1.9573,10.88036 4.0151,16.76532 1.0532,3.01863 2.4288,5.29355 3.3913,7.8504 -2.3381,-1.037 -6.6141,-4.99056 -8.5828,-5.11046 0.4375,1.5717 4.3522,4.63409 5.6824,6.76154 -3.8433,-2.20199 -26.14039,-16.39103 -27.46419,-16.47205 l -0.17823,0.16203 c 5.54631,6.19445 10.71996,11.72294 16.74592,17.46531 3.0526,2.91331 6.3338,7.34323 9.3524,10.16257 7.4599,6.96733 14.4839,13.63814 21.2763,21.27141 32.0431,36.00973 51.5386,83.30329 48.6206,131.90444 -0.6968,11.6889 -2.6121,25.01269 -6.5607,36.128 l -0.7777,-1.4583 c 1.8034,-8.60542 2.7658,-21.48849 2.8987,-30.29973 0.9073,-38.33325 -9.8305,-76.03783 -30.7907,-108.14424 -27.9406,-42.82313 -77.29196,-75.88876 -127.53124,-86.91819 -36.70647,-8.05942 -66.6919,-2.00433 -100.51259,13.51336 -12.72104,5.70187 -24.98029,12.3824 -36.66596,19.98489 -16.36349,10.8512 -30.82312,24.33055 -42.79559,39.89361 -3.72022,4.91115 -6.60436,9.68296 -10.03942,14.69943 -1.24764,1.81475 -2.7999,5.98057 -3.58413,6.81989 0.27546,-1.08561 0.81016,-2.52607 0.4861,-3.51445 -1.24764,1.31245 -7.31407,13.24278 -8.35269,15.42532 -6.14907,12.9333 -10.30192,25.89739 -13.40805,39.81909 -1.60411,7.17959 -3.19363,12.88307 -3.89684,20.58763 -0.89117,9.79153 -0.89117,19.78559 -0.74535,29.61762 0.16203,6.79557 1.65596,14.68971 2.46773,21.42533 0.25926,2.12423 1.32866,3.83527 1.63165,5.46534 0.90738,4.9112 2.57953,8.9733 4.10911,13.6009 3.16122,9.5743 7.61383,17.4717 12.29814,26.2586 13.31731,24.9771 29.03106,41.2418 51.07212,58.8367 20.11613,16.0556 40.89819,28.1933 65.48313,36.4326 4.45909,1.4907 9.85472,2.5374 14.45963,3.6327 1.21524,0.2917 5.49609,1.4097 6.19121,1.5069 11.75695,1.6236 23.62247,2.4807 35.49285,2.6185 2.26519,0 4.68593,-0.3403 6.99325,-0.3727 5.8088,-0.1621 12.52822,0.162 18.3192,-0.5671 10.71186,-1.3449 22.70214,-3.7737 32.87444,-7.408 7.92817,-2.834 16.13827,-7.8391 23.50419,-11.9774 0.30786,-0.1783 5.97732,-4.2971 6.48286,-4.6989 2.75452,-2.1841 7.57493,-4.8253 9.94221,-6.7729 11.84934,-9.7494 22.89334,-20.0594 32.55524,-31.9638 6.4164,-8.0384 12.3127,-16.4802 17.6435,-25.2751 4.7281,-0.6644 15.9617,-7.2704 18.9414,-10.7962 6.1912,-2.1031 13.7661,-9.2536 17.6824,-14.3235 -26.5552,78.7567 -116.10475,128.2862 -196.79612,120.3824 -8.19713,-0.8101 -15.73318,-2.6249 -23.60626,-3.5501 l -0.16203,0.2917 0.58331,0.324 c 1.65109,2.6411 33.00082,12.5201 32.84365,18.0908 -1.44208,0.7939 -2.29598,-0.2755 -2.84041,0.5995 l 0.16204,0.243 c -21.8288,-0.6805 -43.43398,-4.6114 -64.0994,-11.6775 -52.99056,-18.175 -98.55039,-51.5031 -123.06404,-102.841 -13.45827,-28.182 -24.11666,-65.61602 -19.78072,-97.29304 0.58332,-4.27438 1.9784,-8.70916 2.66703,-12.78261 1.32865,-7.87794 2.56171,-14.96679 4.37484,-22.69404 0.59951,-2.55198 3.83364,-12.51526 3.95517,-13.7629 0.77774,-7.94275 -4.43479,-18.05185 -4.19498,-27.01378 0.35646,-13.19579 7.92492,-24.01945 13.0937,-35.79099 2.33973,-5.3292 3.72186,-9.00081 5.58359,-14.37214 4.11882,13.15853 4.67135,19.77101 4.75075,33.3492 1.63488,-1.89739 3.34755,-4.12855 4.93221,-6.09885 4.67783,-7.17149 20.074,-19.80665 21.17419,-26.55847 l 0.55091,-3.30381 c 0.84256,-18.27221 -8.96679,-41.98057 6.75831,-57.26818 5.43936,-7.73211 10.36511,-13.25412 18.34026,-18.59628 -3.49338,10.09453 -7.70295,20.96193 -2.33972,31.07103 3.78179,7.12612 6.87334,11.7683 9.49662,19.58143 l 0.32406,0.38887 c 1.82123,-0.22684 6.2544,-4.76694 7.40967,-6.3986 0.79396,-1.11801 1.29625,-2.40939 2.30246,-3.45611 2.41427,-7.0208 1.19903,-11.77154 0,-18.98191 -2.18903,-12.82636 1.36106,-21.5258 8.90522,-31.80503 -0.95599,13.37889 1.76613,17.51553 9.47556,27.86444 3.62787,-9.02188 5.13314,-17.93033 7.5312,-27.29571 4.19335,-16.37484 15.68619,-28.93547 28.88361,-38.86148 3.68296,-2.77072 7.64785,-4.93708 11.36322,-7.73373 z"
       id="path4"
       style="display:block;stroke-width:0.326074" /><path
       fill="#fdb901"
       d="m 846.32102,693.46913 c -1.47448,3.06724 -3.48042,6.24142 -4.8755,9.56144 -4.76046,11.61922 -7.97516,26.17121 -3.91953,38.45476 1.94113,5.88335 8.16636,7.22658 13.34,4.56441 12.52661,-6.44558 9.24872,-20.1226 12.19606,-31.42101 0.92357,-3.52903 3.34108,-7.15852 5.43452,-10.09128 6.25762,-9.07697 21.89522,-16.65029 26.39806,-26.12586 3.19038,-6.71618 -3.39617,-18.34026 0.34026,-27.2309 5.16878,-12.28841 13.7548,-17.90602 24.99488,-23.27572 -3.1434,5.32919 -7.74508,11.4734 -7.49717,17.93681 0.32407,8.53578 14.23927,20.43533 16.34243,33.239 2.48879,15.1272 -7.09533,26.36404 -4.47043,39.05753 0.90737,4.36673 2.96516,8.28788 6.83771,10.707 3.34269,2.08858 7.03051,2.62815 10.83013,1.5717 2.99595,-0.82635 5.78774,-2.65731 7.83258,-4.98569 7.19254,-8.18579 3.14663,-17.76019 4.85444,-27.22928 0.68052,-3.79152 2.49365,-7.15365 4.44126,-10.42668 0.16203,3.52741 0.40508,7.73535 1.6041,11.06833 5.47179,15.13367 19.47287,20.62814 23.31786,37.78559 2.11937,9.45449 0.87497,12.20253 1.15042,20.88414 v 0.40509 0.32405 c -0.27545,2.0497 -0.72914,1.86984 -0.85876,4.19661 -0.38887,6.41803 0.37267,11.78773 -0.27546,18.2868 -4.1091,-2.0821 -12.94301,-6.50554 -17.45557,-7.96058 -1.79369,-0.97219 -3.60358,-1.92492 -5.4248,-2.84202 0.17824,-3.84338 2.6168,-8.93114 3.60519,-12.74534 1.11801,-4.33433 0.77775,-7.78559 0.19444,-12.14583 -5.22064,6.4472 -7.46962,12.17337 -15.26655,16.40886 -25.48907,13.83905 -61.08076,-21.49826 -50.51473,-47.4961 2.09668,-5.86227 4.78963,-11.73104 5.36646,-18.00973 0.0101,-0.16203 0.16203,-6.36133 0.25925,-5.93843 h -0.17824 c -0.16203,0.16203 -0.24304,0.32406 -0.35646,0.5023 -4.23872,6.83446 -17.32434,15.64569 -20.17122,22.17392 -5.59655,12.83284 -1.49069,28.51742 -12.0956,40.3635 -6.4861,7.64299 -13.75804,9.192 -23.27087,10.25006 -15.72996,1.74994 -23.08291,-13.95571 -24.12801,-27.29571 -3.72023,3.64894 -7.55712,19.643 -10.66649,24.36134 -2.64434,11.49933 -7.92493,27.95356 -21.73644,12.24953 -0.98838,-1.11802 -4.1885,-6.34674 -5.01647,-6.80529 -1.84391,1.5879 0.22685,4.93545 1.00459,6.93977 1.99946,5.1137 2.63948,9.50798 1.7386,14.94087 -1.92818,2.08533 -8.49852,5.7764 -11.18824,5.65487 0.64813,-1.18282 0.89117,-1.18282 1.34485,-2.58114 l -0.16202,-0.4537 c 2.41426,-7.01917 1.19902,-11.77154 0,-18.9819 -2.18904,-12.82475 1.36106,-21.52418 8.9036,-31.80504 -0.95599,13.37888 1.76775,17.51553 9.47556,27.86444 3.62786,-9.02025 5.13313,-17.93033 7.53119,-27.29409 4.19336,-16.37645 15.6862,-28.93709 28.88523,-38.86309 3.68297,-2.76911 7.64785,-4.93708 11.36161,-7.73211 z"
       id="path5"
       style="display:block;stroke-width:0.326074" /><path
       fill="#fece1b"
       d="m 907.49901,675.22607 c 4.16581,15.76722 2.84526,23.36809 -1.037,38.83393 -3.34918,13.3319 10.90305,35.75859 21.79639,42.79558 12.69187,8.07886 28.05563,-3.85633 33.56954,-15.22442 1.6673,-3.06886 3.0721,-6.05023 4.51742,-9.17256 6.26573,16.24521 0.72914,25.08724 0.5023,40.31489 -1.79369,-0.97219 -3.60357,-1.92655 -5.42642,-2.84202 0.17824,-3.84499 2.61842,-8.93114 3.60682,-12.74697 1.11801,-4.3327 0.77774,-7.78396 0.19443,-12.1442 -5.22064,6.44558 -7.47124,12.17337 -15.26654,16.40723 -25.48908,13.84068 -61.08077,-21.49824 -50.51636,-47.49609 2.09668,-5.86228 4.79125,-11.73103 5.36809,-18.00811 0.0101,-0.16203 0.16203,-6.36295 0.25924,-5.94005 h -0.17823 c -0.16204,0.16204 -0.24305,0.32407 -0.35647,0.5023 -4.23872,6.83445 -17.32434,15.64569 -20.17121,22.17392 -5.59655,12.83284 -1.49069,28.51743 -12.09722,40.36349 -6.4861,7.643 -13.75643,9.19202 -23.27087,10.25008 -15.72996,1.75155 -23.08292,-13.95572 -24.12802,-27.29572 -3.71861,3.65056 -7.55549,19.643 -10.66487,24.36296 -0.61571,-13.81475 7.66406,-25.12936 15.29247,-35.58359 0.16203,9.52417 2.03673,26.14529 8.97976,33.18715 7.5085,7.61384 18.3597,2.18256 24.5347,-4.25006 11.11855,-11.58196 6.23009,-24.88794 12.63516,-37.91036 1.98974,-3.97947 6.88956,-9.00729 10.29058,-11.98218 9.01539,-7.8828 18.04214,-16.61302 21.55982,-28.57089 z"
       id="path6"
       style="display:block;stroke-width:0.326074" /><path
       fill="url(#Gradient1)"
       d="m 706.48518,827.56584 c 4.1172,13.16014 4.66972,19.771 4.75074,33.34918 1.63489,-1.89738 3.34756,-4.12692 4.93222,-6.09722 2.23603,-1.13421 13.2768,-14.35431 16.49312,-17.41832 l 0.21064,0.17824 0.21064,-0.30785 c -1.58791,4.18363 -5.47989,7.61058 -8.3057,11.62732 -3.80124,5.37619 -7.23954,10.99866 -10.2922,16.83177 -18.56874,36.3662 -28.96787,66.23172 -22.08319,107.55768 0.69674,4.17392 2.1858,7.99946 3.04618,12.10046 2.93276,13.95248 5.88821,27.7041 11.78289,40.7799 18.781,41.6517 63.58738,91.7273 106.95007,108.2075 9.30705,3.5338 19.35459,6.4909 29.0262,8.829 4.52876,1.0856 9.82879,1.4421 14.12909,3.0462 l -0.16203,0.2917 0.58332,0.324 c 1.65271,2.6411 33.00243,12.5218 32.84526,18.0908 -1.44207,0.7939 -2.29598,-0.2755 -2.8404,0.5995 l 0.16203,0.243 c -21.82879,-0.6805 -43.43399,-4.6114 -64.0994,-11.6775 -52.99055,-18.175 -98.55038,-51.5031 -123.06565,-102.8394 -13.45828,-28.1836 -24.11505,-65.616 -19.77911,-97.29465 0.58331,-4.27437 1.9784,-8.70915 2.66703,-12.78261 1.32865,-7.87794 2.56171,-14.96678 4.37483,-22.69403 0.59951,-2.55037 3.83366,-12.51527 3.95517,-13.76128 0.77776,-7.94438 -4.43478,-18.05349 -4.19497,-27.0154 0.35647,-13.1958 7.92493,-24.01784 13.09371,-35.791 2.33973,-5.32758 3.72184,-8.99919 5.58358,-14.37213 z"
       id="path7"
       style="display:block;fill:url(#Gradient1);stroke-width:0.326074" /><path
       fill="#fdb901"
       d="m 738.40201,1091.3747 c 0.97218,0.3079 13.86498,12.9738 14.7205,14.249 -2.09181,-0.4213 -14.25709,-12.1393 -14.7205,-14.249 z"
       id="path8"
       style="display:block;stroke-width:0.326074" /><path
       fill="#fdb901"
       d="m 744.65478,767.68734 c 5.43937,-7.7321 10.36512,-13.25574 18.34027,-18.5979 -3.49338,10.09453 -7.70295,20.96355 -2.33972,31.07265 3.78179,7.12613 6.87334,11.7683 9.495,19.58143 -0.71294,1.5717 -9.0559,6.86038 -11.17526,8.61195 -2.87767,-13.30274 -19.64462,-18.89118 -15.92764,-34.00218 0.56711,-2.28463 1.28005,-4.31974 1.60411,-6.66595 z"
       id="path9"
       style="display:block;stroke-width:0.326074" /><path
       fill="#fece1b"
       d="m 1048.8709,1040.0839 c 3.1693,3.9972 6.3386,4.5222 11.1914,3.6602 -2.9813,3.5258 -14.2149,10.1318 -18.9429,10.7977 0.6481,-1.839 6.3986,-11.765 7.7515,-14.4579 z"
       id="path10"
       style="display:block;stroke-width:0.326074" /><path
       fill="#fece1b"
       d="m 1075.3159,1003.7582 c -0.324,2.1258 -1.3773,5.3373 -2.1518,7.3627 l -0.162,-0.1621 c 0.1945,-2.8468 0.9398,-5.8882 1.5232,-8.7027 z"
       id="path11-5"
       style="display:block;stroke-width:0.326074" /><path
       d="m 897.83549,790.95497 c -5.45558,-0.16203 -10.93708,0 -16.42831,0.34027 -0.22684,0 -0.43748,0 -0.66433,0 -45.03323,2.91979 -87.03323,23.70834 -116.66381,57.74617 -29.88659,33.99407 -45.07212,78.4537 -42.22362,123.6279 0.68054,9.58736 2.10154,18.64488 4.47529,27.96169 20.9749,82.3068 95.47181,125.5512 177.42538,123.3719 8.97976,-0.6481 17.60465,-1.3611 26.43858,-3.2309 83.44423,-17.6663 137.32433,-88.5969 131.20773,-173.60149 -3.3914,-45.08832 -24.687,-86.94088 -59.1397,-116.22146 -29.35671,-24.95276 -66.23655,-38.98624 -104.42559,-40.06052 z m -10.34405,13.14556 c 19.49069,-0.59952 39.09966,2.62328 57.67163,9.73319 39.3265,14.78855 68.12583,41.47503 85.45343,79.67543 0.4537,-1.50689 -0.3889,-1.643 -0.6967,-3.46909 1.2962,2.09992 5.0586,6.95923 5.7748,8.77235 12.6497,31.99947 12.2317,67.44857 4.6276,100.32301 -8.8826,38.39808 -30.4424,67.86508 -63.72515,88.56768 -17.96759,11.3503 -43.59277,21.0381 -64.93061,22.89 0.16203,0.6482 2.52768,5.5497 3.14664,7.6268 -39.92116,4.2712 -77.95466,-2.9343 -112.37973,-24.0452 -35.42641,-21.3704 -60.80369,-56.0546 -70.44938,-96.2853 -2.26195,-10.39265 -5.15258,-26.17121 -3.70078,-36.82313 0.79394,-5.79746 5.03591,-19.90386 7.82447,-25.43397 0.48608,-0.95599 3.01701,-2.60384 4.13826,-4.23062 1.40967,-2.05456 3.66028,-5.81529 5.59168,-7.24764 1.05321,-3.32812 1.73535,-6.96247 2.7205,-10.3473 12.09074,-41.58197 42.39537,-78.35325 81.98113,-96.39376 18.09073,-8.25385 37.4599,-12.70322 56.95059,-13.31245 z"
       style="display:block;fill:#cb760c;stroke-width:0.326074"
       id="path20" /><path
       fill="#fdb901"
       d="m 1030.6165,893.50915 c 0.4537,-1.50689 -0.3889,-1.643 -0.6967,-3.46909 1.2962,2.09992 5.0586,6.96085 5.7748,8.77235 12.6481,31.99947 12.2317,67.44696 4.6276,100.32301 -8.8826,38.39808 -30.4424,67.86508 -63.72515,88.56768 -17.96598,11.3503 -43.59277,21.0381 -64.93061,22.89 0.16203,0.6482 2.52768,5.5497 3.14664,7.6268 -39.92116,4.2712 -77.95466,-2.9343 -112.37973,-24.0436 -35.42641,-21.372 -60.80369,-56.0562 -70.44938,-96.2869 -2.26195,-10.39265 -5.15258,-26.17121 -3.70078,-36.82313 0.79394,-5.79907 5.03591,-19.90386 7.82447,-25.43397 0.48608,-0.95599 3.01539,-2.60221 4.13664,-4.22901 1.40967,-2.05454 3.6619,-5.81852 5.5933,-7.24925 -3.20983,17.06346 -4.01673,27.2471 -2.9765,44.73022 0.61571,4.99866 0.98839,10.05402 1.90548,15.04619 3.11261,16.87065 9.26978,33.38325 18.36944,47.94485 3.62139,5.7943 8.73022,12.094 13.02079,17.2725 1.21524,-9.7461 0.84257,-13.118 -1.86983,-22.3651 13.03375,11.6241 17.31299,22.9646 20.46287,39.5761 6.78585,8.4645 22.09452,15.6862 32.05942,19.7597 3.17743,-8.5828 3.57116,-14.8793 1.47448,-23.911 3.70241,3.2407 5.82825,6.1977 7.94761,10.5061 3.53714,7.1861 5.54956,19.0614 13.7629,22.5126 17.01324,7.1471 65.86878,6.6935 81.88877,1.118 1.36105,-5.9741 2.10316,-9.6943 4.74101,-15.3071 5.72942,-12.1847 18.0227,-16.6518 23.0894,-28.5303 1.53929,-3.6198 2.18418,-7.2461 2.90197,-11.0651 3.69755,9.3038 5.31786,15.0559 1.76128,25.0143 -1.06941,3.0024 -2.31866,6.1458 -3.04942,9.2471 -0.48609,2.0805 -0.46989,7.3206 2.22144,7.933 1.23143,-0.162 3.50473,-1.1018 4.61301,-1.6689 9.52742,-4.8755 20.85662,-11.3875 27.30868,-20.0141 3.50959,-4.6859 3.86444,-12.2381 4.40886,-17.8006 1.36104,-13.8586 3.76564,-27.0932 13.00464,-38.1081 -0.875,14.5779 -0.8102,16.5126 5.2919,29.5026 11.7877,-12.828 22.9484,-41.50907 21.4885,-59.38431 -0.2592,-3.15311 -2.3851,-8.60545 -3.6748,-11.52687 -5.1623,-11.65974 -4.511,-18.91549 -0.1621,-30.78424 1.5879,3.29895 3.1272,5.70511 5.0829,8.75453 2.8826,-14.90198 -4.66,-35.26439 -10.3505,-49.10021 z"
       id="path14"
       style="display:block;stroke-width:0.326074" /><path
       fill="#df921a"
       d="m 737.9062,992.40466 c 4.68431,24.33224 18.31434,49.92164 34.71672,68.32194 35.07967,39.3508 87.50637,55.2071 139.04514,49.8665 0.16203,0.6482 2.52768,5.5497 3.14664,7.6268 -39.92116,4.2712 -77.95304,-2.9343 -112.37811,-24.0436 -35.42804,-21.372 -60.8053,-56.0562 -70.451,-96.2869 1.5879,-1.81312 4.06212,-3.8547 5.92061,-5.48474 z"
       id="path15"
       style="display:block;stroke-width:0.326074" /><path
       fill="#df921a"
       d="m 731.98559,997.8894 c -2.26195,-10.39265 -5.15258,-26.17121 -3.70079,-36.82313 0.79396,-5.79907 5.03592,-19.90386 7.82447,-25.43397 0.4861,-0.95599 3.01702,-2.60221 4.13827,-4.22901 1.40967,-2.05454 3.6619,-5.81852 5.59169,-7.24925 -3.20821,17.06346 -4.01675,27.2471 -2.97652,44.73022 -2.24412,-2.67674 -0.43747,-25.75966 -0.0102,-29.94005 0.40508,-3.85634 1.5555,-9.26007 2.0983,-13.12126 -1.62355,1.94761 -5.77316,7.37888 -6.57359,9.71051 -5.58844,16.26465 -4.22414,40.4753 -0.46989,56.8712 -1.8585,1.63004 -4.33109,3.67162 -5.92061,5.48474 z"
       id="path16"
       style="display:block;stroke-width:0.326074" /><path
       fill="#fedd44"
       d="m 1042.3492,790.10269 c 9.5468,6.28193 14.4158,8.38672 19.0564,19.2201 1.7726,4.16419 3.1142,8.49851 4.0005,12.93492 1.7224,8.42884 1.7645,15.54686 1.3125,24.07454 -0.162,2.59087 -1.1829,6.17499 -0.8912,8.13395 l -0.3727,0.27545 c -1.1342,-1.49068 -1.8423,-2.54389 -2.8403,-4.11396 -3.056,-4.44289 -6.3095,-8.74643 -9.7494,-12.89928 -3.2147,-3.80449 -7.1731,-8.03673 -10.1448,-11.91737 0.5023,-0.89117 0.9884,-1.79854 1.4745,-2.70915 4.9695,-9.53551 3.4675,-18.09722 0.3889,-27.95518 -0.9074,-1.62031 -1.5231,-3.32487 -2.2198,-5.04241 z"
       id="path17"
       style="display:block;stroke-width:0.326074" /><path
       fill="#fece1b"
       d="m 1042.3492,790.10269 c 9.5468,6.28193 14.4158,8.38672 19.0564,19.2201 1.7726,4.16419 3.1142,8.49851 4.0005,12.93492 1.7224,8.42884 1.7645,15.54686 1.3125,24.07454 -0.162,2.59087 -1.1829,6.17499 -0.8912,8.13395 l -0.3727,0.27545 c -1.1342,-1.49068 -1.8423,-2.54389 -2.8403,-4.11396 3.8547,-4.5628 0.9721,-25.77262 -1.6204,-31.46316 -2.8015,-6.13124 -9.8255,-21.5906 -15.9616,-24.4715 l -0.4537,0.45368 c -0.8912,-1.62031 -1.5231,-3.32649 -2.2198,-5.04241 z"
       id="path18"
       style="display:block;stroke-width:0.326074" /><path
       fill="#fdb901"
       d="m 1007.2938,697.46642 c 0.3403,0.22685 0.4051,0.22685 0.6967,0.5023 9.5177,8.93762 9.6717,20.38186 9.905,32.51148 0.162,4.75075 0.5671,8.98623 0.8749,13.57981 l -0.3888,0.19443 -0.6158,-0.5671 c -1.6041,-1.49069 -3.0704,-3.1272 -4.4007,-4.86903 -5.475,-7.24764 -9.3589,-18.61897 -8.3057,-27.67487 0.5023,-4.26789 1.6041,-9.18715 2.2182,-13.68512 z"
       id="path19"
       style="display:block;stroke-width:0.326074" /></g></svg>
