<?xml version="1.0" encoding="UTF-8" standalone="no"?>
<svg
   width="1280"
   height="640"
   preserveAspectRatio="none"
   style="display:block"
   viewBox="0 0 2560 1280"
   version="1.1"
   id="svg52"
   sodipodi:docname="sonicde-blaze-github-social.svg"
   inkscape:version="1.4.2 (ebf0e940d0, 2025-05-08)"
   inkscape:export-filename="sonicde-blaze-github-social.png"
   inkscape:export-xdpi="48"
   inkscape:export-ydpi="48"
   xml:space="preserve"
   xmlns:inkscape="http://www.inkscape.org/namespaces/inkscape"
   xmlns:sodipodi="http://sodipodi.sourceforge.net/DTD/sodipodi-0.dtd"
   xmlns="http://www.w3.org/2000/svg"
   xmlns:svg="http://www.w3.org/2000/svg"><sodipodi:namedview
     id="namedview52"
     pagecolor="#505050"
     bordercolor="#ffffff"
     borderopacity="1"
     inkscape:showpageshadow="0"
     inkscape:pageopacity="0"
     inkscape:pagecheckerboard="1"
     inkscape:deskcolor="#505050"
     inkscape:zoom="0.67285156"
     inkscape:cx="772.08709"
     inkscape:cy="514.22932"
     inkscape:window-width="1920"
     inkscape:window-height="963"
     inkscape:window-x="3840"
     inkscape:window-y="44"
     inkscape:window-maximized="1"
     inkscape:current-layer="svg52" /><defs
     id="defs2"><linearGradient
       id="Gradient1"
       x1="661.50098"
       x2="1587.38"
       y1="1593.3"
       y2="430.125"
       gradientUnits="userSpaceOnUse"><stop
         class="stop0"
         offset="0"
         stop-color="#F25A00"
         id="stop1" /><stop
         class="stop1"
         offset="1"
         stop-color="#FC8B00"
         id="stop2" /></linearGradient></defs><rect
     style="display:block;fill:#1a1a1a;stroke-width:200"
     id="rect1"
     width="2574.1191"
     height="1293.0044"
     x="-8.9172716"
     y="-8.9172716" /><path
     fill="#EDE3D2"
     d="M 0,0 H 2048 V 2048 H 0 Z"
     id="path2"
     style="fill:none" /><path
     id="path3"
     style="fill:#fd3f00;fill-opacity:1;stroke-width:0.751686"
     d="m 1131.8686,28.256702 -2.3109,1.374177 c 0.019,1.405648 -0.1973,1.475185 0.737,2.02015 6.9065,3.930566 13.8745,6.699499 20.7389,11.005157 19.3958,12.166028 30.7687,29.451582 37.0235,51.311344 4.68,16.35669 10.4805,38.0151 -2.5281,52.39486 -9.5833,10.29433 -24.4811,12.97524 -37.7987,13.73294 -13.2462,0.75394 -24.1104,-2.78028 -36.3569,-5.08269 -30.4613,-5.49182 -50.7033,-24.2517 -75.5826,-39.17868 -29.8246,-17.893877 -71.37057,-31.028897 -106.06988,-26.681903 -5.75791,0.720857 -30.21526,3.67283 -30.10853,11.615893 3.79451,2.09945 12.8903,2.53842 17.58534,3.32092 a 89.751273,89.751273 0 0 1 33.77887,13.30718 c 58.1023,38.20743 59.3824,106.2442 107.2708,152.61569 12.4532,12.05929 26.2082,25.78049 38.2773,38.24495 -32.085,-12.54413 -66.4379,-27.54557 -101.53337,-21.64032 -6.51336,1.09596 -13.37008,1.65755 -18.73636,5.69636 l 0.0646,1.09523 c 11.04226,6.08189 19.76483,8.15478 30.81913,15.85881 27.4388,18.85904 41.3464,50.48086 52.1805,80.84145 4.5244,12.63959 9.8882,27.88681 17.233,38.96139 10.8099,16.30106 27.8598,25.24748 37.1732,43.13385 21.738,41.74787 3.7357,52.6827 -32.3783,26.49397 -14.0535,-10.1906 -23.156,-23.61845 -36.9119,-33.99321 -39.5605,-32.52169 -96.69134,-30.52596 -145.02248,-25.8392 10.32516,6.92903 22.53961,12.52021 33.49994,18.50439 29.81637,16.05374 57.99222,41.2097 64.43943,75.94961 2.11299,11.38954 4.05571,23.46609 6.27771,34.42193 8.9496,44.12243 30.7846,79.58193 69.7189,102.78421 13.5484,8.07385 31.4868,20.97484 35.476,37.09098 1.8304,7.39659 -0.4059,16.99524 -9.2375,18.24303 -13.6333,1.93184 -26.359,-4.63684 -37.0968,-12.44686 -11.0656,-8.76465 -22.199,-21.19776 -32.0348,-31.43572 -28.9376,-30.11549 -60.41615,-46.71858 -102.91045,-47.67623 -22.21758,-0.50062 -44.53329,3.66358 -66.60053,6.67708 -3.99746,0.50062 -9.36794,1.16112 -12.72873,3.4237 -0.27888,5.48956 27.05936,11.61368 32.25202,13.43051 a 384.86308,384.86308 0 0 1 22.81188,8.9938 c 19.33486,8.52186 35.02781,18.07678 50.92671,32.12578 51.4048,45.30411 43.0535,125.14762 89.985,174.28533 14.6669,16.15372 32.449,27.94031 46.2522,45.03363 7.9077,9.78696 14.9742,29.32184 -3.8789,28.81069 -21.2291,-0.5788 -41.5269,-21.88894 -59.7883,-32.20207 a 181.7576,181.7576 0 0 0 -50.34533,-19.29426 c -37.54745,-8.32868 -65.32562,-0.19695 -101.80643,7.45522 -18.03971,3.78097 -38.09316,6.61595 -56.12684,1.76758 -9.98765,-2.66096 -20.08935,-6.53929 -28.66683,-12.41747 -3.06613,-2.11224 -11.86831,-9.50341 -14.47288,-10.43551 -1.28689,2.07466 -1.71794,3.47423 -0.95723,6.14271 7.38982,25.92564 32.5606,49.41453 54.44142,62.56904 a 126.43354,126.43354 0 0 0 38.6707,15.51524 c 13.9355,3.18715 27.64677,3.33185 41.10194,5.68462 25.75952,4.50261 62.4734,18.24827 71.34554,45.83522 7.15229,22.2348 -29.70818,14.5162 -39.83639,13.9824 -29.72391,-1.5559 -61.04632,-8.3137 -90.46656,-3.5029 18.94023,17.2286 44.99304,30.9395 63.88742,49.5437 13.7829,13.5754 27.65707,26.5186 40.54698,41.0638 25.35361,25.873 58.50909,46.3195 94.89449,51.0853 8.7067,1.1425 24.0755,0.7824 33.2709,0.3465 a 626.15419,626.15419 0 0 0 50.5743,-4.7804 c 16.3304,-2.1197 27.5514,-4.7577 44.1058,-3.9609 3.6268,0.4736 19.0556,2.0732 15.7354,8.891 -8.3625,17.1685 -37.0458,22.1075 -53.2874,26.0389 -33.3809,8.0805 -62.2689,5.0279 -95.652,3.6674 27.6665,23.5804 86.0971,45.1236 122.4689,50.0546 15.9501,2.1574 35.4277,2.0673 51.6814,0.9925 40.4204,-2.6685 74.3722,-15.8516 106.845,-39.7102 -11.8089,16.6048 -15.9122,21.6252 -30.7955,36.3658 16.6272,0.5637 33.322,1.3374 49.9342,0.7135 a 368.47633,368.47633 0 0 0 135.6353,-31.8556 c 27.1659,-12.2525 54.5955,-26.7462 82.9115,-35.9694 27.3088,-8.8924 56.9694,-11.3561 85.1049,-16.1142 13.7633,-2.3303 27.7133,-8.1192 40.958,-12.4263 89.195,-27.5117 179.322,-100.5923 183.6668,-200.3184 0.3532,-8.02049 -0.1203,-16.13846 -1.6238,-24.0686 -10.5761,16.99555 -18.4313,37.44966 -38.1481,46.38721 -5.0588,2.29263 -18.596,7.76393 -20.7006,-0.21145 3.8485,-17.6571 23.9629,-39.99555 33.3589,-56.38229 12.1623,-21.22761 13.1859,-31.81968 16.7338,-54.58825 6.953,-44.63509 -2.2089,-90.92412 -27.1048,-128.77901 -4.9534,-7.5319 -16.2078,-26.08981 -24.4914,-28.86353 -1.6762,2.49559 1.9168,22.03228 1.9469,27.42179 0.091,16.61985 -4.1791,25.40586 -11.478,39.57512 -2.8263,-15.00365 -3.8622,-29.85041 -6.448,-44.37298 -6.8779,-38.69678 -25.6945,-70.80596 -58.8664,-92.44849 -11.636,-7.59278 -22.2562,-13.9961 -34.3809,-21.09126 11.6737,-0.33601 35.698,-13.50729 45.6503,-20.2221 53.3922,-36.00499 69.6427,-85.42614 58.796,-146.48182 -8.3512,16.82348 -16.4027,38.30773 -35.3527,45.68252 -4.6605,1.81533 -9.8764,0.0293 -11.0639,-5.07387 -2.8263,-12.09537 5.7795,-25.94596 11.0639,-36.3305 5.9082,-10.97761 14.4644,-21.9457 20.087,-32.75118 14.7556,-28.33629 18.3789,-66.139 10.0128,-97.66922 -5.3371,-20.12489 -27.7242,-61.13489 -45.8324,-74.96891 -1.3531,-1.03282 -3.5705,-0.75256 -5.1943,-0.49624 l -1.1568,1.04239 c 1.1952,21.21558 9.3285,53.27063 -5.9606,71.93573 -4.9838,6.08339 -18.1846,14.34097 -24.8144,5.96945 -8.1034,-9.89294 -9.7771,-25.45979 -8.6798,-37.88966 0.8494,-8.21443 3.074,-16.82428 3.9611,-25.11688 2.6158,-24.36439 -6.616,-46.85632 -21.4994,-65.7725 -23.0542,-29.30747 -59.5256,-43.8509 -88.0294,-67.06445 -8.8623,-7.2192 -18.3406,-17.94768 -25.7747,-26.76119 -8.3361,22.47239 -2.5107,43.1313 2.0671,65.6022 1.6012,7.83782 3.7814,22.12984 -5.6523,25.73642 -6.8929,2.66623 -16.6147,1.0693 -23.1995,-1.9585 -30.3079,-14.4519 -34.485,-48.58502 -52.0218,-72.04437 -29.2406,-39.12299 -77.711,-60.927741 -125.5257,-64.932727 -11.8541,-0.992975 -21.8205,-2.708255 -33.9903,-1.600264 21.0472,18.607978 52.3537,41.686307 54.3534,73.286421 a 71.410142,71.410142 0 0 1 0.023,8.00134 c -7.3515,10.81149 -10.8759,17.81375 -24.8497,20.34543 -19.822,3.5908 -47.3959,-6.27009 -63.6173,-17.18306 -18.1833,-12.2397 -25.5644,-29.1726 -38.0423,-46.023131 -27.178,-36.721353 -89.0523,-65.609411 -134.8307,-63.391187 z M 1364.621,356.82263 c 37.9602,-1.44623 81.709,2.46673 117.7974,14.42003 29.5112,10.19663 49.0412,28.86451 61.5266,57.26319 8.5544,19.46941 7.8621,25.10613 2.7807,45.42119 -6.908,27.65527 -22.7236,44.71271 -48.5365,56.96369 -37.1559,14.827 -77.3399,21.31404 -117.1867,20.38947 -15.3269,-0.35554 -29.5867,-1.63123 -45.0865,-1.5944 1.5786,-63.64749 5.8706,-127.68622 -3.8788,-190.78722 a 440.48782,440.48782 0 0 1 32.5838,-2.07595 z m 18.8831,384.72506 c 29.2667,-0.89113 73.4904,5.60794 96.6357,11.28408 62.3223,15.28928 103.305,67.39508 82.4683,131.96489 -9.2383,28.64673 -28.1272,44.48491 -53.9101,57.81229 -38.5088,20.97204 -86.2271,22.72226 -129.2987,23.60173 -13.5755,0.27813 -27.2102,-1.62259 -40.6879,-3.23872 -2.8865,-26.16617 -1.2322,-48.15321 -1.0894,-74.2818 0.6916,-47.27352 0.9451,-94.5468 0.7722,-141.82783 11.824,-2.27009 21.6663,-3.48753 33.588,-4.4572 3.4653,-0.45289 7.3411,-0.73011 11.5219,-0.85744 z" /><path
     id="path4"
     style="fill:#fff941;fill-opacity:1;stroke-width:0.751686"
     d="m 1226.4782,115.25552 c 2.8196,17.31959 9.394,31.3209 9.076,48.56006 -0.2676,14.50227 -9.1293,34.89582 -19.8521,44.39938 -20.8382,18.46891 -45.809,9.80658 -69.2256,2.78358 -13.0582,-3.91628 -25.2983,-7.36175 -38.0071,-12.47621 -15.5366,-6.25254 -21.9197,-12.02534 -38.9056,-12.8785 5.546,10.17331 15.7549,28.03233 23.822,35.71682 16.7739,15.97858 50.8391,14.93465 66.1043,39.23741 3.6479,5.80752 6.0437,12.49153 7.6343,19.13568 2.4445,10.21241 8.4061,63.27756 6.4539,71.06953 -1.4071,5.62185 -5.0923,10.21236 -10.1301,13.03118 -12.7727,7.14478 -34.6587,4.2377 -48.1402,0.32592 -7.7867,-2.25881 -15.1113,-5.64948 -22.9822,-7.77524 9.227,18.81619 20.9975,36.18538 35.8959,51.05296 21.7132,21.66885 41.05,32.95484 51.4729,64.19866 7.8784,23.61646 6.9388,51.89938 -3.0684,75.07461 -3.5081,8.12648 -12.8584,16.46945 -21.7637,18.85381 -22.2281,5.19564 -51.4081,0.0783 -71.5188,-10.2153 -7.0012,-3.58404 -20.413,-18.22175 -27.7389,-20.00776 -5.7376,1.19593 -1.057,3.15925 -2.7836,5.48497 l -5.4057,-8.76773 -0.2231,0.091 c 4.3402,9.12471 10.8738,19.67629 14.5962,28.15004 7.9017,17.9916 10.5616,25.69503 24.4415,40.08305 14.9661,15.5148 26.3336,22.06843 46.7719,29.0779 14.2707,4.89423 29.8767,14.42042 40.4882,25.14625 12.0984,12.14272 17.6418,37.15584 17.3945,53.93346 -0.3751,25.39946 -14.3547,36.53892 -31.6736,52.88815 2.298,5.48723 11.4451,16.99734 9.5283,22.1013 -6.5638,17.46916 -39.3426,9.74056 -52.8324,7.32013 -14.8804,-2.676 -30.9322,-10.35815 -42.4262,-20.17516 -5.0385,-4.17938 -11.5279,-8.882 -17.6764,-14.81641 -10.1942,-10.88749 -44.9552,-37.85632 -44.969,-37.83678 0,0 20.1515,73.36273 26.8934,91.96695 3.5975,9.92977 9.5083,20.16712 15.4301,28.90171 7.3453,10.94364 15.8527,21.06066 25.3752,30.17319 22.4499,21.57338 51.4681,39.88475 56.9667,73.0867 2.3685,14.30458 -0.3842,32.82507 -15.6592,38.38002 -14.1896,5.15657 -32.6431,-0.61556 -46.2756,-5.54661 -5.6354,-2.11976 -15.4921,-9.93729 -20.4893,-13.53034 -17.1761,-12.65088 -32.6722,-26.22595 -52.7061,-34.21636 -46.41888,-18.52153 -91.33064,-3.94605 -138.52749,-0.39057 -5.22872,0.39094 -30.33264,-1.1646 -31.9202,-0.83385 0.39538,0.77423 10.82964,8.21435 12.14736,8.95851 20.08052,11.32039 42.46469,14.8391 64.93859,18.50733 36.08467,5.9759 73.35682,20.06099 93.56134,52.55634 8.8594,14.2444 23.6765,30.5195 10.183,46.9364 -14.62476,17.7848 -49.13087,11.0129 -69.09339,7.1116 -5.44596,-1.18 -14.74208,-3.3766 -20.16926,-2.8805 l -0.83977,0.9396 c 1.68002,2.3152 5.64645,4.2032 8.27735,5.714 20.66009,13.1395 38.85214,31.8252 57.54506,47.4677 13.29055,11.125 31.24841,22.0612 47.50891,28.661 26.3037,10.689 60.1365,8.464 87.909,5.8256 31.5002,-2.9917 63.0121,-17.0917 93.2825,-0.1938 7.3424,3.9839 11.2508,4.6974 13.2337,13.3042 2.2671,9.8321 0.4694,14.7496 -5.0562,23.0557 -14.1242,21.2351 -40.6445,30.8245 -63.2649,40.1154 17.0121,1.9318 39.7628,3.2929 56.7757,3.2328 45.2515,-0.1729 86.9105,-26.3847 116.3615,-59.4889 12.8463,-11.2379 24.6338,-16.1616 25.0171,6.2161 0.2706,15.6802 -8.1496,27.0934 -13.915,40.917 -1.308,3.142 -1.0295,2.6965 -3.3973,5.4702 l -0.6753,0.781 c 1.2478,3.0294 9.9438,-0.6065 14.0706,0.1527 3.4277,0.6389 11.8006,2.4563 14.5668,2.3285 27.9778,-1.2477 56.828,-10.99 82.9792,-20.6566 32.6532,-13.9964 61.134,-35.2594 95.9221,-44.5051 20.6488,-5.4798 40.5695,-9.5547 61.5942,-13.1252 8.757,-1.586 33.1571,-4.5709 40.456,-7.743 2.1648,-1.7589 11.0788,-1.8112 12.5672,-3.2093 1.8867,-2.1272 4.7749,-6.8939 7.6313,-7.9161 7.2539,-2.5859 31.6065,-4.5392 31.336,-15.4536 -0.173,-6.9606 -9.869,-8.6905 -15.251,-14.1177 0.8945,-2.5858 0.9406,-1.073 0.5197,-3.7114 0.93,-3.4467 57.0678,-41.2825 67.5518,-57.8504 0.8871,-1.5861 0.3985,-2.6551 -0.2555,-4.1284 -10.1176,-6.3443 -62.7199,14.7327 -38.1773,-31.43575 7.0433,-13.97388 15.9501,-27.84157 27.9621,-38.12464 10.704,-9.16304 21.0629,-17.04725 29.6622,-28.54052 8.7271,-11.67368 18.8221,-23.74763 24.3094,-37.44335 7.9754,-19.8896 11.0968,-40.9589 13.3894,-62.0963 -10.7791,6.90799 -27.9937,14.47078 -40.8024,11.74216 -13.1921,-2.80379 -12.2747,-15.53637 -17.1155,-24.97009 -0.8269,-1.60847 -2.0617,-1.8878 -3.55,-2.02309 -5.322,3.04432 -4.5982,12.56915 -8.7325,20.69488 -7.7121,15.13143 -7.6319,25.00918 -24.3946,34.80365 -2.285,1.33048 -3.8091,1.62312 -6.3423,0.83385 -17.2362,-14.8458 7.9611,-68.84661 13.3131,-86.76679 2.5934,-8.697 3.0201,-21.6048 1.8851,-30.64006 -2.3076,-18.34865 -7.9826,-37.10411 -15.0485,-53.58106 -25.2867,-58.95698 -49.4235,-40.40205 -100.7787,-58.58157 -5.3671,-1.90026 -12.995,-4.38677 -17.4826,-8.27148 -0.7968,-0.9118 -2.1724,-3.63466 -1.8116,-4.71859 2.4881,-7.45822 12.9873,-12.7041 19.6172,-16.63692 6.8704,-4.07564 14.1858,-8.80668 21.1764,-12.59368 15.9584,-8.64362 28.6081,-20.45023 41.9505,-32.48397 6.1638,-5.56022 11.4554,-12.41625 18.6189,-16.76024 10.8168,-6.84561 21.4009,-4.24258 32.3079,-9.11126 1.8041,-0.80505 7.2683,-5.221 9.1024,-6.68002 -9.4938,-3.20067 -19.522,-6.06263 -24.5883,-15.39781 -9.569,-17.60748 -7.5148,-47.96966 1.0393,-65.54934 1.992,-4.08992 8.5457,-12.92722 11.3194,-16.92466 4.2416,-6.22885 8.0278,-12.75726 11.3281,-19.53209 6.5773,-13.59575 18.355,-47.60251 22.0984,-62.46332 -17.7923,9.82377 -36.449,17.43252 -56.9548,7.6343 -12.0346,-5.74965 -34.7723,-33.10535 -35.7345,-46.30795 -3.2096,-44.00067 3.7949,-89.08678 -29.9558,-124.31003 -1.8342,9.50657 -2.8262,19.43216 -7.0882,28.11187 -9.6291,19.64681 -25.5947,24.87998 -45.7324,27.25156 -20.6714,2.43396 -32.3202,-0.69379 -48.8948,-13.75057 -6.3518,-5.00246 -11.3823,-11.47916 -18.155,-15.93515 -5.3971,-3.48256 -12.5669,-5.15299 -18.0316,-7.91619 -14.237,-7.19213 -17.3111,-28.19298 -22.3098,-42.20892 -6.5322,-18.32309 -16.0727,-33.66626 -34.008,-42.41738 1.9018,10.8596 4.7817,23.19504 3.9699,34.00203 -1.7514,30.61465 -32.6085,48.40287 -61.0598,44.55499 -23.1745,-3.13528 -52.5347,-12.56464 -74.5666,-20.94442 -31.3378,-11.91798 -57.811,-43.23817 -79.1972,-68.5414 z m 138.1428,241.56711 c 37.9602,-1.44623 81.709,2.46673 117.7974,14.42003 29.5112,10.19663 49.0412,28.86451 61.5266,57.26319 8.5544,19.46941 7.8621,25.10613 2.7807,45.42119 -6.908,27.65527 -22.7236,44.71271 -48.5365,56.96369 -37.1559,14.827 -77.3399,21.31404 -117.1867,20.38947 -15.3269,-0.35554 -29.5867,-1.63123 -45.0865,-1.5944 1.5786,-63.64749 5.8706,-127.68622 -3.8788,-190.78722 10.8319,-1.09442 21.7006,-1.78687 32.5838,-2.07595 z m 18.8831,384.72506 c 29.2667,-0.89113 73.4904,5.60794 96.6357,11.28408 62.3223,15.28928 103.305,67.39508 82.4683,131.96489 -9.2383,28.64673 -28.1272,44.48491 -53.9101,57.81229 -38.5088,20.97204 -86.2271,22.72226 -129.2987,23.60173 -13.5755,0.27813 -27.2102,-1.62259 -40.6879,-3.23872 -2.8865,-26.16617 -1.2322,-48.15321 -1.0894,-74.2818 0.6916,-47.27352 0.9451,-94.5468 0.7722,-141.82783 11.824,-2.27009 21.6663,-3.48753 33.588,-4.4572 3.4653,-0.45289 7.3411,-0.73011 11.5219,-0.85744 z"
     sodipodi:nodetypes="cssssccsccccccscccccccccscccccccccccccccccccccccccccccccccccccccccccccccccccccscccccccccccccccscccscccccccccccccccccccccccccsccccccccccccc" /><path
     id="path8"
     style="fill:#ff04da;fill-opacity:1;fill-rule:nonzero;stroke:none;stroke-width:0.751686"
     d="m 1327.4595,671.58809 c -28.2709,-0.61789 -62.068,24.62649 -59.3244,55.06975 1.9995,18.49898 4.8576,34.07977 0.4903,52.62394 -9.0262,38.35101 -47.1416,65.84819 -37.2231,108.46877 1.5741,6.76517 3.5342,18.75471 12.6025,17.97296 4.8213,-0.42094 13.3441,-5.1952 16.405,-9.35202 8.3647,-14.18431 14.1588,-33.10229 20.6684,-48.3164 10.7115,53.67035 0.7973,75.44721 -19.629,123.38221 -8.9368,26.62476 -10.2961,59.7817 16.1436,76.9126 10.9295,7.0809 26.1789,10.9881 38.3713,8.2745 29.436,-6.5472 0.564,-23.5365 -7.652,-33.3385 12.1097,-0.1503 22.1987,1.5884 33.3913,6.4216 7.344,3.1798 24.5952,6.5992 29.1279,12.0565 -3.2097,8.2836 -9.2898,11.0106 -6.6213,20.0458 5.9683,20.1978 37.0188,11.5404 49.9929,3.6703 18.7922,-11.388 31.4587,-36.4355 50.1457,-48.8007 15.0036,-10.253 33.8926,-13.3132 51.0912,-18.19913 3.0668,-0.87189 13.6879,-4.08132 15.3567,-0.51089 -3.4653,7.29142 -20.4763,16.53052 -24.2272,25.95672 -1.9394,4.8634 -9.6137,21.3788 -0.2026,23.1377 13.3875,2.5031 26.3557,-2.8042 37.3904,-9.8776 43.5903,-23.2571 42.32,-65.37404 70.9668,-98.65868 l 6.4421,3.99041 c 1.9845,7.23873 2.0344,9.38065 7.5668,14.48459 8.8398,8.83984 18.1989,3.22617 25.9714,-4.00505 21.0848,-19.61899 22.6264,-37.66005 23.6487,-64.11939 0.7367,-3.4803 0.4739,-7.43522 0.4288,-11.04331 -1.6387,-1.88673 -3.7131,-3.64553 -5.5849,-5.32931 -11.2,-0.54121 -19.9053,1.63875 -31.1656,1.99956 -11.6661,-3.29238 -7.374,-46.73838 -8.013,-57.18681 -1.4959,-24.53502 -0.7358,-38.16189 -22.3392,-53.48124 -8.3437,-5.91577 -37.8091,-19.97326 -35.3585,-31.03056 5.6827,-9.05781 19.6852,-4.9152 27.6831,-2.53987 -0.03,-0.0451 13.5009,7.92923 15.4477,9.25219 -1.7965,-6.22396 -4.3144,-12.10199 -8.4036,-17.16835 -17.2362,-22.41526 -47.1326,-31.71294 -74.088,-36.48615 -21.9492,-3.88621 -32.3825,5.26684 -51.1822,11.00221 -9.7644,2.97667 -33.5692,5.82684 -44.3936,7.33773 -28.1807,3.93883 -56.2344,-3.24668 -83.9039,-6.727 -11.1174,-1.40564 -25.3681,-0.12755 -37.0117,-1.63844 11.1475,-5.60006 16.139,-9.13411 28.9252,-10.78782 4.7506,-0.61638 18.4536,-0.98366 20.874,-2.48702 0.038,-1.31546 0.3911,-1.51917 -0.6989,-2.31674 -12.0119,-8.83607 -28.0375,-8.52001 -42.1091,-8.65906 z m 56.0446,69.9596 c 29.2667,-0.89113 73.4904,5.60794 96.6357,11.28408 62.3223,15.28928 103.305,67.39508 82.4683,131.96489 -9.2383,28.64673 -28.1272,44.48491 -53.9101,57.81229 -38.5088,20.97204 -86.2271,22.72226 -129.2987,23.60173 -13.5755,0.27813 -27.2102,-1.62259 -40.6879,-3.23872 -2.8865,-26.16617 -1.2322,-48.15321 -1.0894,-74.2818 0.6916,-47.27352 0.9451,-94.5468 0.7722,-141.82783 11.824,-2.27009 21.6663,-3.48753 33.588,-4.4572 3.4653,-0.45289 7.3411,-0.73011 11.5219,-0.85744 z" /><path
     id="path16"
     style="fill:#ff04da;fill-opacity:1;fill-rule:nonzero;stroke:none;stroke-width:0.751686"
     d="m 1396.9141,258.53386 c -9.8095,-0.0767 -20.1209,0.54738 -29.3216,4.19006 -3.7283,1.47631 -9.4279,4.22228 -11.014,8.2656 -0.8945,2.27835 -0.4514,4.39483 0.646,6.49503 6.893,13.1312 38.0126,20.84402 48.243,31.14211 l -0.4639,0.92785 c -10.5988,3.50437 -30.5195,1.99221 -42.4262,-0.32298 -22.2424,-4.32219 -102.2828,-31.52926 -115.5012,-5.7081 -3.4623,6.54191 -2.6041,14.5293 -0.3964,21.17344 3.3277,9.81777 12.0114,16.42133 17.7497,24.71167 26.0234,37.58504 14.9048,89.20429 -16.772,119.85276 -25.5979,24.76655 -21.4288,56.97541 -9.0584,86.9812 1.4643,3.55172 5.1569,12.82664 9.9158,10.96697 6.7584,-8.59402 5.7804,-42.18222 20.1105,-49.02106 6.3668,3.13002 5.352,28.45979 4.3222,34.47477 -6.5321,38.17812 4.5905,63.08595 40.8142,78.39554 8.6369,3.65094 31.5808,22.5792 40.4883,10.99047 2.1047,-7.80852 -13.0434,-22.48109 -17.4708,-29.58001 -0.8548,-2.59927 -4.9705,-10.05964 -3.8432,-11.52875 1.2987,-1.69233 6.4218,0.6928 11.4041,1.18426 18.4689,3.02252 34.6168,9.44141 53.1759,10.85834 24.2043,1.84915 43.1247,-3.46359 66.3744,-8.52695 19.3109,-4.20792 52.3463,-2.51821 68.8909,-14.27909 30.184,-21.71153 52.0531,-53.07543 61.9905,-88.90445 2.8714,-10.44316 4.414,-22.57339 7.0148,-33.53222 5.4648,7.04555 23.3694,23.74659 32.4046,14.24679 15.1089,-15.88763 8.9159,-48.1928 -5.1707,-63.17389 -4.5627,-5.43094 -11.1797,-9.3961 -16.0731,-14.3437 -12.5081,-12.6659 -27.9974,-26.44775 -35.4467,-42.79617 -2.7286,-5.98191 -5.1957,-25.36739 -0.4376,-30.36986 15.4698,-4.58604 38.3728,44.41915 47.829,49.43214 7.1636,-3.17211 0.8293,-22.08931 -1.5385,-27.70667 -13.2749,-31.45729 -37.0159,-52.88081 -68.4739,-65.50236 -6.9757,-2.79551 -39.1979,-11.60808 -40.7614,-0.72819 3.6758,6.69377 15.8585,17.45961 13.6185,25.83039 -0.3909,1.46729 -1.614,2.61624 -2.9745,3.24165 -9.2457,4.24777 -25.889,-2.63873 -34.601,-6.3453 -38.554,-16.39651 -43.5984,-50.60418 -93.2473,-50.99129 z m -32.2931,98.28877 c 37.9602,-1.44623 81.709,2.46673 117.7974,14.42003 29.5112,10.19663 49.0412,28.86451 61.5266,57.26319 8.5543,19.46941 7.8621,25.10613 2.7807,45.42119 -6.908,27.65527 -22.7236,44.71271 -48.5365,56.96369 -37.1559,14.827 -77.3399,21.31404 -117.1867,20.38947 -15.3269,-0.35554 -29.5868,-1.63123 -45.0865,-1.5944 1.5785,-63.64749 5.8706,-127.68622 -3.8788,-190.78722 10.8319,-1.09442 21.7006,-1.78687 32.5838,-2.07595 z"
     sodipodi:nodetypes="sscccccccccsccccccsccccccccccccccccccscccccsccc" /><path
     id="path38"
     style="fill:#fff941;fill-opacity:1;stroke-width:0.751686"
     d="m 1776.7328,514.42411 c -11.234,3.85736 -22.8618,7.19871 -34.873,6.65723 -4.8979,1.56228 6.5944,1.33307 8.0599,1.38393 5.5117,2.31001 -2.792,10.5098 -3.9793,14.62555 -8.2973,18.05146 -22.7193,33.3197 -40.8042,41.74028 -6.1463,2.53182 -11.6157,6.31543 -16.5341,10.71648 -15.0082,8.75202 -34.0666,8.55044 -47.907,19.65086 -4.9746,4.06133 -9.3639,12.14231 -4.34,17.82512 3.8603,4.74989 10.1679,8.9178 16.5227,7.39719 -6.0315,0.18412 -15.2119,-5.36911 -14.349,-10.53147 2.1282,1.35984 8.3072,2.77421 3.4782,-0.458 -6.2522,-1.67051 -5.4542,-7.61072 -0.08,-9.88254 12.823,-8.32705 27.5477,-13.24169 42.4676,-16.21812 9.9931,-2.13188 19.5673,-5.80449 28.5791,-10.57743 12.3677,-4.00353 22.6815,-12.36711 32.4583,-20.65421 15.4503,-13.55376 25.9856,-31.91867 31.3002,-51.67487 z" /><path
     fill="#EA2000"
     d="m 1765.1276,281.81333 c 0.4661,0.27211 1.1426,0.62615 1.4057,1.04709 10.0726,16.69945 15.8756,38.96363 17.4015,58.1226 1.9093,23.84498 -10.5085,59.4869 -26.4819,77.29509 -0.075,-1.79428 0.887,-3.4104 1.6312,-5.23474 9.4637,-21.55684 13.1169,-44.58549 12.5907,-68.22826 -0.1578,-7.09516 0.3683,-11.8646 -8.5918,-10.45444 -4.8634,0.76671 -5.2617,4.01175 -8.2684,6.98767 l -1.1953,-0.33902 c 2.8038,-4.09743 6.3367,-8.68647 6.893,-13.62655 1.7214,-15.28778 3.7434,-30.19897 4.6153,-45.56944"
     id="path39"
     style="fill:#fff941;fill-opacity:1;stroke-width:0.751686" /><path
     fill="#CB1A00"
     d="m 702.10122,732.81347 c 1.73864,0.18792 13.26574,3.93884 15.84703,4.67549 a 142.82029,142.82029 0 0 0 34.33024,5.66019 c 14.85933,0.68403 29.7848,-0.78175 44.56293,-2.57076 40.01525,-4.8559 66.08821,-2.26258 103.13955,14.81572 46.26776,21.3178 75.31591,53.30203 92.78432,101.53771 0.35255,0.94712 0.47131,1.88673 0.67277,2.89399 l -0.86519,0.38335 c -5.34149,-2.2325 -17.91718,-11.23769 -23.88783,-14.79317 -34.65947,-20.65633 -72.73385,-37.92255 -112.97385,-43.91347 -32.59985,-4.8559 -66.27688,-4.82583 -96.48412,-20.61123 -16.9227,-8.83983 -50.51553,-29.6991 -57.12585,-48.07782"
     id="path42"
     style="fill:#fd3f00;fill-opacity:1;stroke-width:0.751686" /><path
     fill="#EB3800"
     d="m 816.47771,764.27151 c 3.56374,-0.97719 13.36423,-0.94712 17.46993,-0.87195 29.50968,0.54874 58.80813,10.65891 83.47169,26.60216 8.74737,5.66019 19.2206,15.87561 26.31802,23.29474 -9.98464,-5.04381 -20.8946,-10.00494 -31.04387,-14.84579 -38.08115,-18.06301 -67.92232,-16.80769 -108.06083,-22.55057 -12.5291,-1.78902 -15.03146,-6.47953 -25.65805,-10.19286 l 0.29542,-0.45853 c 2.23551,0.77424 4.37556,1.43572 6.63889,2.12727 2.74065,-2.34526 25.70765,-3.10447 30.5688,-3.10447"
     id="path43"
     style="fill:#fff941;fill-opacity:1;stroke-width:0.751686" /><path
     fill="#CB1A00"
     d="m 869.93835,313.89903 c 25.81439,-2.6948 46.9984,4.23124 70.95914,12.42235 39.61307,13.54237 69.95491,44.1653 87.13911,82.40129 a 418.5386,418.5386 0 0 0 -84.34661,-29.52996 c -13.20937,-2.34301 -23.58113,-5.07389 -37.43845,-5.86916 -25.13939,-1.44324 -51.48221,0.44649 -76.24499,-3.52766 -23.04443,-3.69831 -58.80888,-12.37501 -73.12023,-32.10676 49.56165,4.68225 69.56401,-17.58494 113.05203,-23.7901"
     id="path44"
     style="fill:#fd3f00;fill-opacity:1;stroke-width:0.751686" /><path
     id="path45"
     style="fill:#fff941;fill-opacity:1;stroke-width:0.751686"
     d="m 897.78016,332.97129 c -24.96986,-0.13579 -48.32048,9.95196 -71.32833,18.43282 -1.98437,0.44813 -7.26059,2.53136 -2.20297,3.17259 12.65511,1.83822 25.5169,0.5853 38.23818,0.1993 14.89037,-1.19699 29.89013,-0.28569 44.56055,2.49599 17.54747,3.10503 34.83686,7.84885 52.57926,9.71895 -1.06519,-3.33867 -4.60071,-7.19106 -6.13808,-11.01004 -8.80886,-10.4647 -21.67486,-16.70878 -34.69867,-20.21862 -6.84844,-1.81368 -13.92641,-2.74164 -21.00994,-2.79099 z" /><path
     fill="#CB1A00"
     d="m 836.06363,528.92324 c 19.08304,-1.70634 47.5802,4.46576 65.64397,10.41535 33.65296,11.08436 64.87799,38.87869 80.24921,70.92907 -22.4694,-14.62029 -66.0198,-29.76451 -92.59565,-29.05115 -11.87363,0.31796 -25.07473,3.01952 -37.36254,3.96214 -8.81652,1.0065 -31.20548,2.01526 -39.49958,0.68478 -42.18685,-6.76893 -86.7513,-18.50952 -120.93045,-45.29583 -1.91153,-1.49736 -3.62612,-3.28337 -3.82382,-5.7707 2.69931,-3.00223 32.16839,5.24377 37.42417,6.37204 39.42066,8.46249 72.76619,-8.58499 110.89469,-12.2457"
     id="path47"
     style="fill:#fd3f00;fill-opacity:1;stroke-width:0.751686" /><path
     id="path48"
     style="fill:#fff941;fill-opacity:1;stroke-width:0.751686"
     d="m 840.46705,550.39638 c -19.94521,0.15643 -39.2337,5.945 -58.45231,10.64267 -3.66702,0.93371 -7.33407,1.88478 -11.05512,2.58231 27.46526,4.30257 55.44832,7.04375 83.19653,3.88993 11.67729,-0.91319 23.11131,-4.13216 34.87986,-3.83138 3.98356,-0.17939 10.67785,0.68673 12.87825,0.24277 -9.76161,-5.65184 -20.72325,-8.67593 -31.79758,-10.41461 -9.77329,-1.84755 -19.68617,-3.16989 -29.64963,-3.11169 z" /><path
     fill="#CB1A00"
     d="m 853.98533,169.59342 c 60.70463,-6.90725 73.14653,48.50553 125.72619,61.43828 6.12324,1.50638 14.58497,3.70505 20.13842,6.47351 1.51836,2.02429 1.21846,0.92307 0.98166,3.39988 -4.65515,5.31667 -14.00537,6.63212 -20.71417,7.81377 -30.48461,5.36779 -56.37867,-7.4492 -84.57741,-16.35517 -36.24779,-10.72581 -67.4202,-10.26352 -104.2513,-13.76939 -19.00186,-1.80855 -50.4554,-12.06005 -62.39743,-28.26413 14.40155,0.24505 22.49194,2.30693 38.03079,0.76897 29.62319,-2.93157 58.76453,-18.23815 87.06325,-21.50572"
     id="path50"
     style="fill:#fd3f00;fill-opacity:1;stroke-width:0.751686" /><path
     id="path51"
     style="fill:#fff941;fill-opacity:1;stroke-width:0.751686"
     d="m 862.6917,192.24751 c -13.45916,-0.14719 -26.99735,1.54562 -39.74285,6.01567 -8.91817,2.90979 -17.65409,6.36665 -26.66095,9.00629 19.12741,0.80759 38.34471,-0.27248 57.39334,2.10344 21.16417,2.20559 41.53399,8.76109 61.36626,16.2037 7.29674,2.6275 14.62136,5.19893 22.0875,7.30891 -8.37374,-5.57554 -15.10586,-13.22397 -23.41984,-18.90069 -14.19427,-10.9722 -30.52816,-20.84075 -48.93534,-21.64213 l -1.03928,-0.0551 z" /></svg>
