<?xml version="1.0" encoding="UTF-8" standalone="no"?>
<!-- Created with Inkscape (http://www.inkscape.org/) -->

<svg
   width="1024"
   version="1.1"
   height="1024"
   id="svg1"
   sodipodi:docname="sonic-monitor-logo.svg"
   inkscape:version="1.4.4 (dcaf3e7d9e, 2026-05-05)"
   xml:space="preserve"
   inkscape:export-filename="kwin-sonic-logo.png"
   inkscape:export-xdpi="192"
   inkscape:export-ydpi="192"
   xmlns:inkscape="http://www.inkscape.org/namespaces/inkscape"
   xmlns:sodipodi="http://sodipodi.sourceforge.net/DTD/sodipodi-0.dtd"
   xmlns="http://www.w3.org/2000/svg"
   xmlns:svg="http://www.w3.org/2000/svg"><sodipodi:namedview
     id="namedview1"
     pagecolor="#505050"
     bordercolor="#ffffff"
     borderopacity="1"
     inkscape:showpageshadow="0"
     inkscape:pageopacity="0"
     inkscape:pagecheckerboard="1"
     inkscape:deskcolor="#505050"
     inkscape:zoom="0.5"
     inkscape:cx="506"
     inkscape:cy="332"
     inkscape:window-width="1920"
     inkscape:window-height="966"
     inkscape:window-x="1920"
     inkscape:window-y="36"
     inkscape:window-maximized="1"
     inkscape:current-layer="layer1" /><defs
     id="defs5455"><linearGradient
       id="Gradient1"
       gradientUnits="userSpaceOnUse"
       x1="401.59698"
       y1="1323.2"
       x2="888.91602"
       y2="1208.34"
       gradientTransform="matrix(0.32607391,0,0,0.32607391,558.2493,591.33901)"><stop
         class="stop0"
         offset="0"
         stop-opacity="1"
         stop-color="rgb(250,178,12)"
         id="stop1" /><stop
         class="stop1"
         offset="1"
         stop-opacity="1"
         stop-color="rgb(255,210,25)"
         id="stop2" /></linearGradient></defs><metadata
     id="metadata5458" /><g
     inkscape:label="Capa 1"
     inkscape:groupmode="layer"
     id="layer1"
     transform="translate(-384.57143,-483.798)"><path
       id="rect6"
       style="fill:#c6cdd1;stroke:#0a0808;stroke-width:0"
       d="m 496.70318,1429.1604 h 799.73162 v 62.4044 H 496.70318 Z m 192.51055,-48.9272 h 414.70987 l -0.6816,49.8549 H 689.21292 Z m -97.4149,-62.1592 h 609.54037 v 63.088 H 591.79883 Z M 406.70992,500.03118 H 1386.4276 V 1320.857 H 406.70992 Z"
       sodipodi:nodetypes="cccccccccccccccccccc" /><ellipse
       style="fill:#000000;fill-opacity:1;stroke:#0a0808;stroke-width:0"
       id="path11"
       cx="783.09619"
       cy="1286.8893"
       rx="8.5283566"
       ry="8.85637"
       inkscape:label="knob" /><ellipse
       style="fill:#000000;fill-opacity:1;stroke:#0a0808;stroke-width:0"
       id="path11-6"
       cx="1010.0419"
       cy="1287.2581"
       rx="8.5283566"
       ry="8.85637"
       inkscape:label="knob" /><rect
       style="fill:#000000;fill-opacity:1;stroke:#0a0808;stroke-width:0"
       id="rect11"
       width="137.10973"
       height="7.8723292"
       x="828.0141"
       y="1283.2808"
       inkscape:label="grill" /><ellipse
       style="display:inline;fill:#ff0000;fill-opacity:1;stroke:#0a0808;stroke-width:0"
       id="path12"
       cx="1325.1034"
       cy="1288.3625"
       rx="14.171535"
       ry="14.386255" /><ellipse
       style="display:inline;fill:#00ff00;fill-opacity:1;stroke:#0a0808;stroke-width:0"
       id="path12-2"
       cx="1241.5585"
       cy="1288.215"
       rx="14.171535"
       ry="14.386255" /><rect
       style="fill:#000000;fill-opacity:1;stroke:#0a0808;stroke-width:0"
       id="rect12"
       width="914.94971"
       height="723.70087"
       x="439.09421"
       y="536.67987" /><rect
       style="fill:#f2ff2a;fill-opacity:1;stroke:#0a0808;stroke-width:0"
       id="rect12-7"
       width="800.52722"
       height="625.94006"
       x="496.30542"
       y="587.09015" /><rect
       style="fill:#4d4d4d;fill-opacity:1;stroke:#0a0808;stroke-width:0"
       id="rect13"
       width="414.84277"
       height="5.5665774"
       x="688.94861"
       y="1423.5939" /><rect
       style="fill:#4d4d4d;fill-opacity:1;stroke:#0a0808;stroke-width:0"
       id="rect13-2"
       width="609.46576"
       height="5.5665774"
       x="591.85352"
       y="1375.54" /><rect
       style="fill:#4d4d4d;fill-opacity:1;stroke:#0a0808;stroke-width:0"
       id="rect13-2-3"
       width="979.65411"
       height="5.5665774"
       x="406.77884"
       y="1315.1914" /><rect
       style="fill:#000000;fill-opacity:1;stroke:#0a0808;stroke-width:0"
       id="rect14"
       width="767.73169"
       height="591.73785"
       x="512.70282"
       y="604.38354" /><path
       fill="rgb(249,62,0)"
       d="m 863.85055,621.35159 c 5.56505,-0.59846 13.1991,-1.01939 18.5782,-0.26489 12.42781,1.74253 24.19581,10.28015 31.05031,20.6103 4.1142,6.0057 8.3798,13.75569 14.5582,17.9713 12.3636,8.43757 28.947,8.57389 41.367,17.97765 5.016,3.79857 10.5602,7.89794 13.9382,13.27172 6.6644,10.59716 13.6915,21.30703 28.08764,18.75469 6.6292,-1.15218 7.0166,-5.50165 8.0593,-11.31044 1.3104,-7.29314 0.4896,-14.8568 -0.9264,-22.03229 -3.54,-17.96321 -15.023,-32.93518 -30.26104,-42.74826 5.7768,0.88483 11.55,1.94579 17.17884,4.02259 26.6259,9.82646 53.8435,32.32229 57.5807,62.01687 1.1589,11.83352 0.7468,25.00379 9.8558,34.01199 3.4625,3.38855 11.0216,4.35544 13.9875,-0.12575 1.5463,-2.33853 -0.1128,-10.19878 -0.7081,-12.81521 -1.3385,-5.88595 -2.3671,-10.96913 -2.1592,-17.01357 0.3981,-11.64367 5.5336,-19.93012 11.793,-29.19651 -0.1585,5.64113 -0.4367,11.35623 0.6693,16.88112 2.9377,14.64088 14.5123,21.30702 24.5863,30.7041 5.2202,4.87219 10.6623,11.55278 13.9699,17.92481 9.0032,17.35101 10.1269,34.5414 4.4558,52.96218 1.8986,-2.8993 3.4132,-6.04058 5.4597,-9.15156 2.8813,9.85322 4.3397,27.70864 1.3738,37.57948 -4.6812,15.57783 -14.7589,38.87571 -26.2208,50.07345 -7.0765,6.43789 -16.1221,10.53867 -25.7346,10.22799 -25.7382,-0.83164 -39.9476,-11.0061 -51.6772,-33.80768 -2.656,-5.16878 -7.5874,-15.30625 -11.5183,-18.90404 -9.426,-8.62919 -23.8679,-10.47916 -35.92864,-10.34777 -10.3664,9.79299 -11.5569,27.53499 -3.075,39.04973 1.0954,1.48293 4.2303,4.04689 5.7098,5.40901 6.97444,4.88029 14.26224,9.53726 22.11724,12.91031 -5.7626,-13.09805 -7.6049,-21.41058 -10.5883,-35.29485 4.4347,7.8141 8.4678,15.64477 15.2837,21.82024 18.0276,16.34149 40.2787,27.1116 60.3035,40.40832 13.438,8.92297 36.9536,28.92564 40.3879,44.65318 9.9437,-14.84342 -8.3622,-28.49801 16.2629,-46.64826 -4.7341,20.67757 -4.498,25.56314 6.6257,44.4538 2.4058,4.07895 5.509,8.35867 7.8937,12.51511 10.4615,18.23901 12.2967,40.90915 7.8162,61.22295 -2.2966,10.4122 -6.918,22.3813 -10.6799,32.628 13.4802,-11.8176 16.6116,-17.0871 24.5089,-33.2374 0.063,7.8162 0.1796,15.4774 -0.9757,23.2479 -3.2336,21.7895 -16.6575,41.0501 -31.8426,56.4711 -14.2586,14.4842 -32.7232,28.056 -51.1911,36.6647 -8.4925,3.9593 -16.0973,6.1008 -24.9703,10.4968 -10.5602,5.2343 -19.3486,11.1484 -29.3663,16.5201 -21.2824,11.483 -45.06224,17.5592 -69.24344,17.7001 -4.6143,0.046 -12.1312,-0.3065 -16.6821,-1.0356 7.3759,-3.3146 10.539,-4.3678 14.9596,-11.557 -7.0765,1.4618 -14.1107,3.4942 -21.1697,5.0864 -30.4511,6.8686 -63.08934,4.3994 -85.98219,-18.9471 11.98534,2.3918 29.01269,4.2798 40.42129,-2.4304 0.8483,-0.5002 1.3122,-1.1237 1.763,-1.9725 0.1694,-10.2785 -45.26987,-7.3478 -53.84481,-9.7536 -8.4517,-2.3706 -16.71453,-4.3713 -24.69878,-8.2847 -16.3813,-7.2773 -28.74248,-17.7882 -39.16386,-32.2899 -3.88416,-5.4069 -8.34951,-11.2083 -12.81627,-16.2242 -4.09797,-4.6037 -9.07689,-6.932 -13.42424,-10.4721 19.01958,0.4121 31.64563,11.6169 50.16749,13.5929 4.67598,0.5002 10.45343,0.3242 14.11362,-2.9481 8.99792,-8.07 -12.39289,-14.5441 -17.64095,-17.207 -6.50131,-3.3182 -12.55984,-7.4394 -18.03401,-12.2651 -14.22769,-12.4411 -16.34712,-21.55 -26.65861,-35.4001 -4.99548,-6.7524 -11.07233,-12.6348 -17.98432,-17.4077 -23.99251,-16.86533 -40.89935,-12.71592 -67.3586,-16.46729 -10.4013,-1.53225 -20.48736,-4.73059 -29.86822,-9.47879 -7.74683,-3.89226 -15.07132,-9.28154 -20.10589,-16.42145 18.13157,8.49956 31.91087,7.96063 51.5754,7.08708 6.42169,-0.28532 11.4214,-0.48962 17.90192,-1.13069 -2.34557,-1.72951 -4.23886,-3.09268 -6.7683,-4.55095 -1.61115,-0.92639 -4.29593,-1.70837 -5.21316,-2.9236 0.70835,-1.10603 4.0099,-1.95493 5.37343,-2.19093 24.53108,-4.22688 43.88106,10.53199 68.78584,4.78343 -1.25186,-1.41601 -2.52027,-2.60659 -3.67738,-4.09304 -2.9863,-3.83237 -5.48017,-8.0029 -9.06983,-11.32454 -11.39955,-10.54607 -26.34617,-14.62854 -41.24383,-17.27386 -4.70664,-0.83482 -9.84513,-1.78587 -14.58875,-2.06061 -0.60514,-0.0353 -1.21064,-0.0634 -1.81615,-0.081 28.58819,-9.33368 54.77411,-10.29811 82.3147,1.98663 5.53476,2.4692 11.94167,4.00849 17.42323,6.74188 4.88839,2.28252 8.42348,5.2977 13.97162,6.94266 5.65451,1.67667 10.39565,1.6978 16.11749,2.44103 16.31016,2.11344 26.40498,7.99586 37.81298,19.40845 2.57599,2.60658 5.02193,5.33644 7.32911,8.18254 3.07153,3.73023 11.76334,16.01638 16.77819,16.15376 5.80042,-2.08879 2.02511,-14.42074 0.58896,-18.55956 -4.59741,-13.26185 -14.9994,-19.17949 -26.5202,-25.26621 22.26204,2.6559 37.52278,13.28652 54.09608,27.50998 8.7109,7.47455 13.7761,15.12521 18.4962,25.49168 -0.4756,-10.95471 0.7643,-13.74094 -2.3742,-25.39657 18.8485,13.50842 22.0785,32.71957 24.3188,54.40007 1.3138,12.7335 5.2977,24.9597 20.9195,21.8847 21.4585,-4.2199 12.0994,-34.2237 4.5544,-46.1119 12.3567,4.2339 21.2718,12.0643 27.00284,23.8467 3.3991,6.992 5.5267,16.9393 11.7296,21.9094 2.3847,1.9127 7.1364,-8.2988 7.9114,-10.0001 1.4759,-3.9064 3.4977,-9.7324 2.212,-13.8149 -9.0878,-28.6935 -39.89124,-40.11314 -65.47094,-49.78918 -12.0783,-4.7482 -23.8009,-10.29247 -36.1751,-14.25165 -10.4898,-3.35685 -22.5546,-7.57317 -31.9598,-13.3781 -5.33407,-3.08914 -7.79862,-8.53831 -14.7191,-11.41963 -14.78564,-6.15716 -28.20248,-5.62528 -43.59509,-6.54111 -31.54699,-1.87744 -58.43138,-17.05724 -83.8117,-34.72316 17.30097,2.06202 31.9665,4.82887 49.63841,6.26389 -6.96344,-6.93878 -15.70112,-18.48945 -18.55356,-27.65123 -3.90635,-13.45734 -8.08286,-25.2662 -22.36129,-30.76398 -16.21043,-6.24169 -32.38038,-4.00356 -49.19071,-10.76657 6.88912,-1.76191 14.49293,-2.17861 21.36761,-3.80878 27.45854,-6.51187 57.40532,-8.69928 80.25938,11.19244 8.53657,7.12793 36.84573,33.05142 40.76232,8.86448 3.11562,-19.23973 -12.89164,-25.77167 -26.68008,-34.59318 -19.80086,-12.66797 -22.39054,-35.47978 -28.92248,-56.29965 -7.84228,-24.99816 -30.86437,-24.21055 -52.75539,-27.30075 6.55061,-3.81828 17.34782,-6.90498 24.97876,-8.45836 20.45249,-4.16312 38.76865,1.18248 54.8114,14.28336 8.59152,6.63621 17.06569,18.74166 28.77205,19.53138 14.07905,0.94964 19.0784,-13.09489 18.98092,-24.6202 -0.12752,-15.08857 -3.96979,-27.30498 -14.61626,-38.09163 14.67856,3.15396 26.71816,11.32066 35.31741,23.69028 7.757,11.15757 16.0705,23.25139 31.1782,14.05193 4.4523,-2.7112 5.8261,-5.68164 6.9673,-10.47211 -4.0367,-19.18653 -25.3744,-20.40423 -31.7908,-33.98522 -11.43126,-24.19574 6.3065,-54.13337 -30.75791,-61.33457 z"
       id="path2"
       style="display:block;fill:#7019ff;fill-opacity:1;stroke-width:0.35224" /><path
       fill="rgb(208,12,2)"
       d="m 1009.4295,840.69806 c 4.4347,7.8141 8.4678,15.64477 15.2837,21.82024 18.0276,16.34149 40.2787,27.1116 60.3035,40.40832 13.438,8.92297 36.9536,28.92564 40.3879,44.65318 9.9437,-14.84342 -8.3622,-28.49801 16.2629,-46.64826 -4.7341,20.67757 -4.498,25.56314 6.6257,44.4538 2.4058,4.07895 5.509,8.35867 7.8937,12.51511 10.4615,18.23901 12.2967,40.90915 7.8162,61.22295 -2.2966,10.4122 -6.918,22.3813 -10.6799,32.628 13.4802,-11.8176 16.6116,-17.0871 24.5089,-33.2374 0.063,7.8162 0.1796,15.4774 -0.9757,23.2479 -3.2336,21.7895 -16.6575,41.0501 -31.8426,56.4711 -14.2586,14.4842 -32.7232,28.056 -51.1911,36.6647 -8.4925,3.9593 -16.0973,6.1008 -24.9703,10.4968 -10.5602,5.2343 -19.3486,11.1484 -29.3663,16.5201 -21.2824,11.483 -45.06224,17.5592 -69.24344,17.7001 -4.6143,0.046 -12.1312,-0.3065 -16.6821,-1.0356 7.3759,-3.3146 10.539,-4.3678 14.9596,-11.557 -7.0765,1.4618 -14.1107,3.4942 -21.1697,5.0864 -30.4511,6.8686 -63.08934,4.3994 -85.98219,-18.9471 11.98534,2.3918 29.01269,4.2798 40.42129,-2.4304 0.8483,-0.5002 1.3122,-1.1237 1.763,-1.9725 0.1694,-10.2785 -45.26987,-7.3478 -53.84481,-9.7536 -8.4517,-2.3706 -16.71453,-4.3713 -24.69878,-8.2847 -16.3813,-7.2773 -28.74248,-17.7882 -39.16386,-32.2899 -3.88416,-5.4069 -8.34951,-11.2083 -12.81627,-16.2242 -4.09797,-4.6037 -9.07689,-6.932 -13.42424,-10.4721 19.01958,0.4121 31.64563,11.6169 50.16749,13.5929 4.67598,0.5002 10.45343,0.3242 14.11362,-2.9481 8.99792,-8.07 -12.39289,-14.5441 -17.64095,-17.207 -6.50131,-3.3182 -12.55984,-7.4394 -18.03401,-12.2651 -14.22769,-12.4411 -16.34712,-21.55 -26.65861,-35.4001 -4.99548,-6.7524 -11.07233,-12.6349 -17.98432,-17.4077 -23.99251,-16.86533 -40.89935,-12.71592 -67.3586,-16.46729 -10.4013,-1.53225 -20.48736,-4.73059 -29.86822,-9.47879 -7.74683,-3.89226 -15.07132,-9.28154 -20.10589,-16.42145 18.13157,8.49956 31.91087,7.96063 51.5754,7.08708 6.42169,-0.28532 11.4214,-0.48962 17.90192,-1.13069 -2.34557,-1.72951 -4.23886,-3.09268 -6.7683,-4.55095 -1.61115,-0.92639 -4.29593,-1.70837 -5.21316,-2.9236 0.70835,-1.10603 4.0099,-1.95493 5.37343,-2.19093 24.53108,-4.22688 43.88106,10.53199 68.78584,4.78343 -1.25186,-1.41601 -2.52027,-2.60659 -3.67738,-4.09304 -2.9863,-3.83237 -5.48017,-8.0029 -9.06983,-11.32454 -11.39955,-10.54607 -26.34617,-14.62854 -41.24383,-17.27386 -4.70664,-0.83482 -9.84513,-1.78587 -14.58875,-2.06061 -0.60514,-0.0353 -1.21064,-0.0634 -1.81615,-0.081 28.58819,-9.33368 54.77411,-10.29811 82.3147,1.98663 5.53476,2.4692 11.94167,4.00849 17.42323,6.74188 4.88839,2.28252 8.42348,5.2977 13.97162,6.94266 5.65451,1.67667 10.39565,1.6978 16.11749,2.44103 16.31016,2.11344 26.40498,7.99586 37.81298,19.40845 2.57599,2.60658 5.02193,5.33644 7.32911,8.18254 3.07153,3.73023 11.76334,16.01638 16.77819,16.15376 5.80042,-2.08879 2.02511,-14.42074 0.58896,-18.55956 -4.59741,-13.26185 -14.9994,-19.17949 -26.5202,-25.26621 22.26204,2.6559 37.52278,13.28652 54.09608,27.50998 8.7109,7.47455 13.7761,15.12521 18.4962,25.49168 -0.4756,-10.95471 0.7643,-13.74094 -2.3742,-25.39657 18.8485,13.50842 22.0785,32.71957 24.3188,54.40007 1.3138,12.7335 5.2977,24.9597 20.9195,21.8847 21.4585,-4.2199 12.0994,-34.2237 4.5544,-46.1119 12.3567,4.2339 21.2718,12.0643 27.00284,23.8467 3.3991,6.992 5.5267,16.9393 11.7296,21.9094 2.3847,1.9127 7.1364,-8.2988 7.9114,-10.0001 1.7682,0.3945 10.1762,4.3995 11.173,5.6922 -3.7936,6.7172 -12.346,15.2344 -20.7575,14.7272 -9.6972,-0.5848 -12.98014,-4.8468 -19.10554,-11.5465 -6.5764,18.0383 -16.7808,22.1207 -34.4773,13.7585 -21.0288,-9.9402 -14.9984,-32.2757 -20.8457,-51.1593 -4.0789,8.3233 -9.5597,17.316 -18.5313,8.6685 -5.1216,-4.9348 -4.2339,-8.2988 -5.3329,-14.5968 -1.0884,-6.2523 -3.5682,-12.68769 -7.6612,-17.56269 -3.0282,-3.65274 -5.8871,-4.70241 -10.09,-6.40726 1.0451,8.98565 -0.6865,15.54435 -8.3735,21.08155 -4.37899,0.8208 -7.21844,-0.01 -11.21594,-1.4758 -11.65956,-4.1037 -17.85862,-14.23056 -26.21128,-22.55048 -11.18581,-11.14488 -24.97067,-20.0143 -41.06071,-21.38452 -5.41816,-0.472 -10.94587,-0.49666 -16.24216,-1.89153 -8.45694,-2.22264 -16.53029,-6.43896 -24.58673,-9.90148 8.27906,11.96913 11.98569,15.47745 24.79139,21.78959 6.57351,3.23709 16.55213,9.1019 18.81281,16.47429 -0.71928,3.07154 -1.22686,4.43471 -2.41004,7.39 -9.40658,0.39099 -11.07196,-2.16275 -19.26262,-5.66402 -3.63723,-1.52168 -7.43368,-2.63123 -11.31784,-3.30402 -11.75989,-2.10639 -17.43026,-0.94752 -28.55331,-1.24692 -7.92785,-0.21488 -21.98507,-2.92712 -29.93372,-4.8574 13.59965,11.82118 29.60825,10.91241 44.89901,21.72969 17.80047,12.5926 22.2063,32.3603 39.76336,44.7838 3.00956,2.1276 8.17304,5.9952 11.30232,7.4289 11.34706,5.1708 23.95662,8.0909 30.14754,20.0777 5.26815,10.2008 -3.70835,25.7557 -13.19697,30.3983 -6.91728,3.3886 -16.35134,-0.074 -23.30989,-2.6982 8.53511,13.5754 16.20094,20.0425 31.21769,25.939 8.75741,3.4414 13.63767,5.0194 23.55186,5.6217 9.29385,0.9793 15.81346,-1.3666 25.21473,-0.5318 8.6887,0.7714 42.7637,3.0469 41.5204,16.4179 -0.3875,4.1494 -11.7825,9.8381 -16.1397,12.3566 13.8537,6.756 36.4217,2.0395 50.395,-3.0046 7.7212,-2.7862 14.4032,-8.1192 23.3466,-6.3896 11.166,2.1556 -1.9621,12.1804 -6.1537,14.4348 16.5272,0.634 39.83844,-6.2629 53.71314,-14.9456 15.4739,-9.6831 23.3184,-11.9762 41.3144,-15.8403 18.1861,-3.9099 39.1057,-16.52 51.4271,-30.3737 3.156,-4.5756 5.3188,-8.7919 8.9539,-13.0997 4.7588,-5.6394 11.6732,-10.1446 15.4317,-16.3511 -4.8856,1.8881 -8.8871,2.7792 -13.6811,0.229 -1.5604,-4.491 -1.5005,-7.1822 -1.821,-11.7261 -0.8807,-12.5186 3.2828,-18.7463 9.6197,-28.859 2.7228,-4.3467 5.2271,-11.2048 6.2135,-16.4039 4.2867,-22.5927 -1.0568,-45.594 -13.6247,-64.55158 -0.1691,7.33012 -1.3244,21.21191 -4.6249,27.8446 -1.6872,3.38504 -9.19,11.08501 -12.6454,12.11003 -3.1068,-1.85278 -4.5405,-26.37929 -7.2421,-32.53997 -9.0068,-20.52153 -25.0408,-36.66436 -43.9983,-48.26998 -6.1925,-3.79293 -12.8005,-6.72638 -19.1479,-10.23223 -6.682,-3.48789 -14.544,-7.9853 -21.3035,-10.92157 0.01,7.43157 1.099,9.03532 -7.4992,7.82855 -2.8954,-0.40649 -11.2048,-3.71966 -12.9765,-5.38365 -8.172,-7.68378 -26.76324,-21.42362 -32.86404,-30.09508 l 0.2359,-0.65516 c -0.6939,-0.87532 -0.877,-1.04263 -1.6695,-1.77 l 0.1267,-0.28709 c 1.49,0.79536 4.5721,3.21632 5.1992,3.44773 2.9623,1.09336 5.6851,1.71225 8.7742,3.04231 l 0.7045,-0.20994 0.088,-0.69673 c -1.2469,-0.85031 -2.9835,-1.20678 -3.2583,-1.84997 1.1448,-0.69391 2.4093,-1.40861 3.7126,-1.1166 2.2473,2.46005 3.8289,5.3287 6.7947,6.76654 l 0.6165,-0.1423 c 6.97444,4.88029 14.26224,9.53726 22.11724,12.91031 -5.7626,-13.09805 -7.6049,-21.41058 -10.5884,-35.29485 z"
       id="path3"
       style="display:block;fill:#345de3;fill-opacity:1;stroke-width:0.35224" /><path
       fill="rgb(208,12,2)"
       d="m 863.85055,621.35159 c 5.56505,-0.59846 13.1991,-1.01939 18.5782,-0.26489 12.42781,1.74253 24.19581,10.28015 31.05031,20.6103 4.1142,6.0057 8.3798,13.75569 14.5582,17.9713 12.3636,8.43757 28.947,8.57389 41.367,17.97765 5.016,3.79857 10.5602,7.89794 13.9382,13.27172 6.6644,10.59716 13.6915,21.30703 28.08764,18.75469 6.6292,-1.15218 7.0166,-5.50165 8.0593,-11.31044 1.3104,-7.29314 0.4896,-14.8568 -0.9264,-22.03229 -3.54,-17.96321 -15.023,-32.93518 -30.26104,-42.74826 5.7768,0.88483 11.55,1.94579 17.17884,4.02259 26.6259,9.82646 53.8435,32.32229 57.5807,62.01687 1.1589,11.83352 0.7468,25.00379 9.8558,34.01199 3.4625,3.38855 11.0216,4.35544 13.9875,-0.12575 1.5463,-2.33853 -0.1128,-10.19878 -0.7081,-12.81521 -1.3385,-5.88595 -2.3671,-10.96913 -2.1592,-17.01357 0.3981,-11.64367 5.5336,-19.93012 11.793,-29.19651 -0.1585,5.64113 -0.4367,11.35623 0.6693,16.88112 2.9377,14.64088 14.5123,21.30702 24.5863,30.7041 5.2202,4.87219 10.6623,11.55278 13.9699,17.92481 9.0032,17.35101 10.1269,34.5414 4.4558,52.96218 1.8986,-2.8993 3.4132,-6.04058 5.4597,-9.15156 2.8813,9.85322 4.3397,27.70864 1.3738,37.57948 -4.6812,15.57783 -14.7589,38.87571 -26.2208,50.07345 -2.9905,-4.14517 -7.5239,-4.53511 -12.0502,-5.80705 7.5944,-3.38256 14.8399,-13.34568 17.8798,-21.01219 2.8391,-7.16423 2.1874,-13.41121 2.4304,-20.83996 0.3276,-10.03744 -4.2445,-18.18723 -4.2445,-27.99678 0,-4.55658 2.818,-8.92612 4.5862,-12.97689 5.1991,-10.86028 5.6887,-23.29402 0.7785,-34.42128 -1.7824,-3.98561 -4.1142,-7.70069 -6.9321,-11.03535 -4.6002,-5.4467 -19.891,-18.24606 -26.1363,-21.82905 3.3005,10.58906 4.7694,19.51729 0,30.54454 -0.8101,1.87568 -3.8323,5.53229 -6.0373,5.98457 -6.4742,1.32583 -11.0745,1.652 -16.897,-1.92042 -5.9599,-3.65697 -14.4735,-13.55211 -16.2066,-20.09708 -1.1378,-4.28078 -0.9898,-13.91562 -1.2645,-18.75364 -0.8947,-15.65674 -5.5549,-27.35112 -16.89,-38.35229 -3.0539,-2.96234 -6.6679,-5.63056 -9.6056,-8.51788 2.987,6.5883 4.4101,13.69898 6.4988,20.5321 2.1734,7.11737 4.0015,13.41261 0.9652,20.57048 -7.2103,16.99526 -21.6311,26.28384 -39.79264,19.5814 -7.5978,-2.80348 -9.9015,-7.49884 -13.2372,-14.4341 -3.4062,-6.98422 -8.4256,-15.36579 -14.3996,-20.3905 -13.0505,-10.97546 -32.9768,-12.71342 -47.2495,-21.15028 -10.0424,-5.93806 -14.2658,-19.53561 -23.4289,-27.20987 2.3888,11.33369 1.5205,25.31975 7.2434,35.52521 5.9352,10.35622 17.1894,13.84975 24.5089,23.35706 12.0607,15.67225 8.3199,38.37168 -13.0399,42.64188 -14.7699,2.95249 -25.1257,-3.89824 -35.0068,-14.55246 -3.94721,7.18254 -2.62065,11.74264 -3.0253,19.50391 -0.26279,5.03598 -0.67462,11.41612 -0.30262,16.6254 -0.71289,1.44101 -4.57134,2.46462 -5.49993,2.78481 -9.02679,3.1131 -22.72124,6.87539 -31.72691,1.08983 -20.96009,-13.46545 -23.72551,-32.07572 -50.42432,-38.78555 8.40093,14.89097 17.99068,28.26096 24.40044,44.40661 4.007,10.09486 10.68484,19.62718 19.73673,25.76427 9.30829,6.07157 20.90893,11.1065 24.48521,22.72586 1.46677,5.11311 2.49003,11.71446 2.56755,17.02694 0.0785,5.4305 1.88237,16.10127 0.21483,20.99883 -3.47483,10.20686 -12.97614,12.77012 -22.43839,9.74085 -11.57574,-3.70557 -19.78606,-8.91274 -29.5773,-15.7772 -3.88909,-2.6566 -9.28752,-4.78132 -13.47109,-7.04657 -7.04022,-3.75101 -9.54465,-4.01942 -17.32671,-3.60167 8.31676,8.19277 21.78573,11.21887 20.36408,25.57266 -1.5893,16.04843 17.06991,25.75935 29.83587,30.19229 1.89216,0.65694 4.57095,0.77353 6.08917,2.41814 l -0.21986,0.49349 c -2.77598,0.94294 -7.87533,1.15252 -11.03494,1.7855 -5.00361,1.00283 -9.98358,2.6006 -14.98714,3.23674 11.00853,4.75067 27.578,5.14659 39.46188,4.02857 12.12836,-1.14126 20.95863,-2.72704 33.29552,0.25573 13.28433,2.62419 11.81203,18.11537 23.09283,24.52967 7.4147,4.21632 13.357,4.4171 21.4621,6.07967 4.1564,0.85595 15.0934,4.76934 17.7423,8.03108 -17.1577,-4.00849 -37.5876,-6.51292 -55.3986,-7.46749 0,0 -1.211,0.71857 -1.3449,0.79606 -5.33396,-3.08914 -7.79861,-8.53831 -14.71909,-11.41963 -14.78564,-6.15716 -28.20247,-5.62528 -43.59499,-6.54111 -31.54702,-1.87744 -58.43142,-17.05724 -83.81173,-34.72316 17.30097,2.06202 31.96651,4.82887 49.63841,6.26389 -6.96345,-6.93878 -15.70112,-18.48945 -18.55357,-27.65123 -3.90634,-13.45734 -8.08286,-25.2662 -22.36128,-30.76397 -16.21044,-6.2417 -32.38039,-4.00357 -49.19071,-10.76658 6.88912,-1.76191 14.49294,-2.17861 21.36761,-3.80878 27.45854,-6.51187 57.40531,-8.69928 80.25938,11.19244 8.5365,7.12793 36.84576,33.05142 40.76235,8.86448 3.11552,-19.23973 -12.89164,-25.77167 -26.68008,-34.59318 -19.8009,-12.66797 -22.39056,-35.47978 -28.92252,-56.29965 -7.84228,-24.99816 -30.86436,-24.21055 -52.75538,-27.30075 6.55062,-3.81828 17.34782,-6.90498 24.97876,-8.45836 20.45249,-4.16312 38.76864,1.18248 54.81144,14.28336 8.59151,6.63621 17.06568,18.74166 28.77204,19.53138 14.07905,0.94964 19.0784,-13.09489 18.98082,-24.6202 -0.12752,-15.08857 -3.96969,-27.30498 -14.61616,-38.09163 14.67856,3.15396 26.71806,11.32066 35.3173,23.69028 7.7571,11.15757 16.0707,23.2514 31.1783,14.05193 4.4522,-2.7112 5.826,-5.68164 6.9673,-10.47211 -4.0367,-19.18653 -25.3744,-20.40423 -31.7908,-33.98522 -11.43125,-24.19574 6.3065,-54.13337 -30.75799,-61.33457 z"
       id="path4"
       style="display:block;fill:#345de3;fill-opacity:1;stroke-width:0.35224" /><path
       fill="rgb(122,19,17)"
       d="m 976.57596,856.55381 c -1.49,-1.56641 -4.4559,-4.61328 -5.5584,-6.35159 -3.3815,-5.32517 -4.6284,-16.08401 -4.6425,-22.29507 -0.021,-10.21602 6.8757,-17.36792 14.0333,-24.01856 9.2216,-8.60102 20.91954,-11.36187 33.29724,-10.84408 17.7741,0.74323 33.9455,13.21993 46.0202,25.38421 3.4485,3.47309 12.0819,16.19989 8.9117,21.00269 -5.273,2.88132 -21.0146,-14.31928 -27.3937,-15.3922 0.025,0.007 -1.1624,-0.48328 -1.1905,-0.4942 22.6983,24.18835 25.5127,56.58145 68.021,42.1033 4.5263,1.27194 9.0597,1.66188 12.0502,5.80705 -7.0765,6.43789 -16.1221,10.53867 -25.7346,10.22799 -25.7382,-0.83164 -39.9476,-11.0061 -51.6772,-33.80768 -2.656,-5.16878 -7.5874,-15.30625 -11.5183,-18.90404 -9.426,-8.62919 -23.8679,-10.47916 -35.92864,-10.34777 -10.3664,9.79299 -11.5569,27.53499 -3.075,39.04973 1.0954,1.48293 4.2303,4.04689 5.7098,5.40901 l -0.6165,0.1423 c -2.9658,-1.43784 -4.5474,-4.30649 -6.7947,-6.76654 -1.3033,-0.29201 -2.5678,0.42269 -3.7126,1.1166 0.2748,0.6432 2.0114,0.99966 3.2583,1.84997 l -0.088,0.69673 -0.7045,0.20994 c -3.0891,-1.33006 -5.8119,-1.94895 -8.7742,-3.04231 -0.6271,-0.23141 -3.7092,-2.65236 -5.1992,-3.44773 l -0.1267,0.28709 c 0.7925,0.72737 0.9756,0.89468 1.6695,1.77 z"
       id="path5"
       style="display:block;fill:#345de3;fill-opacity:1;stroke-width:0.35224" /><path
       fill="rgb(122,19,17)"
       d="m 888.57116,944.30396 c 0.1338,-0.0775 1.3448,-0.79606 1.3448,-0.79606 17.8111,0.95457 38.241,3.459 55.3986,7.46749 8.0275,1.75769 18.4856,5.69221 26.4004,8.62638 8.8412,3.46957 18.4786,6.38611 27.038,10.50381 13.97704,6.71722 29.72214,16.89697 38.61264,29.69382 8.4785,12.2017 0.8137,30.3104 -6.2276,41.4306 -0.9968,-1.2927 -9.4048,-5.2977 -11.173,-5.6922 1.4759,-3.9064 3.4977,-9.7324 2.212,-13.8149 -9.0878,-28.6935 -39.89124,-40.11315 -65.47094,-49.78919 -12.0783,-4.7482 -23.8009,-10.29247 -36.1751,-14.25165 -10.4898,-3.35685 -22.5546,-7.57317 -31.9598,-13.3781 z"
       id="path6"
       style="display:block;fill:#345de3;fill-opacity:1;stroke-width:0.35224" /><path
       fill="rgb(254,125,0)"
       d="m 912.12996,669.57683 c 6.8969,6.87644 12.4341,10.26429 21.1837,14.2284 12.5786,5.70066 25.7912,7.41642 34.3541,19.03155 5.9423,8.06208 8.4644,14.5891 12.737,23.20279 3.8606,7.775 18.5103,11.86381 26.38284,13.89483 6.291,1.62277 13.2971,3.23638 19.2957,-0.39909 0.539,-0.9271 2.0924,-3.85739 2.6066,-4.42062 5.0336,-5.52736 11.24,-9.90429 14.5405,-16.89415 1.1342,-2.4051 2.0043,-5.04127 2.6348,-7.65279 0.6093,-2.51745 -0.071,-11.41681 1.1377,-13.00929 l -0.324,0.64707 0.7503,0.0451 c 1.9513,7.2019 0.472,16.02306 0.8664,23.44653 0.1198,4.27972 1.3315,8.30724 2.2755,12.46826 1.4372,6.34173 2.0395,12.61407 7.7704,16.79446 5.2344,3.819 12.3003,4.17229 17.6684,7.68484 4.8891,3.20151 9.7008,7.01663 14.3996,10.51226 2.6383,1.9965 5.0441,4.26176 7.9923,5.78167 1.0357,-0.49947 1.1695,-0.57485 2.0888,-1.25819 0.7045,-1.22158 0.3699,-2.52275 0.2184,-3.968 -1.8105,-3.18143 -2.8848,-5.23957 -4.1564,-8.65666 3.702,-1.65869 13.9663,-3.81582 13.0717,-8.45729 -1.1131,-5.77182 -2.8145,-12.00471 -3.4731,-18.16293 6.4847,4.43964 15.1217,13.5919 16.358,21.81742 1.0814,7.20579 0.1726,16.42286 -3.2442,23.06259 -2.0112,3.10501 -4.0225,2.53297 -4.4558,6.67954 -1.2575,12.06847 3.3604,24.38033 3.8254,36.02258 0.1937,4.86338 -3.7972,15.63806 -5.3541,20.39578 -2.0747,4.34242 -3.4766,10.08041 -6.2981,14.00649 -5.1356,7.14661 -12.804,11.01914 -20.4229,5.53545 -1.4054,-2.65941 -1.5463,-4.4023 -1.8774,-7.31497 1.9021,-4.14023 5.7591,-14.45031 2.8496,-17.68282 -4.7799,-5.31179 -7.5943,-12.66939 -11.9375,-18.23515 -5.1391,-6.59041 -12.9518,-11.42949 -16.1607,-19.44049 -1.7894,-3.91622 2.5114,-6.67461 3.1103,-9.65985 0.9933,-4.96906 -0.067,-6.03388 2.4692,-10.7923 6.4319,7.75564 6.8863,16.97976 13.7725,24.29755 3.8395,3.81865 9.5846,8.1431 15.1605,8.42841 3.9698,0.2029 5.5689,-3.18671 4.5721,-6.71335 -2.1734,-7.70596 -6.668,-12.05155 -13.0188,-16.49507 -1.3385,-4.75277 -2.677,-10.2516 -7.3971,-12.90045 -2.9764,-1.67068 -6.3016,-1.95846 -9.4436,-3.05956 -3.776,-1.32266 -7.5062,-3.74291 -11.5745,-4.10149 -1.1659,-0.0961 -2.9448,2.01059 -3.7092,2.83553 -1.3279,-1.36775 -7.5943,-8.58233 -8.7707,-9.17832 -5.2942,-2.31986 -13.6071,-5.93243 -19.3029,-5.38999 -2.9094,0.27722 1.1061,6.7292 1.867,8.08956 0.045,1.6992 0.2465,3.12966 0.3486,4.77567 l -5.0581,-0.33673 c -8.5207,1.02466 -16.2172,-1.32091 -24.98444,-1.18671 -5.4386,0.0834 -17.4289,5.44599 -21.9727,2.6869 -5.2414,-3.18602 6.7876,-9.43265 4.2656,-12.83565 -8.0875,-3.95073 -20.3877,5.54286 -27.348,9.35621 -2.6911,1.47413 -6.0515,2.04898 -8.3411,4.19342 -7.249,6.7433 5.9248,8.21214 10.1657,8.5605 2.2438,0.18387 5.0793,0.72879 6.4812,2.52451 1.2152,5.97154 -2.5467,11.18293 -8.57,11.97512 -2.7721,0.36492 -8.5383,0.62699 -10.31,2.95987 -2.0114,2.64956 -2.3002,8.51612 -7.1294,5.37168 -6.0515,-3.93946 -2.7122,-17.16574 -11.2788,-17.46902 -1.3983,-0.0401 -4.1811,1.33182 -5.0017,2.66963 -4.0015,6.51188 -7.3302,14.40101 -10.1199,21.51203 -1.1941,3.03843 -0.7362,7.63763 -2.3001,10.70776 -2.1561,4.49388 -6.6698,6.31602 -8.3273,10.62851 -1.1557,3.00708 -0.4203,6.76302 -0.095,9.73064 1.477,13.46685 16.2594,22.33169 19.3662,33.81895 -0.8489,3.76651 -2.2579,5.33927 -3.3851,8.58411 1.1553,3.42906 3.5577,7.49074 7.2773,8.83419 4.5016,1.62418 17.376,7.30018 20.6765,1.36845 1.2294,-2.20749 0.5636,-7.92752 -0.5036,-10.18256 -6.0832,-13.48835 -20.8175,-15.73001 -21.4444,-33.34203 -0.2643,-7.33506 2.9517,-11.05366 3.156,-16.20236 0.3136,-7.88244 -3.2054,-12.74828 -1.2646,-21.66032 16.6963,15.04137 2.3918,28.51985 14.4243,43.06774 9.1019,10.27062 19.7501,15.60002 25.1747,28.99608 3.5893,8.86096 1.6237,22.88682 10.3452,28.2201 8.8413,5.40689 16.4673,4.00955 15.319,-7.88948 -0.9933,-10.25655 -7.3372,-15.41335 -9.7289,-24.25881 5.5477,5.82642 14.0051,15.72789 21.6347,17.76877 5.04404,1.34908 9.11944,0.52026 13.95564,3.88522 7.6719,13.73103 -5.9845,32.77597 12.2052,42.12443 4.3643,2.24025 15.0231,9.48232 17.1401,-0.10567 1.8421,-8.34457 -2.2896,-12.38125 -7.7071,-17.86916 4.5826,0.53188 7.0483,0.82072 10.8667,-2.28604 7.3054,-5.94723 0.391,-11.23225 -4.1284,-15.66307 -3.1419,-3.08035 -4.2796,-6.88032 -5.2483,-10.94623 9.7078,1.42481 19.6902,6.50271 26.1151,14.14739 5.3928,6.41183 2.9905,15.96671 5.664,22.94107 3.4274,8.92577 7.1082,17.40419 10.3735,26.47087 3.6211,-5.50552 3.4942,-6.07967 4.5192,-12.21218 1.5182,4.93488 2.5116,9.61264 3.7514,14.54753 1.8175,6.25579 1.6238,14.34324 8.1297,17.91143 3.1561,1.72598 5.1779,-1.44066 6.2875,-3.87465 3.7197,-8.15436 2.6066,-16.57996 3.8923,-25.07952 6.6784,11.91982 10.1445,29.93692 9.1829,43.50514 -0.3734,5.2308 -3.5471,19.0597 1.6062,22.3003 2.6488,-0.2253 8.1579,-5.1568 11.4091,-5.8682 0.4966,-0.1092 2.3072,-2.0571 2.6981,-2.5397 9.824,-10.8525 6.9638,-18.39396 8.5137,-31.39515 0.2324,-1.96902 2.8707,-7.95007 3.5646,-11.76483 5.1533,11.71904 9.7219,19.83819 7.531,33.12108 -0.2713,5.2097 -1.416,8.8977 -2.9589,13.8219 -1.5569,4.9843 -4.2268,6.1079 -6.5974,9.8452 -3.8853,6.7524 -12.339,11.166 -15.7804,17.6614 -5.3329,10.074 2.2544,14.5685 -5.9352,24.7272 -6.3897,7.9219 -10.1445,6.6784 -17.5734,12.4412 -0.8559,0.6657 1.6908,3.6738 2.8462,3.5823 5.28,1.4617 11.6521,1.9866 17.0167,0.796 -7.3724,8.1544 -9.1723,16.2912 -18.1369,22.5258 -5.118,3.5577 -10.2219,6.5728 -15.9283,9.1266 -7.2737,3.2581 -14.2622,5.125 -21.7825,7.552 -4.4066,1.4195 -8.9046,3.4097 -13.4063,4.8468 -4.2516,1.3561 -8.8659,2.3847 -12.966,3.9909 -6.9179,2.7087 -13.7021,6.4284 -20.3841,9.6937 -3.0398,1.4829 -6.7278,3.8394 -9.8028,4.9736 -2.36,0.8771 -4.8434,1.3667 -7.3548,1.4442 -0.1973,0.01 -0.39454,0.011 -0.59184,0.018 -1.7119,-4.6496 -4.3079,-6.8687 -5.8225,-11.3456 -0.5601,-1.6556 -0.7257,-4.5088 -1.0004,-6.3475 -1.881,-0.8595 -3.9556,-1.8774 -5.893,-2.5431 -5.8226,1.497 -5.8084,3.8535 -10.5214,6.6291 -16.0235,9.4401 -25.6361,11.9868 -44.1322,12.4517 4.6178,-3.1138 8.5665,-5.9106 9.9965,-11.6275 0.8912,-3.554 -1.1976,-7.6224 -4.4875,-9.2708 -7.3935,-3.7021 -17.0766,-10.437 -24.7484,-12.6279 -6.1607,-1.1588 -13.4091,2.2438 -18.9797,4.1318 -13.10553,4.4488 -27.92286,1.7506 -40.41439,-3.3393 -1.81087,-0.7361 -9.00751,-3.1243 -9.7331,-4.5509 0.39167,-1.1378 3.26349,-2.596 4.75381,-4.1247 -0.73121,-3.1139 -1.63683,-5.2555 -2.80942,-8.2072 1.17084,-4.1917 6.21593,-14.2341 11.75384,-11.5958 3.85458,1.8352 6.77998,2.0711 11.01179,1.9514 8.24103,-29.3874 -22.71989,-31.9729 -41.05506,-43.0438 -8.4016,-5.0723 -16.64299,-10.9547 -24.70894,-16.5624 -13.25868,-9.2146 -13.90435,-23.0752 -24.32678,-33.0049 -3.80385,-3.6245 -13.58979,-6.90386 -19.55288,-11.06382 9.70458,2.66646 14.58065,3.8359 23.49902,9.3062 6.85072,3.97322 11.84057,11.27872 17.93468,15.96352 5.81479,4.4699 14.54785,7.5731 21.23936,10.8243 3.61998,1.7612 15.16714,8.6511 18.54196,8.0417 7.14626,-5.8895 -5.50836,-19.6445 -6.82785,-25.4248 -2.10602,-9.23213 -1.14651,-20.07056 -8.11942,-27.8727 -3.58306,-4.01202 -10.72719,-6.81232 -15.50003,-9.97192 10.91348,0.90173 22.55181,6.12194 29.80873,14.49821 4.07677,4.70594 5.01127,11.10967 8.81196,15.70641 4.86689,5.7239 12.22914,8.3938 15.84941,15.2942 0.79467,1.5147 2.32307,3.2336 3.09372,4.7905 4.12793,8.327 3.42414,20.4581 14.83709,22.864 0.62384,0.1338 1.46144,-0.046 1.99119,-0.4932 3.84681,-4.3854 3.17621,-12.4728 5.83061,-18.3235 3.3129,-7.302 6.78,-10.7011 10.3109,-16.6012 -0.3833,7.4817 2,19.6023 4.1824,26.8972 1.955,6.5305 2.6665,14.0121 6.9815,19.4859 7.8584,9.1265 9.4365,-8.9223 14.861,-9.9015 1.7682,1.8176 1.5815,8.7637 2.4656,11.874 1.1131,3.9134 3.1315,6.0868 4.4559,9.7078 1.4372,3.8253 1.261,8.9117 3.0645,12.5327 4.9455,9.9262 15.7134,24.8083 27.6122,26.2454 3.466,0.4157 5.0123,-2.0112 5.9985,-4.8292 -3.7583,-6.9109 -8.0627,-8.1684 -12.117,-16.041 7.073,2.3319 17.3619,8.5876 24.8823,5.7662 7.0412,-2.6383 11.2083,-22.5751 16.8723,-22.7794 2.75104,1.0461 3.38154,4.41 5.18854,6.2487 1.7154,1.7472 3.8675,2.825 5.6992,4.8187 -0.9756,4.8856 -3.2406,12.7863 -1.659,17.288 3.8781,2.6383 6.0797,4.4593 10.8349,4.7587 5.1145,-1.6062 7.8691,-3.6809 12.5574,-5.5407 6.8123,-2.6982 15.5267,-2.7686 20.6448,-8.9504 4.7201,-5.6993 5.9036,-15.2908 4.6813,-22.4202 -0.6869,-4.012 -2.5644,-8.4925 -3.9416,-12.3706 -1.0849,-3.0575 -3.0786,-6.7736 -3.4168,-9.9332 -0.4966,-4.632 5.5866,-4.5862 7.5415,-7.2069 3.0222,-4.0472 3.9979,-13.0858 3.5647,-17.9255 -0.9897,-11.0709 -11.8564,-9.5633 -18.711,-15.09 -6.8581,-5.5266 -9.0843,-10.0388 -13.8783,-17.10122 -4.1283,-6.08319 -10.8631,-13.25129 -17.0696,-17.37602 -9.0808,-6.03037 -21.21894,-6.44952 -31.55364,-9.54572 -8.2566,-2.47626 -14.5582,-6.44248 -21.8531,-10.5496 -7.7845,-4.38539 -10.9687,-5.31531 -18.1861,-11.25409 -1.497,0.22543 -1.8458,0.24657 -3.3604,0.19726 -5.9,0.30997 -10.0213,2.0289 -15.0442,2.0923 -8.8271,0.14442 -13.1773,-6.71722 -16.7244,-13.60775 -2.8838,-5.59851 -4.1303,-4.87606 -9.1674,-7.23114 -5.8951,-2.75593 -2.2233,-10.88106 -9.0695,-14.40735 -2.37403,0.14971 -2.98063,4.87431 -6.11029,6.79049 -6.05885,3.12192 -17.7469,1.55868 -24.50469,0.26383 -13.82681,-2.64955 -30.84144,-12.7201 -40.26494,-23.19996 -1.8753,-2.08561 -3.6411,-7.79437 -5.61647,-10.70212 l -0.29235,-0.42269 c 4.74787,1.83975 15.38901,8.02298 19.60851,11.1787 8.90256,6.71864 17.01288,15.69337 28.86187,16.51374 5.9293,0.8725 12.56867,-5.84613 13.34009,-11.61935 1.16057,-8.68415 -3.46145,-20.43136 -5.14838,-28.89218 -0.91938,-4.60977 -1.03314,-8.87223 -1.20427,-13.38972 7.75247,-1.56817 5.70662,-2.94367 5.35507,-9.64223 0.15252,-8.68308 -5.65943,-24.76214 -14.21645,-29.07533 -22.75012,-11.46684 -33.84291,-19.53772 -41.53442,-46.50032 l 4.04062,0.41987 c 4.52551,2.77988 9.16768,8.54817 13.28505,12.25796 3.90525,3.51925 5.74993,4.18427 9.97544,6.63375 11.11043,6.43966 19.74661,3.45161 31.73234,4.26705 l 0.71434,0.0521 c 6.75246,4.78694 3.91339,13.51616 9.62069,16.0375 5.40124,0.0239 17.14644,-16.70394 18.31194,-22.37924 2.3466,-11.42176 -8.1765,-8.12091 -12.3576,-16.22772 l -0.2103,-0.41564 c 3.9532,-3.60166 4.0521,-4.2526 5.0521,-9.56087 2.0575,0.90914 4.1713,1.68512 6.3281,2.32409 5.5914,1.70449 11.4386,2.74958 16.9406,4.22759 7.8797,2.11591 11.3034,-1.87815 18.2003,-2.76157 26.027,-3.33325 7.0976,-11.44535 8.0346,-17.15235 2.6383,-1.83446 9.9966,3.81829 13.4133,1.55832 1.0602,-2.89015 -3.7126,-9.01102 -5.2696,-12.21536 -4.1282,-8.49921 -4.4699,-16.18369 -10.3664,-23.83575 -10.8313,-14.0463 -22.4905,-12.45311 -30.1835,-29.3036 z"
       id="path7"
       style="display:block;fill:#47f8ff;fill-opacity:1;stroke-width:0.35224" /><path
       fill="rgb(254,125,0)"
       d="m 1038.9049,1052.1072 0.3664,0.405 c 1.3455,7.9959 -1.1061,18.5314 -8.4855,22.9168 -3.1773,-4.3009 5.1638,-19.2324 8.1191,-23.3218 z"
       id="path25"
       style="display:block;fill:#47f8ff;fill-opacity:1;stroke-width:0.35224" /><path
       fill="rgb(208,12,2)"
       d="m 723.87264,761.76309 c 12.30588,-0.19232 25.67267,2.94719 33.30327,13.50596 2.79784,3.92712 4.9296,8.73133 8.70315,11.84479 3.28147,2.70767 6.96978,4.16348 10.82118,5.8257 4.22336,1.8225 8.3643,3.82146 12.42317,6.00817 -4.23112,0.4322 -9.08112,0.33885 -13.39395,0.74498 -20.10906,1.8933 -28.87207,1.57663 -45.86344,-9.44673 -12.14913,-6.78028 -23.61632,-9.07864 -37.41111,-9.19876 -15.1629,-0.13209 -26.15597,1.25926 -39.00923,-8.23891 8.64926,0.68194 18.61732,1.16029 27.03482,-0.99649 15.76416,-4.03878 26.66741,-9.2065 43.39214,-10.04871 z"
       id="path27"
       style="display:block;fill:#345de3;fill-opacity:1;stroke-width:0.35224" /><path
       fill="rgb(249,62,0)"
       d="m 725.60497,771.983 c 4.58264,-0.0986 13.14138,0.47412 16.67576,3.59778 4.41604,3.90318 9.52421,8.11844 13.82648,12.17695 2.71013,2.55586 4.40617,5.09587 7.55661,7.4513 -5.42733,-0.11166 -8.07265,0.22085 -13.17978,-1.74711 -3.304,-1.5002 -7.93878,-3.57771 -10.87541,-5.57738 -10.87542,-7.4055 -17.66908,-10.8793 -30.56707,-13.59754 5.23605,-1.46814 11.14664,-1.888 16.56341,-2.304 z"
       id="path28"
       style="display:block;fill:#47f8ff;fill-opacity:1;stroke-width:0.35224" /><path
       fill="rgb(208,12,2)"
       d="m 665.96325,1024.5478 c 3.86162,0.62 14.66096,5.5232 19.33519,6.8265 11.234,3.5188 24.57476,-0.3347 35.86512,-0.87 15.82088,-0.7538 26.7509,4.7305 35.11201,18.017 1.19586,1.9022 4.92679,5.2907 6.72216,6.9321 0.37761,0.31 0.34485,0.3664 0.6196,0.7996 -1.00918,0.1515 -9.53692,-2.913 -11.54504,-3.4343 -2.17015,-0.5741 -4.37833,-0.9898 -6.60766,-1.2505 -7.39881,-0.8595 -13.04135,0.011 -20.24572,0.2607 -5.03035,0.1303 -10.06281,-0.1515 -15.04807,-0.8384 -18.89594,-2.603 -32.7647,-11.2787 -44.20759,-26.4427 z"
       id="path30"
       style="display:block;fill:#345de3;fill-opacity:1;stroke-width:0.35224" /><path
       fill="rgb(249,62,0)"
       d="m 725.3126,1039.3173 c 8.76375,-1.5111 19.25558,4.5897 25.99955,9.6549 -4.76367,-1.7647 -8.63163,-2.2508 -13.65599,-2.5925 -12.45944,0.5601 -15.71133,0.3346 -27.51138,-4.4629 6.01169,-1.645 9.04659,-1.9655 15.16782,-2.5995 z"
       id="path31"
       style="display:block;fill:#7019ff;fill-opacity:1;stroke-width:0.35224" /><path
       fill="rgb(208,12,2)"
       d="m 673.2969,870.25527 c 22.07703,-0.75908 38.23218,4.4111 55.35424,18.28445 -9.86449,-2.51394 -19.48947,-5.08882 -29.76397,-5.29171 -7.40761,-0.14583 -16.11852,0.70941 -23.61491,1.2339 -15.77333,1.32688 -46.37034,0.45086 -59.99817,-7.72252 21.91182,0.31701 36.49458,-5.60133 58.02281,-6.50412 z"
       id="path32"
       style="display:block;fill:#345de3;fill-opacity:1;stroke-width:0.35224" /></g></svg>
