<?xml version="1.0" encoding="UTF-8" standalone="no"?>
<svg
   version="1.1"
   style="display: block;"
   viewBox="0 0 2048 2048"
   width="1024"
   height="1024"
   preserveAspectRatio="none"
   id="svg32"
   sodipodi:docname="sonic-launcher-icon.svg"
   inkscape:version="1.4.2 (ebf0e940d0, 2025-05-08)"
   inkscape:export-filename="sonic-launcher-icon.png"
   inkscape:export-xdpi="48"
   inkscape:export-ydpi="48"
   xmlns:inkscape="http://www.inkscape.org/namespaces/inkscape"
   xmlns:sodipodi="http://sodipodi.sourceforge.net/DTD/sodipodi-0.dtd"
   xmlns="http://www.w3.org/2000/svg"
   xmlns:svg="http://www.w3.org/2000/svg">
  <defs
     id="defs32" />
  <sodipodi:namedview
     id="namedview32"
     pagecolor="#505050"
     bordercolor="#ffffff"
     borderopacity="1"
     inkscape:showpageshadow="0"
     inkscape:pageopacity="0"
     inkscape:pagecheckerboard="1"
     inkscape:deskcolor="#505050"
     showguides="false"
     inkscape:zoom="0.4757779"
     inkscape:cx="381.48052"
     inkscape:cy="298.45859"
     inkscape:window-width="1920"
     inkscape:window-height="963"
     inkscape:window-x="3840"
     inkscape:window-y="44"
     inkscape:window-maximized="1"
     inkscape:current-layer="svg32" />
  <path
     fill="rgb(249,62,0)"
     d="m 907.55537,31.836657 c 19.80441,-2.129732 46.97202,-3.627698 66.11457,-0.942647 44.22686,6.20118 86.10576,36.584078 110.49926,73.34615 14.6412,21.37258 29.8214,48.9526 51.8082,63.95477 43.9987,30.02689 103.0145,30.51202 147.2137,63.97732 17.8502,13.518 37.5807,28.1065 49.602,47.23026 23.7167,37.71225 48.7245,75.82563 99.956,66.7426 23.5913,-4.10028 24.9702,-19.57879 28.6805,-40.25064 4.6632,-25.9542 1.7425,-52.8711 -3.2967,-78.40664 -12.5979,-63.92593 -53.4627,-117.20694 -107.6902,-152.128841 20.5578,3.148849 41.103,6.924456 61.1344,14.315238 94.7537,34.969543 191.6135,115.025813 204.9133,220.700333 4.1243,42.11212 2.6576,88.98137 35.0737,121.03896 12.3221,12.0589 39.2227,15.49981 49.7774,-0.44751 5.503,-8.32213 -0.4011,-36.29451 -2.5197,-45.60568 -4.7633,-20.94638 -8.4235,-39.03598 -7.684,-60.54643 1.4165,-41.43647 19.6929,-70.92561 41.9679,-103.90205 -0.5639,20.07518 -1.5543,40.4136 2.3818,60.07511 10.4543,52.10269 51.645,75.82563 87.4959,109.26713 18.5772,17.33873 37.9442,41.11305 49.7147,63.78929 32.0401,61.74731 36.0389,122.92301 15.8571,188.47727 6.7565,-10.31776 12.1465,-21.49668 19.4296,-32.56779 10.2539,35.0648 15.4434,98.60716 4.8887,133.73464 -16.6593,55.43707 -52.5226,138.34761 -93.3122,178.19711 -25.1833,22.91065 -57.3738,37.50416 -91.5824,36.39856 -91.5949,-2.95957 -142.1621,-39.16759 -183.9045,-120.31192 -9.4515,-18.39419 -27.0008,-54.47059 -40.9902,-67.27409 -33.5443,-30.70881 -84.9387,-37.29232 -127.8594,-36.82475 -36.8912,34.85046 -41.128,97.98918 -10.9432,138.96685 3.8985,5.27733 15.0548,14.40173 20.3196,19.24911 24.8198,17.36756 50.7552,33.94039 78.7087,45.94413 -20.5076,-46.61226 -27.0635,-76.19416 -37.6809,-125.60429 15.7819,27.80816 30.1347,55.67524 54.3903,77.65201 64.1555,58.15471 143.3405,96.48243 214.6033,143.80178 47.8219,31.7542 131.5071,102.9381 143.729,158.9079 35.387,-52.8235 -29.7587,-101.4163 57.8751,-166.008 -16.8473,73.5857 -16.0074,90.9721 23.5788,158.1984 8.5616,14.516 19.6051,29.7462 28.0914,44.5377 37.2297,64.9075 43.7606,145.5843 27.8158,217.8751 -8.1729,37.054 -24.6192,79.6488 -38.0068,116.1137 47.9723,-42.0556 59.1161,-60.8084 87.2201,-118.2824 0.2256,27.8157 0.6393,55.0798 -3.4723,82.7326 -11.5072,77.5429 -59.2791,146.0855 -113.3185,200.9648 -50.7426,51.5449 -116.4523,99.8431 -182.1745,130.4792 -30.2225,14.0897 -57.286,21.7111 -88.8622,37.355 -37.5807,18.6273 -68.8561,39.6741 -104.5064,58.7903 -75.7379,40.8648 -160.3631,62.4881 -246.4176,62.9895 -16.4211,0.1629 -43.1714,-1.0905 -59.3669,-3.6853 26.2489,-11.7957 37.5055,-15.5437 53.2373,-41.1282 -25.1834,5.2021 -50.2162,12.435 -75.3369,18.1009 -108.367,24.4437 -224.51723,15.6566 -305.98621,-67.427 42.65237,8.5115 103.24771,15.2303 143.84801,-8.6493 3.0185,-1.78 4.6694,-3.9988 6.2739,-7.0197 0.603,-36.5778 -161.10277,-26.1485 -191.61856,-34.7101 -30.07704,-8.4363 -59.48219,-15.5562 -87.8958,-29.4828 -58.29636,-25.8978 -102.28624,-63.303 -139.37299,-114.9105 -13.82259,-19.2416 -29.71351,-39.8871 -45.60945,-57.7373 -14.58349,-16.3835 -32.30203,-24.6694 -47.77302,-37.2673 67.68524,1.4666 112.61778,41.3413 178.5318,48.3735 16.64052,1.7801 37.20082,1.1532 50.22618,-10.492 32.02125,-28.7182 -44.10272,-51.7579 -62.77896,-61.2346 -23.13628,-11.8082 -44.69689,-26.4745 -64.1779,-43.6477 -50.6323,-44.2744 -58.17475,-76.6905 -94.8704,-125.979 -17.77746,-24.0301 -39.40325,-44.9639 -64.00114,-61.9492 -85.38248,-60.0187 -145.5491,-45.2522 -239.71001,-58.6022 -37.01529,-5.4528 -72.90868,-16.8348 -106.29251,-33.7323 -27.56874,-13.8514 -53.634504,-33.0304 -71.551113,-58.4393 64.525113,30.2475 113.561683,28.3296 183.542133,25.2209 22.85299,-1.0154 40.6455,-1.7425 63.70783,-4.0238 -8.34722,-6.1548 -15.08491,-11.006 -24.08646,-16.1955 -5.73361,-3.2968 -15.28797,-6.0796 -18.55215,-10.4043 2.52085,-3.936 14.27011,-6.957 19.1225,-7.7969 87.29913,-15.0422 156.16018,37.4803 244.7893,17.0229 -4.45503,-5.0392 -8.96897,-9.2761 -13.08679,-14.566 -10.62736,-13.6383 -19.50231,-28.48 -32.27697,-40.3008 -40.56778,-37.5305 -93.75853,-52.0588 -146.77505,-61.4728 -16.74958,-2.9708 -35.03598,-6.3553 -51.91717,-7.3331 -2.15356,-0.1253 -4.30836,-0.2256 -6.46317,-0.2884 101.73721,-33.2157 194.92538,-36.6479 292.93462,7.07 19.69661,8.7872 42.49695,14.2651 62.00428,23.9924 17.39639,8.1229 29.97675,18.853 49.72101,24.7069 20.1228,5.9668 36.99522,6.0421 57.35745,8.687 58.04316,7.5211 93.96788,28.4549 134.56574,69.0691 9.16701,9.2761 17.87148,18.9909 26.08206,29.1193 10.93072,13.2749 41.86267,56.9977 59.70907,57.4867 20.64178,-7.4335 7.20651,-51.3192 2.09589,-66.0483 -16.36098,-47.195 -53.37878,-68.2543 -94.37776,-89.9151 79.22393,9.4515 133.53281,47.2828 192.51231,97.9001 30.9997,26.5998 49.0254,53.8264 65.8225,90.7176 -1.6922,-38.9846 2.7202,-48.9001 -8.4487,-90.3792 67.076,48.0727 78.5708,116.44 86.5432,193.5943 4.6756,45.3148 18.8531,88.8247 74.4467,77.8813 76.3647,-15.0171 43.0586,-121.7922 16.2081,-164.0987 43.9737,15.0674 75.7003,42.9332 96.0951,84.8635 12.0965,24.8825 19.6678,60.2819 41.7424,77.9692 8.4863,6.8066 25.3964,-29.533 28.1541,-35.5875 5.2522,-13.9015 12.4476,-34.6348 7.8722,-49.1632 -32.341,-102.1121 -141.9616,-142.7512 -232.9924,-177.1855 -42.9833,-16.8975 -84.7006,-36.6279 -128.7369,-50.7175 -37.3299,-11.9462 -80.2656,-26.9509 -113.73592,-47.6089 -18.9821,-10.9934 -27.753,-30.3854 -52.38098,-40.6393 -52.61789,-21.9115 -100.3646,-20.0187 -155.14231,-23.2779 -112.26681,-6.6813 -207.94073,-60.7019 -298.26209,-123.56987 61.5693,7.33817 113.75975,17.18457 176.64901,22.29147 -24.7809,-24.69315 -55.87581,-65.79872 -66.02683,-98.40286 -13.90158,-47.89086 -28.7646,-89.91524 -79.57743,-109.48022 -57.68839,-22.21245 -115.23263,-14.24756 -175.05578,-38.3152 24.5164,-6.27013 51.57622,-7.75304 76.04122,-13.55435 97.71717,-23.17388 204.28922,-30.95826 285.62031,39.8307 30.37914,25.3663 131.12357,117.62061 145.06149,31.54617 11.08742,-68.46869 -45.8777,-91.71403 -94.94687,-123.10727 -70.46556,-45.08171 -79.68146,-126.2624 -102.92681,-200.3544 -27.90844,-88.9613 -109.83747,-86.15842 -187.74143,-97.15557 23.31177,-13.58819 61.73601,-24.57283 88.89235,-30.10086 72.78457,-14.8154 137.96653,4.20807 195.05825,50.83037 30.5747,23.61639 60.73196,66.69622 102.39156,69.50661 50.10332,3.37951 67.89458,-46.60099 67.54735,-87.61626 -0.45377,-53.69592 -14.1272,-97.17063 -52.01494,-135.55728 52.23681,11.22406 95.08225,40.287 125.68451,84.30698 27.60514,39.70661 57.19074,82.74507 110.95434,50.0068 15.8445,-9.64837 20.7333,-20.21933 24.7947,-37.26724 -14.3654,-68.27943 -90.3001,-72.61286 -113.1342,-120.9437 -40.68062,-86.10577 22.443,-192.645233 -109.45893,-218.272263 z"
     id="path2"
     style="fill:#7019ff;fill-opacity:1;stroke-width:1.25352" />
  <path
     fill="rgb(208,12,2)"
     d="m 1425.629,812.42821 c 15.7819,27.80816 30.1347,55.67524 54.3903,77.65201 64.1555,58.15471 143.3405,96.48243 214.6033,143.80178 47.8219,31.7542 131.5071,102.9381 143.729,158.9079 35.387,-52.8235 -29.7587,-101.4163 57.8751,-166.008 -16.8473,73.5857 -16.0074,90.9721 23.5788,158.1984 8.5616,14.516 19.6051,29.7462 28.0914,44.5377 37.2297,64.9075 43.7606,145.5843 27.8158,217.8751 -8.1729,37.054 -24.6192,79.6488 -38.0068,116.1137 47.9723,-42.0556 59.1161,-60.8084 87.2201,-118.2824 0.2256,27.8157 0.6393,55.0798 -3.4723,82.7326 -11.5072,77.5429 -59.2791,146.0855 -113.3185,200.9648 -50.7426,51.5449 -116.4523,99.8431 -182.1745,130.4792 -30.2225,14.0897 -57.286,21.7111 -88.8622,37.355 -37.5807,18.6273 -68.8561,39.6741 -104.5064,58.7903 -75.7379,40.8648 -160.3631,62.4881 -246.4176,62.9895 -16.4211,0.1629 -43.1714,-1.0905 -59.3669,-3.6853 26.2489,-11.7957 37.5055,-15.5437 53.2373,-41.1282 -25.1834,5.2021 -50.2162,12.435 -75.3369,18.1009 -108.367,24.4437 -224.51723,15.6566 -305.98621,-67.427 42.65237,8.5115 103.24771,15.2303 143.84801,-8.6493 3.0185,-1.78 4.6694,-3.9988 6.2739,-7.0197 0.603,-36.5778 -161.10277,-26.1485 -191.61856,-34.7101 -30.07704,-8.4363 -59.48219,-15.5562 -87.8958,-29.4828 -58.29636,-25.8978 -102.28624,-63.303 -139.37299,-114.9105 -13.82259,-19.2416 -29.71351,-39.8871 -45.60945,-57.7373 -14.58349,-16.3835 -32.30203,-24.6694 -47.77302,-37.2673 67.68524,1.4666 112.61778,41.3413 178.5318,48.3735 16.64052,1.7801 37.20082,1.1532 50.22618,-10.492 32.02125,-28.7182 -44.10272,-51.7579 -62.77896,-61.2346 -23.13628,-11.8082 -44.69689,-26.4745 -64.1779,-43.6477 -50.6323,-44.2744 -58.17475,-76.6905 -94.8704,-125.979 -17.77746,-24.0301 -39.40325,-44.9639 -64.00114,-61.9492 -85.38248,-60.0187 -145.5491,-45.2522 -239.71001,-58.6022 -37.01529,-5.4528 -72.90868,-16.8348 -106.29251,-33.7323 -27.56874,-13.8514 -53.634504,-33.0304 -71.551113,-58.4393 64.525113,30.2475 113.561683,28.3296 183.542133,25.2209 22.85299,-1.0154 40.6455,-1.7425 63.70783,-4.0238 -8.34722,-6.1548 -15.08491,-11.006 -24.08646,-16.1955 -5.73361,-3.2968 -15.28797,-6.0796 -18.55215,-10.4043 2.52085,-3.936 14.27011,-6.957 19.1225,-7.7969 87.29913,-15.0422 156.16018,37.4803 244.7893,17.0229 -4.45503,-5.0392 -8.96897,-9.2761 -13.08679,-14.566 -10.62736,-13.6383 -19.50231,-28.48 -32.27697,-40.3008 -40.56778,-37.5305 -93.75853,-52.0588 -146.77505,-61.4728 -16.74958,-2.9708 -35.03598,-6.3553 -51.91717,-7.3331 -2.15356,-0.1253 -4.30836,-0.2256 -6.46317,-0.2884 101.73721,-33.2157 194.92538,-36.6479 292.93462,7.07 19.69661,8.7872 42.49695,14.2651 62.00428,23.9924 17.39639,8.1229 29.97675,18.853 49.72101,24.7069 20.1228,5.9668 36.99522,6.0421 57.35745,8.687 58.04316,7.5211 93.96788,28.4549 134.56574,69.0691 9.16701,9.2761 17.87148,18.9909 26.08206,29.1193 10.93072,13.2749 41.86267,56.9977 59.70907,57.4867 20.64178,-7.4335 7.20651,-51.3192 2.09589,-66.0483 -16.36098,-47.195 -53.37878,-68.2543 -94.37776,-89.9151 79.22393,9.4515 133.53281,47.2828 192.51231,97.9001 30.9997,26.5998 49.0254,53.8264 65.8225,90.7176 -1.6922,-38.9846 2.7202,-48.9001 -8.4487,-90.3792 67.076,48.0727 78.5708,116.44 86.5432,193.5943 4.6756,45.3148 18.8531,88.8247 74.4467,77.8813 76.3647,-15.0171 43.0586,-121.7922 16.2081,-164.0987 43.9737,15.0674 75.7003,42.9332 96.0951,84.8635 12.0965,24.8825 19.6678,60.2819 41.7424,77.9692 8.4863,6.8066 25.3964,-29.533 28.1541,-35.5875 6.2927,1.4039 36.2143,15.6564 39.7617,20.2568 -13.5004,23.9048 -43.9359,54.2149 -73.8701,52.4099 -34.5095,-2.0808 -46.1923,-17.2484 -67.9911,-41.0904 -23.4033,64.1928 -59.7178,78.7212 -122.6949,48.9626 -74.8353,-35.3745 -53.375,-114.8604 -74.1834,-182.0618 -14.5158,29.6208 -34.0206,61.6232 -65.9479,30.8492 -18.2262,-17.5618 -15.0673,-29.533 -18.9784,-51.946 -3.8733,-22.25 -12.6981,-45.1519 -27.2641,-62.5006 -10.7765,-12.9991 -20.9501,-16.7346 -35.9071,-22.8017 3.7192,31.9774 -2.4432,55.3181 -29.7988,75.0234 -15.58381,2.9207 -25.68845,-0.013 -39.91469,-5.2522 -41.49287,-14.6036 -63.55364,-50.6424 -93.27844,-80.2507 -39.80688,-39.6613 -88.86352,-71.2251 -146.12321,-76.1013 -19.2817,-1.6797 -38.95324,-1.7675 -57.80122,-6.7314 -30.09583,-7.9098 -58.8266,-22.9145 -87.49718,-35.2366 29.46282,42.5948 42.65364,55.0799 88.22548,77.543 23.39325,11.5198 58.90432,32.3911 66.94943,58.6272 -2.5597,10.9307 -4.36603,15.7819 -8.5766,26.299 -33.47535,1.3914 -39.402,-7.6966 -68.55018,-20.1566 -12.94388,-5.4153 -26.45436,-9.3639 -40.27697,-11.7581 -41.85012,-7.4961 -62.02935,-3.372 -101.61311,-4.4374 -28.21304,-0.7647 -78.23865,-10.4169 -106.52565,-17.2861 48.39726,42.0682 105.3674,38.834 159.78286,77.3297 63.3468,44.8136 79.02586,115.1613 141.50648,159.373 10.71011,7.5713 29.0855,21.3351 40.2218,26.4368 40.381,18.4018 85.25463,28.7934 107.28656,71.4509 18.7477,36.3021 -13.1971,91.6576 -46.96451,108.1791 -24.61668,12.0588 -58.1898,-0.2633 -82.95315,-9.6021 30.37412,48.3108 57.65454,71.3255 111.09475,92.3095 31.16511,12.2469 48.53267,17.8627 83.81434,20.0062 33.07421,3.4849 56.27567,-4.8636 89.7322,-1.8928 30.92071,2.7453 152.18391,10.843 147.75901,58.4268 -1.3789,14.7664 -41.9303,35.0109 -57.4364,43.9735 49.3011,24.0426 129.6142,7.258 179.3416,-10.6925 27.4772,-9.9153 51.2565,-28.8937 83.0834,-22.7389 39.7369,7.6716 -6.982,43.3469 -21.899,51.3694 58.8155,2.2563 141.7735,-22.2876 191.1498,-53.1871 55.0672,-34.4592 82.9833,-42.6198 147.0257,-56.3709 64.7195,-13.9141 139.1662,-58.7903 183.0146,-108.0913 11.2315,-16.2833 18.9281,-31.288 31.8645,-46.6185 16.9351,-20.0689 41.5418,-36.1016 54.9168,-58.1886 -17.3863,6.7189 -31.6264,9.8903 -48.6868,0.8148 -5.5531,-15.9824 -5.34,-25.5594 -6.4807,-41.7298 -3.1339,-44.5503 11.6828,-66.7125 34.2336,-102.7012 9.6899,-15.4684 18.6024,-39.8745 22.1122,-58.3766 15.2554,-80.4009 -3.7605,-162.2559 -48.4862,-229.7207 -0.6017,26.0859 -4.7132,75.4872 -16.4588,99.0911 -6.0044,12.0464 -32.7045,39.4484 -45.0016,43.0961 -11.056,-6.5934 -16.1578,-93.8763 -25.7724,-115.8005 -32.0525,-73.0302 -89.1129,-130.478 -156.5775,-171.779 -22.037,-13.498 -45.5531,-23.9373 -68.1415,-36.4136 -23.7794,-12.41245 -51.7581,-28.41745 -75.8132,-38.86682 0.025,26.44689 3.911,32.15416 -26.6875,27.85956 -10.3039,-1.44655 -39.8746,-13.23724 -46.1798,-19.15885 -29.0817,-27.34435 -95.2427,-76.24055 -116.9536,-107.09978 l 0.8398,-2.33156 c -2.4695,-3.115 -3.1214,-3.71042 -5.9418,-6.29894 l 0.4513,-1.02162 c 5.3024,2.83045 16.2708,11.44591 18.502,12.26947 10.5421,3.89095 20.2319,6.09339 31.2253,10.82669 l 2.5071,-0.7471 0.3133,-2.47947 c -4.4374,-3.02601 -10.6173,-4.29457 -11.5951,-6.5835 4.074,-2.46945 8.5741,-5.01285 13.2122,-3.97367 7.9974,8.7546 13.6257,18.96329 24.1804,24.08017 l 2.1937,-0.50641 c 24.8198,17.36756 50.7552,33.94039 78.7087,45.94413 -20.5076,-46.61226 -27.0635,-76.19416 -37.6809,-125.60429 z"
     id="path3"
     style="fill:#345de3;fill-opacity:1;stroke-width:1.25352" />
  <path
     fill="rgb(208,12,2)"
     d="m 907.55537,31.836657 c 19.80441,-2.129732 46.97202,-3.627698 66.11457,-0.942647 44.22686,6.20118 86.10576,36.584078 110.49926,73.34615 14.6412,21.37258 29.8214,48.9526 51.8082,63.95477 43.9987,30.02689 103.0145,30.51202 147.2137,63.97732 17.8502,13.518 37.5807,28.1065 49.602,47.23026 23.7167,37.71225 48.7245,75.82563 99.956,66.7426 23.5913,-4.10028 24.9702,-19.57879 28.6805,-40.25064 4.6632,-25.9542 1.7425,-52.8711 -3.2967,-78.40664 -12.5979,-63.92593 -53.4627,-117.20694 -107.6902,-152.128841 20.5578,3.148849 41.103,6.924456 61.1344,14.315238 94.7537,34.969543 191.6135,115.025813 204.9133,220.700333 4.1243,42.11212 2.6576,88.98137 35.0737,121.03896 12.3221,12.0589 39.2227,15.49981 49.7774,-0.44751 5.503,-8.32213 -0.4011,-36.29451 -2.5197,-45.60568 -4.7633,-20.94638 -8.4235,-39.03598 -7.684,-60.54643 1.4165,-41.43647 19.6929,-70.92561 41.9679,-103.90205 -0.5639,20.07518 -1.5543,40.4136 2.3818,60.07511 10.4543,52.10269 51.645,75.82563 87.4959,109.26713 18.5772,17.33873 37.9442,41.11305 49.7147,63.78929 32.0401,61.74731 36.0389,122.92301 15.8571,188.47727 6.7565,-10.31776 12.1465,-21.49668 19.4296,-32.56779 10.2539,35.0648 15.4434,98.60716 4.8887,133.73464 -16.6593,55.43707 -52.5226,138.34761 -93.3122,178.19711 -10.6424,-14.75146 -26.7752,-16.13911 -42.8831,-20.66559 27.0261,-12.03758 52.811,-47.49348 63.6288,-74.77643 10.1035,-25.4954 7.7844,-47.72664 8.6494,-74.16345 1.1658,-35.72039 -15.105,-64.72317 -15.105,-99.63253 0,-16.21558 10.0282,-31.76554 16.3209,-46.18106 18.502,-38.64863 20.2445,-82.89676 2.7703,-122.49556 -6.3428,-14.18361 -14.6411,-27.40452 -24.6693,-39.27164 -16.3711,-19.38322 -70.7865,-64.93249 -93.0115,-77.68333 11.7456,37.68342 16.9727,69.45647 0.012,108.69927 -2.8831,6.67502 -13.6383,19.68784 -21.4854,21.29737 -23.0397,4.71825 -39.4107,5.87902 -60.1314,-6.83421 -21.2097,-13.01408 -51.5074,-48.22807 -57.6747,-71.51978 -4.0489,-15.23407 -3.5223,-49.52169 -4.5002,-66.73884 -3.1839,-55.71786 -19.768,-97.33483 -60.1064,-136.48487 -10.868,-10.54214 -23.7291,-20.03757 -34.1835,-30.3127 10.6298,23.44589 15.694,48.75077 23.1275,73.06788 7.7341,25.32868 14.24,47.73165 3.4346,73.20451 -25.6597,60.48125 -76.9789,93.53665 -141.6105,69.6846 -27.0385,-9.97678 -35.2366,-26.68625 -47.1074,-51.36688 -12.1215,-24.85486 -29.9842,-54.68244 -51.244,-72.56394 -46.4431,-39.05854 -117.3549,-45.24344 -168.1477,-75.26782 -35.7379,-21.13189 -50.7677,-69.52166 -83.3768,-96.83217 8.5014,40.33336 5.4114,90.10576 25.7774,126.4241 21.1219,36.85484 61.1719,49.28728 87.2202,83.12113 42.9205,55.77301 29.6081,136.55383 -46.4054,151.75027 -52.5615,10.50704 -89.4151,-13.87274 -124.57895,-51.78805 -14.04698,25.56059 -9.32621,41.7887 -10.76651,69.40883 -0.93513,17.92163 -2.4005,40.62669 -1.07678,59.16506 -2.53713,5.12816 -16.26822,8.7709 -19.57252,9.91036 -32.12404,11.07863 -80.85852,24.46751 -112.90735,3.8784 -74.59091,-47.9197 -84.43232,-114.14836 -179.44563,-138.02672 29.89654,52.9927 64.02371,100.5727 86.83408,158.03044 14.26008,35.92472 38.02437,69.84757 70.23741,91.6877 33.12561,21.60699 74.40915,39.52486 87.13617,80.87482 5.21967,18.19616 8.86116,41.68844 9.13693,60.59408 0.2808,19.32556 6.69883,57.2998 0.76465,74.72878 -12.366,36.32336 -46.17854,45.44525 -79.85193,34.66495 -41.19475,-13.18706 -70.41313,-31.7179 -105.25732,-56.14656 -13.84015,-9.45408 -33.05165,-17.01534 -47.93975,-25.07674 -25.05417,-13.34878 -33.96672,-14.30396 -61.66081,-12.81728 29.59693,29.15571 77.52916,39.92472 72.46995,91.00579 -5.6559,57.11178 60.74699,91.6702 106.17717,107.4458 6.73394,2.3378 16.26699,2.7528 21.66967,8.6054 l -0.7822,1.7563 c -9.87901,3.3556 -28.02627,4.1015 -39.27038,6.3541 -17.8063,3.5687 -35.52861,9.2547 -53.33491,11.5185 39.17637,16.9063 98.1421,18.3154 140.43347,14.3366 43.16132,-4.0615 74.58589,-9.7048 118.48931,0.9101 47.27533,9.3387 42.03563,64.4675 82.18093,87.2941 26.3867,15.0047 47.5336,15.7192 76.3773,21.6358 14.7914,3.046 53.7133,16.9728 63.1399,28.5804 -61.0591,-14.2652 -133.7635,-23.1778 -197.1479,-26.5748 0,0 -4.3096,2.5572 -4.78594,2.833 -18.9821,-10.9934 -27.75301,-30.3854 -52.38099,-40.6393 -52.61789,-21.9115 -100.3646,-20.0187 -155.14231,-23.2779 -112.2668,-6.6813 -207.94072,-60.7019 -298.26208,-123.56987 61.56929,7.33817 113.75974,17.18457 176.64901,22.29147 -24.78091,-24.69315 -55.87581,-65.79872 -66.02684,-98.40286 -13.90157,-47.89086 -28.7646,-89.91524 -79.57742,-109.48022 -57.68839,-22.21245 -115.23264,-14.24756 -175.05579,-38.3152 24.51642,-6.27013 51.57622,-7.75304 76.04123,-13.55435 97.71717,-23.17388 204.28921,-30.95826 285.62031,39.8307 30.37914,25.3663 131.12356,117.62061 145.06149,31.54617 11.08741,-68.46869 -45.8777,-91.71403 -94.94688,-123.10727 -70.46556,-45.08171 -79.68146,-126.2624 -102.92681,-200.3544 -27.90844,-88.9613 -109.83746,-86.15842 -187.74142,-97.15557 23.31177,-13.58819 61.73601,-24.57283 88.89235,-30.10086 72.78457,-14.8154 137.96653,4.20807 195.05825,50.83037 30.57469,23.61639 60.73196,66.69622 102.39155,69.50661 50.10332,3.37951 67.89458,-46.60099 67.54736,-87.61626 -0.45377,-53.69592 -14.12721,-97.17063 -52.01495,-135.55728 52.23682,11.22406 95.08225,40.287 125.68451,84.30698 27.60507,39.70661 57.19077,82.74507 110.95437,50.0068 15.8445,-9.64837 20.7333,-20.21933 24.7947,-37.26724 -14.3649,-68.27943 -90.2996,-72.61286 -113.1337,-120.9437 -40.68064,-86.10577 22.443,-192.645233 -109.45896,-218.272263 z"
     id="path4"
     style="fill:#345de3;fill-opacity:1;stroke-width:1.25352" />
  <path
     fill="rgb(122,19,17)"
     d="m 1308.713,868.85431 c -5.3024,-5.57442 -15.8572,-16.41739 -19.7807,-22.60353 -12.0338,-18.95078 -16.4713,-57.23839 -16.5214,-79.34177 -0.075,-36.35593 24.4687,-61.80747 49.9403,-85.47524 32.8172,-30.60854 74.4468,-40.43365 118.4956,-38.59098 63.2527,2.64493 120.802,47.04599 163.7728,90.33517 12.272,12.35973 42.9958,57.65079 31.7141,74.74258 -18.7651,10.25382 -74.7851,-50.95823 -97.4865,-54.77647 0.089,0.0138 -4.1366,-1.71982 -4.2369,-1.75869 80.7771,86.07946 90.7927,201.35723 242.0679,149.83364 16.1079,4.52648 32.2407,5.91413 42.8831,20.66559 -25.1833,22.91065 -57.3738,37.50416 -91.5824,36.39856 -91.5949,-2.95957 -142.1621,-39.16759 -183.9045,-120.31192 -9.4515,-18.39419 -27.0008,-54.47059 -40.9902,-67.27409 -33.5443,-30.70881 -84.9387,-37.29232 -127.8594,-36.82475 -36.8912,34.85046 -41.128,97.98918 -10.9432,138.96685 3.8985,5.27733 15.0548,14.40173 20.3196,19.24911 l -2.1937,0.50641 c -10.5547,-5.11688 -16.183,-15.32557 -24.1804,-24.08017 -4.6381,-1.03918 -9.1382,1.50422 -13.2122,3.97367 0.9778,2.28893 7.1577,3.55749 11.5951,6.5835 l -0.3133,2.47947 -2.5071,0.7471 c -10.9934,-4.7333 -20.6832,-6.93574 -31.2253,-10.82669 -2.2312,-0.82356 -13.1996,-9.43902 -18.502,-12.26947 l -0.4513,1.02162 c 2.8204,2.58852 3.4723,3.18394 5.9418,6.29894 z"
     id="path5"
     style="fill:#345de3;fill-opacity:1;stroke-width:1.25352" />
  <path
     fill="rgb(122,19,17)"
     d="m 995.52888,1181.1321 c 0.47634,-0.2758 4.78592,-2.833 4.78592,-2.833 63.3844,3.397 136.0888,12.3096 197.1479,26.5748 28.5679,6.2551 65.7849,20.2569 93.9515,30.6987 31.4635,12.3472 65.7599,22.7264 96.2205,37.38 49.7398,23.9048 105.7723,60.1316 137.4113,105.6721 30.1723,43.4221 2.8956,107.8656 -22.1624,147.4393 -3.5474,-4.6004 -33.469,-18.8529 -39.7617,-20.2568 5.2522,-13.9015 12.4476,-34.6348 7.8722,-49.1632 -32.341,-102.1121 -141.9616,-142.7512 -232.9924,-177.1855 -42.9833,-16.8975 -84.7006,-36.6279 -128.7369,-50.7175 -37.3299,-11.9462 -80.2656,-26.9509 -113.73592,-47.6089 z"
     id="path6"
     style="fill:#345de3;fill-opacity:1;stroke-width:1.25352" />
  <path
     fill="rgb(254,125,0)"
     d="m 1079.3683,203.45654 c 24.5439,24.47128 44.2494,36.52767 75.3869,50.63483 44.7633,20.28702 91.7829,26.39292 122.2561,67.72787 21.147,28.69063 30.1221,51.91841 45.3274,82.57207 13.7387,27.66903 65.8727,42.21993 93.8889,49.44775 22.3879,5.77498 47.3205,11.51736 68.668,-1.42025 1.9179,-3.29927 7.4459,-13.72733 9.2761,-15.73172 17.9127,-19.67029 39.9999,-35.24657 51.7454,-60.12148 4.0363,-8.55906 7.1325,-17.94043 9.3763,-27.23405 2.1687,-8.95894 -0.2507,-40.6292 4.049,-46.29638 l -1.1533,2.30273 2.6701,0.16045 c 6.9445,25.62954 1.6797,57.02151 3.0836,83.43953 0.4262,15.23029 4.7383,29.5631 8.0978,44.37097 5.1142,22.56842 7.2578,44.88992 27.6527,59.76673 18.6273,13.5907 43.773,14.84798 62.8768,27.34811 17.3988,11.39328 34.522,24.9702 51.2439,37.41016 9.3889,7.10497 17.9505,15.16637 28.4425,20.57533 3.6853,-1.7775 4.1617,-2.04575 7.4334,-4.47759 2.507,-4.34722 1.3162,-8.97773 0.7771,-14.12094 -6.4431,-11.32182 -10.2662,-18.64616 -14.7915,-30.80658 13.1744,-5.90285 49.7022,-13.57942 46.5182,-30.0971 -3.961,-20.54024 -10.0157,-42.72133 -12.3597,-64.63668 23.0774,15.79941 53.8137,48.36971 58.2137,77.64199 3.8483,25.64332 0.6141,58.44426 -11.5451,82.07318 -7.1575,11.04981 -14.3151,9.0141 -15.857,23.77056 -4.4752,42.94822 11.9585,86.76263 13.6133,128.19409 0.6894,17.30738 -13.5131,55.65141 -19.0536,72.58276 -7.3832,15.45343 -12.3722,35.87332 -22.413,49.84509 -18.2764,25.43274 -45.5656,39.21398 -72.6793,19.69912 -5.0015,-9.46409 -5.5029,-15.66654 -6.6812,-26.03192 6.769,-14.73391 20.4951,-51.42454 10.1409,-62.92812 -17.0102,-18.90313 -27.0259,-45.08673 -42.4818,-64.89365 -18.289,-23.45343 -46.0921,-40.67433 -57.5118,-69.18322 -6.3678,-13.93665 8.9378,-23.753 11.0688,-34.37662 3.5349,-17.68345 -0.2382,-21.47284 8.7872,-38.40669 22.8892,27.60007 24.5063,60.42608 49.0127,86.46803 13.6634,13.58946 34.1083,28.97896 53.9515,29.99431 14.1273,0.72203 19.8183,-11.34063 16.2708,-23.89091 -7.7342,-27.42332 -23.7291,-42.88805 -46.3302,-58.70124 -4.7633,-16.91378 -9.5268,-36.48255 -26.324,-45.90904 -10.5922,-5.94546 -22.4256,-6.96959 -33.607,-10.88809 -13.4376,-4.70699 -26.7124,-13.31995 -41.1908,-14.59603 -4.149,-0.34221 -10.4794,7.15511 -13.1995,10.09086 -4.7257,-4.86743 -27.026,-30.54211 -31.2127,-32.66306 -18.8405,-8.2557 -48.4237,-21.11184 -68.6932,-19.18141 -10.354,0.98653 3.9362,23.94731 6.6437,28.78841 0.163,6.047 0.8775,11.13755 1.241,16.99527 l -18.0005,-1.19836 c -30.3228,3.64648 -57.7123,-4.70071 -88.9125,-4.22313 -19.3544,0.2971 -62.0243,19.38073 -78.1947,9.56188 -18.6525,-11.33811 24.1553,-33.5681 15.1801,-45.67839 -28.7809,-14.05952 -72.5538,19.72544 -97.3235,33.29608 -9.5769,5.246 -21.5356,7.29175 -29.6835,14.92321 -25.7975,23.99744 21.0844,29.22463 36.1767,30.46437 7.985,0.65434 18.0758,2.59355 23.0648,8.984 4.3246,21.25098 -9.063,39.79686 -30.4981,42.61605 -9.8653,1.29863 -30.3855,2.23125 -36.6907,10.53334 -7.1576,9.429 -8.1855,30.30643 -25.3714,19.11623 -21.5355,-14.01941 -9.652,-61.08794 -40.1378,-62.16723 -4.9764,-0.1429 -14.8793,4.73956 -17.8,9.50045 -14.24,23.17389 -26.0858,51.24904 -36.0137,76.55517 -4.2494,10.8129 -2.6199,27.18016 -8.1855,38.10587 -7.6728,15.99244 -23.7354,22.47692 -29.6345,37.82381 -4.1128,10.70133 -1.4955,24.06765 -0.3372,34.62857 5.256,47.92472 57.8626,79.47214 68.9187,120.35204 -3.021,13.40392 -8.0351,19.0009 -12.0464,30.54837 4.1115,12.20304 12.6606,26.6574 25.8979,31.4384 16.02,5.77995 61.8363,25.9793 73.5817,4.86988 4.3748,-7.8558 2.0057,-28.21178 -1.7925,-36.23683 -21.6483,-48.00118 -74.0832,-55.9786 -76.3145,-118.65477 -0.9401,-26.10336 10.5045,-39.33682 11.2315,-57.65956 1.1157,-28.05134 -11.407,-45.36752 -4.5001,-77.08291 59.4171,53.52795 8.5115,101.49403 51.3317,153.26578 32.3911,36.55025 70.2852,55.51605 89.5894,103.18879 12.7735,31.53369 5.7787,81.44772 36.816,100.42732 31.4634,19.2415 58.6022,14.2689 54.5158,-28.0765 -3.535,-36.5001 -26.111,-54.85161 -34.6224,-86.33011 19.743,20.73455 49.8401,55.97111 76.9914,63.23401 17.9504,4.801 32.4538,1.8515 49.6645,13.8264 27.3019,48.8648 -21.2972,116.6404 43.4347,149.9088 15.5311,7.9725 53.4627,33.7448 60.9964,-0.376 6.5559,-29.696 -8.1479,-44.0613 -27.427,-63.5913 16.3083,1.8928 25.0828,2.9208 38.6711,-8.1353 25.9981,-21.1645 1.3915,-39.9724 -14.6913,-55.7405 -11.1814,-10.962 -15.2303,-24.485 -18.6774,-38.9545 34.547,5.0705 70.0719,23.1413 92.9361,50.3466 19.1916,22.818 10.6425,56.8209 20.1567,81.6407 12.1968,31.7643 25.296,61.9366 36.9163,94.2023 12.8862,-19.5926 12.4349,-21.6359 16.0826,-43.4597 5.4027,17.5619 8.9377,34.2087 13.3501,51.7705 6.4682,22.2626 5.7788,51.0435 28.9313,63.7417 11.2316,6.1423 18.4268,-5.1268 22.3755,-13.7888 13.2372,-29.019 9.276,-59.0033 13.8513,-89.2508 23.7669,42.4192 36.1015,106.537 32.6794,154.8227 -1.3287,18.6148 -12.623,67.8281 5.7161,79.3605 9.4265,-0.8022 29.0316,-18.3515 40.6016,-20.8837 1.7674,-0.3885 8.2105,-7.3205 9.6019,-9.0379 34.9609,-38.6211 24.7822,-65.459 30.2977,-111.7265 0.8274,-7.0072 10.2162,-28.2921 12.6857,-41.8678 18.339,41.7048 34.5973,70.5985 26.8003,117.8689 -0.9652,18.5396 -5.0392,31.664 -10.5295,49.1883 -5.5406,17.7373 -15.0423,21.736 -23.4786,35.0359 -13.8264,24.0301 -43.9108,39.7367 -56.1578,62.8517 -18.9783,35.8508 8.0225,51.8458 -21.1218,87.9974 -22.739,28.1918 -36.1016,23.7667 -62.5384,44.2744 -3.0461,2.3691 6.017,13.0742 10.1286,12.7483 18.7903,5.2021 41.4665,7.0699 60.5576,2.833 -26.2362,29.019 -32.6418,57.9754 -64.5438,80.1628 -18.2138,12.6606 -36.3774,23.3908 -56.6844,32.4788 -25.8853,11.5951 -50.7551,18.2388 -77.5179,26.8755 -15.6816,5.0517 -31.6891,12.1341 -47.7091,17.2485 -15.13,4.826 -31.5512,8.4864 -46.1422,14.2025 -24.6192,9.6395 -48.762,22.8768 -72.5414,34.4969 -10.8179,5.2774 -23.9423,13.6633 -34.8856,17.6996 -8.3985,3.1214 -17.2359,4.8638 -26.1736,5.1396 -0.7019,0.025 -1.4039,0.038 -2.1059,0.063 -6.0921,-16.5466 -15.3305,-24.4437 -20.7207,-40.3761 -1.9931,-5.8915 -2.5822,-16.0451 -3.56,-22.5884 -6.6939,-3.0586 -14.077,-6.6813 -20.9714,-9.0504 -20.7208,5.3275 -20.6706,13.7134 -37.4428,23.5912 -57.0227,33.5944 -91.2315,42.6575 -157.0539,44.3121 16.4337,-11.0812 30.4857,-21.0341 35.575,-41.3788 3.1714,-12.648 -4.2621,-27.1264 -15.9698,-32.9928 -26.3115,-13.1746 -60.7709,-37.1419 -88.0727,-44.9387 -21.9241,-4.1241 -47.7191,7.9849 -67.5435,14.7037 -46.63862,15.8321 -99.36934,6.2301 -143.82303,-11.8833 -6.44436,-2.62 -32.05511,-11.1188 -34.63737,-16.1956 1.39393,-4.0489 11.6139,-9.2384 16.91756,-14.6787 -2.60232,-11.0811 -5.82512,-18.7026 -9.9981,-29.2072 4.16671,-14.9169 22.12092,-50.6548 41.82881,-41.2658 13.71731,6.5307 24.12783,7.3707 39.18766,6.9444 29.32742,-104.5815 -80.85352,-113.7823 -146.10316,-153.1805 -29.89904,-18.0507 -59.22774,-38.9846 -87.93216,-58.9407 -47.18387,-32.7921 -49.48158,-82.1183 -86.57208,-117.4552 -13.5368,-12.8986 -48.36219,-24.569 -69.58309,-39.3731 34.53583,9.4891 51.88835,13.6509 83.62632,33.1181 24.37977,14.1397 42.13718,40.1378 63.82438,56.8096 20.69316,15.9073 51.77176,26.9508 75.58495,38.5208 12.88246,6.2677 53.97547,30.7865 65.98547,28.618 25.43148,-20.959 -19.60259,-69.909 -24.29829,-90.4794 -7.49482,-32.8548 -4.08022,-71.4258 -28.89497,-99.1912 -12.75084,-14.2777 -38.1748,-24.2432 -55.16004,-35.4872 38.83791,3.2089 80.25557,21.7861 106.08067,51.5949 14.50827,16.7472 17.83388,39.5362 31.35939,55.8946 17.31993,20.3698 43.51982,29.8715 56.40353,54.428 2.82795,5.3901 8.26699,11.5073 11.0097,17.048 14.69004,29.6333 12.1855,72.8045 52.8009,81.366 2.21999,0.4764 5.20088,-0.1628 7.08618,-1.7548 13.68972,-15.6065 11.30301,-44.3873 20.74957,-65.2083 11.7894,-25.9855 24.1278,-38.082 36.6931,-59.0785 -1.3638,26.6248 7.1175,69.7585 14.8844,95.719 6.957,23.2403 9.4891,49.8651 24.8448,69.345 27.9661,32.4787 33.5819,-31.7519 52.8861,-35.2365 6.2927,6.468 5.6283,31.1876 8.7747,42.2561 3.9611,13.9267 11.1438,21.6609 15.857,34.5472 5.1144,13.6132 4.4877,31.7141 10.9057,44.6003 17.5995,35.3242 55.9197,88.2856 98.2637,93.4001 12.3346,1.479 17.8376,-7.1576 21.3476,-17.1859 -13.3751,-24.5941 -28.6932,-29.0691 -43.1212,-57.0855 25.1707,8.2985 61.7861,30.5609 88.5489,20.5202 25.0579,-9.3888 39.887,-80.3382 60.0437,-81.0652 9.79,3.7228 12.0337,15.694 18.4643,22.2374 6.1047,6.2175 13.7637,10.0533 20.2821,17.1482 -3.4723,17.3863 -11.5324,45.5028 -5.904,61.5229 13.8012,9.389 21.6357,15.8696 38.5583,16.9351 18.2011,-5.7161 28.0036,-13.0992 44.688,-19.7179 24.2432,-9.602 55.2554,-9.8527 73.4691,-31.8521 16.7972,-20.2819 21.009,-54.4153 16.6593,-79.7867 -2.4444,-14.2777 -9.1257,-30.2225 -14.0269,-44.0237 -3.8608,-10.8806 -10.9558,-24.1053 -12.1592,-35.3493 -1.7675,-16.484 19.8808,-16.321 26.8379,-25.6473 10.7553,-14.4028 14.2275,-46.5683 12.6857,-63.7917 -3.5225,-39.3982 -42.1936,-34.0332 -66.5872,-53.7009 -24.406,-19.6679 -32.3284,-35.7254 -49.3888,-60.8586 -14.6913,-21.6484 -38.6586,-47.1576 -60.7457,-61.8363 -32.316,-21.4604 -75.5122,-22.9519 -112.2906,-33.9704 -29.3826,-8.8123 -51.8082,-22.927 -77.7687,-37.5432 -27.7029,-15.6063 -39.0346,-18.9156 -64.7194,-40.0499 -5.3274,0.8022 -6.5685,0.8774 -11.9586,0.7019 -20.9965,1.1031 -35.6626,7.2203 -53.538,7.4459 -31.4132,0.514 -46.8943,-23.9046 -59.5172,-48.4261 -10.2626,-19.9235 -14.6989,-17.3524 -32.6242,-25.7336 -20.97899,-9.8075 -7.9123,-38.7226 -32.27573,-51.2716 -8.44876,0.5328 -10.60732,17.3463 -21.74487,24.1654 -21.56186,11.1101 -63.15627,5.5469 -87.20511,0.9389 -49.20581,-9.429 -109.756,-45.26727 -143.29151,-82.56206 -6.67377,-7.4221 -12.95768,-27.73796 -19.98743,-38.08579 l -1.04043,-1.50423 c 16.89625,6.54715 54.76518,28.5515 69.78114,39.78181 31.68155,23.90971 60.54392,55.84827 102.7112,58.76767 21.10055,3.105 44.72821,-20.8047 47.47343,-41.34996 4.13037,-30.90436 -12.31837,-72.70937 -18.3215,-102.819 -3.27169,-16.40486 -3.67657,-31.57374 -4.28579,-47.65018 27.5888,-5.58068 20.30833,-10.47569 19.05732,-34.31395 0.54277,-30.90061 -20.14036,-88.12144 -50.5922,-103.47083 C 800.0883,634.44419 760.61234,605.7222 733.24041,509.77001 l 14.37916,1.4942 c 16.10528,9.89282 32.62545,30.42052 47.27788,43.62262 13.89782,12.52394 20.46252,14.8906 35.4998,23.6076 39.53862,22.91691 70.27251,12.28328 112.92614,15.18518 l 2.54216,0.18427 c 24.03004,17.03538 13.92664,48.10019 34.23748,57.07292 19.22153,0.0866 61.01897,-59.44458 65.16687,-79.64135 8.351,-40.64675 -29.098,-28.89998 -43.9773,-57.74982 l -0.7484,-1.47916 c 14.0683,-12.81728 14.4206,-15.13379 17.9793,-34.02438 7.3219,3.23533 14.8442,5.99684 22.5195,8.27074 19.8985,6.0658 40.707,9.785 60.287,15.04479 28.0413,7.52991 40.2256,-6.68378 64.7695,-9.82762 92.6228,-11.8621 25.2586,-40.73074 28.5929,-61.04032 9.3889,-6.52835 35.575,13.58819 47.7342,5.54558 3.773,-10.28516 -13.2122,-32.06763 -18.7527,-43.47093 -14.6913,-30.24627 -15.9073,-57.59314 -36.8911,-84.82467 -38.5459,-49.98676 -80.0376,-44.31707 -107.4145,-104.28312 z"
     id="path7"
     style="fill:#47f8ff;fill-opacity:1;stroke-width:1.25352" />
  <path
     fill="rgb(254,125,0)"
     d="m 1530.5238,1564.7729 1.3038,1.4416 c 4.7883,28.455 -3.9362,65.9479 -30.1975,81.5542 -11.3067,-15.3056 18.3767,-68.4424 28.8937,-82.9958 z"
     id="path25"
     style="fill:#47f8ff;fill-opacity:1;stroke-width:1.25352" />
  <path
     fill="rgb(208,12,2)"
     d="m 409.41397,531.52114 c 43.79308,-0.68441 91.36179,10.48824 118.51685,48.06386 9.95674,13.97553 17.54307,31.07234 30.97207,42.15223 11.67782,9.63582 24.80347,14.81665 38.5095,20.73201 15.02973,6.48574 29.76615,13.59948 44.2105,21.38135 -15.05732,1.53808 -32.31709,1.2059 -47.66522,2.65121 -71.5624,6.73768 -102.74754,5.61076 -163.21501,-33.61824 -43.23527,-24.12907 -84.04373,-32.30832 -133.13545,-32.73577 -53.96043,-0.47007 -93.08164,4.48134 -138.82271,-29.31991 30.78027,2.42683 66.25373,4.12911 96.20917,-3.54621 56.10018,-14.37291 94.90175,-32.76336 154.4203,-35.76053 z"
     id="path27"
     style="fill:#345de3;fill-opacity:1;stroke-width:1.25352" />
  <path
     fill="rgb(249,62,0)"
     d="m 415.57879,567.89088 c 16.30834,-0.35099 46.76645,1.68724 59.34431,12.80348 15.71542,13.8903 33.89401,28.89121 49.20455,43.33431 9.6446,9.09557 15.68032,18.13471 26.89183,26.51703 -19.31429,-0.39737 -28.72825,0.78596 -46.90308,-6.21747 -11.75806,-5.33877 -28.25191,-12.73205 -38.70254,-19.84829 -38.70253,-26.35408 -62.87924,-38.71633 -108.7795,-48.38977 18.63362,-5.22469 39.66774,-6.71888 58.94443,-8.19929 z"
     id="path28"
     style="fill:#47f8ff;fill-opacity:1;stroke-width:1.25352" />
  <path
     fill="rgb(208,12,2)"
     d="m 203.33096,1466.6972 c 13.74238,2.2063 52.17416,19.6553 68.8084,24.2933 39.97862,12.5227 87.45457,-1.1908 127.63375,-3.0963 56.302,-2.6823 95.19884,16.835 124.95372,64.1178 4.25571,6.7691 17.53303,18.828 23.92223,24.6694 1.34378,1.1031 1.22721,1.3036 2.20495,2.8456 -3.59134,0.5388 -33.93915,-10.3668 -41.08548,-12.2219 -7.72295,-2.0433 -15.58129,-3.5224 -23.51483,-4.45 -26.33027,-3.0586 -46.41046,0.038 -72.04877,0.9276 -17.90158,0.4638 -35.81066,-0.5391 -53.55178,-2.9835 -67.24526,-9.2635 -116.60022,-40.1378 -157.32219,-94.102 z"
     id="path30"
     style="fill:#345de3;fill-opacity:1;stroke-width:1.25352" />
  <path
     fill="rgb(249,62,0)"
     d="m 414.53836,1519.2575 c 31.18767,-5.3776 68.52511,16.3334 92.52508,34.359 -16.95266,-6.28 -30.7176,-8.01 -48.59786,-9.2259 -44.33962,1.9931 -55.91215,1.1909 -97.90519,-15.8821 21.39389,-5.8541 32.19424,-6.9947 53.97797,-9.251 z"
     id="path31"
     style="fill:#7019ff;fill-opacity:1;stroke-width:1.25352" />
  <path
     fill="rgb(208,12,2)"
     d="m 229.42932,917.61386 c 78.56582,-2.70135 136.05742,15.69788 196.98994,65.06914 -35.10492,-8.94639 -69.35745,-18.10964 -105.92147,-18.83168 -26.3616,-0.51896 -57.36123,2.5246 -84.03871,4.3911 -56.13278,4.72201 -165.018827,1.6045 -213.516392,-27.48225 77.977932,1.12816 129.873792,-19.93353 206.486632,-23.14631 z"
     id="path32"
     style="fill:#345de3;fill-opacity:1;stroke-width:1.25352" />
</svg>
