<?xml version="1.0" encoding="UTF-8" standalone="no"?>
<!-- Created with Inkscape (http://www.inkscape.org/) -->

<svg
   width="64"
   version="1.1"
   height="64"
   id="svg1"
   sodipodi:docname="sonicde-blaze-workspace-icon.svg"
   inkscape:version="1.4.2 (ebf0e940d0, 2025-05-08)"
   inkscape:export-filename="sonicde-blaze-logo-colorful.png"
   inkscape:export-xdpi="96"
   inkscape:export-ydpi="96"
   xmlns:inkscape="http://www.inkscape.org/namespaces/inkscape"
   xmlns:sodipodi="http://sodipodi.sourceforge.net/DTD/sodipodi-0.dtd"
   xmlns:xlink="http://www.w3.org/1999/xlink"
   xmlns="http://www.w3.org/2000/svg"
   xmlns:svg="http://www.w3.org/2000/svg">
  <sodipodi:namedview
     id="namedview1"
     pagecolor="#505050"
     bordercolor="#ffffff"
     borderopacity="1"
     inkscape:showpageshadow="0"
     inkscape:pageopacity="0"
     inkscape:pagecheckerboard="1"
     inkscape:deskcolor="#505050"
     inkscape:zoom="12.28125"
     inkscape:cx="18.117048"
     inkscape:cy="24.916031"
     inkscape:window-width="1920"
     inkscape:window-height="963"
     inkscape:window-x="3840"
     inkscape:window-y="44"
     inkscape:window-maximized="1"
     inkscape:current-layer="layer1" />
  <defs
     id="defs5455">
    <linearGradient
       inkscape:collect="always"
       id="linearGradient4326">
      <stop
         id="stop4328" />
      <stop
         offset="1"
         style="stop-opacity:0"
         id="stop4330" />
    </linearGradient>
    <linearGradient
       inkscape:collect="always"
       xlink:href="#linearGradient4326"
       id="linearGradient4434"
       y1="502.798"
       x1="439.57144"
       y2="512.79803"
       x2="429.57144"
       gradientUnits="userSpaceOnUse"
       gradientTransform="translate(4.935505,9.999997)" />
  </defs>
  <metadata
     id="metadata5458" />
  <g
     inkscape:label="Capa 1"
     inkscape:groupmode="layer"
     id="layer1"
     transform="matrix(1 0 0 1 -384.57143 -483.798)">
    <path
       style="fill:#3b3f42;fill-rule:evenodd"
       id="path4422"
       d="m 430.50694,498.798 -6,6 11,11 -11,11 6,6 17,-17 z" />
    <flowRoot
       line-height="125%"
       style="font-size:32.500004;font-family:sans-serif"
       id="flowRoot4170"><flowRegion
         id="flowRegion4172"><rect
           width="87.75001"
           x="452.32144"
           y="489.79807"
           height="48.750004"
           id="rect4174" /></flowRegion><flowPara
         id="flowPara4176">Plasm</flowPara></flowRoot>
    <path
       inkscape:connector-curvature="0"
       style="opacity:0.9;fill:url(#linearGradient4434);fill-rule:evenodd"
       id="path4426"
       d="m 428.50694,522.798 6,6 7,-7 -6,-6 z" />
    <path
       id="path3"
       style="display:block;fill:#fd3f00;fill-opacity:1;stroke-width:0.0241244"
       d="m 399.87454,496.16457 -0.0741,0.044 c 6.2e-4,0.0451 -0.006,0.0474 0.0237,0.0648 0.22165,0.12614 0.44528,0.21501 0.66559,0.35319 0.62248,0.39045 0.98748,0.94522 1.18821,1.64678 0.15021,0.52495 0.33637,1.22004 -0.0811,1.68155 -0.30756,0.33038 -0.78569,0.41642 -1.2131,0.44074 -0.42512,0.0242 -0.77379,-0.0892 -1.16683,-0.16313 -0.97762,-0.17624 -1.62726,-0.77832 -2.42574,-1.25738 -0.95717,-0.57429 -2.29055,-0.99585 -3.40418,-0.85633 -0.1848,0.0232 -0.96972,0.11787 -0.96629,0.3728 0.12177,0.0673 0.4137,0.0814 0.56438,0.10658 a 2.8804598,2.8804598 0 0 1 1.08409,0.42708 c 1.86472,1.22622 1.9058,3.40978 3.44272,4.89801 0.39967,0.38704 0.84112,0.82741 1.22847,1.22742 -1.02973,-0.40257 -2.13225,-0.88403 -3.25859,-0.6945 -0.20904,0.0351 -0.42911,0.0532 -0.60132,0.18282 l 0.002,0.0351 c 0.35439,0.19519 0.63434,0.26172 0.98911,0.50897 0.88061,0.60525 1.32696,1.62012 1.67467,2.59451 0.1452,0.40565 0.31735,0.895 0.55307,1.25042 0.34693,0.52316 0.89412,0.81028 1.19303,1.38432 0.69765,1.33986 0.1199,1.69079 -1.03914,0.85031 -0.45104,-0.32707 -0.74317,-0.75801 -1.18465,-1.09098 -1.26965,-1.04375 -3.10319,-0.97969 -4.65432,-0.82929 0.33137,0.22238 0.72339,0.40183 1.07513,0.59389 0.95694,0.51523 1.8612,1.32257 2.06811,2.43751 0.0678,0.36553 0.13017,0.75312 0.20149,1.10473 0.28721,1.41606 0.98798,2.55409 2.23754,3.29874 0.43481,0.25913 1.01053,0.67316 1.13857,1.19038 0.0587,0.23739 -0.0131,0.54545 -0.29648,0.58549 -0.43755,0.062 -0.84596,-0.1488 -1.19058,-0.39947 -0.35514,-0.28128 -0.71245,-0.68031 -1.02812,-1.00889 -0.92871,-0.96652 -1.93898,-1.49937 -3.30278,-1.5301 -0.71304,-0.0161 -1.42924,0.11757 -2.13746,0.21429 -0.1283,0.0161 -0.30066,0.0372 -0.40853,0.10988 -0.009,0.17618 0.86844,0.37273 1.0351,0.43103 a 12.35172,12.35172 0 0 1 0.73212,0.28864 c 0.62052,0.2735 1.12418,0.58016 1.63443,1.03104 1.64978,1.45399 1.38174,4.01647 2.88795,5.59349 0.47072,0.51842 1.04142,0.89671 1.48442,1.4453 0.25378,0.3141 0.48059,0.94105 -0.12449,0.92465 -0.68131,-0.0186 -1.33275,-0.70251 -1.91883,-1.0335 a 5.8332929,5.8332929 0 0 0 -1.61577,-0.61923 c -1.20505,-0.26729 -2.09655,-0.006 -3.26736,0.23927 -0.57896,0.12135 -1.22255,0.21233 -1.80132,0.0567 -0.32054,-0.0854 -0.64475,-0.20988 -0.92003,-0.39853 -0.0984,-0.0678 -0.3809,-0.305 -0.46449,-0.33491 -0.0412,0.0666 -0.0552,0.1115 -0.0308,0.19714 0.23717,0.83205 1.04499,1.58591 1.74724,2.00807 a 4.0577331,4.0577331 0 0 0 1.24108,0.49796 c 0.44724,0.10231 0.8873,0.10693 1.31912,0.18243 0.82672,0.14452 2.00501,0.58566 2.28975,1.47103 0.22955,0.7136 -0.95344,0.46588 -1.2785,0.44876 -0.95395,-0.05 -1.9592,-0.26683 -2.90342,-0.11243 0.60787,0.55293 1.44401,0.99297 2.05039,1.59005 0.44235,0.43568 0.88762,0.85108 1.30131,1.31789 0.8137,0.83036 1.87779,1.48656 3.04553,1.63952 0.27942,0.0367 0.77267,0.0251 1.06778,0.0111 a 20.09567,20.09567 0 0 0 1.62313,-0.15341 c 0.5241,-0.068 0.88423,-0.1527 1.41552,-0.12712 0.1164,0.0152 0.61157,0.0666 0.50501,0.28534 -0.26839,0.55101 -1.18894,0.70952 -1.71019,0.83569 -1.07132,0.25934 -1.99845,0.16137 -3.06985,0.1177 0.88794,0.75679 2.76319,1.4482 3.93051,1.60644 0.51189,0.0693 1.13701,0.0664 1.65865,0.0319 1.29724,-0.0856 2.38688,-0.50873 3.42905,-1.27444 -0.37899,0.53291 -0.51067,0.69403 -0.98834,1.16712 0.53363,0.0181 1.06943,0.0429 1.60258,0.0229 a 11.825807,11.825807 0 0 0 4.35305,-1.02236 c 0.87186,-0.39323 1.75218,-0.85839 2.66094,-1.1544 0.87644,-0.28539 1.82837,-0.36445 2.73134,-0.51716 0.44173,-0.0748 0.88944,-0.26058 1.3145,-0.39881 2.86262,-0.88295 5.75512,-3.22839 5.89458,-6.42898 0.0113,-0.25741 -0.004,-0.51795 -0.0521,-0.77245 -0.33943,0.54545 -0.59153,1.2019 -1.22432,1.48874 -0.16235,0.0736 -0.59682,0.24918 -0.66436,-0.006 0.12352,-0.56669 0.76906,-1.28361 1.07061,-1.80952 0.39034,-0.68128 0.42319,-1.02122 0.53706,-1.75196 0.22314,-1.4325 -0.071,-2.91809 -0.8699,-4.133 -0.15897,-0.24173 -0.52017,-0.83733 -0.78602,-0.92635 -0.0538,0.0801 0.0615,0.70711 0.0624,0.88007 0.003,0.53341 -0.13413,0.81537 -0.36838,1.27012 -0.0908,-0.48152 -0.12394,-0.95801 -0.20694,-1.42409 -0.22074,-1.24193 -0.82464,-2.27244 -1.88925,-2.96703 -0.37344,-0.24367 -0.71428,-0.44918 -1.1034,-0.67689 0.37465,-0.0108 1.14567,-0.43351 1.46509,-0.64901 1.71355,-1.15554 2.23509,-2.74165 1.88698,-4.70115 -0.26803,0.53993 -0.52642,1.22943 -1.13461,1.46612 -0.14957,0.0583 -0.31697,9.1e-4 -0.35507,-0.16285 -0.0907,-0.38818 0.18547,-0.83269 0.35507,-1.16598 0.18962,-0.35232 0.46421,-0.70431 0.64467,-1.05111 0.47356,-0.90942 0.58986,-2.12265 0.32135,-3.13458 -0.17128,-0.64588 -0.88978,-1.96205 -1.47093,-2.40604 -0.0434,-0.0331 -0.1146,-0.0242 -0.16671,-0.0159 l -0.0372,0.0335 c 0.0383,0.68088 0.29939,1.70966 -0.1913,2.30869 -0.15995,0.19524 -0.58362,0.46025 -0.79639,0.19158 -0.26007,-0.31749 -0.31378,-0.8171 -0.27857,-1.21603 0.0273,-0.26362 0.0987,-0.53996 0.12713,-0.80609 0.0839,-0.78194 -0.21233,-1.50379 -0.68999,-2.11088 -0.73991,-0.9406 -1.91041,-1.40736 -2.82521,-2.15236 -0.28443,-0.23169 -0.58861,-0.57601 -0.82721,-0.85888 -0.26753,0.72124 -0.0806,1.38426 0.0664,2.10543 0.0514,0.25155 0.12135,0.71024 -0.18141,0.82599 -0.22122,0.0855 -0.53323,0.0343 -0.74456,-0.0628 -0.9727,-0.46382 -1.10676,-1.55928 -1.66958,-2.31218 -0.93844,-1.25559 -2.49403,-1.95539 -4.0286,-2.08393 -0.38044,-0.0319 -0.70029,-0.0869 -1.09087,-0.0514 0.67549,0.5972 1.68024,1.33787 1.74441,2.35205 a 2.2918232,2.2918232 0 0 1 6.2e-4,0.25678 c -0.23594,0.34699 -0.34904,0.57172 -0.79752,0.65296 -0.63616,0.11525 -1.52111,-0.20123 -2.04171,-0.55146 -0.58358,-0.39282 -0.82047,-0.93626 -1.22094,-1.47705 -0.87223,-1.17854 -2.85802,-2.10566 -4.32722,-2.03448 z m 7.46992,10.54493 c 1.21829,-0.0463 2.62235,0.0791 3.78057,0.46279 0.94712,0.32725 1.57391,0.92637 1.97462,1.83779 0.27453,0.62485 0.25231,0.80576 0.0893,1.45774 -0.2217,0.88758 -0.72929,1.43501 -1.55772,1.82818 -1.19247,0.47586 -2.48213,0.68405 -3.76097,0.65438 -0.49189,-0.0114 -0.94954,-0.0522 -1.447,-0.0512 0.0507,-2.04268 0.18841,-4.09793 -0.12448,-6.12308 a 14.13693,14.13693 0 0 1 1.04574,-0.0666 z m 0.60603,12.34728 c 0.93928,-0.0286 2.35859,0.17998 3.10141,0.36216 2.00015,0.49069 3.31544,2.16296 2.64671,4.23525 -0.29649,0.91939 -0.90271,1.42768 -1.73017,1.85542 -1.2359,0.67308 -2.76736,0.72924 -4.14969,0.75746 -0.43569,0.009 -0.87328,-0.052 -1.30583,-0.10394 -0.0927,-0.83977 -0.0395,-1.54542 -0.035,-2.38398 0.0222,-1.51719 0.0303,-3.03437 0.0248,-4.5518 0.37948,-0.0728 0.69536,-0.11192 1.07797,-0.14304 0.11122,-0.0145 0.2356,-0.0235 0.36979,-0.0275 z" />
    <path
       id="path4"
       style="display:block;fill:#fff941;fill-opacity:1;stroke-width:0.0241244"
       d="m 402.91094,498.95669 c 0.0905,0.55585 0.30148,1.0052 0.29127,1.55848 -0.008,0.46543 -0.293,1.11993 -0.63713,1.42495 -0.66877,0.59273 -1.47019,0.31472 -2.22171,0.0893 -0.41908,-0.12568 -0.81192,-0.23627 -1.21978,-0.40041 -0.49863,-0.20067 -0.7035,-0.38593 -1.24864,-0.41332 0.17799,0.3265 0.50564,0.89967 0.76454,1.14629 0.53833,0.51281 1.63162,0.47931 2.12153,1.25929 0.11708,0.18637 0.19397,0.40089 0.24502,0.61413 0.0785,0.32775 0.26977,2.03081 0.20713,2.28089 -0.0452,0.18042 -0.16343,0.32776 -0.32512,0.41821 -0.40991,0.22931 -1.11233,0.13601 -1.54499,0.0105 -0.24991,-0.0725 -0.48498,-0.18131 -0.73759,-0.24954 0.29613,0.60388 0.67389,1.16132 1.15203,1.63849 0.69686,0.69543 1.31746,1.05764 1.65197,2.06037 0.25285,0.75795 0.22268,1.66565 -0.0985,2.40944 -0.11258,0.2608 -0.41267,0.52855 -0.69848,0.60508 -0.71338,0.16675 -1.64989,0.003 -2.29531,-0.32785 -0.2247,-0.11502 -0.65514,-0.5848 -0.89025,-0.64212 -0.18414,0.0383 -0.0339,0.10138 -0.0893,0.17603 l -0.1735,-0.28139 -0.007,0.003 c 0.1393,0.29284 0.34898,0.63149 0.46845,0.90344 0.2536,0.57742 0.33896,0.82465 0.78443,1.28642 0.48031,0.49793 0.84514,0.70826 1.50107,0.93323 0.45802,0.15706 0.95887,0.4628 1.29943,0.80703 0.38829,0.3897 0.56619,1.19247 0.55826,1.73092 -0.0121,0.81517 -0.4607,1.17267 -1.01652,1.69738 0.0738,0.17612 0.3673,0.54552 0.30579,0.70933 -0.21065,0.56064 -1.26265,0.3126 -1.69559,0.23492 -0.47757,-0.0859 -0.99273,-0.33243 -1.36162,-0.64749 -0.1617,-0.13414 -0.36997,-0.28506 -0.5673,-0.47552 -0.32718,-0.34942 -1.44279,-1.21495 -1.44323,-1.21432 0,0 0.64674,2.35448 0.86312,2.95157 0.11545,0.31868 0.30514,0.64724 0.49521,0.92756 0.23573,0.35123 0.50876,0.67592 0.81439,0.96837 0.72049,0.69238 1.6518,1.28005 1.82826,2.34564 0.076,0.45908 -0.0124,1.05348 -0.50256,1.23175 -0.45539,0.16549 -1.04763,-0.0197 -1.48516,-0.17801 -0.18085,-0.068 -0.4972,-0.31892 -0.65757,-0.43423 -0.55124,-0.40602 -1.04858,-0.8417 -1.69155,-1.09813 -1.48975,-0.59444 -2.93114,-0.12665 -4.44588,-0.0125 -0.1678,0.0125 -0.97347,-0.0374 -1.02443,-0.0268 0.0127,0.0248 0.34756,0.26363 0.38985,0.28751 0.64446,0.36332 1.36285,0.47624 2.08413,0.59398 1.15809,0.19178 2.3543,0.64382 3.00275,1.68673 0.28432,0.45715 0.75987,0.97948 0.32681,1.50636 -0.46937,0.57078 -1.57681,0.35345 -2.21748,0.22824 -0.17478,-0.0379 -0.47312,-0.10837 -0.6473,-0.0924 l -0.0269,0.0301 c 0.0539,0.0743 0.18121,0.13489 0.26564,0.18338 0.66307,0.4217 1.24693,1.02139 1.84686,1.52343 0.42654,0.35703 1.00287,0.70802 1.52473,0.91983 0.84419,0.34306 1.93001,0.27164 2.82135,0.18697 1.01095,-0.096 2.02229,-0.54854 2.99377,-0.006 0.23565,0.12786 0.36109,0.15076 0.42472,0.42697 0.0727,0.31556 0.0151,0.47338 -0.16227,0.73995 -0.4533,0.68152 -1.30443,0.98928 -2.0304,1.28745 0.54597,0.062 1.27613,0.10569 1.82215,0.10378 1.45228,-0.005 2.78928,-0.84678 3.73447,-1.90922 0.4123,-0.36066 0.7906,-0.51869 0.80291,0.19949 0.009,0.50324 -0.26156,0.86954 -0.4466,1.31319 -0.042,0.10086 -0.033,0.0865 -0.10903,0.17556 l -0.0216,0.0251 c 0.0401,0.0972 0.31914,-0.0194 0.45158,0.004 0.11,0.0206 0.37872,0.0788 0.4675,0.0748 0.89791,-0.0401 1.82383,-0.35271 2.66311,-0.66295 1.04798,-0.4492 1.96203,-1.13161 3.07851,-1.42833 0.66271,-0.17587 1.30204,-0.30665 1.9768,-0.42124 0.28105,-0.0509 1.06413,-0.14669 1.29838,-0.2485 0.0695,-0.0564 0.35556,-0.0582 0.40333,-0.10305 0.0606,-0.0682 0.15324,-0.22126 0.24491,-0.25407 0.23281,-0.083 1.01438,-0.14568 1.00571,-0.49596 -0.005,-0.2234 -0.31673,-0.27891 -0.48947,-0.45309 0.0288,-0.083 0.0302,-0.0344 0.0167,-0.11911 0.0298,-0.11062 1.83152,-1.32492 2.168,-1.85664 0.0285,-0.0509 0.0128,-0.0853 -0.008,-0.1325 -0.32472,-0.20361 -2.01292,0.47284 -1.22525,-1.00889 0.22604,-0.44847 0.5119,-0.89354 0.89741,-1.22357 0.34353,-0.29407 0.67598,-0.54711 0.95196,-0.91597 0.2801,-0.37465 0.60408,-0.76215 0.78019,-1.2017 0.25595,-0.63833 0.35614,-1.31453 0.42972,-1.9929 -0.34595,0.2217 -0.89843,0.46442 -1.30951,0.37685 -0.4234,-0.0901 -0.39395,-0.49863 -0.5493,-0.80139 -0.0266,-0.0516 -0.0662,-0.0607 -0.11394,-0.0649 -0.1708,0.0978 -0.14757,0.4034 -0.28025,0.66418 -0.24752,0.48562 -0.24495,0.80264 -0.78292,1.11697 -0.0733,0.0427 -0.12224,0.0521 -0.20355,0.0268 -0.55317,-0.47646 0.2555,-2.20954 0.42727,-2.78467 0.0833,-0.27912 0.0969,-0.69337 0.0606,-0.98336 -0.0741,-0.58887 -0.2562,-1.19081 -0.48298,-1.71961 -0.81154,-1.89215 -1.58618,-1.29666 -3.23437,-1.8801 -0.17224,-0.061 -0.41706,-0.1408 -0.56108,-0.26547 -0.0256,-0.0292 -0.0697,-0.11665 -0.0582,-0.15144 0.0799,-0.23937 0.41681,-0.40772 0.6296,-0.53394 0.22048,-0.1308 0.45527,-0.28265 0.67962,-0.40418 0.51216,-0.27741 0.91814,-0.65633 1.34635,-1.04253 0.19783,-0.17845 0.36765,-0.39849 0.59755,-0.5379 0.34715,-0.2197 0.68683,-0.13616 1.03689,-0.29243 0.0579,-0.0259 0.23326,-0.16756 0.29213,-0.21438 -0.30469,-0.10273 -0.62653,-0.19457 -0.78914,-0.49417 -0.3071,-0.5651 -0.24117,-1.53953 0.0333,-2.10373 0.0639,-0.13127 0.27426,-0.41489 0.36327,-0.54318 0.13614,-0.1999 0.25765,-0.40943 0.36357,-0.62685 0.21109,-0.43635 0.58908,-1.52775 0.70923,-2.00468 -0.57103,0.31527 -1.1698,0.55946 -1.82791,0.24501 -0.38623,-0.18454 -1.11598,-1.06248 -1.14685,-1.4862 -0.10304,-1.41215 0.1218,-2.85914 -0.9614,-3.98959 -0.0589,0.3051 -0.0908,0.62365 -0.22749,0.90222 -0.30903,0.63054 -0.82142,0.79849 -1.46772,0.8746 -0.66342,0.0781 -1.03728,-0.0222 -1.56922,-0.4413 -0.20386,-0.16055 -0.3653,-0.36841 -0.58266,-0.51143 -0.17321,-0.11176 -0.40332,-0.16537 -0.5787,-0.25406 -0.45692,-0.23081 -0.55559,-0.90482 -0.71601,-1.35463 -0.20965,-0.58807 -0.51583,-1.08049 -1.09145,-1.36135 0.0611,0.34854 0.15347,0.74442 0.12742,1.09126 -0.0562,0.98254 -1.04655,1.55343 -1.95965,1.42994 -0.74376,-0.10065 -1.68603,-0.40325 -2.39312,-0.67218 -1.00575,-0.3825 -1.85537,-1.38768 -2.54175,-2.19976 z m 4.43352,7.75281 c 1.21829,-0.0463 2.62235,0.0791 3.78057,0.46279 0.94712,0.32725 1.57391,0.92637 1.97462,1.83779 0.27453,0.62485 0.25231,0.80576 0.0893,1.45774 -0.2217,0.88758 -0.72929,1.43501 -1.55772,1.82818 -1.19247,0.47586 -2.48213,0.68405 -3.76097,0.65438 -0.49189,-0.0114 -0.94954,-0.0522 -1.447,-0.0512 0.0507,-2.04268 0.18841,-4.09793 -0.12448,-6.12308 0.34763,-0.0351 0.69646,-0.0573 1.04574,-0.0666 z m 0.60603,12.34728 c 0.93928,-0.0286 2.35859,0.17998 3.10141,0.36216 2.00015,0.49069 3.31544,2.16296 2.64671,4.23525 -0.29649,0.91939 -0.90271,1.42768 -1.73017,1.85542 -1.2359,0.67308 -2.76736,0.72924 -4.14969,0.75746 -0.43569,0.009 -0.87328,-0.052 -1.30583,-0.10394 -0.0927,-0.83977 -0.0395,-1.54542 -0.035,-2.38398 0.0222,-1.51719 0.0303,-3.03437 0.0248,-4.5518 0.37948,-0.0728 0.69536,-0.11192 1.07797,-0.14304 0.11122,-0.0145 0.2356,-0.0235 0.36979,-0.0275 z"
       sodipodi:nodetypes="cssssccsccccccscccccccccscccccccccccccccccccccccccccccccccccccccccccccccccccccscccccccccccccccscccscccccccccccccccccccccccccsccccccccccccc" />
    <path
       id="path8"
       style="display:block;fill:#ff05da;fill-opacity:1;fill-rule:nonzero;stroke:none;stroke-width:0.0241244"
       d="m 406.1518,516.81151 c -0.90732,-0.0198 -1.99199,0.79036 -1.90394,1.7674 0.0642,0.59371 0.1559,1.09376 0.0157,1.68891 -0.28968,1.23083 -1.51295,2.11333 -1.19463,3.48117 0.0505,0.21712 0.11342,0.60192 0.40447,0.57683 0.15473,-0.0135 0.42826,-0.16673 0.52649,-0.30015 0.26846,-0.45522 0.45441,-1.06237 0.66333,-1.55065 0.34378,1.72249 0.0257,2.42138 -0.62997,3.95979 -0.28681,0.8545 -0.33044,1.91864 0.51811,2.46843 0.35077,0.22724 0.84018,0.35264 1.23148,0.26556 0.94471,-0.21013 0.0181,-0.75538 -0.24558,-1.06996 0.38864,-0.004 0.71244,0.0509 1.07166,0.2061 0.2357,0.102 0.78935,0.21179 0.93483,0.38693 -0.10305,0.26586 -0.29816,0.35337 -0.21251,0.64336 0.19154,0.64821 1.18807,0.37037 1.60446,0.11778 0.60311,-0.36548 1.00963,-1.16936 1.60936,-1.5662 0.48152,-0.32906 1.08776,-0.42727 1.63972,-0.58408 0.0984,-0.028 0.4393,-0.13099 0.49286,-0.0163 -0.11123,0.234 -0.65717,0.53051 -0.77755,0.83304 -0.0622,0.15608 -0.30854,0.68613 -0.006,0.74259 0.42965,0.0803 0.84586,-0.09 1.2,-0.31701 1.39898,-0.74642 1.35821,-2.09811 2.2776,-3.16634 l 0.20674,0.12806 c 0.0637,0.23232 0.0652,0.30107 0.24286,0.46487 0.2837,0.2837 0.58406,0.10356 0.83351,-0.12854 0.6767,-0.62965 0.72617,-1.20865 0.75898,-2.05783 0.0237,-0.1117 0.0153,-0.23863 0.0138,-0.35443 -0.0526,-0.0606 -0.11916,-0.117 -0.17922,-0.17103 -0.35947,-0.0173 -0.63886,0.0526 -1.00024,0.0642 -0.37441,-0.10567 -0.23666,-1.50002 -0.25716,-1.83534 -0.048,-0.78743 -0.0237,-1.22476 -0.71696,-1.71642 -0.26777,-0.18986 -1.21343,-0.64101 -1.1348,-0.99589 0.18239,-0.29069 0.63179,-0.15775 0.88847,-0.0815 -9.1e-4,-0.002 0.4333,0.25446 0.49578,0.29693 -0.0577,-0.19976 -0.13846,-0.38841 -0.2697,-0.551 -0.55318,-0.71939 -1.51266,-1.01779 -2.37777,-1.17099 -0.70444,-0.12471 -1.03928,0.16904 -1.64263,0.35311 -0.31338,0.0956 -1.07737,0.18701 -1.42476,0.2355 -0.90442,0.12642 -1.80478,-0.1042 -2.6928,-0.21589 -0.3568,-0.0451 -0.81416,-0.004 -1.18784,-0.0526 0.35776,-0.17973 0.51796,-0.29315 0.92832,-0.34622 0.15246,-0.0198 0.59224,-0.0316 0.66992,-0.0798 9.2e-4,-0.0422 0.0126,-0.0487 -0.0224,-0.0743 -0.3855,-0.28358 -0.89982,-0.27344 -1.35144,-0.27791 z m 1.79869,2.24527 c 0.93928,-0.0286 2.35859,0.17998 3.10141,0.36216 2.00015,0.49069 3.31544,2.16296 2.64671,4.23525 -0.29649,0.91939 -0.90271,1.42768 -1.73017,1.85542 -1.2359,0.67308 -2.76736,0.72924 -4.14969,0.75746 -0.43569,0.009 -0.87328,-0.052 -1.30583,-0.10394 -0.0927,-0.83977 -0.0395,-1.54542 -0.035,-2.38398 0.0222,-1.51719 0.0303,-3.03437 0.0248,-4.5518 0.37948,-0.0728 0.69536,-0.11192 1.07797,-0.14304 0.11122,-0.0145 0.2356,-0.0235 0.36979,-0.0275 z" />
    <path
       id="path16"
       style="display:block;fill:#ff05da;fill-opacity:1;fill-rule:nonzero;stroke:none;stroke-width:0.0241244"
       d="m 408.38087,503.55503 c -0.31482,-0.003 -0.64576,0.0177 -0.94104,0.13448 -0.11966,0.0474 -0.30258,0.13551 -0.35348,0.26527 -0.0288,0.0731 -0.0145,0.14105 0.0207,0.20845 0.22122,0.42144 1.21996,0.66897 1.54829,0.99947 l -0.0148,0.0297 c -0.34016,0.11247 -0.97949,0.0639 -1.36163,-0.0104 -0.71383,-0.13872 -3.28264,-1.01189 -3.70687,-0.18318 -0.11111,0.20995 -0.0836,0.4663 -0.0127,0.67952 0.10681,0.3151 0.3855,0.52703 0.56966,0.7931 0.83519,1.20624 0.47836,2.8629 -0.53828,3.84653 -0.82154,0.79485 -0.68773,1.82856 -0.29072,2.79155 0.0471,0.11399 0.16551,0.41166 0.31824,0.35197 0.21691,-0.27581 0.18551,-1.35378 0.64543,-1.57326 0.20432,0.10045 0.17177,0.91338 0.13871,1.10642 -0.20964,1.22528 0.14732,2.02467 1.30989,2.51602 0.27718,0.11717 1.01354,0.72464 1.29942,0.35272 0.0675,-0.25061 -0.41861,-0.72151 -0.5607,-0.94934 -0.0274,-0.0834 -0.15954,-0.32285 -0.12335,-0.37 0.0418,-0.0543 0.2061,0.0222 0.366,0.038 0.59274,0.097 1.11099,0.30301 1.70662,0.34848 0.77681,0.0593 1.38403,-0.11116 2.13021,-0.27367 0.61976,-0.13503 1.67998,-0.0808 2.21097,-0.45826 0.96871,-0.69681 1.67058,-1.70339 1.9895,-2.85328 0.0921,-0.33516 0.14166,-0.72446 0.22514,-1.07618 0.17538,0.22612 0.75002,0.76212 1.03999,0.45723 0.48489,-0.50989 0.28614,-1.54669 -0.16594,-2.02749 -0.14645,-0.1743 -0.35882,-0.30155 -0.51587,-0.46034 -0.40143,-0.40649 -0.89854,-0.84881 -1.13761,-1.3735 -0.0876,-0.19197 -0.16675,-0.81412 -0.014,-0.97467 0.49648,-0.1472 1.23153,1.42557 1.53501,1.58646 0.22991,-0.1018 0.0267,-0.70893 -0.0493,-0.88922 -0.42604,-1.00958 -1.18798,-1.69714 -2.19758,-2.10221 -0.22388,-0.0897 -1.25801,-0.37255 -1.30819,-0.0234 0.11797,0.21483 0.50895,0.56033 0.43706,0.82899 -0.0125,0.0471 -0.0517,0.0839 -0.0955,0.10403 -0.29674,0.13634 -0.83088,-0.0847 -1.11049,-0.20363 -1.23734,-0.52622 -1.39923,-1.62409 -2.99265,-1.63651 z m -1.03641,3.15447 c 1.21829,-0.0463 2.62235,0.0791 3.78057,0.46279 0.94712,0.32725 1.57391,0.92637 1.97462,1.83779 0.27453,0.62485 0.25231,0.80576 0.0893,1.45774 -0.2217,0.88758 -0.72929,1.43501 -1.55772,1.82818 -1.19247,0.47586 -2.48213,0.68405 -3.76097,0.65438 -0.49189,-0.0114 -0.94955,-0.0522 -1.447,-0.0512 0.0507,-2.04268 0.18841,-4.09793 -0.12448,-6.12308 0.34763,-0.0351 0.69646,-0.0573 1.04574,-0.0666 z"
       sodipodi:nodetypes="sscccccccccsccccccsccccccccccccccccccscccccsccc" />
    <path
       id="path38"
       style="display:block;fill:#fff941;fill-opacity:1;stroke-width:0.0241244"
       d="m 420.57069,511.76753 c -0.36054,0.12379 -0.73372,0.23103 -1.11921,0.21365 -0.15718,0.0502 0.21164,0.0428 0.25868,0.0445 0.17689,0.0741 -0.0896,0.3373 -0.12771,0.46939 -0.2663,0.57934 -0.72915,1.06935 -1.30956,1.33961 -0.19726,0.0812 -0.3728,0.20267 -0.53065,0.34392 -0.48167,0.28089 -1.09332,0.27441 -1.53752,0.63067 -0.15964,0.13034 -0.30052,0.38969 -0.13928,0.57208 0.12389,0.15245 0.32633,0.2862 0.53027,0.2374 -0.19357,0.005 -0.48821,-0.17231 -0.46051,-0.33798 0.0682,0.0436 0.26661,0.089 0.11163,-0.0147 -0.20066,-0.0536 -0.17504,-0.24426 -0.003,-0.31717 0.41153,-0.26725 0.88411,-0.42498 1.36295,-0.5205 0.32071,-0.0685 0.62798,-0.18629 0.9172,-0.33948 0.39693,-0.12848 0.72795,-0.3969 1.04172,-0.66287 0.49586,-0.43498 0.83397,-1.02439 1.00454,-1.65844 z" />
    <path
       fill="#EA2000"
       d="m 420.19824,504.30217 c 0.015,0.009 0.0367,0.02 0.0451,0.0335 0.32328,0.53595 0.50952,1.2505 0.5585,1.86537 0.0613,0.76527 -0.33727,1.90917 -0.84991,2.4807 -0.003,-0.0576 0.0285,-0.10947 0.0523,-0.16801 0.30373,-0.69184 0.42097,-1.43092 0.40408,-2.1897 -0.005,-0.22771 0.0117,-0.38078 -0.27574,-0.33552 -0.15608,0.0245 -0.16886,0.12875 -0.26536,0.22425 l -0.0383,-0.0109 c 0.0901,-0.13151 0.20338,-0.27878 0.22123,-0.43733 0.0553,-0.49064 0.12014,-0.9692 0.14812,-1.4625"
       id="path39"
       style="display:block;fill:#fff941;fill-opacity:1;stroke-width:0.0241244" />
    <path
       fill="#CB1A00"
       d="m 386.08167,518.77647 c 0.0558,0.006 0.42575,0.12641 0.50859,0.15005 a 4.5836462,4.5836462 0 0 0 1.10179,0.18166 c 0.4769,0.0219 0.95592,-0.0251 1.43021,-0.0825 1.28423,-0.15584 2.12101,-0.0726 3.31014,0.47549 1.48489,0.68418 2.41716,1.71067 2.9778,3.25873 0.0113,0.0304 0.0152,0.0606 0.0215,0.0929 l -0.0277,0.0124 c -0.17142,-0.0717 -0.57502,-0.36066 -0.76665,-0.47476 -1.11235,-0.66295 -2.3343,-1.21709 -3.62575,-1.40935 -1.04625,-0.15585 -2.12708,-0.1549 -3.09655,-0.6615 -0.54311,-0.2837 -1.62123,-0.95315 -1.83339,-1.543"
       id="path42"
       style="display:block;fill:#fd3f00;fill-opacity:1;stroke-width:0.0241244" />
    <path
       fill="#EB3800"
       d="m 389.75245,519.78608 c 0.11438,-0.0313 0.42891,-0.0304 0.56068,-0.0281 0.94708,0.0177 1.88737,0.34209 2.67892,0.85377 0.28074,0.18165 0.61687,0.50951 0.84465,0.74762 -0.32044,-0.16189 -0.67059,-0.3211 -0.99632,-0.47647 -1.22216,-0.57971 -2.17988,-0.53942 -3.46808,-0.72372 -0.40211,-0.0575 -0.48242,-0.20796 -0.82346,-0.32713 l 0.009,-0.0147 c 0.0718,0.0248 0.14043,0.0461 0.21307,0.0683 0.088,-0.0752 0.82505,-0.0996 0.98107,-0.0996"
       id="path43"
       style="display:block;fill:#fff941;fill-opacity:1;stroke-width:0.0241244" />
    <path
       fill="#CB1A00"
       d="m 391.46821,505.33192 c 0.82848,-0.0865 1.50835,0.13579 2.27735,0.39867 1.27134,0.43463 2.24511,1.41744 2.79662,2.64458 a 13.432495,13.432495 0 0 0 -2.707,-0.94773 c -0.42393,-0.0752 -0.75681,-0.16284 -1.20154,-0.18837 -0.80682,-0.0463 -1.65225,0.0143 -2.44699,-0.11322 -0.73959,-0.11869 -1.88741,-0.39716 -2.34671,-1.03042 1.59062,0.15027 2.23257,-0.56436 3.62827,-0.76351"
       id="path44"
       style="display:block;fill:#fd3f00;fill-opacity:1;stroke-width:0.0241244" />
    <path
       id="path45"
       style="display:block;fill:#fff941;fill-opacity:1;stroke-width:0.0241244"
       d="m 392.36176,505.94402 c -0.80138,-0.004 -1.55078,0.3194 -2.28919,0.59158 -0.0637,0.0143 -0.23304,0.0812 -0.0707,0.10179 0.40616,0.059 0.81894,0.0188 1.22721,0.006 0.47789,-0.0384 0.95929,-0.009 1.43012,0.0802 0.56317,0.0996 1.11804,0.2519 1.68746,0.31192 -0.0343,-0.10715 -0.14765,-0.23079 -0.19699,-0.35337 -0.28271,-0.33584 -0.69563,-0.53623 -1.11361,-0.64887 -0.2198,-0.0583 -0.44695,-0.088 -0.67429,-0.0895 z" />
    <path
       fill="#CB1A00"
       d="m 390.38104,512.23286 c 0.61245,-0.0547 1.52703,0.14333 2.10676,0.33427 1.08006,0.35574 2.08219,1.24776 2.57551,2.27638 -0.72113,-0.46922 -2.11883,-0.95525 -2.97174,-0.93236 -0.38108,0.0104 -0.80474,0.0969 -1.19911,0.12716 -0.28296,0.0323 -1.00152,0.0647 -1.2677,0.022 -1.35394,-0.21725 -2.78417,-0.59405 -3.88111,-1.45372 -0.0614,-0.048 -0.11638,-0.10538 -0.12272,-0.18521 0.0866,-0.0964 1.0324,0.16829 1.20107,0.20451 1.26517,0.2716 2.33536,-0.27553 3.55904,-0.39301"
       id="path47"
       style="display:block;fill:#fd3f00;fill-opacity:1;stroke-width:0.0241244" />
    <path
       id="path48"
       style="display:block;fill:#fff941;fill-opacity:1;stroke-width:0.0241244"
       d="m 390.52236,512.92202 c -0.64011,0.005 -1.25915,0.19079 -1.87595,0.34156 -0.11769,0.0299 -0.23538,0.0606 -0.3548,0.0829 0.88146,0.13809 1.77954,0.22606 2.67009,0.12485 0.37477,-0.0293 0.74173,-0.13262 1.11942,-0.12297 0.12786,-0.005 0.3427,0.0221 0.41332,0.008 -0.31329,-0.18138 -0.66509,-0.27843 -1.0205,-0.33423 -0.31367,-0.0593 -0.63181,-0.1017 -0.95158,-0.0998 z" />
    <path
       fill="#CB1A00"
       d="m 390.95622,500.7006 c 1.94824,-0.22168 2.34755,1.55672 4.03502,1.97178 0.19652,0.0484 0.46809,0.11891 0.64632,0.20777 0.0487,0.065 0.0391,0.0296 0.0315,0.10911 -0.14941,0.17063 -0.4495,0.21285 -0.66479,0.25078 -0.97839,0.17227 -1.80942,-0.23907 -2.71442,-0.5249 -1.16334,-0.34424 -2.16377,-0.32939 -3.34583,-0.44192 -0.60983,-0.0581 -1.6193,-0.38705 -2.00257,-0.9071 0.4622,0.008 0.72186,0.0741 1.22056,0.0246 0.95071,-0.0941 1.88597,-0.58533 2.79419,-0.69019"
       id="path50"
       style="display:block;fill:#fd3f00;fill-opacity:1;stroke-width:0.0241244" />
    <path
       id="path51"
       style="display:block;fill:#fff941;fill-opacity:1;stroke-width:0.0241244"
       d="m 391.23564,501.42765 c -0.43195,-0.004 -0.86645,0.0496 -1.27549,0.19307 -0.28623,0.0934 -0.5666,0.20433 -0.85566,0.28905 0.61386,0.0259 1.23063,-0.009 1.84197,0.0675 0.67923,0.0707 1.33298,0.28118 1.96947,0.52004 0.23418,0.0844 0.46926,0.16685 0.70888,0.23457 -0.26875,-0.17894 -0.48481,-0.4244 -0.75163,-0.60659 -0.45555,-0.35215 -0.97977,-0.66886 -1.57053,-0.69458 l -0.0334,-0.002 z" />
  </g>
</svg>
