<?xml version="1.0" encoding="UTF-8" standalone="no"?>
<!-- Created with Inkscape (http://www.inkscape.org/) -->

<svg
   width="1024"
   version="1.1"
   height="1024"
   id="svg1"
   sodipodi:docname="sonic-monitor-red-shoes.svg"
   inkscape:version="1.4.4 (dcaf3e7d9e, 2026-05-05)"
   xml:space="preserve"
   inkscape:export-filename="sonic-monitor-red-shoes.png"
   inkscape:export-xdpi="96"
   inkscape:export-ydpi="96"
   xmlns:inkscape="http://www.inkscape.org/namespaces/inkscape"
   xmlns:sodipodi="http://sodipodi.sourceforge.net/DTD/sodipodi-0.dtd"
   xmlns="http://www.w3.org/2000/svg"
   xmlns:svg="http://www.w3.org/2000/svg"><sodipodi:namedview
     id="namedview1"
     pagecolor="#505050"
     bordercolor="#ffffff"
     borderopacity="1"
     inkscape:showpageshadow="0"
     inkscape:pageopacity="0"
     inkscape:pagecheckerboard="1"
     inkscape:deskcolor="#505050"
     inkscape:zoom="0.35355339"
     inkscape:cx="-132.93608"
     inkscape:cy="517.60216"
     inkscape:window-width="1920"
     inkscape:window-height="966"
     inkscape:window-x="1920"
     inkscape:window-y="36"
     inkscape:window-maximized="1"
     inkscape:current-layer="g13" /><defs
     id="defs5455"><linearGradient
       id="Gradient1"
       gradientUnits="userSpaceOnUse"
       x1="401.59698"
       y1="1323.2"
       x2="888.91602"
       y2="1208.34"
       gradientTransform="matrix(0.32607391,0,0,0.32607391,558.2493,591.33901)"><stop
         class="stop0"
         offset="0"
         stop-opacity="1"
         stop-color="rgb(250,178,12)"
         id="stop1" /><stop
         class="stop1"
         offset="1"
         stop-opacity="1"
         stop-color="rgb(255,210,25)"
         id="stop2" /></linearGradient></defs><metadata
     id="metadata5458" /><g
     inkscape:label="Capa 1"
     inkscape:groupmode="layer"
     id="layer1"
     transform="translate(-384.57143,-483.798)"><path
       id="rect6"
       style="fill:#c6cdd1;stroke:#0a0808;stroke-width:0"
       d="m 496.70318,1429.1604 h 799.73162 v 62.4044 H 496.70318 Z m 192.51055,-48.9272 h 414.70987 l -0.6816,49.8549 H 689.21292 Z m -97.4149,-62.1592 h 609.54037 v 63.088 H 591.79883 Z M 406.70992,500.03118 H 1386.4276 V 1320.857 H 406.70992 Z"
       sodipodi:nodetypes="cccccccccccccccccccc" /><ellipse
       style="fill:#000000;fill-opacity:1;stroke:#0a0808;stroke-width:0"
       id="path11"
       cx="783.09619"
       cy="1286.8893"
       rx="8.5283566"
       ry="8.85637"
       inkscape:label="knob" /><ellipse
       style="fill:#000000;fill-opacity:1;stroke:#0a0808;stroke-width:0"
       id="path11-6"
       cx="1010.0419"
       cy="1287.2581"
       rx="8.5283566"
       ry="8.85637"
       inkscape:label="knob" /><rect
       style="fill:#000000;fill-opacity:1;stroke:#0a0808;stroke-width:0"
       id="rect11"
       width="137.10973"
       height="7.8723292"
       x="828.0141"
       y="1283.2808"
       inkscape:label="grill" /><ellipse
       style="display:inline;fill:#ff0000;fill-opacity:1;stroke:#0a0808;stroke-width:0"
       id="path12"
       cx="1325.1034"
       cy="1288.3625"
       rx="14.171535"
       ry="14.386255" /><ellipse
       style="display:inline;fill:#00ff00;fill-opacity:1;stroke:#0a0808;stroke-width:0"
       id="path12-2"
       cx="1241.5585"
       cy="1288.215"
       rx="14.171535"
       ry="14.386255" /><rect
       style="fill:#000000;fill-opacity:1;stroke:#0a0808;stroke-width:0"
       id="rect12"
       width="914.94971"
       height="723.70087"
       x="439.09421"
       y="536.67987" /><rect
       style="fill:#f2ff2a;fill-opacity:1;stroke:#0a0808;stroke-width:0"
       id="rect12-7"
       width="800.52722"
       height="625.94006"
       x="496.30542"
       y="587.09015" /><rect
       style="fill:#4d4d4d;fill-opacity:1;stroke:#0a0808;stroke-width:0"
       id="rect13"
       width="414.84277"
       height="5.5665774"
       x="688.94861"
       y="1423.5939" /><rect
       style="fill:#4d4d4d;fill-opacity:1;stroke:#0a0808;stroke-width:0"
       id="rect13-2"
       width="609.46576"
       height="5.5665774"
       x="591.85352"
       y="1375.54" /><rect
       style="fill:#4d4d4d;fill-opacity:1;stroke:#0a0808;stroke-width:0"
       id="rect13-2-3"
       width="979.65411"
       height="5.5665774"
       x="406.77884"
       y="1315.1914" /><rect
       style="fill:#000000;fill-opacity:1;stroke:#0a0808;stroke-width:0"
       id="rect14"
       width="767.73169"
       height="591.73785"
       x="512.70282"
       y="604.38354" /><g
       id="g13"
       inkscape:label="shoes"><path
         style="fill:#ff0000;stroke-width:1.48876"
         d="m 701.56758,942.11608 c -54.74154,0.44664 -106.17807,15.4832 -128.85181,36.17695 -7.01204,14.29195 -13.2946,28.73277 -18.74343,43.02487 -11.92494,31.1151 -1.39945,57.3172 23.83498,80.6905 25.23441,23.3736 65.59457,41.2386 107.68169,47.789 42.1318,6.5508 85.75234,1.7866 117.90946,-16.5251 32.15713,-18.4605 54.19073,-49.2778 55.97723,-101.5331 0.44662,-14.1432 -0.89326,-28.584 -3.57302,-43.02486 -34.98576,-29.62649 -89.62309,-44.81172 -143.2183,-46.44939 -3.72188,-0.1482 -7.29492,-0.1482 -11.0168,-0.1482 z"
         id="path13" /><path
         style="fill:#f9f9f9;stroke-width:1.48876"
         d="m 705.7361,881.67272 c -25.15997,0.1482 -48.60787,2.8287 -66.93446,7.89037 -18.31171,5.0619 -31.02568,12.80338 -35.87902,19.20496 l -0.52105,0.7444 -0.59552,0.59552 c -7.07158,7.29484 -12.68419,17.56728 -16.83782,28.28635 34.49448,-16.82311 80.72033,-24.26685 128.36053,-22.77805 51.51094,1.48879 104.65953,13.99441 145.00481,41.68525 -0.74437,-16.37648 -1.48875,-31.41282 -7.44378,-44.21597 -40.34528,-20.99151 -96.17363,-31.41283 -145.15369,-31.41283 z"
         id="path10" /><path
         style="fill:#ff0000;stroke-width:1.48876"
         d="m 811.58665,846.24017 c -22.77797,5.6574 -46.74695,9.82579 -71.60916,9.97489 26.79759,2.23297 54.1907,7.14597 79.7973,15.18523 -2.82863,-8.33701 -5.50838,-16.82289 -8.18814,-25.16012 z"
         id="path9" /><path
         style="fill:#ff0000;stroke-width:1.48876"
         d="m 665.24194,843.56056 c -4.97245,5.21055 -9.84066,10.42132 -14.61959,15.92962 16.85274,-2.97735 35.61105,-4.46615 55.11375,-4.61503 h 8.63478 c -16.07855,-1.63767 -32.45487,-5.21077 -49.12894,-11.31459 z"
         id="path8" /><path
         style="fill:#ff0000;stroke-width:1.48876"
         d="m 1101.2986,837.15899 c -26.2022,10.42131 -50.1711,24.71326 -69.0784,44.8115 -20.247,21.43792 -35.28343,49.57561 -41.53624,89.32522 49.42674,14.14329 97.81124,25.309 138.00764,32.75269 26.4999,4.9128 58.9548,9.528 82.4771,6.9971 11.6123,-1.1911 20.6937,-4.1684 25.7555,-8.0392 5.0618,-3.72199 7.2949,-7.44374 7.146,-16.8229 -0.8932,-30.96618 -16.0785,-58.35927 -42.2806,-83.66827 -25.3089,-24.56438 -60.7412,-46.30007 -100.491,-65.35614 z"
         id="path7" /><path
         style="fill:#ff0000;stroke-width:1.48876"
         d="m 830.34496,813.48765 c 1.33987,8.78365 5.80616,18.16281 6.99715,25.60654 4.61514,14.7388 9.97467,29.77516 15.33419,44.81172 6.84828,3.27511 12.05891,5.95494 18.31171,9.37893 5.955,10.27266 10.12353,22.33143 12.20778,32.45498 5.06176,-32.30587 17.86507,-59.69895 36.47452,-82.17926 4.9129,-5.95516 10.27242,-11.61234 15.92969,-16.82289 -6.25277,1.04193 -12.8033,1.78655 -19.65158,2.23296 -27.69087,1.63767 -58.65698,-2.23296 -85.60346,-15.48298 z"
         id="path6" /><path
         style="fill:#f9f9f9;stroke-width:1.48876"
         d="m 1043.9814,797.1114 c -2.5308,0 -4.6151,0.14821 -6.2527,0.44663 -40.04762,14.88747 -74.28899,35.28346 -97.36469,63.12318 -21.14034,25.45766 -33.49702,57.31713 -32.60374,99.29991 18.1628,0.89328 38.26101,5.21078 55.67944,13.69666 6.40168,-47.6402 24.26675,-83.51917 49.27789,-110.01898 22.3313,-23.82021 49.8733,-39.74983 78.904,-51.36218 -5.2106,-2.82848 -10.5701,-5.65718 -16.3763,-7.89037 -11.3145,-4.61525 -23.2246,-6.99709 -31.2639,-7.29485 z"
         id="path5" /><path
         style="fill:#f9f9f9;stroke-width:1.48876"
         d="m 671.34583,762.72122 c 0.74439,7.29485 1.19101,15.03634 1.33989,22.77783 16.82294,7.74149 38.11216,12.6545 58.80586,18.1628 -19.20495,0.59553 -35.58128,3.42422 -59.69912,-0.29775 -0.44663,4.31749 -1.04212,8.78364 -1.93538,13.10114 47.34244,18.46056 91.40961,14.73858 134.58352,3.87063 -3.72189,-19.20495 -2.23312,-37.07 0.14888,-53.74401 -17.71618,8.03924 -39.30315,12.50561 -62.82549,12.50561 -26.79761,0 -51.2132,-5.80628 -70.1204,-16.2276 -0.14888,0 -0.14888,-0.1482 -0.29776,-0.1482 z"
         id="path4" /><path
         style="fill:#f9f9f9;stroke-width:1.48876"
         d="m 841.21287,733.83934 c -1.48874,3.27512 -3.42413,6.55046 -5.80615,9.52804 -1.48875,13.69644 -3.72189,26.49981 -5.06176,38.85633 23.67122,15.78096 55.38172,21.58703 84.11469,19.94936 16.07857,-1.04215 30.96614,-4.31727 42.13181,-8.63477 5.80615,-2.38206 10.42129,-5.06167 13.69653,-7.59261 -32.15712,4.91278 -63.86761,-6.9971 -83.96582,-16.0785 -0.14887,0 -0.29774,-0.14821 -0.29774,-0.14821 0.14889,0 0.14889,0.14821 0.29774,0.14821 4.61514,1.04193 56.57272,-5.50853 80.83944,-11.46347 -0.29774,-5.06189 -0.29774,-9.97468 0,-14.88768 -19.94932,6.4018 -44.21605,8.337 -70.12039,5.35964 -20.69371,-2.23318 -39.74978,-7.59261 -55.82835,-15.03634 z"
         id="path3" /><path
         style="fill:#b3b3b3;stroke-width:1.48876"
         d="m 741.76399,679.94622 c -22.77796,0 -43.32279,5.35965 -57.16824,12.95225 -13.69653,7.59262 -19.35381,16.07851 -19.35381,23.22448 0,7.1462 5.65728,15.63208 19.35381,23.22469 2.53091,1.33992 5.21067,2.67983 8.0393,3.87064 -7.44378,-4.61503 -11.46342,-10.27222 -11.46342,-15.92962 0,-15.03634 27.09534,-27.24421 60.59236,-27.24421 33.497,0 60.59235,12.20787 60.59235,27.24421 0,5.6574 -3.87077,11.31459 -11.31454,15.92962 2.82863,-1.19081 5.50841,-2.53072 7.89041,-3.87064 13.69654,-7.59261 19.35382,-16.07849 19.35382,-23.22469 0,-7.14597 -5.65728,-15.63186 -19.35382,-23.22448 -13.84543,-7.5926 -34.39025,-12.95225 -57.16822,-12.95225 z"
         id="path2" /><path
         style="fill:#b3b3b3;stroke-width:1.48876"
         d="m 890.19294,649.45654 c -17.56732,-0.14821 -33.19926,2.51589 -45.1093,6.96745 -14.73868,5.53818 -21.88472,12.95204 -23.22458,19.20496 7.74151,5.80606 14.14318,12.65427 18.31169,20.69375 -0.44662,-1.63767 -0.5955,-3.27534 -0.44662,-4.91301 2.08426,-14.88769 30.51947,-23.26938 63.71873,-18.75832 33.05038,4.61525 58.21035,20.2471 56.27497,35.13457 -0.59549,4.91302 -4.16851,9.37916 -10.42129,12.80339 5.21065,-1.19104 9.97467,-2.53095 14.14317,-4.16862 15.78084,-5.95494 22.77798,-13.9942 23.52235,-20.54487 0.7444,-6.55045 -4.1685,-15.92962 -18.31168,-25.30878 -13.9943,-9.31943 -35.58127,-17.16533 -60.29462,-19.99404 -6.10391,-0.71453 -12.2078,-1.0718 -18.16282,-1.11648 z"
         id="path1" /></g></g></svg>
