<?xml version="1.0" encoding="UTF-8" standalone="no"?>
<!-- Created with Inkscape (http://www.inkscape.org/) -->

<svg
   width="1024"
   version="1.1"
   height="1024"
   id="svg1"
   sodipodi:docname="sonic-monitor-fire.svg"
   inkscape:version="1.4.4 (dcaf3e7d9e, 2026-05-05)"
   xml:space="preserve"
   inkscape:export-filename="kwin-sonic-logo.png"
   inkscape:export-xdpi="192"
   inkscape:export-ydpi="192"
   xmlns:inkscape="http://www.inkscape.org/namespaces/inkscape"
   xmlns:sodipodi="http://sodipodi.sourceforge.net/DTD/sodipodi-0.dtd"
   xmlns:xlink="http://www.w3.org/1999/xlink"
   xmlns="http://www.w3.org/2000/svg"
   xmlns:svg="http://www.w3.org/2000/svg"><sodipodi:namedview
     id="namedview1"
     pagecolor="#505050"
     bordercolor="#ffffff"
     borderopacity="1"
     inkscape:showpageshadow="0"
     inkscape:pageopacity="0"
     inkscape:pagecheckerboard="1"
     inkscape:deskcolor="#505050"
     inkscape:zoom="1"
     inkscape:cx="670"
     inkscape:cy="487"
     inkscape:window-width="1920"
     inkscape:window-height="966"
     inkscape:window-x="1920"
     inkscape:window-y="36"
     inkscape:window-maximized="1"
     inkscape:current-layer="layer1" /><defs
     id="defs5455"><linearGradient
       id="linearGradient14"
       inkscape:collect="always"><stop
         style="stop-color:#ffffff;stop-opacity:1;"
         offset="0"
         id="stop17" /><stop
         style="stop-color:#ff6600;stop-opacity:1;"
         offset="0.65247965"
         id="stop15" /><stop
         style="stop-color:#ff0000;stop-opacity:0.82279336;"
         offset="1"
         id="stop16" /></linearGradient><linearGradient
       id="Gradient1"
       gradientUnits="userSpaceOnUse"
       x1="401.59698"
       y1="1323.2"
       x2="888.91602"
       y2="1208.34"
       gradientTransform="matrix(0.32607391,0,0,0.32607391,558.2493,591.33901)"><stop
         class="stop0"
         offset="0"
         stop-opacity="1"
         stop-color="rgb(250,178,12)"
         id="stop1" /><stop
         class="stop1"
         offset="1"
         stop-opacity="1"
         stop-color="rgb(255,210,25)"
         id="stop2" /></linearGradient><radialGradient
       inkscape:collect="always"
       xlink:href="#linearGradient14"
       id="radialGradient16"
       cx="905.9201"
       cy="1178.1257"
       fx="905.9201"
       fy="1178.1257"
       r="281.99533"
       gradientTransform="matrix(1.1396036,-0.25106793,0.3715615,1.6865269,-564.21588,-579.9095)"
       gradientUnits="userSpaceOnUse" /></defs><metadata
     id="metadata5458" /><g
     inkscape:label="Capa 1"
     inkscape:groupmode="layer"
     id="layer1"
     transform="translate(-384.57143,-483.798)"><path
       id="rect6"
       style="fill:#c6cdd1;stroke:#0a0808;stroke-width:0"
       d="m 496.70318,1429.1604 h 799.73162 v 62.4044 H 496.70318 Z m 192.51055,-48.9272 h 414.70987 l -0.6816,49.8549 H 689.21292 Z m -97.4149,-62.1592 h 609.54037 v 63.088 H 591.79883 Z M 406.70992,500.03118 H 1386.4276 V 1320.857 H 406.70992 Z"
       sodipodi:nodetypes="cccccccccccccccccccc" /><ellipse
       style="fill:#000000;fill-opacity:1;stroke:#0a0808;stroke-width:0"
       id="path11"
       cx="783.09619"
       cy="1286.8893"
       rx="8.5283566"
       ry="8.85637"
       inkscape:label="knob" /><ellipse
       style="fill:#000000;fill-opacity:1;stroke:#0a0808;stroke-width:0"
       id="path11-6"
       cx="1010.0419"
       cy="1287.2581"
       rx="8.5283566"
       ry="8.85637"
       inkscape:label="knob" /><rect
       style="fill:#000000;fill-opacity:1;stroke:#0a0808;stroke-width:0"
       id="rect11"
       width="137.10973"
       height="7.8723292"
       x="828.0141"
       y="1283.2808"
       inkscape:label="grill" /><ellipse
       style="display:inline;fill:#ff0000;fill-opacity:1;stroke:#0a0808;stroke-width:0"
       id="path12"
       cx="1325.1034"
       cy="1288.3625"
       rx="14.171535"
       ry="14.386255" /><ellipse
       style="display:inline;fill:#00ff00;fill-opacity:1;stroke:#0a0808;stroke-width:0"
       id="path12-2"
       cx="1241.5585"
       cy="1288.215"
       rx="14.171535"
       ry="14.386255" /><rect
       style="fill:#000000;fill-opacity:1;stroke:#0a0808;stroke-width:0"
       id="rect12"
       width="914.94971"
       height="723.70087"
       x="439.09421"
       y="536.67987" /><rect
       style="fill:#f2ff2a;fill-opacity:1;stroke:#0a0808;stroke-width:0"
       id="rect12-7"
       width="800.52722"
       height="625.94006"
       x="496.30542"
       y="587.09015" /><rect
       style="fill:#4d4d4d;fill-opacity:1;stroke:#0a0808;stroke-width:0"
       id="rect13"
       width="414.84277"
       height="5.5665774"
       x="688.94861"
       y="1423.5939" /><rect
       style="fill:#4d4d4d;fill-opacity:1;stroke:#0a0808;stroke-width:0"
       id="rect13-2"
       width="609.46576"
       height="5.5665774"
       x="591.85352"
       y="1375.54" /><rect
       style="fill:#4d4d4d;fill-opacity:1;stroke:#0a0808;stroke-width:0"
       id="rect13-2-3"
       width="979.65411"
       height="5.5665774"
       x="406.77884"
       y="1315.1914" /><rect
       style="fill:#000000;fill-opacity:1;stroke:#0a0808;stroke-width:0"
       id="rect14"
       width="767.73169"
       height="591.73785"
       x="512.70282"
       y="604.38354" /><path
       d="m 815.13934,1196.0845 c 54.43063,-0.077 117.83346,-0.308 165.25561,-0.4236 123.20535,-92.5146 8.645,-218.35765 -94.70968,-200.1435 91.26328,68.9864 11.86046,182.0257 -70.54593,200.5671 z M 1034.1517,722.26703 c 0.019,0.86643 0,1.73285 0,2.61853 94.8636,223.30589 -163.92715,227.21438 -143.2485,13.80499 C 840.82401,859.39278 731.25039,736.11054 781.48368,629.04 v 0 c -220.89921,128.17273 62.45933,273.13477 -12.24544,399.4207 -42.14667,71.2391 -136.8755,-34.04083 -130.0789,-152.33635 -71.82165,215.83575 61.57812,319.99335 61.57812,319.99335 0,0 30.74398,-0.014 70.59944,0.01 -4.08181,-1.0397 -8.06735,-2.4067 -11.97588,-4.1203 -25.7039,-11.2828 -40.81815,-73.3186 35.08046,-105.9538 -15.15277,93.15 165.69848,16.1347 28.07207,-197.15928 v 0 c 102.39186,32.28869 167.027,72.10562 213.29405,143.13298 32.6159,-29.0925 56.0286,-78.44008 63.1525,-126.99819 52.2357,93.74689 28.2261,237.88099 -95.3064,290.57869 27.3212,-0.058 45.6316,-0.039 47.5762,0.096 185.9342,-41.7808 167.3928,-294.25623 -17.0589,-473.43237 z"
       id="path1"
       style="fill:url(#radialGradient16);stroke-width:19.2538"
       sodipodi:nodetypes="cccccccssccccccsscccccc" /></g></svg>
