<?xml version="1.0" encoding="UTF-8" standalone="no"?>
<!-- Created with Inkscape (http://www.inkscape.org/) -->

<svg
   width="1024"
   version="1.1"
   height="1024"
   id="svg1"
   sodipodi:docname="sonic-monitor-info.svg"
   inkscape:version="1.4.4 (dcaf3e7d9e, 2026-05-05)"
   xml:space="preserve"
   inkscape:export-filename="kwin-sonic-logo.png"
   inkscape:export-xdpi="192"
   inkscape:export-ydpi="192"
   xmlns:inkscape="http://www.inkscape.org/namespaces/inkscape"
   xmlns:sodipodi="http://sodipodi.sourceforge.net/DTD/sodipodi-0.dtd"
   xmlns:xlink="http://www.w3.org/1999/xlink"
   xmlns="http://www.w3.org/2000/svg"
   xmlns:svg="http://www.w3.org/2000/svg"><sodipodi:namedview
     id="namedview1"
     pagecolor="#505050"
     bordercolor="#ffffff"
     borderopacity="1"
     inkscape:showpageshadow="0"
     inkscape:pageopacity="0"
     inkscape:pagecheckerboard="1"
     inkscape:deskcolor="#505050"
     inkscape:zoom="0.5"
     inkscape:cx="506"
     inkscape:cy="332"
     inkscape:window-width="1920"
     inkscape:window-height="966"
     inkscape:window-x="1920"
     inkscape:window-y="36"
     inkscape:window-maximized="1"
     inkscape:current-layer="layer1" /><defs
     id="defs5455"><linearGradient
       id="linearGradient15"
       inkscape:collect="always"><stop
         style="stop-color:#9021ff;stop-opacity:1;"
         offset="0.23533694"
         id="stop15" /><stop
         style="stop-color:#0034ed;stop-opacity:1;"
         offset="0.66617131"
         id="stop17" /><stop
         style="stop-color:#000080;stop-opacity:0.44384766;"
         offset="1"
         id="stop16" /></linearGradient><linearGradient
       id="Gradient1"
       gradientUnits="userSpaceOnUse"
       x1="401.59698"
       y1="1323.2"
       x2="888.91602"
       y2="1208.34"
       gradientTransform="matrix(0.02012419,0,0,0.02012419,395.68898,491.16578)"><stop
         class="stop0"
         offset="0"
         stop-opacity="1"
         stop-color="rgb(250,178,12)"
         id="stop1" /><stop
         class="stop1"
         offset="1"
         stop-opacity="1"
         stop-color="rgb(255,210,25)"
         id="stop2" /></linearGradient><radialGradient
       inkscape:collect="always"
       xlink:href="#linearGradient15"
       id="radialGradient16"
       cx="416.57144"
       cy="510.1105"
       fx="416.57144"
       fy="510.1105"
       r="16.187502"
       gradientUnits="userSpaceOnUse"
       gradientTransform="matrix(16.113674,0,0,16.113674,-5815.9275,-7317.3152)" /></defs><metadata
     id="metadata5458" /><g
     inkscape:label="Capa 1"
     inkscape:groupmode="layer"
     id="layer1"
     transform="translate(-384.57143,-483.798)"><path
       id="rect6"
       style="fill:#c6cdd1;stroke:#0a0808;stroke-width:0"
       d="m 496.70318,1429.1604 h 799.73162 v 62.4044 H 496.70318 Z m 192.51055,-48.9272 h 414.70987 l -0.6816,49.8549 H 689.21292 Z m -97.4149,-62.1592 h 609.54037 v 63.088 H 591.79883 Z M 406.70992,500.03118 H 1386.4276 V 1320.857 H 406.70992 Z"
       sodipodi:nodetypes="cccccccccccccccccccc" /><ellipse
       style="fill:#000000;fill-opacity:1;stroke:#0a0808;stroke-width:0"
       id="path11"
       cx="783.09619"
       cy="1286.8893"
       rx="8.5283566"
       ry="8.85637"
       inkscape:label="knob" /><ellipse
       style="fill:#000000;fill-opacity:1;stroke:#0a0808;stroke-width:0"
       id="path11-6"
       cx="1010.0419"
       cy="1287.2581"
       rx="8.5283566"
       ry="8.85637"
       inkscape:label="knob" /><rect
       style="fill:#000000;fill-opacity:1;stroke:#0a0808;stroke-width:0"
       id="rect11"
       width="137.10973"
       height="7.8723292"
       x="828.0141"
       y="1283.2808"
       inkscape:label="grill" /><ellipse
       style="display:inline;fill:#ff0000;fill-opacity:1;stroke:#0a0808;stroke-width:0"
       id="path12"
       cx="1325.1034"
       cy="1288.3625"
       rx="14.171535"
       ry="14.386255" /><ellipse
       style="display:inline;fill:#00ff00;fill-opacity:1;stroke:#0a0808;stroke-width:0"
       id="path12-2"
       cx="1241.5585"
       cy="1288.215"
       rx="14.171535"
       ry="14.386255" /><rect
       style="fill:#000000;fill-opacity:1;stroke:#0a0808;stroke-width:0"
       id="rect12"
       width="914.94971"
       height="723.70087"
       x="439.09421"
       y="536.67987" /><rect
       style="fill:#f2ff2a;fill-opacity:1;stroke:#0a0808;stroke-width:0"
       id="rect12-7"
       width="800.52722"
       height="625.94006"
       x="496.30542"
       y="587.09015" /><rect
       style="fill:#4d4d4d;fill-opacity:1;stroke:#0a0808;stroke-width:0"
       id="rect13"
       width="414.84277"
       height="5.5665774"
       x="688.94861"
       y="1423.5939" /><rect
       style="fill:#4d4d4d;fill-opacity:1;stroke:#0a0808;stroke-width:0"
       id="rect13-2"
       width="609.46576"
       height="5.5665774"
       x="591.85352"
       y="1375.54" /><rect
       style="fill:#4d4d4d;fill-opacity:1;stroke:#0a0808;stroke-width:0"
       id="rect13-2-3"
       width="979.65411"
       height="5.5665774"
       x="406.77884"
       y="1315.1914" /><rect
       style="fill:#000000;fill-opacity:1;stroke:#0a0808;stroke-width:0"
       id="rect14"
       width="767.73169"
       height="591.73785"
       x="512.70282"
       y="604.38354" /><ellipse
       style="fill:#c6cdd1;fill-opacity:1;stroke:#0a0808;stroke-width:0"
       id="path17"
       cx="893.57141"
       cy="901.79797"
       rx="131"
       ry="156" /><path
       d="m 896.43913,1163.2793 a 260.84013,260.84013 0 1 0 0,-521.68015 260.84013,260.84013 0 0 0 0,521.68015 z m 30.32255,-306.87842 -32.60506,153.40672 c -2.28234,11.0856 0.94588,17.3783 9.91201,17.3783 6.32542,0 15.87857,-2.2821 22.36707,-8.0207 l -2.8692,13.5637 c -9.35786,11.2812 -29.99658,19.4977 -47.76657,19.4977 -22.92122,0 -32.67,-13.7591 -26.3449,-43.0059 l 24.06255,-113.07416 c 2.08673,-9.55331 0.19498,-13.00937 -9.35753,-15.32442 l -14.70502,-2.64103 2.67375,-12.42236 74.66545,-9.35785 z m -30.32255,-35.47426 a 32.605016,32.605016 0 1 1 0,-65.20994 32.605016,32.605016 0 0 1 0,65.20994 z"
       id="path1"
       style="fill:url(#radialGradient16);stroke-width:32.6051" /></g></svg>
