<?xml version="1.0" encoding="UTF-8" standalone="no"?>
<!-- Created with Inkscape (http://www.inkscape.org/) -->

<svg
   width="1024"
   version="1.1"
   height="1024"
   id="svg1"
   sodipodi:docname="sonic-monitor-droplet.svg"
   inkscape:version="1.4.4 (dcaf3e7d9e, 2026-05-05)"
   xml:space="preserve"
   inkscape:export-filename="kwin-sonic-logo.png"
   inkscape:export-xdpi="192"
   inkscape:export-ydpi="192"
   xmlns:inkscape="http://www.inkscape.org/namespaces/inkscape"
   xmlns:sodipodi="http://sodipodi.sourceforge.net/DTD/sodipodi-0.dtd"
   xmlns:xlink="http://www.w3.org/1999/xlink"
   xmlns="http://www.w3.org/2000/svg"
   xmlns:svg="http://www.w3.org/2000/svg"><sodipodi:namedview
     id="namedview1"
     pagecolor="#505050"
     bordercolor="#ffffff"
     borderopacity="1"
     inkscape:showpageshadow="0"
     inkscape:pageopacity="0"
     inkscape:pagecheckerboard="1"
     inkscape:deskcolor="#505050"
     inkscape:zoom="0.5"
     inkscape:cx="594"
     inkscape:cy="420"
     inkscape:window-width="1920"
     inkscape:window-height="966"
     inkscape:window-x="1920"
     inkscape:window-y="36"
     inkscape:window-maximized="1"
     inkscape:current-layer="layer1" /><defs
     id="defs5455"><linearGradient
       id="linearGradient8"
       inkscape:collect="always"><stop
         style="stop-color:#003f8a;stop-opacity:1;"
         offset="0.29537743"
         id="stop9" /><stop
         style="stop-color:#6d6fe7;stop-opacity:1;"
         offset="0.80475491"
         id="stop11" /></linearGradient><linearGradient
       id="Gradient1"
       gradientUnits="userSpaceOnUse"
       x1="401.59698"
       y1="1323.2"
       x2="888.91602"
       y2="1208.34"
       gradientTransform="matrix(0.32607391,0,0,0.32607391,558.2493,591.33901)"><stop
         class="stop0"
         offset="0"
         stop-opacity="1"
         stop-color="rgb(250,178,12)"
         id="stop1" /><stop
         class="stop1"
         offset="1"
         stop-opacity="1"
         stop-color="rgb(255,210,25)"
         id="stop2" /></linearGradient><radialGradient
       inkscape:collect="always"
       xlink:href="#linearGradient8"
       id="radialGradient10"
       cx="179.23854"
       cy="219.95439"
       fx="179.23854"
       fy="219.95439"
       r="126.57096"
       gradientTransform="matrix(1.4826999,-0.00918244,0.01061408,1.7138667,-87.816619,-139.38942)"
       gradientUnits="userSpaceOnUse" /></defs><metadata
     id="metadata5458" /><g
     inkscape:label="Capa 1"
     inkscape:groupmode="layer"
     id="layer1"
     transform="translate(-384.57143,-483.798)"><path
       id="rect6"
       style="fill:#c6cdd1;stroke:#0a0808;stroke-width:0"
       d="m 496.70318,1429.1604 h 799.73162 v 62.4044 H 496.70318 Z m 192.51055,-48.9272 h 414.70987 l -0.6816,49.8549 H 689.21292 Z m -97.4149,-62.1592 h 609.54037 v 63.088 H 591.79883 Z M 406.70992,500.03118 H 1386.4276 V 1320.857 H 406.70992 Z"
       sodipodi:nodetypes="cccccccccccccccccccc" /><ellipse
       style="fill:#000000;fill-opacity:1;stroke:#0a0808;stroke-width:0"
       id="path11"
       cx="783.09619"
       cy="1286.8893"
       rx="8.5283566"
       ry="8.85637"
       inkscape:label="knob" /><ellipse
       style="fill:#000000;fill-opacity:1;stroke:#0a0808;stroke-width:0"
       id="path11-6"
       cx="1010.0419"
       cy="1287.2581"
       rx="8.5283566"
       ry="8.85637"
       inkscape:label="knob" /><rect
       style="fill:#000000;fill-opacity:1;stroke:#0a0808;stroke-width:0"
       id="rect11"
       width="137.10973"
       height="7.8723292"
       x="828.0141"
       y="1283.2808"
       inkscape:label="grill" /><ellipse
       style="display:inline;fill:#ff0000;fill-opacity:1;stroke:#0a0808;stroke-width:0"
       id="path12"
       cx="1325.1034"
       cy="1288.3625"
       rx="14.171535"
       ry="14.386255" /><ellipse
       style="display:inline;fill:#00ff00;fill-opacity:1;stroke:#0a0808;stroke-width:0"
       id="path12-2"
       cx="1241.5585"
       cy="1288.215"
       rx="14.171535"
       ry="14.386255" /><rect
       style="fill:#000000;fill-opacity:1;stroke:#0a0808;stroke-width:0"
       id="rect12"
       width="914.94971"
       height="723.70087"
       x="439.09421"
       y="536.67987" /><rect
       style="fill:#f2ff2a;fill-opacity:1;stroke:#0a0808;stroke-width:0"
       id="rect12-7"
       width="800.52722"
       height="625.94006"
       x="496.30542"
       y="587.09015" /><rect
       style="fill:#4d4d4d;fill-opacity:1;stroke:#0a0808;stroke-width:0"
       id="rect13"
       width="414.84277"
       height="5.5665774"
       x="688.94861"
       y="1423.5939" /><rect
       style="fill:#4d4d4d;fill-opacity:1;stroke:#0a0808;stroke-width:0"
       id="rect13-2"
       width="609.46576"
       height="5.5665774"
       x="591.85352"
       y="1375.54" /><rect
       style="fill:#4d4d4d;fill-opacity:1;stroke:#0a0808;stroke-width:0"
       id="rect13-2-3"
       width="979.65411"
       height="5.5665774"
       x="406.77884"
       y="1315.1914" /><rect
       style="fill:#000000;fill-opacity:1;stroke:#0a0808;stroke-width:0"
       id="rect14"
       width="767.73169"
       height="591.73785"
       x="512.70282"
       y="604.38354" /><ellipse
       style="fill:#f9f9f9;stroke:#0a0808;stroke-width:0;fill-opacity:1"
       id="path2"
       cx="831.57141"
       cy="1013.798"
       rx="113"
       ry="130" /><path
       d="M 270.265,149.448 C 234.158,102.324 199.885,70.5 196.826,8.076 c 0,-1.836 -0.612,-3.06 -1.836,-4.284 -0.612,-3.06 -3.672,-4.896 -6.732,-3.06 -53.35538,57.600272 -234.006004,293.78735 -50.183,361.691 74.052,27.541 157.896,-9.791 172.584,-90.576 7.955,-43.451 -14.69,-89.35 -40.394,-122.399 z M 138.686,323.256 c -17.748,-10.404 -28.764,-31.211 -34.272,-49.572 -2.448,-9.18 -3.90489,-18.34156 -3.06,-27.539 1.48177,-16.13051 8.568,-31.213 14.076,-46.512 3.06,13.463 -2.23433,30.69008 1.33554,45.81495 18.79826,79.64478 59.25752,39.09715 83.91244,61.22511 6.732,16.523 -11.76335,23.90407 -27.23998,25.63094 -11.96741,1.63552 -24.961,-2.927 -34.752,-9.048 z"
       id="path1"
       style="fill:url(#radialGradient10);stroke-width:0.999913;stroke-dasharray:none"
       transform="matrix(1.4731287,0,0,1.4731287,596.45854,624.66561)"
       sodipodi:nodetypes="cccccccccacsccc" /></g></svg>
